<svg width="323" height="100" viewBox="0 0 323 100" fill="none" xmlns="http://www.w3.org/2000/svg">
<path d="M2 1H322V31H2" stroke="black"/>
<path d="M84 35H240.209V65H84" stroke="black"/>
<path d="M2 35H80.1043V65H2" stroke="black"/>
<path d="M2 69H18.6825V99H2" stroke="black"/>
<rect x="22.9739" y="69.5" width="15.6825" height="29" fill="white" stroke="black"/>
<rect x="43.4479" y="69.5" width="15.6825" height="29" fill="white" stroke="black"/>
<rect x="63.9218" y="69.5" width="15.6825" height="29" fill="white" stroke="black"/>
<path d="M84 69H100.177V99H84" stroke="black"/>
<rect x="104.364" y="69.5" width="15.1769" height="29" fill="white" stroke="black"/>
<rect x="124.333" y="69.5" width="15.1769" height="29" fill="white" stroke="black"/>
<rect x="144.301" y="69.5" width="15.1769" height="29" fill="white" stroke="black"/>
<rect x="164.269" y="69.5" width="15.1769" height="29" fill="white" stroke="black"/>
<rect x="184.238" y="69.5" width="15.1769" height="29" fill="white" stroke="black"/>
<rect x="204.206" y="69.5" width="15.1769" height="29" fill="white" stroke="black"/>
<rect x="224.175" y="69.5" width="15.1769" height="29" fill="white" stroke="black"/>
<rect x="244.396" y="69.5" width="15.6825" height="29" fill="white" stroke="black"/>
<rect x="264.87" y="69.5" width="15.6825" height="29" fill="white" stroke="black"/>
<rect x="285.344" y="69.5" width="15.6825" height="29" fill="white" stroke="black"/>
<rect x="305.818" y="69.5" width="15.6825" height="29" fill="white" stroke="black"/>
<rect x="244.396" y="35.5" width="77.1043" height="29" fill="white" stroke="black"/>
<path d="M137.291 11.4688L140.08 18.4297L142.869 11.4688H144.328V20H143.203V16.6777L143.309 13.0918L140.508 20H139.646L136.852 13.1094L136.963 16.6777V20H135.838V11.4688H137.291ZM151.137 16.0566H147.439V19.0801H151.734V20H146.314V11.4688H151.676V12.3945H147.439V15.1367H151.137V16.0566ZM155.648 16.1973C154.684 15.9199 153.98 15.5801 153.539 15.1777C153.102 14.7715 152.883 14.2715 152.883 13.6777C152.883 13.0059 153.15 12.4512 153.686 12.0137C154.225 11.5723 154.924 11.3516 155.783 11.3516C156.369 11.3516 156.891 11.4648 157.348 11.6914C157.809 11.918 158.164 12.2305 158.414 12.6289C158.668 13.0273 158.795 13.4629 158.795 13.9355H157.664C157.664 13.4199 157.5 13.0156 157.172 12.7227C156.844 12.4258 156.381 12.2773 155.783 12.2773C155.229 12.2773 154.795 12.4004 154.482 12.6465C154.174 12.8887 154.02 13.2266 154.02 13.6602C154.02 14.0078 154.166 14.3027 154.459 14.5449C154.756 14.7832 155.258 15.002 155.965 15.2012C156.676 15.4004 157.23 15.6211 157.629 15.8633C158.031 16.1016 158.328 16.3809 158.52 16.7012C158.715 17.0215 158.812 17.3984 158.812 17.832C158.812 18.5234 158.543 19.0781 158.004 19.4961C157.465 19.9102 156.744 20.1172 155.842 20.1172C155.256 20.1172 154.709 20.0059 154.201 19.7832C153.693 19.5566 153.301 19.248 153.023 18.8574C152.75 18.4668 152.613 18.0234 152.613 17.5273H153.744C153.744 18.043 153.934 18.4512 154.312 18.752C154.695 19.0488 155.205 19.1973 155.842 19.1973C156.436 19.1973 156.891 19.0762 157.207 18.834C157.523 18.5918 157.682 18.2617 157.682 17.8438C157.682 17.4258 157.535 17.1035 157.242 16.877C156.949 16.6465 156.418 16.4199 155.648 16.1973ZM162.773 16.1973C161.809 15.9199 161.105 15.5801 160.664 15.1777C160.227 14.7715 160.008 14.2715 160.008 13.6777C160.008 13.0059 160.275 12.4512 160.811 12.0137C161.35 11.5723 162.049 11.3516 162.908 11.3516C163.494 11.3516 164.016 11.4648 164.473 11.6914C164.934 11.918 165.289 12.2305 165.539 12.6289C165.793 13.0273 165.92 13.4629 165.92 13.9355H164.789C164.789 13.4199 164.625 13.0156 164.297 12.7227C163.969 12.4258 163.506 12.2773 162.908 12.2773C162.354 12.2773 161.92 12.4004 161.607 12.6465C161.299 12.8887 161.145 13.2266 161.145 13.6602C161.145 14.0078 161.291 14.3027 161.584 14.5449C161.881 14.7832 162.383 15.002 163.09 15.2012C163.801 15.4004 164.355 15.6211 164.754 15.8633C165.156 16.1016 165.453 16.3809 165.645 16.7012C165.84 17.0215 165.938 17.3984 165.938 17.832C165.938 18.5234 165.668 19.0781 165.129 19.4961C164.59 19.9102 163.869 20.1172 162.967 20.1172C162.381 20.1172 161.834 20.0059 161.326 19.7832C160.818 19.5566 160.426 19.248 160.148 18.8574C159.875 18.4668 159.738 18.0234 159.738 17.5273H160.869C160.869 18.043 161.059 18.4512 161.438 18.752C161.82 19.0488 162.33 19.1973 162.967 19.1973C163.561 19.1973 164.016 19.0762 164.332 18.834C164.648 18.5918 164.807 18.2617 164.807 17.8438C164.807 17.4258 164.66 17.1035 164.367 16.877C164.074 16.6465 163.543 16.4199 162.773 16.1973ZM172.096 17.7734H168.521L167.719 20H166.559L169.816 11.4688H170.801L174.064 20H172.91L172.096 17.7734ZM168.861 16.8477H171.762L170.309 12.8574L168.861 16.8477ZM181.441 18.8809C181.152 19.2949 180.748 19.6055 180.229 19.8125C179.713 20.0156 179.111 20.1172 178.424 20.1172C177.729 20.1172 177.111 19.9551 176.572 19.6309C176.033 19.3027 175.615 18.8379 175.318 18.2363C175.025 17.6348 174.875 16.9375 174.867 16.1445V15.4004C174.867 14.1152 175.166 13.1191 175.764 12.4121C176.365 11.7051 177.209 11.3516 178.295 11.3516C179.186 11.3516 179.902 11.5801 180.445 12.0371C180.988 12.4902 181.32 13.1348 181.441 13.9707H180.316C180.105 12.8418 179.434 12.2773 178.301 12.2773C177.547 12.2773 176.975 12.543 176.584 13.0742C176.197 13.6016 176.002 14.3672 175.998 15.3711V16.0684C175.998 17.0254 176.217 17.7871 176.654 18.3535C177.092 18.916 177.684 19.1973 178.43 19.1973C178.852 19.1973 179.221 19.1504 179.537 19.0566C179.854 18.9629 180.115 18.8047 180.322 18.582V16.666H178.348V15.752H181.441V18.8809ZM188.145 16.0566H184.447V19.0801H188.742V20H183.322V11.4688H188.684V12.3945H184.447V15.1367H188.145V16.0566Z" fill="black"/>
<path d="M129.645 45.4688L132.434 52.4297L135.223 45.4688H136.682V54H135.557V50.6777L135.662 47.0918L132.861 54H132L129.205 47.1094L129.316 50.6777V54H128.191V45.4688H129.645ZM142.412 54C142.35 53.875 142.299 53.6523 142.26 53.332C141.756 53.8555 141.154 54.1172 140.455 54.1172C139.83 54.1172 139.316 53.9414 138.914 53.5898C138.516 53.2344 138.316 52.7852 138.316 52.2422C138.316 51.582 138.566 51.0703 139.066 50.707C139.57 50.3398 140.277 50.1562 141.188 50.1562H142.242V49.6582C142.242 49.2793 142.129 48.9785 141.902 48.7559C141.676 48.5293 141.342 48.416 140.9 48.416C140.514 48.416 140.189 48.5137 139.928 48.709C139.666 48.9043 139.535 49.1406 139.535 49.418H138.445C138.445 49.1016 138.557 48.7969 138.779 48.5039C139.006 48.207 139.311 47.9727 139.693 47.8008C140.08 47.6289 140.504 47.543 140.965 47.543C141.695 47.543 142.268 47.7266 142.682 48.0938C143.096 48.457 143.311 48.959 143.326 49.5996V52.5176C143.326 53.0996 143.4 53.5625 143.549 53.9062V54H142.412ZM140.613 53.1738C140.953 53.1738 141.275 53.0859 141.58 52.9102C141.885 52.7344 142.105 52.5059 142.242 52.2246V50.9238H141.393C140.064 50.9238 139.4 51.3125 139.4 52.0898C139.4 52.4297 139.514 52.6953 139.74 52.8867C139.967 53.0781 140.258 53.1738 140.613 53.1738ZM146.203 54H145.119V47.6602H146.203V54ZM145.031 45.9785C145.031 45.8027 145.084 45.6543 145.189 45.5332C145.299 45.4121 145.459 45.3516 145.67 45.3516C145.881 45.3516 146.041 45.4121 146.15 45.5332C146.26 45.6543 146.314 45.8027 146.314 45.9785C146.314 46.1543 146.26 46.3008 146.15 46.418C146.041 46.5352 145.881 46.5938 145.67 46.5938C145.459 46.5938 145.299 46.5352 145.189 46.418C145.084 46.3008 145.031 46.1543 145.031 45.9785ZM148.969 47.6602L149.004 48.457C149.488 47.8477 150.121 47.543 150.902 47.543C152.242 47.543 152.918 48.2988 152.93 49.8105V54H151.846V49.8047C151.842 49.3477 151.736 49.0098 151.529 48.791C151.326 48.5723 151.008 48.4629 150.574 48.4629C150.223 48.4629 149.914 48.5566 149.648 48.7441C149.383 48.9316 149.176 49.1777 149.027 49.4824V54H147.943V47.6602H148.969ZM160.225 50.1973C159.26 49.9199 158.557 49.5801 158.115 49.1777C157.678 48.7715 157.459 48.2715 157.459 47.6777C157.459 47.0059 157.727 46.4512 158.262 46.0137C158.801 45.5723 159.5 45.3516 160.359 45.3516C160.945 45.3516 161.467 45.4648 161.924 45.6914C162.385 45.918 162.74 46.2305 162.99 46.6289C163.244 47.0273 163.371 47.4629 163.371 47.9355H162.24C162.24 47.4199 162.076 47.0156 161.748 46.7227C161.42 46.4258 160.957 46.2773 160.359 46.2773C159.805 46.2773 159.371 46.4004 159.059 46.6465C158.75 46.8887 158.596 47.2266 158.596 47.6602C158.596 48.0078 158.742 48.3027 159.035 48.5449C159.332 48.7832 159.834 49.002 160.541 49.2012C161.252 49.4004 161.807 49.6211 162.205 49.8633C162.607 50.1016 162.904 50.3809 163.096 50.7012C163.291 51.0215 163.389 51.3984 163.389 51.832C163.389 52.5234 163.119 53.0781 162.58 53.4961C162.041 53.9102 161.32 54.1172 160.418 54.1172C159.832 54.1172 159.285 54.0059 158.777 53.7832C158.27 53.5566 157.877 53.248 157.6 52.8574C157.326 52.4668 157.189 52.0234 157.189 51.5273H158.32C158.32 52.043 158.51 52.4512 158.889 52.752C159.271 53.0488 159.781 53.1973 160.418 53.1973C161.012 53.1973 161.467 53.0762 161.783 52.834C162.1 52.5918 162.258 52.2617 162.258 51.8438C162.258 51.4258 162.111 51.1035 161.818 50.877C161.525 50.6465 160.994 50.4199 160.225 50.1973ZM167.297 54.1172C166.438 54.1172 165.738 53.8359 165.199 53.2734C164.66 52.707 164.391 51.9512 164.391 51.0059V50.8066C164.391 50.1777 164.51 49.6172 164.748 49.125C164.99 48.6289 165.326 48.2422 165.756 47.9648C166.189 47.6836 166.658 47.543 167.162 47.543C167.986 47.543 168.627 47.8145 169.084 48.3574C169.541 48.9004 169.77 49.6777 169.77 50.6895V51.1406H165.475C165.49 51.7656 165.672 52.2715 166.02 52.6582C166.371 53.041 166.816 53.2324 167.355 53.2324C167.738 53.2324 168.062 53.1543 168.328 52.998C168.594 52.8418 168.826 52.6348 169.025 52.377L169.688 52.8926C169.156 53.709 168.359 54.1172 167.297 54.1172ZM167.162 48.4336C166.725 48.4336 166.357 48.5938 166.061 48.9141C165.764 49.2305 165.58 49.6758 165.51 50.25H168.686V50.168C168.654 49.6172 168.506 49.1914 168.24 48.8906C167.975 48.5859 167.615 48.4336 167.162 48.4336ZM173.572 53.2324C173.959 53.2324 174.297 53.1152 174.586 52.8809C174.875 52.6465 175.035 52.3535 175.066 52.002H176.092C176.072 52.3652 175.947 52.7109 175.717 53.0391C175.486 53.3672 175.178 53.6289 174.791 53.8242C174.408 54.0195 174.002 54.1172 173.572 54.1172C172.709 54.1172 172.021 53.8301 171.51 53.2559C171.002 52.6777 170.748 51.8887 170.748 50.8887V50.707C170.748 50.0898 170.861 49.541 171.088 49.0605C171.314 48.5801 171.639 48.207 172.061 47.9414C172.486 47.6758 172.988 47.543 173.566 47.543C174.277 47.543 174.867 47.7559 175.336 48.1816C175.809 48.6074 176.061 49.1602 176.092 49.8398H175.066C175.035 49.4297 174.879 49.0938 174.598 48.832C174.32 48.5664 173.977 48.4336 173.566 48.4336C173.016 48.4336 172.588 48.6328 172.283 49.0312C171.982 49.4258 171.832 49.998 171.832 50.748V50.9531C171.832 51.6836 171.982 52.2461 172.283 52.6406C172.584 53.0352 173.014 53.2324 173.572 53.2324ZM178.781 46.125V47.6602H179.965V48.498H178.781V52.4297C178.781 52.6836 178.834 52.875 178.939 53.0039C179.045 53.1289 179.225 53.1914 179.479 53.1914C179.604 53.1914 179.775 53.168 179.994 53.1211V54C179.709 54.0781 179.432 54.1172 179.162 54.1172C178.678 54.1172 178.312 53.9707 178.066 53.6777C177.82 53.3848 177.697 52.9688 177.697 52.4297V48.498H176.543V47.6602H177.697V46.125H178.781ZM182.414 54H181.33V47.6602H182.414V54ZM181.242 45.9785C181.242 45.8027 181.295 45.6543 181.4 45.5332C181.51 45.4121 181.67 45.3516 181.881 45.3516C182.092 45.3516 182.252 45.4121 182.361 45.5332C182.471 45.6543 182.525 45.8027 182.525 45.9785C182.525 46.1543 182.471 46.3008 182.361 46.418C182.252 46.5352 182.092 46.5938 181.881 46.5938C181.67 46.5938 181.51 46.5352 181.4 46.418C181.295 46.3008 181.242 46.1543 181.242 45.9785ZM183.867 50.7715C183.867 50.1504 183.988 49.5918 184.23 49.0957C184.477 48.5996 184.816 48.2168 185.25 47.9473C185.688 47.6777 186.186 47.543 186.744 47.543C187.607 47.543 188.305 47.8418 188.836 48.4395C189.371 49.0371 189.639 49.832 189.639 50.8242V50.9004C189.639 51.5176 189.52 52.0723 189.281 52.5645C189.047 53.0527 188.709 53.4336 188.268 53.707C187.83 53.9805 187.326 54.1172 186.756 54.1172C185.896 54.1172 185.199 53.8184 184.664 53.2207C184.133 52.623 183.867 51.832 183.867 50.8477V50.7715ZM184.957 50.9004C184.957 51.6035 185.119 52.168 185.443 52.5938C185.771 53.0195 186.209 53.2324 186.756 53.2324C187.307 53.2324 187.744 53.0176 188.068 52.5879C188.393 52.1543 188.555 51.5488 188.555 50.7715C188.555 50.0762 188.389 49.5137 188.057 49.084C187.729 48.6504 187.291 48.4336 186.744 48.4336C186.209 48.4336 185.777 48.6465 185.449 49.0723C185.121 49.498 184.957 50.1074 184.957 50.9004ZM192.023 47.6602L192.059 48.457C192.543 47.8477 193.176 47.543 193.957 47.543C195.297 47.543 195.973 48.2988 195.984 49.8105V54H194.9V49.8047C194.896 49.3477 194.791 49.0098 194.584 48.791C194.381 48.5723 194.062 48.4629 193.629 48.4629C193.277 48.4629 192.969 48.5566 192.703 48.7441C192.438 48.9316 192.23 49.1777 192.082 49.4824V54H190.998V47.6602H192.023Z" fill="black"/>
<path d="M260.416 50.1973C259.451 49.9199 258.748 49.5801 258.307 49.1777C257.869 48.7715 257.65 48.2715 257.65 47.6777C257.65 47.0059 257.918 46.4512 258.453 46.0137C258.992 45.5723 259.691 45.3516 260.551 45.3516C261.137 45.3516 261.658 45.4648 262.115 45.6914C262.576 45.918 262.932 46.2305 263.182 46.6289C263.436 47.0273 263.562 47.4629 263.562 47.9355H262.432C262.432 47.4199 262.268 47.0156 261.939 46.7227C261.611 46.4258 261.148 46.2773 260.551 46.2773C259.996 46.2773 259.562 46.4004 259.25 46.6465C258.941 46.8887 258.787 47.2266 258.787 47.6602C258.787 48.0078 258.934 48.3027 259.227 48.5449C259.523 48.7832 260.025 49.002 260.732 49.2012C261.443 49.4004 261.998 49.6211 262.396 49.8633C262.799 50.1016 263.096 50.3809 263.287 50.7012C263.482 51.0215 263.58 51.3984 263.58 51.832C263.58 52.5234 263.311 53.0781 262.771 53.4961C262.232 53.9102 261.512 54.1172 260.609 54.1172C260.023 54.1172 259.477 54.0059 258.969 53.7832C258.461 53.5566 258.068 53.248 257.791 52.8574C257.518 52.4668 257.381 52.0234 257.381 51.5273H258.512C258.512 52.043 258.701 52.4512 259.08 52.752C259.463 53.0488 259.973 53.1973 260.609 53.1973C261.203 53.1973 261.658 53.0762 261.975 52.834C262.291 52.5918 262.449 52.2617 262.449 51.8438C262.449 51.4258 262.303 51.1035 262.01 50.877C261.717 50.6465 261.186 50.4199 260.416 50.1973ZM268.771 53.373C268.35 53.8691 267.73 54.1172 266.914 54.1172C266.238 54.1172 265.723 53.9219 265.367 53.5312C265.016 53.1367 264.838 52.5547 264.834 51.7852V47.6602H265.918V51.7559C265.918 52.7168 266.309 53.1973 267.09 53.1973C267.918 53.1973 268.469 52.8887 268.742 52.2715V47.6602H269.826V54H268.795L268.771 53.373ZM272.498 47.6602L272.527 48.3633C272.992 47.8164 273.619 47.543 274.408 47.543C275.295 47.543 275.898 47.8828 276.219 48.5625C276.43 48.2578 276.703 48.0117 277.039 47.8242C277.379 47.6367 277.779 47.543 278.24 47.543C279.631 47.543 280.338 48.2793 280.361 49.752V54H279.277V49.8164C279.277 49.3633 279.174 49.0254 278.967 48.8027C278.76 48.5762 278.412 48.4629 277.924 48.4629C277.521 48.4629 277.188 48.584 276.922 48.8262C276.656 49.0645 276.502 49.3867 276.459 49.793V54H275.369V49.8457C275.369 48.9238 274.918 48.4629 274.016 48.4629C273.305 48.4629 272.818 48.7656 272.557 49.3711V54H271.473V47.6602H272.498ZM283.021 47.6602L283.051 48.3633C283.516 47.8164 284.143 47.543 284.932 47.543C285.818 47.543 286.422 47.8828 286.742 48.5625C286.953 48.2578 287.227 48.0117 287.562 47.8242C287.902 47.6367 288.303 47.543 288.764 47.543C290.154 47.543 290.861 48.2793 290.885 49.752V54H289.801V49.8164C289.801 49.3633 289.697 49.0254 289.49 48.8027C289.283 48.5762 288.936 48.4629 288.447 48.4629C288.045 48.4629 287.711 48.584 287.445 48.8262C287.18 49.0645 287.025 49.3867 286.982 49.793V54H285.893V49.8457C285.893 48.9238 285.441 48.4629 284.539 48.4629C283.828 48.4629 283.342 48.7656 283.08 49.3711V54H281.996V47.6602H283.021ZM296.439 54C296.377 53.875 296.326 53.6523 296.287 53.332C295.783 53.8555 295.182 54.1172 294.482 54.1172C293.857 54.1172 293.344 53.9414 292.941 53.5898C292.543 53.2344 292.344 52.7852 292.344 52.2422C292.344 51.582 292.594 51.0703 293.094 50.707C293.598 50.3398 294.305 50.1562 295.215 50.1562H296.27V49.6582C296.27 49.2793 296.156 48.9785 295.93 48.7559C295.703 48.5293 295.369 48.416 294.928 48.416C294.541 48.416 294.217 48.5137 293.955 48.709C293.693 48.9043 293.562 49.1406 293.562 49.418H292.473C292.473 49.1016 292.584 48.7969 292.807 48.5039C293.033 48.207 293.338 47.9727 293.721 47.8008C294.107 47.6289 294.531 47.543 294.992 47.543C295.723 47.543 296.295 47.7266 296.709 48.0938C297.123 48.457 297.338 48.959 297.354 49.5996V52.5176C297.354 53.0996 297.428 53.5625 297.576 53.9062V54H296.439ZM294.641 53.1738C294.98 53.1738 295.303 53.0859 295.607 52.9102C295.912 52.7344 296.133 52.5059 296.27 52.2246V50.9238H295.42C294.092 50.9238 293.428 51.3125 293.428 52.0898C293.428 52.4297 293.541 52.6953 293.768 52.8867C293.994 53.0781 294.285 53.1738 294.641 53.1738ZM302.117 48.6328C301.953 48.6055 301.775 48.5918 301.584 48.5918C300.873 48.5918 300.391 48.8945 300.137 49.5V54H299.053V47.6602H300.107L300.125 48.3926C300.48 47.8262 300.984 47.543 301.637 47.543C301.848 47.543 302.008 47.5703 302.117 47.625V48.6328ZM305.299 52.4121L306.775 47.6602H307.936L305.387 54.9785C304.992 56.0332 304.365 56.5605 303.506 56.5605L303.301 56.543L302.896 56.4668V55.5879L303.189 55.6113C303.557 55.6113 303.842 55.5371 304.045 55.3887C304.252 55.2402 304.422 54.9688 304.555 54.5742L304.795 53.9297L302.533 47.6602H303.717L305.299 52.4121Z" fill="black"/>
<path d="M11.4004 54H10.2754V45.4688H11.4004V54ZM14.3184 47.6602L14.3535 48.457C14.8379 47.8477 15.4707 47.543 16.252 47.543C17.5918 47.543 18.2676 48.2988 18.2793 49.8105V54H17.1953V49.8047C17.1914 49.3477 17.0859 49.0098 16.8789 48.791C16.6758 48.5723 16.3574 48.4629 15.9238 48.4629C15.5723 48.4629 15.2637 48.5566 14.998 48.7441C14.7324 48.9316 14.5254 49.1777 14.377 49.4824V54H13.293V47.6602H14.3184ZM21.3848 46.125V47.6602H22.5684V48.498H21.3848V52.4297C21.3848 52.6836 21.4375 52.875 21.543 53.0039C21.6484 53.1289 21.8281 53.1914 22.082 53.1914C22.207 53.1914 22.3789 53.168 22.5977 53.1211V54C22.3125 54.0781 22.0352 54.1172 21.7656 54.1172C21.2812 54.1172 20.916 53.9707 20.6699 53.6777C20.4238 53.3848 20.3008 52.9688 20.3008 52.4297V48.498H19.1465V47.6602H20.3008V46.125H21.3848ZM26.9043 48.6328C26.7402 48.6055 26.5625 48.5918 26.3711 48.5918C25.6602 48.5918 25.1777 48.8945 24.9238 49.5V54H23.8398V47.6602H24.8945L24.9121 48.3926C25.2676 47.8262 25.7715 47.543 26.4238 47.543C26.6348 47.543 26.7949 47.5703 26.9043 47.625V48.6328ZM27.502 50.7715C27.502 50.1504 27.623 49.5918 27.8652 49.0957C28.1113 48.5996 28.4512 48.2168 28.8848 47.9473C29.3223 47.6777 29.8203 47.543 30.3789 47.543C31.2422 47.543 31.9395 47.8418 32.4707 48.4395C33.0059 49.0371 33.2734 49.832 33.2734 50.8242V50.9004C33.2734 51.5176 33.1543 52.0723 32.916 52.5645C32.6816 53.0527 32.3438 53.4336 31.9023 53.707C31.4648 53.9805 30.9609 54.1172 30.3906 54.1172C29.5312 54.1172 28.834 53.8184 28.2988 53.2207C27.7676 52.623 27.502 51.832 27.502 50.8477V50.7715ZM28.5918 50.9004C28.5918 51.6035 28.7539 52.168 29.0781 52.5938C29.4062 53.0195 29.8438 53.2324 30.3906 53.2324C30.9414 53.2324 31.3789 53.0176 31.7031 52.5879C32.0273 52.1543 32.1895 51.5488 32.1895 50.7715C32.1895 50.0762 32.0234 49.5137 31.6914 49.084C31.3633 48.6504 30.9258 48.4336 30.3789 48.4336C29.8438 48.4336 29.4121 48.6465 29.084 49.0723C28.7559 49.498 28.5918 50.1074 28.5918 50.9004ZM34.3691 50.7773C34.3691 49.8047 34.5996 49.0234 35.0605 48.4336C35.5215 47.8398 36.125 47.543 36.8711 47.543C37.6133 47.543 38.2012 47.7969 38.6348 48.3047V45H39.7188V54H38.7227L38.6699 53.3203C38.2363 53.8516 37.6328 54.1172 36.8594 54.1172C36.125 54.1172 35.5254 53.8164 35.0605 53.2148C34.5996 52.6133 34.3691 51.8281 34.3691 50.8594V50.7773ZM35.4531 50.9004C35.4531 51.6191 35.6016 52.1816 35.8984 52.5879C36.1953 52.9941 36.6055 53.1973 37.1289 53.1973C37.8164 53.1973 38.3184 52.8887 38.6348 52.2715V49.3594C38.3105 48.7617 37.8125 48.4629 37.1406 48.4629C36.6094 48.4629 36.1953 48.668 35.8984 49.0781C35.6016 49.4883 35.4531 50.0957 35.4531 50.9004ZM45.3203 53.373C44.8984 53.8691 44.2793 54.1172 43.4629 54.1172C42.7871 54.1172 42.2715 53.9219 41.916 53.5312C41.5645 53.1367 41.3867 52.5547 41.3828 51.7852V47.6602H42.4668V51.7559C42.4668 52.7168 42.8574 53.1973 43.6387 53.1973C44.4668 53.1973 45.0176 52.8887 45.291 52.2715V47.6602H46.375V54H45.3438L45.3203 53.373ZM50.5703 53.2324C50.957 53.2324 51.2949 53.1152 51.584 52.8809C51.873 52.6465 52.0332 52.3535 52.0645 52.002H53.0898C53.0703 52.3652 52.9453 52.7109 52.7148 53.0391C52.4844 53.3672 52.1758 53.6289 51.7891 53.8242C51.4062 54.0195 51 54.1172 50.5703 54.1172C49.707 54.1172 49.0195 53.8301 48.5078 53.2559C48 52.6777 47.7461 51.8887 47.7461 50.8887V50.707C47.7461 50.0898 47.8594 49.541 48.0859 49.0605C48.3125 48.5801 48.6367 48.207 49.0586 47.9414C49.4844 47.6758 49.9863 47.543 50.5645 47.543C51.2754 47.543 51.8652 47.7559 52.334 48.1816C52.8066 48.6074 53.0586 49.1602 53.0898 49.8398H52.0645C52.0332 49.4297 51.877 49.0938 51.5957 48.832C51.3184 48.5664 50.9746 48.4336 50.5645 48.4336C50.0137 48.4336 49.5859 48.6328 49.2812 49.0312C48.9805 49.4258 48.8301 49.998 48.8301 50.748V50.9531C48.8301 51.6836 48.9805 52.2461 49.2812 52.6406C49.582 53.0352 50.0117 53.2324 50.5703 53.2324ZM55.7793 46.125V47.6602H56.9629V48.498H55.7793V52.4297C55.7793 52.6836 55.832 52.875 55.9375 53.0039C56.043 53.1289 56.2227 53.1914 56.4766 53.1914C56.6016 53.1914 56.7734 53.168 56.9922 53.1211V54C56.707 54.0781 56.4297 54.1172 56.1602 54.1172C55.6758 54.1172 55.3105 53.9707 55.0645 53.6777C54.8184 53.3848 54.6953 52.9688 54.6953 52.4297V48.498H53.541V47.6602H54.6953V46.125H55.7793ZM59.4121 54H58.3281V47.6602H59.4121V54ZM58.2402 45.9785C58.2402 45.8027 58.293 45.6543 58.3984 45.5332C58.5078 45.4121 58.668 45.3516 58.8789 45.3516C59.0898 45.3516 59.25 45.4121 59.3594 45.5332C59.4688 45.6543 59.5234 45.8027 59.5234 45.9785C59.5234 46.1543 59.4688 46.3008 59.3594 46.418C59.25 46.5352 59.0898 46.5938 58.8789 46.5938C58.668 46.5938 58.5078 46.5352 58.3984 46.418C58.293 46.3008 58.2402 46.1543 58.2402 45.9785ZM60.8652 50.7715C60.8652 50.1504 60.9863 49.5918 61.2285 49.0957C61.4746 48.5996 61.8145 48.2168 62.248 47.9473C62.6855 47.6777 63.1836 47.543 63.7422 47.543C64.6055 47.543 65.3027 47.8418 65.834 48.4395C66.3691 49.0371 66.6367 49.832 66.6367 50.8242V50.9004C66.6367 51.5176 66.5176 52.0723 66.2793 52.5645C66.0449 53.0527 65.707 53.4336 65.2656 53.707C64.8281 53.9805 64.3242 54.1172 63.7539 54.1172C62.8945 54.1172 62.1973 53.8184 61.6621 53.2207C61.1309 52.623 60.8652 51.832 60.8652 50.8477V50.7715ZM61.9551 50.9004C61.9551 51.6035 62.1172 52.168 62.4414 52.5938C62.7695 53.0195 63.207 53.2324 63.7539 53.2324C64.3047 53.2324 64.7422 53.0176 65.0664 52.5879C65.3906 52.1543 65.5527 51.5488 65.5527 50.7715C65.5527 50.0762 65.3867 49.5137 65.0547 49.084C64.7266 48.6504 64.2891 48.4336 63.7422 48.4336C63.207 48.4336 62.7754 48.6465 62.4473 49.0723C62.1191 49.498 61.9551 50.1074 61.9551 50.9004ZM69.0215 47.6602L69.0566 48.457C69.541 47.8477 70.1738 47.543 70.9551 47.543C72.2949 47.543 72.9707 48.2988 72.9824 49.8105V54H71.8984V49.8047C71.8945 49.3477 71.7891 49.0098 71.582 48.791C71.3789 48.5723 71.0605 48.4629 70.627 48.4629C70.2754 48.4629 69.9668 48.5566 69.7012 48.7441C69.4355 48.9316 69.2285 49.1777 69.0801 49.4824V54H67.9961V47.6602H69.0215Z" fill="black"/>
<path d="M11.4023 88H10.3125V80.7754L8.12695 81.5781V80.5938L11.2324 79.4277H11.4023V88Z" fill="black"/>
<path d="M33.4297 88H27.8398V87.2207L30.793 83.9395C31.2305 83.4434 31.5312 83.041 31.6953 82.7324C31.8633 82.4199 31.9473 82.0977 31.9473 81.7656C31.9473 81.3203 31.8125 80.9551 31.543 80.6699C31.2734 80.3848 30.9141 80.2422 30.4648 80.2422C29.9258 80.2422 29.5059 80.3965 29.2051 80.7051C28.9082 81.0098 28.7598 81.4355 28.7598 81.9824H27.6758C27.6758 81.1973 27.9277 80.5625 28.4316 80.0781C28.9395 79.5938 29.6172 79.3516 30.4648 79.3516C31.2578 79.3516 31.8848 79.5605 32.3457 79.9785C32.8066 80.3926 33.0371 80.9453 33.0371 81.6367C33.0371 82.4766 32.502 83.4766 31.4316 84.6367L29.1465 87.1152H33.4297V88Z" fill="black"/>
<path d="M50.416 83.207H51.2305C51.7422 83.1992 52.1445 83.0645 52.4375 82.8027C52.7305 82.541 52.877 82.1875 52.877 81.7422C52.877 80.7422 52.3789 80.2422 51.3828 80.2422C50.9141 80.2422 50.5391 80.377 50.2578 80.6465C49.9805 80.9121 49.8418 81.2656 49.8418 81.707H48.7578C48.7578 81.0312 49.0039 80.4707 49.4961 80.0254C49.9922 79.5762 50.6211 79.3516 51.3828 79.3516C52.1875 79.3516 52.8184 79.5645 53.2754 79.9902C53.7324 80.416 53.9609 81.0078 53.9609 81.7656C53.9609 82.1367 53.8398 82.4961 53.5977 82.8438C53.3594 83.1914 53.0332 83.4512 52.6191 83.623C53.0879 83.7715 53.4492 84.0176 53.7031 84.3613C53.9609 84.7051 54.0898 85.125 54.0898 85.6211C54.0898 86.3867 53.8398 86.9941 53.3398 87.4434C52.8398 87.8926 52.1895 88.1172 51.3887 88.1172C50.5879 88.1172 49.9355 87.9004 49.4316 87.4668C48.9316 87.0332 48.6816 86.4609 48.6816 85.75H49.7715C49.7715 86.1992 49.918 86.5586 50.2109 86.8281C50.5039 87.0977 50.8965 87.2324 51.3887 87.2324C51.9121 87.2324 52.3125 87.0957 52.5898 86.8223C52.8672 86.5488 53.0059 86.1562 53.0059 85.6445C53.0059 85.1484 52.8535 84.7676 52.5488 84.502C52.2441 84.2363 51.8047 84.0996 51.2305 84.0918H50.416V83.207Z" fill="black"/>
<path d="M73.416 85.1348H74.5996V86.0195H73.416V88H72.3262V86.0195H68.4414V85.3809L72.2617 79.4688H73.416V85.1348ZM69.6719 85.1348H72.3262V80.9512L72.1973 81.1855L69.6719 85.1348Z" fill="black"/>
<path d="M89.8379 83.7227L90.2715 79.4688H94.6426V80.4707H91.1914L90.9336 82.7969C91.3516 82.5508 91.8262 82.4277 92.3574 82.4277C93.1348 82.4277 93.752 82.6855 94.209 83.2012C94.666 83.7129 94.8945 84.4062 94.8945 85.2812C94.8945 86.1602 94.6562 86.8535 94.1797 87.3613C93.707 87.8652 93.0449 88.1172 92.1934 88.1172C91.4395 88.1172 90.8242 87.9082 90.3477 87.4902C89.8711 87.0723 89.5996 86.4941 89.5332 85.7559H90.5586C90.625 86.2441 90.7988 86.6133 91.0801 86.8633C91.3613 87.1094 91.7324 87.2324 92.1934 87.2324C92.6973 87.2324 93.0918 87.0605 93.377 86.7168C93.666 86.373 93.8105 85.8984 93.8105 85.293C93.8105 84.7227 93.6543 84.2656 93.3418 83.9219C93.0332 83.5742 92.6211 83.4004 92.1055 83.4004C91.6328 83.4004 91.2617 83.5039 90.9922 83.7109L90.7051 83.9453L89.8379 83.7227Z" fill="black"/>
<path d="M113.594 79.4629V80.3828H113.395C112.551 80.3984 111.879 80.6484 111.379 81.1328C110.879 81.6172 110.59 82.2988 110.512 83.1777C110.961 82.6621 111.574 82.4043 112.352 82.4043C113.094 82.4043 113.686 82.666 114.127 83.1895C114.572 83.7129 114.795 84.3887 114.795 85.2168C114.795 86.0957 114.555 86.7988 114.074 87.3262C113.598 87.8535 112.957 88.1172 112.152 88.1172C111.336 88.1172 110.674 87.8047 110.166 87.1797C109.658 86.5508 109.404 85.7422 109.404 84.7539V84.3379C109.404 82.7676 109.738 81.5684 110.406 80.7402C111.078 79.9082 112.076 79.4824 113.4 79.4629H113.594ZM112.17 83.3066C111.799 83.3066 111.457 83.418 111.145 83.6406C110.832 83.8633 110.615 84.1426 110.494 84.4785V84.877C110.494 85.5801 110.652 86.1465 110.969 86.5762C111.285 87.0059 111.68 87.2207 112.152 87.2207C112.641 87.2207 113.023 87.041 113.301 86.6816C113.582 86.3223 113.723 85.8516 113.723 85.2695C113.723 84.6836 113.58 84.2109 113.295 83.8516C113.014 83.4883 112.639 83.3066 112.17 83.3066Z" fill="black"/>
<path d="M134.848 80.0781L131.314 88H130.178L133.699 80.3594H129.082V79.4688H134.848V80.0781Z" fill="black"/>
<path d="M154.514 81.6953C154.514 82.1211 154.4 82.5 154.174 82.832C153.951 83.1641 153.648 83.4238 153.266 83.6113C153.711 83.8027 154.062 84.082 154.32 84.4492C154.582 84.8164 154.713 85.2324 154.713 85.6973C154.713 86.4355 154.463 87.0234 153.963 87.4609C153.467 87.8984 152.812 88.1172 152 88.1172C151.18 88.1172 150.521 87.8984 150.025 87.4609C149.533 87.0195 149.287 86.4316 149.287 85.6973C149.287 85.2363 149.412 84.8203 149.662 84.4492C149.916 84.0781 150.266 83.7969 150.711 83.6055C150.332 83.418 150.033 83.1582 149.814 82.8262C149.596 82.4941 149.486 82.1172 149.486 81.6953C149.486 80.9766 149.717 80.4062 150.178 79.9844C150.639 79.5625 151.246 79.3516 152 79.3516C152.75 79.3516 153.355 79.5625 153.816 79.9844C154.281 80.4062 154.514 80.9766 154.514 81.6953ZM153.629 85.6738C153.629 85.1973 153.477 84.8086 153.172 84.5078C152.871 84.207 152.477 84.0566 151.988 84.0566C151.5 84.0566 151.107 84.2051 150.811 84.502C150.518 84.7988 150.371 85.1895 150.371 85.6738C150.371 86.1582 150.514 86.5391 150.799 86.8164C151.088 87.0938 151.488 87.2324 152 87.2324C152.508 87.2324 152.906 87.0938 153.195 86.8164C153.484 86.5352 153.629 86.1543 153.629 85.6738ZM152 80.2422C151.574 80.2422 151.229 80.375 150.963 80.6406C150.701 80.9023 150.57 81.2598 150.57 81.7129C150.57 82.1465 150.699 82.498 150.957 82.7676C151.219 83.0332 151.566 83.166 152 83.166C152.434 83.166 152.779 83.0332 153.037 82.7676C153.299 82.498 153.43 82.1465 153.43 81.7129C153.43 81.2793 153.295 80.9258 153.025 80.6523C152.756 80.3789 152.414 80.2422 152 80.2422Z" fill="black"/>
<path d="M173.494 84.25C173.268 84.5195 172.996 84.7363 172.68 84.9004C172.367 85.0645 172.023 85.1465 171.648 85.1465C171.156 85.1465 170.727 85.0254 170.359 84.7832C169.996 84.541 169.715 84.2012 169.516 83.7637C169.316 83.3223 169.217 82.8359 169.217 82.3047C169.217 81.7344 169.324 81.2207 169.539 80.7637C169.758 80.3066 170.066 79.957 170.465 79.7148C170.863 79.4727 171.328 79.3516 171.859 79.3516C172.703 79.3516 173.367 79.668 173.852 80.3008C174.34 80.9297 174.584 81.7891 174.584 82.8789V83.1953C174.584 84.8555 174.256 86.0684 173.6 86.834C172.943 87.5957 171.953 87.9863 170.629 88.0059H170.418V87.0918H170.646C171.541 87.0762 172.229 86.8438 172.709 86.3945C173.189 85.9414 173.451 85.2266 173.494 84.25ZM171.824 84.25C172.188 84.25 172.521 84.1387 172.826 83.916C173.135 83.6934 173.359 83.418 173.5 83.0898V82.6562C173.5 81.9453 173.346 81.3672 173.037 80.9219C172.729 80.4766 172.338 80.2539 171.865 80.2539C171.389 80.2539 171.006 80.4375 170.717 80.8047C170.428 81.168 170.283 81.6484 170.283 82.2461C170.283 82.8281 170.422 83.3086 170.699 83.6875C170.98 84.0625 171.355 84.25 171.824 84.25Z" fill="black"/>
<path d="M189.033 88H187.943V80.7754L185.758 81.5781V80.5938L188.863 79.4277H189.033V88ZM197.559 84.3613C197.559 85.6309 197.342 86.5742 196.908 87.1914C196.475 87.8086 195.797 88.1172 194.875 88.1172C193.965 88.1172 193.291 87.8164 192.854 87.2148C192.416 86.6094 192.189 85.707 192.174 84.5078V83.0605C192.174 81.8066 192.391 80.875 192.824 80.2656C193.258 79.6562 193.938 79.3516 194.863 79.3516C195.781 79.3516 196.457 79.6465 196.891 80.2363C197.324 80.8223 197.547 81.7285 197.559 82.9551V84.3613ZM196.475 82.8789C196.475 81.9609 196.346 81.293 196.088 80.875C195.83 80.4531 195.422 80.2422 194.863 80.2422C194.309 80.2422 193.904 80.4512 193.65 80.8691C193.396 81.2871 193.266 81.9297 193.258 82.7969V84.5312C193.258 85.4531 193.391 86.1348 193.656 86.5762C193.926 87.0137 194.332 87.2324 194.875 87.2324C195.41 87.2324 195.807 87.0254 196.064 86.6113C196.326 86.1973 196.463 85.5449 196.475 84.6543V82.8789Z" fill="black"/>
<path d="M209.533 88H208.443V80.7754L206.258 81.5781V80.5938L209.363 79.4277H209.533V88ZM216.271 88H215.182V80.7754L212.996 81.5781V80.5938L216.102 79.4277H216.271V88Z" fill="black"/>
<path d="M229.033 88H227.943V80.7754L225.758 81.5781V80.5938L228.863 79.4277H229.033V88ZM237.799 88H232.209V87.2207L235.162 83.9395C235.6 83.4434 235.9 83.041 236.064 82.7324C236.232 82.4199 236.316 82.0977 236.316 81.7656C236.316 81.3203 236.182 80.9551 235.912 80.6699C235.643 80.3848 235.283 80.2422 234.834 80.2422C234.295 80.2422 233.875 80.3965 233.574 80.7051C233.277 81.0098 233.129 81.4355 233.129 81.9824H232.045C232.045 81.1973 232.297 80.5625 232.801 80.0781C233.309 79.5938 233.986 79.3516 234.834 79.3516C235.627 79.3516 236.254 79.5605 236.715 79.9785C237.176 80.3926 237.406 80.9453 237.406 81.6367C237.406 82.4766 236.871 83.4766 235.801 84.6367L233.516 87.1152H237.799V88Z" fill="black"/>
<path d="M249.533 88H248.443V80.7754L246.258 81.5781V80.5938L249.363 79.4277H249.533V88ZM254.285 83.207H255.1C255.611 83.1992 256.014 83.0645 256.307 82.8027C256.6 82.541 256.746 82.1875 256.746 81.7422C256.746 80.7422 256.248 80.2422 255.252 80.2422C254.783 80.2422 254.408 80.377 254.127 80.6465C253.85 80.9121 253.711 81.2656 253.711 81.707H252.627C252.627 81.0312 252.873 80.4707 253.365 80.0254C253.861 79.5762 254.49 79.3516 255.252 79.3516C256.057 79.3516 256.688 79.5645 257.145 79.9902C257.602 80.416 257.83 81.0078 257.83 81.7656C257.83 82.1367 257.709 82.4961 257.467 82.8438C257.229 83.1914 256.902 83.4512 256.488 83.623C256.957 83.7715 257.318 84.0176 257.572 84.3613C257.83 84.7051 257.959 85.125 257.959 85.6211C257.959 86.3867 257.709 86.9941 257.209 87.4434C256.709 87.8926 256.059 88.1172 255.258 88.1172C254.457 88.1172 253.805 87.9004 253.301 87.4668C252.801 87.0332 252.551 86.4609 252.551 85.75H253.641C253.641 86.1992 253.787 86.5586 254.08 86.8281C254.373 87.0977 254.766 87.2324 255.258 87.2324C255.781 87.2324 256.182 87.0957 256.459 86.8223C256.736 86.5488 256.875 86.1562 256.875 85.6445C256.875 85.1484 256.723 84.7676 256.418 84.502C256.113 84.2363 255.674 84.0996 255.1 84.0918H254.285V83.207Z" fill="black"/>
<path d="M270.033 88H268.943V80.7754L266.758 81.5781V80.5938L269.863 79.4277H270.033V88ZM277.785 85.1348H278.969V86.0195H277.785V88H276.695V86.0195H272.811V85.3809L276.631 79.4688H277.785V85.1348ZM274.041 85.1348H276.695V80.9512L276.566 81.1855L274.041 85.1348Z" fill="black"/>
<path d="M290.033 88H288.943V80.7754L286.758 81.5781V80.5938L289.863 79.4277H290.033V88ZM293.707 83.7227L294.141 79.4688H298.512V80.4707H295.061L294.803 82.7969C295.221 82.5508 295.695 82.4277 296.227 82.4277C297.004 82.4277 297.621 82.6855 298.078 83.2012C298.535 83.7129 298.764 84.4062 298.764 85.2812C298.764 86.1602 298.525 86.8535 298.049 87.3613C297.576 87.8652 296.914 88.1172 296.062 88.1172C295.309 88.1172 294.693 87.9082 294.217 87.4902C293.74 87.0723 293.469 86.4941 293.402 85.7559H294.428C294.494 86.2441 294.668 86.6133 294.949 86.8633C295.23 87.1094 295.602 87.2324 296.062 87.2324C296.566 87.2324 296.961 87.0605 297.246 86.7168C297.535 86.373 297.68 85.8984 297.68 85.293C297.68 84.7227 297.523 84.2656 297.211 83.9219C296.902 83.5742 296.49 83.4004 295.975 83.4004C295.502 83.4004 295.131 83.5039 294.861 83.7109L294.574 83.9453L293.707 83.7227Z" fill="black"/>
<path d="M310.533 88H309.443V80.7754L307.258 81.5781V80.5938L310.363 79.4277H310.533V88ZM317.963 79.4629V80.3828H317.764C316.92 80.3984 316.248 80.6484 315.748 81.1328C315.248 81.6172 314.959 82.2988 314.881 83.1777C315.33 82.6621 315.943 82.4043 316.721 82.4043C317.463 82.4043 318.055 82.666 318.496 83.1895C318.941 83.7129 319.164 84.3887 319.164 85.2168C319.164 86.0957 318.924 86.7988 318.443 87.3262C317.967 87.8535 317.326 88.1172 316.521 88.1172C315.705 88.1172 315.043 87.8047 314.535 87.1797C314.027 86.5508 313.773 85.7422 313.773 84.7539V84.3379C313.773 82.7676 314.107 81.5684 314.775 80.7402C315.447 79.9082 316.445 79.4824 317.77 79.4629H317.963ZM316.539 83.3066C316.168 83.3066 315.826 83.418 315.514 83.6406C315.201 83.8633 314.984 84.1426 314.863 84.4785V84.877C314.863 85.5801 315.021 86.1465 315.338 86.5762C315.654 87.0059 316.049 87.2207 316.521 87.2207C317.01 87.2207 317.393 87.041 317.67 86.6816C317.951 86.3223 318.092 85.8516 318.092 85.2695C318.092 84.6836 317.949 84.2109 317.664 83.8516C317.383 83.4883 317.008 83.3066 316.539 83.3066Z" fill="black"/>
<line x1="4" y1="1.5" x2="2" y2="30.5" stroke="#454ABC" stroke-width="4"/>
<line x1="4" y1="35.5" x2="2" y2="64.5" stroke="#454ABC" stroke-width="4"/>
<line x1="4" y1="69.5" x2="2" y2="98.5" stroke="#454ABC" stroke-width="4"/>
<line x1="86" y1="35.5" x2="84" y2="64.5" stroke="#F1A30C" stroke-width="4"/>
<line x1="86" y1="69.5" x2="84" y2="98.5" stroke="#F1A30C" stroke-width="4"/>
</svg>
