<svg width="854" height="120" viewBox="0 0 854 120" fill="none" xmlns="http://www.w3.org/2000/svg">
<rect x="0.5" y="0.5" width="853" height="35.7347" fill="white" stroke="black"/>
<rect x="219.059" y="42.1326" width="415.882" height="35.7347" fill="white" stroke="black"/>
<rect x="0.5" y="42.1326" width="207.441" height="35.7347" fill="white" stroke="black"/>
<rect x="0.5" y="83.7654" width="43.5213" height="35.7347" fill="white" stroke="black"/>
<rect x="55.1392" y="83.7654" width="43.5213" height="35.7347" fill="white" stroke="black"/>
<rect x="109.779" y="83.7654" width="43.5213" height="35.7347" fill="white" stroke="black"/>
<rect x="164.42" y="83.7654" width="43.5213" height="35.7347" fill="white" stroke="black"/>
<rect x="219.059" y="83.7654" width="42.1722" height="35.7347" fill="white" stroke="black"/>
<rect x="272.35" y="83.7654" width="42.1722" height="35.7347" fill="white" stroke="black"/>
<rect x="325.641" y="83.7654" width="42.1722" height="35.7347" fill="white" stroke="black"/>
<rect x="378.93" y="83.7654" width="42.1722" height="35.7347" fill="white" stroke="black"/>
<rect x="432.222" y="83.7654" width="42.1722" height="35.7347" fill="white" stroke="black"/>
<rect x="485.513" y="83.7654" width="42.1722" height="35.7347" fill="white" stroke="black"/>
<rect x="538.803" y="83.7654" width="42.1722" height="35.7347" fill="white" stroke="black"/>
<rect x="592.094" y="83.7654" width="42.1722" height="35.7347" fill="white" stroke="black"/>
<rect x="646.059" y="83.7654" width="43.5213" height="35.7347" fill="white" stroke="black"/>
<rect x="700.7" y="83.7654" width="43.5213" height="35.7347" fill="white" stroke="black"/>
<rect x="755.339" y="83.7654" width="43.5213" height="35.7347" fill="white" stroke="black"/>
<rect x="809.979" y="83.7654" width="43.5213" height="35.7347" fill="white" stroke="black"/>
<rect x="646.059" y="42.1326" width="207.441" height="35.7347" fill="white" stroke="black"/>
<path d="M402.291 13.4688L405.08 20.4297L407.869 13.4688H409.328V22H408.203V18.6777L408.309 15.0918L405.508 22H404.646L401.852 15.1094L401.963 18.6777V22H400.838V13.4688H402.291ZM416.137 18.0566H412.439V21.0801H416.734V22H411.314V13.4688H416.676V14.3945H412.439V17.1367H416.137V18.0566ZM420.648 18.1973C419.684 17.9199 418.98 17.5801 418.539 17.1777C418.102 16.7715 417.883 16.2715 417.883 15.6777C417.883 15.0059 418.15 14.4512 418.686 14.0137C419.225 13.5723 419.924 13.3516 420.783 13.3516C421.369 13.3516 421.891 13.4648 422.348 13.6914C422.809 13.918 423.164 14.2305 423.414 14.6289C423.668 15.0273 423.795 15.4629 423.795 15.9355H422.664C422.664 15.4199 422.5 15.0156 422.172 14.7227C421.844 14.4258 421.381 14.2773 420.783 14.2773C420.229 14.2773 419.795 14.4004 419.482 14.6465C419.174 14.8887 419.02 15.2266 419.02 15.6602C419.02 16.0078 419.166 16.3027 419.459 16.5449C419.756 16.7832 420.258 17.002 420.965 17.2012C421.676 17.4004 422.23 17.6211 422.629 17.8633C423.031 18.1016 423.328 18.3809 423.52 18.7012C423.715 19.0215 423.812 19.3984 423.812 19.832C423.812 20.5234 423.543 21.0781 423.004 21.4961C422.465 21.9102 421.744 22.1172 420.842 22.1172C420.256 22.1172 419.709 22.0059 419.201 21.7832C418.693 21.5566 418.301 21.248 418.023 20.8574C417.75 20.4668 417.613 20.0234 417.613 19.5273H418.744C418.744 20.043 418.934 20.4512 419.312 20.752C419.695 21.0488 420.205 21.1973 420.842 21.1973C421.436 21.1973 421.891 21.0762 422.207 20.834C422.523 20.5918 422.682 20.2617 422.682 19.8438C422.682 19.4258 422.535 19.1035 422.242 18.877C421.949 18.6465 421.418 18.4199 420.648 18.1973ZM427.773 18.1973C426.809 17.9199 426.105 17.5801 425.664 17.1777C425.227 16.7715 425.008 16.2715 425.008 15.6777C425.008 15.0059 425.275 14.4512 425.811 14.0137C426.35 13.5723 427.049 13.3516 427.908 13.3516C428.494 13.3516 429.016 13.4648 429.473 13.6914C429.934 13.918 430.289 14.2305 430.539 14.6289C430.793 15.0273 430.92 15.4629 430.92 15.9355H429.789C429.789 15.4199 429.625 15.0156 429.297 14.7227C428.969 14.4258 428.506 14.2773 427.908 14.2773C427.354 14.2773 426.92 14.4004 426.607 14.6465C426.299 14.8887 426.145 15.2266 426.145 15.6602C426.145 16.0078 426.291 16.3027 426.584 16.5449C426.881 16.7832 427.383 17.002 428.09 17.2012C428.801 17.4004 429.355 17.6211 429.754 17.8633C430.156 18.1016 430.453 18.3809 430.645 18.7012C430.84 19.0215 430.938 19.3984 430.938 19.832C430.938 20.5234 430.668 21.0781 430.129 21.4961C429.59 21.9102 428.869 22.1172 427.967 22.1172C427.381 22.1172 426.834 22.0059 426.326 21.7832C425.818 21.5566 425.426 21.248 425.148 20.8574C424.875 20.4668 424.738 20.0234 424.738 19.5273H425.869C425.869 20.043 426.059 20.4512 426.438 20.752C426.82 21.0488 427.33 21.1973 427.967 21.1973C428.561 21.1973 429.016 21.0762 429.332 20.834C429.648 20.5918 429.807 20.2617 429.807 19.8438C429.807 19.4258 429.66 19.1035 429.367 18.877C429.074 18.6465 428.543 18.4199 427.773 18.1973ZM437.096 19.7734H433.521L432.719 22H431.559L434.816 13.4688H435.801L439.064 22H437.91L437.096 19.7734ZM433.861 18.8477H436.762L435.309 14.8574L433.861 18.8477ZM446.441 20.8809C446.152 21.2949 445.748 21.6055 445.229 21.8125C444.713 22.0156 444.111 22.1172 443.424 22.1172C442.729 22.1172 442.111 21.9551 441.572 21.6309C441.033 21.3027 440.615 20.8379 440.318 20.2363C440.025 19.6348 439.875 18.9375 439.867 18.1445V17.4004C439.867 16.1152 440.166 15.1191 440.764 14.4121C441.365 13.7051 442.209 13.3516 443.295 13.3516C444.186 13.3516 444.902 13.5801 445.445 14.0371C445.988 14.4902 446.32 15.1348 446.441 15.9707H445.316C445.105 14.8418 444.434 14.2773 443.301 14.2773C442.547 14.2773 441.975 14.543 441.584 15.0742C441.197 15.6016 441.002 16.3672 440.998 17.3711V18.0684C440.998 19.0254 441.217 19.7871 441.654 20.3535C442.092 20.916 442.684 21.1973 443.43 21.1973C443.852 21.1973 444.221 21.1504 444.537 21.0566C444.854 20.9629 445.115 20.8047 445.322 20.582V18.666H443.348V17.752H446.441V20.8809ZM453.145 18.0566H449.447V21.0801H453.742V22H448.322V13.4688H453.684V14.3945H449.447V17.1367H453.145V18.0566Z" fill="black"/>
<path d="M394.644 55.1013L397.434 62.0623L400.223 55.1013H401.682V63.6326H400.557V60.3103L400.662 56.7244L397.861 63.6326H397L394.205 56.7419L394.316 60.3103V63.6326H393.191V55.1013H394.644ZM407.412 63.6326C407.35 63.5076 407.299 63.2849 407.26 62.9646C406.756 63.488 406.154 63.7498 405.455 63.7498C404.83 63.7498 404.316 63.574 403.914 63.2224C403.516 62.8669 403.316 62.4177 403.316 61.8748C403.316 61.2146 403.566 60.7029 404.066 60.3396C404.57 59.9724 405.277 59.7888 406.187 59.7888H407.242V59.2908C407.242 58.9119 407.129 58.6111 406.902 58.3884C406.676 58.1619 406.342 58.0486 405.9 58.0486C405.514 58.0486 405.189 58.1462 404.928 58.3416C404.666 58.5369 404.535 58.7732 404.535 59.0505H403.445C403.445 58.7341 403.557 58.4294 403.779 58.1365C404.006 57.8396 404.31 57.6052 404.693 57.4333C405.08 57.2615 405.504 57.1755 405.965 57.1755C406.695 57.1755 407.267 57.3591 407.682 57.7263C408.096 58.0896 408.31 58.5916 408.326 59.2322V62.1501C408.326 62.7322 408.4 63.1951 408.549 63.5388V63.6326H407.412ZM405.613 62.8064C405.953 62.8064 406.275 62.7185 406.58 62.5427C406.885 62.3669 407.105 62.1384 407.242 61.8572V60.5564H406.392C405.064 60.5564 404.4 60.9451 404.4 61.7224C404.4 62.0623 404.514 62.3279 404.74 62.5193C404.967 62.7107 405.258 62.8064 405.613 62.8064ZM411.203 63.6326H410.119V57.2927H411.203V63.6326ZM410.031 55.6111C410.031 55.4353 410.084 55.2869 410.189 55.1658C410.299 55.0447 410.459 54.9841 410.67 54.9841C410.881 54.9841 411.041 55.0447 411.15 55.1658C411.26 55.2869 411.314 55.4353 411.314 55.6111C411.314 55.7869 411.26 55.9333 411.15 56.0505C411.041 56.1677 410.881 56.2263 410.67 56.2263C410.459 56.2263 410.299 56.1677 410.189 56.0505C410.084 55.9333 410.031 55.7869 410.031 55.6111ZM413.969 57.2927L414.004 58.0896C414.488 57.4802 415.121 57.1755 415.902 57.1755C417.242 57.1755 417.918 57.9314 417.93 59.4431V63.6326H416.846V59.4373C416.842 58.9802 416.736 58.6423 416.529 58.4236C416.326 58.2048 416.008 58.0955 415.574 58.0955C415.223 58.0955 414.914 58.1892 414.648 58.3767C414.383 58.5642 414.176 58.8103 414.027 59.115V63.6326H412.943V57.2927H413.969ZM425.225 59.8298C424.26 59.5525 423.557 59.2126 423.115 58.8103C422.678 58.4041 422.459 57.9041 422.459 57.3103C422.459 56.6384 422.726 56.0837 423.262 55.6462C423.801 55.2048 424.5 54.9841 425.359 54.9841C425.945 54.9841 426.467 55.0974 426.924 55.324C427.385 55.5505 427.74 55.863 427.99 56.2615C428.244 56.6599 428.371 57.0955 428.371 57.5681H427.24C427.24 57.0525 427.076 56.6482 426.748 56.3552C426.42 56.0583 425.957 55.9099 425.359 55.9099C424.805 55.9099 424.371 56.033 424.059 56.2791C423.75 56.5212 423.596 56.8591 423.596 57.2927C423.596 57.6404 423.742 57.9353 424.035 58.1775C424.332 58.4158 424.834 58.6345 425.541 58.8337C426.252 59.033 426.807 59.2537 427.205 59.4958C427.607 59.7341 427.904 60.0134 428.096 60.3337C428.291 60.6541 428.389 61.031 428.389 61.4646C428.389 62.156 428.119 62.7107 427.58 63.1287C427.041 63.5427 426.32 63.7498 425.418 63.7498C424.832 63.7498 424.285 63.6384 423.777 63.4158C423.269 63.1892 422.877 62.8806 422.6 62.49C422.326 62.0994 422.189 61.656 422.189 61.1599H423.32C423.32 61.6755 423.51 62.0837 423.889 62.3845C424.271 62.6814 424.781 62.8298 425.418 62.8298C426.012 62.8298 426.467 62.7087 426.783 62.4666C427.1 62.2244 427.258 61.8943 427.258 61.4763C427.258 61.0583 427.111 60.7361 426.818 60.5095C426.525 60.2791 425.994 60.0525 425.225 59.8298ZM432.297 63.7498C431.437 63.7498 430.738 63.4685 430.199 62.906C429.66 62.3396 429.391 61.5837 429.391 60.6384V60.4392C429.391 59.8103 429.51 59.2498 429.748 58.7576C429.99 58.2615 430.326 57.8748 430.756 57.5974C431.189 57.3162 431.658 57.1755 432.162 57.1755C432.986 57.1755 433.627 57.447 434.084 57.99C434.541 58.533 434.769 59.3103 434.769 60.322V60.7732H430.475C430.49 61.3982 430.672 61.9041 431.019 62.2908C431.371 62.6736 431.816 62.865 432.355 62.865C432.738 62.865 433.062 62.7869 433.328 62.6306C433.594 62.4744 433.826 62.2673 434.025 62.0095L434.687 62.5251C434.156 63.3416 433.359 63.7498 432.297 63.7498ZM432.162 58.0662C431.725 58.0662 431.357 58.2263 431.06 58.5466C430.764 58.863 430.58 59.3083 430.51 59.8826H433.685V59.8005C433.654 59.2498 433.506 58.824 433.24 58.5232C432.975 58.2185 432.615 58.0662 432.162 58.0662ZM438.572 62.865C438.959 62.865 439.297 62.7478 439.586 62.5134C439.875 62.2791 440.035 61.9861 440.066 61.6345H441.092C441.072 61.9978 440.947 62.3435 440.717 62.6716C440.486 62.9998 440.178 63.2615 439.791 63.4568C439.408 63.6521 439.002 63.7498 438.572 63.7498C437.709 63.7498 437.021 63.4626 436.51 62.8884C436.002 62.3103 435.748 61.5212 435.748 60.5212V60.3396C435.748 59.7224 435.861 59.1736 436.088 58.6931C436.314 58.2126 436.639 57.8396 437.06 57.574C437.486 57.3083 437.988 57.1755 438.566 57.1755C439.277 57.1755 439.867 57.3884 440.336 57.8142C440.809 58.24 441.06 58.7927 441.092 59.4724H440.066C440.035 59.0623 439.879 58.7263 439.598 58.4646C439.32 58.199 438.976 58.0662 438.566 58.0662C438.016 58.0662 437.588 58.2654 437.283 58.6638C436.982 59.0583 436.832 59.6306 436.832 60.3806V60.5857C436.832 61.3162 436.982 61.8787 437.283 62.2732C437.584 62.6677 438.014 62.865 438.572 62.865ZM443.781 55.7576V57.2927H444.965V58.1306H443.781V62.0623C443.781 62.3162 443.834 62.5076 443.939 62.6365C444.045 62.7615 444.225 62.824 444.478 62.824C444.603 62.824 444.775 62.8005 444.994 62.7537V63.6326C444.709 63.7107 444.432 63.7498 444.162 63.7498C443.678 63.7498 443.312 63.6033 443.066 63.3103C442.82 63.0173 442.697 62.6013 442.697 62.0623V58.1306H441.543V57.2927H442.697V55.7576H443.781ZM447.414 63.6326H446.33V57.2927H447.414V63.6326ZM446.242 55.6111C446.242 55.4353 446.295 55.2869 446.4 55.1658C446.51 55.0447 446.67 54.9841 446.881 54.9841C447.092 54.9841 447.252 55.0447 447.361 55.1658C447.471 55.2869 447.525 55.4353 447.525 55.6111C447.525 55.7869 447.471 55.9333 447.361 56.0505C447.252 56.1677 447.092 56.2263 446.881 56.2263C446.67 56.2263 446.51 56.1677 446.4 56.0505C446.295 55.9333 446.242 55.7869 446.242 55.6111ZM448.867 60.4041C448.867 59.783 448.988 59.2244 449.23 58.7283C449.476 58.2322 449.816 57.8494 450.25 57.5798C450.687 57.3103 451.185 57.1755 451.744 57.1755C452.607 57.1755 453.305 57.4744 453.836 58.072C454.371 58.6697 454.639 59.4646 454.639 60.4568V60.533C454.639 61.1501 454.519 61.7048 454.281 62.197C454.047 62.6853 453.709 63.0662 453.267 63.3396C452.83 63.613 452.326 63.7498 451.756 63.7498C450.896 63.7498 450.199 63.4509 449.664 62.8533C449.133 62.2556 448.867 61.4646 448.867 60.4802V60.4041ZM449.957 60.533C449.957 61.2361 450.119 61.8005 450.443 62.2263C450.771 62.6521 451.209 62.865 451.756 62.865C452.307 62.865 452.744 62.6501 453.068 62.2205C453.392 61.7869 453.555 61.1814 453.555 60.4041C453.555 59.7087 453.389 59.1462 453.057 58.7166C452.728 58.283 452.291 58.0662 451.744 58.0662C451.209 58.0662 450.777 58.2791 450.449 58.7048C450.121 59.1306 449.957 59.74 449.957 60.533ZM457.023 57.2927L457.059 58.0896C457.543 57.4802 458.176 57.1755 458.957 57.1755C460.297 57.1755 460.973 57.9314 460.984 59.4431V63.6326H459.9V59.4373C459.896 58.9802 459.791 58.6423 459.584 58.4236C459.381 58.2048 459.062 58.0955 458.629 58.0955C458.277 58.0955 457.969 58.1892 457.703 58.3767C457.437 58.5642 457.23 58.8103 457.082 59.115V63.6326H455.998V57.2927H457.023Z" fill="black"/>
<path d="M726.5 59.8298C725.535 59.5525 724.832 59.2126 724.391 58.8103C723.953 58.4041 723.735 57.9041 723.735 57.3103C723.735 56.6384 724.002 56.0837 724.537 55.6462C725.076 55.2048 725.776 54.9841 726.635 54.9841C727.221 54.9841 727.742 55.0974 728.2 55.324C728.66 55.5505 729.016 55.863 729.266 56.2615C729.52 56.6599 729.647 57.0955 729.647 57.5681H728.516C728.516 57.0525 728.352 56.6482 728.024 56.3552C727.696 56.0583 727.233 55.9099 726.635 55.9099C726.08 55.9099 725.647 56.033 725.334 56.2791C725.026 56.5212 724.871 56.8591 724.871 57.2927C724.871 57.6404 725.018 57.9353 725.311 58.1775C725.608 58.4158 726.11 58.6345 726.817 58.8337C727.528 59.033 728.082 59.2537 728.481 59.4958C728.883 59.7341 729.18 60.0134 729.371 60.3337C729.567 60.6541 729.664 61.031 729.664 61.4646C729.664 62.156 729.395 62.7107 728.856 63.1287C728.317 63.5427 727.596 63.7498 726.694 63.7498C726.108 63.7498 725.561 63.6384 725.053 63.4158C724.545 63.1892 724.153 62.8806 723.875 62.49C723.602 62.0994 723.465 61.656 723.465 61.1599H724.596C724.596 61.6755 724.785 62.0837 725.164 62.3845C725.547 62.6814 726.057 62.8298 726.694 62.8298C727.287 62.8298 727.742 62.7087 728.059 62.4666C728.375 62.2244 728.533 61.8943 728.533 61.4763C728.533 61.0583 728.387 60.7361 728.094 60.5095C727.801 60.2791 727.27 60.0525 726.5 59.8298ZM734.856 63.0056C734.434 63.5017 733.815 63.7498 732.998 63.7498C732.323 63.7498 731.807 63.5544 731.451 63.1638C731.1 62.7693 730.922 62.1873 730.918 61.4177V57.2927H732.002V61.3884C732.002 62.3494 732.393 62.8298 733.174 62.8298C734.002 62.8298 734.553 62.5212 734.826 61.9041V57.2927H735.91V63.6326H734.879L734.856 63.0056ZM738.582 57.2927L738.612 57.9958C739.076 57.449 739.703 57.1755 740.492 57.1755C741.379 57.1755 741.983 57.5154 742.303 58.1951C742.514 57.8904 742.787 57.6443 743.123 57.4568C743.463 57.2693 743.864 57.1755 744.325 57.1755C745.715 57.1755 746.422 57.9119 746.446 59.3845V63.6326H745.362V59.449C745.362 58.9958 745.258 58.658 745.051 58.4353C744.844 58.2087 744.496 58.0955 744.008 58.0955C743.606 58.0955 743.272 58.2166 743.006 58.4587C742.741 58.697 742.586 59.0193 742.543 59.4255V63.6326H741.453V59.4783C741.453 58.5564 741.002 58.0955 740.1 58.0955C739.389 58.0955 738.903 58.3982 738.641 59.0037V63.6326H737.557V57.2927H738.582ZM749.106 57.2927L749.135 57.9958C749.6 57.449 750.227 57.1755 751.016 57.1755C751.903 57.1755 752.506 57.5154 752.826 58.1951C753.037 57.8904 753.311 57.6443 753.647 57.4568C753.987 57.2693 754.387 57.1755 754.848 57.1755C756.239 57.1755 756.946 57.9119 756.969 59.3845V63.6326H755.885V59.449C755.885 58.9958 755.782 58.658 755.575 58.4353C755.367 58.2087 755.02 58.0955 754.532 58.0955C754.129 58.0955 753.795 58.2166 753.53 58.4587C753.264 58.697 753.11 59.0193 753.067 59.4255V63.6326H751.977V59.4783C751.977 58.5564 751.526 58.0955 750.623 58.0955C749.912 58.0955 749.426 58.3982 749.164 59.0037V63.6326H748.08V57.2927H749.106ZM762.524 63.6326C762.461 63.5076 762.41 63.2849 762.371 62.9646C761.867 63.488 761.266 63.7498 760.567 63.7498C759.942 63.7498 759.428 63.574 759.026 63.2224C758.627 62.8669 758.428 62.4177 758.428 61.8748C758.428 61.2146 758.678 60.7029 759.178 60.3396C759.682 59.9724 760.389 59.7888 761.299 59.7888H762.354V59.2908C762.354 58.9119 762.241 58.6111 762.014 58.3884C761.787 58.1619 761.453 58.0486 761.012 58.0486C760.625 58.0486 760.301 58.1462 760.039 58.3416C759.778 58.5369 759.647 58.7732 759.647 59.0505H758.557C758.557 58.7341 758.668 58.4294 758.891 58.1365C759.117 57.8396 759.422 57.6052 759.805 57.4333C760.192 57.2615 760.616 57.1755 761.076 57.1755C761.807 57.1755 762.379 57.3591 762.793 57.7263C763.207 58.0896 763.422 58.5916 763.438 59.2322V62.1501C763.438 62.7322 763.512 63.1951 763.66 63.5388V63.6326H762.524ZM760.725 62.8064C761.065 62.8064 761.387 62.7185 761.692 62.5427C761.996 62.3669 762.217 62.1384 762.354 61.8572V60.5564H761.504C760.176 60.5564 759.512 60.9451 759.512 61.7224C759.512 62.0623 759.625 62.3279 759.852 62.5193C760.078 62.7107 760.369 62.8064 760.725 62.8064ZM768.201 58.2654C768.037 58.238 767.86 58.2244 767.668 58.2244C766.957 58.2244 766.475 58.5271 766.221 59.1326V63.6326H765.137V57.2927H766.192L766.209 58.0251C766.565 57.4587 767.069 57.1755 767.721 57.1755C767.932 57.1755 768.092 57.2029 768.201 57.2576V58.2654ZM771.383 62.0447L772.86 57.2927H774.02L771.471 64.6111C771.076 65.6658 770.45 66.1931 769.59 66.1931L769.385 66.1755L768.981 66.0994V65.2205L769.274 65.2439C769.641 65.2439 769.926 65.1697 770.129 65.0212C770.336 64.8728 770.506 64.6013 770.639 64.2068L770.879 63.5623L768.617 57.2927H769.801L771.383 62.0447Z" fill="black"/>
<path d="M73.9816 63.6326H72.8566V55.1013H73.9816V63.6326ZM76.8996 57.2927L76.9348 58.0896C77.4191 57.4802 78.052 57.1755 78.8332 57.1755C80.173 57.1755 80.8488 57.9314 80.8605 59.4431V63.6326H79.7766V59.4373C79.7727 58.9802 79.6672 58.6423 79.4602 58.4236C79.257 58.2048 78.9387 58.0955 78.5051 58.0955C78.1535 58.0955 77.8449 58.1892 77.5793 58.3767C77.3137 58.5642 77.1066 58.8103 76.9582 59.115V63.6326H75.8742V57.2927H76.8996ZM83.966 55.7576V57.2927H85.1496V58.1306H83.966V62.0623C83.966 62.3162 84.0188 62.5076 84.1242 62.6365C84.2297 62.7615 84.4094 62.824 84.6633 62.824C84.7883 62.824 84.9602 62.8005 85.1789 62.7537V63.6326C84.8938 63.7107 84.6164 63.7498 84.3469 63.7498C83.8625 63.7498 83.4973 63.6033 83.2512 63.3103C83.0051 63.0173 82.882 62.6013 82.882 62.0623V58.1306H81.7277V57.2927H82.882V55.7576H83.966ZM89.4855 58.2654C89.3215 58.238 89.1438 58.2244 88.9523 58.2244C88.2414 58.2244 87.759 58.5271 87.5051 59.1326V63.6326H86.4211V57.2927H87.4758L87.4934 58.0251C87.8488 57.4587 88.3527 57.1755 89.0051 57.1755C89.216 57.1755 89.3762 57.2029 89.4855 57.2576V58.2654ZM90.0832 60.4041C90.0832 59.783 90.2043 59.2244 90.4465 58.7283C90.6926 58.2322 91.0324 57.8494 91.466 57.5798C91.9035 57.3103 92.4016 57.1755 92.9602 57.1755C93.8234 57.1755 94.5207 57.4744 95.052 58.072C95.5871 58.6697 95.8547 59.4646 95.8547 60.4568V60.533C95.8547 61.1501 95.7355 61.7048 95.4973 62.197C95.2629 62.6853 94.925 63.0662 94.4836 63.3396C94.0461 63.613 93.5422 63.7498 92.9719 63.7498C92.1125 63.7498 91.4152 63.4509 90.8801 62.8533C90.3488 62.2556 90.0832 61.4646 90.0832 60.4802V60.4041ZM91.173 60.533C91.173 61.2361 91.3352 61.8005 91.6594 62.2263C91.9875 62.6521 92.425 62.865 92.9719 62.865C93.5227 62.865 93.9602 62.6501 94.2844 62.2205C94.6086 61.7869 94.7707 61.1814 94.7707 60.4041C94.7707 59.7087 94.6047 59.1462 94.2727 58.7166C93.9445 58.283 93.507 58.0662 92.9602 58.0662C92.425 58.0662 91.9934 58.2791 91.6652 58.7048C91.3371 59.1306 91.173 59.74 91.173 60.533ZM96.9504 60.4099C96.9504 59.4373 97.1809 58.656 97.6418 58.0662C98.1027 57.4724 98.7063 57.1755 99.4523 57.1755C100.195 57.1755 100.782 57.4294 101.216 57.9373V54.6326H102.3V63.6326H101.304L101.251 62.9529C100.818 63.4841 100.214 63.7498 99.4406 63.7498C98.7063 63.7498 98.1066 63.449 97.6418 62.8474C97.1809 62.2458 96.9504 61.4607 96.9504 60.4919V60.4099ZM98.0344 60.533C98.0344 61.2517 98.1828 61.8142 98.4797 62.2205C98.7766 62.6267 99.1867 62.8298 99.7102 62.8298C100.398 62.8298 100.9 62.5212 101.216 61.9041V58.9919C100.892 58.3943 100.394 58.0955 99.7219 58.0955C99.1906 58.0955 98.7766 58.3005 98.4797 58.7107C98.1828 59.1208 98.0344 59.7283 98.0344 60.533ZM107.902 63.0056C107.48 63.5017 106.861 63.7498 106.044 63.7498C105.368 63.7498 104.853 63.5544 104.497 63.1638C104.146 62.7693 103.968 62.1873 103.964 61.4177V57.2927H105.048V61.3884C105.048 62.3494 105.439 62.8298 106.22 62.8298C107.048 62.8298 107.599 62.5212 107.872 61.9041V57.2927H108.956V63.6326H107.925L107.902 63.0056ZM113.152 62.865C113.538 62.865 113.876 62.7478 114.165 62.5134C114.454 62.2791 114.614 61.9861 114.646 61.6345H115.671C115.652 61.9978 115.527 62.3435 115.296 62.6716C115.066 62.9998 114.757 63.2615 114.37 63.4568C113.988 63.6521 113.581 63.7498 113.152 63.7498C112.288 63.7498 111.601 63.4626 111.089 62.8884C110.581 62.3103 110.327 61.5212 110.327 60.5212V60.3396C110.327 59.7224 110.441 59.1736 110.667 58.6931C110.894 58.2126 111.218 57.8396 111.64 57.574C112.066 57.3083 112.568 57.1755 113.146 57.1755C113.857 57.1755 114.446 57.3884 114.915 57.8142C115.388 58.24 115.64 58.7927 115.671 59.4724H114.646C114.614 59.0623 114.458 58.7263 114.177 58.4646C113.9 58.199 113.556 58.0662 113.146 58.0662C112.595 58.0662 112.167 58.2654 111.863 58.6638C111.562 59.0583 111.411 59.6306 111.411 60.3806V60.5857C111.411 61.3162 111.562 61.8787 111.863 62.2732C112.163 62.6677 112.593 62.865 113.152 62.865ZM118.361 55.7576V57.2927H119.544V58.1306H118.361V62.0623C118.361 62.3162 118.413 62.5076 118.519 62.6365C118.624 62.7615 118.804 62.824 119.058 62.824C119.183 62.824 119.355 62.8005 119.573 62.7537V63.6326C119.288 63.7107 119.011 63.7498 118.741 63.7498C118.257 63.7498 117.892 63.6033 117.646 63.3103C117.4 63.0173 117.277 62.6013 117.277 62.0623V58.1306H116.122V57.2927H117.277V55.7576H118.361ZM121.993 63.6326H120.909V57.2927H121.993V63.6326ZM120.821 55.6111C120.821 55.4353 120.874 55.2869 120.98 55.1658C121.089 55.0447 121.249 54.9841 121.46 54.9841C121.671 54.9841 121.831 55.0447 121.941 55.1658C122.05 55.2869 122.105 55.4353 122.105 55.6111C122.105 55.7869 122.05 55.9333 121.941 56.0505C121.831 56.1677 121.671 56.2263 121.46 56.2263C121.249 56.2263 121.089 56.1677 120.98 56.0505C120.874 55.9333 120.821 55.7869 120.821 55.6111ZM123.446 60.4041C123.446 59.783 123.568 59.2244 123.81 58.7283C124.056 58.2322 124.396 57.8494 124.829 57.5798C125.267 57.3103 125.765 57.1755 126.323 57.1755C127.187 57.1755 127.884 57.4744 128.415 58.072C128.95 58.6697 129.218 59.4646 129.218 60.4568V60.533C129.218 61.1501 129.099 61.7048 128.861 62.197C128.626 62.6853 128.288 63.0662 127.847 63.3396C127.409 63.613 126.905 63.7498 126.335 63.7498C125.476 63.7498 124.779 63.4509 124.243 62.8533C123.712 62.2556 123.446 61.4646 123.446 60.4802V60.4041ZM124.536 60.533C124.536 61.2361 124.698 61.8005 125.023 62.2263C125.351 62.6521 125.788 62.865 126.335 62.865C126.886 62.865 127.323 62.6501 127.648 62.2205C127.972 61.7869 128.134 61.1814 128.134 60.4041C128.134 59.7087 127.968 59.1462 127.636 58.7166C127.308 58.283 126.87 58.0662 126.323 58.0662C125.788 58.0662 125.357 58.2791 125.029 58.7048C124.7 59.1306 124.536 59.74 124.536 60.533ZM131.603 57.2927L131.638 58.0896C132.122 57.4802 132.755 57.1755 133.536 57.1755C134.876 57.1755 135.552 57.9314 135.564 59.4431V63.6326H134.48V59.4373C134.476 58.9802 134.37 58.6423 134.163 58.4236C133.96 58.2048 133.642 58.0955 133.208 58.0955C132.857 58.0955 132.548 58.1892 132.282 58.3767C132.017 58.5642 131.81 58.8103 131.661 59.115V63.6326H130.577V57.2927H131.603Z" fill="black"/>
<path d="M23.5867 105.265H22.4969V98.0408L20.3113 98.8435V97.8591L23.4168 96.6931H23.5867V105.265Z" fill="black"/>
<path d="M78.9891 105.265H73.3992V104.486L76.3523 101.205C76.7898 100.709 77.0906 100.306 77.2547 99.9978C77.4227 99.6853 77.5066 99.363 77.5066 99.031C77.5066 98.5857 77.3719 98.2205 77.1023 97.9353C76.8328 97.6501 76.4734 97.5076 76.0242 97.5076C75.4852 97.5076 75.0652 97.6619 74.7645 97.9705C74.4676 98.2751 74.3191 98.7009 74.3191 99.2478H73.2352C73.2352 98.4626 73.4871 97.8279 73.991 97.3435C74.4988 96.8591 75.1766 96.6169 76.0242 96.6169C76.8172 96.6169 77.4441 96.8259 77.9051 97.2439C78.366 97.658 78.5965 98.2107 78.5965 98.9021C78.5965 99.7419 78.0613 100.742 76.991 101.902L74.7059 104.381H78.9891V105.265Z" fill="black"/>
<path d="M131.019 100.472H131.834C132.346 100.465 132.748 100.33 133.041 100.068C133.334 99.8064 133.48 99.4529 133.48 99.0076C133.48 98.0076 132.982 97.5076 131.986 97.5076C131.517 97.5076 131.142 97.6423 130.861 97.9119C130.584 98.1775 130.445 98.531 130.445 98.9724H129.361C129.361 98.2966 129.607 97.7361 130.099 97.2908C130.596 96.8416 131.224 96.6169 131.986 96.6169C132.791 96.6169 133.422 96.8298 133.879 97.2556C134.336 97.6814 134.564 98.2732 134.564 99.031C134.564 99.4021 134.443 99.7615 134.201 100.109C133.963 100.457 133.637 100.717 133.222 100.888C133.691 101.037 134.053 101.283 134.306 101.627C134.564 101.97 134.693 102.39 134.693 102.886C134.693 103.652 134.443 104.26 133.943 104.709C133.443 105.158 132.793 105.383 131.992 105.383C131.191 105.383 130.539 105.166 130.035 104.732C129.535 104.299 129.285 103.726 129.285 103.015H130.375C130.375 103.465 130.521 103.824 130.814 104.094C131.107 104.363 131.5 104.498 131.992 104.498C132.515 104.498 132.916 104.361 133.193 104.088C133.471 103.814 133.609 103.422 133.609 102.91C133.609 102.414 133.457 102.033 133.152 101.767C132.847 101.502 132.408 101.365 131.834 101.357H131.019V100.472Z" fill="black"/>
<path d="M187.394 102.4H188.578V103.285H187.394V105.265H186.304V103.285H182.42V102.646L186.24 96.7341H187.394V102.4ZM183.65 102.4H186.304V98.2166L186.176 98.4509L183.65 102.4Z" fill="black"/>
<path d="M238.025 100.988L238.459 96.7341H242.83V97.7361H239.379L239.121 100.062C239.539 99.8162 240.014 99.6931 240.545 99.6931C241.322 99.6931 241.939 99.9509 242.396 100.467C242.853 100.978 243.082 101.672 243.082 102.547C243.082 103.426 242.844 104.119 242.367 104.627C241.894 105.131 241.232 105.383 240.381 105.383C239.627 105.383 239.012 105.174 238.535 104.756C238.058 104.338 237.787 103.76 237.721 103.021H238.746C238.812 103.51 238.986 103.879 239.267 104.129C239.549 104.375 239.92 104.498 240.381 104.498C240.885 104.498 241.279 104.326 241.564 103.982C241.853 103.638 241.998 103.164 241.998 102.558C241.998 101.988 241.842 101.531 241.529 101.187C241.221 100.84 240.808 100.666 240.293 100.666C239.82 100.666 239.449 100.769 239.18 100.976L238.892 101.211L238.025 100.988Z" fill="black"/>
<path d="M295.156 96.7283V97.6482H294.957C294.113 97.6638 293.441 97.9138 292.941 98.3982C292.441 98.8826 292.152 99.5642 292.074 100.443C292.523 99.9275 293.137 99.6697 293.914 99.6697C294.656 99.6697 295.248 99.9314 295.689 100.455C296.135 100.978 296.357 101.654 296.357 102.482C296.357 103.361 296.117 104.064 295.637 104.592C295.16 105.119 294.519 105.383 293.715 105.383C292.898 105.383 292.236 105.07 291.728 104.445C291.221 103.816 290.967 103.008 290.967 102.019V101.603C290.967 100.033 291.301 98.8337 291.969 98.0056C292.641 97.1736 293.639 96.7478 294.963 96.7283H295.156ZM293.732 100.572C293.361 100.572 293.019 100.683 292.707 100.906C292.394 101.129 292.178 101.408 292.057 101.744V102.142C292.057 102.845 292.215 103.412 292.531 103.842C292.848 104.271 293.242 104.486 293.715 104.486C294.203 104.486 294.586 104.306 294.863 103.947C295.144 103.588 295.285 103.117 295.285 102.535C295.285 101.949 295.142 101.476 294.857 101.117C294.576 100.754 294.201 100.572 293.732 100.572Z" fill="black"/>
<path d="M349.785 97.3435L346.252 105.265H345.115L348.637 97.6248H344.019V96.7341H349.785V97.3435Z" fill="black"/>
<path d="M402.826 98.9607C402.826 99.3865 402.713 99.7654 402.486 100.097C402.264 100.429 401.961 100.689 401.578 100.877C402.023 101.068 402.375 101.347 402.633 101.715C402.894 102.082 403.025 102.498 403.025 102.963C403.025 103.701 402.775 104.289 402.275 104.726C401.779 105.164 401.125 105.383 400.312 105.383C399.492 105.383 398.834 105.164 398.338 104.726C397.846 104.285 397.6 103.697 397.6 102.963C397.6 102.502 397.725 102.086 397.975 101.715C398.228 101.344 398.578 101.062 399.023 100.871C398.644 100.683 398.346 100.424 398.127 100.092C397.908 99.7595 397.799 99.3826 397.799 98.9607C397.799 98.2419 398.029 97.6716 398.49 97.2498C398.951 96.8279 399.558 96.6169 400.312 96.6169C401.062 96.6169 401.668 96.8279 402.129 97.2498C402.594 97.6716 402.826 98.2419 402.826 98.9607ZM401.941 102.939C401.941 102.463 401.789 102.074 401.484 101.773C401.183 101.472 400.789 101.322 400.301 101.322C399.812 101.322 399.42 101.47 399.123 101.767C398.83 102.064 398.683 102.455 398.683 102.939C398.683 103.424 398.826 103.804 399.111 104.082C399.4 104.359 399.801 104.498 400.312 104.498C400.82 104.498 401.219 104.359 401.508 104.082C401.797 103.801 401.941 103.42 401.941 102.939ZM400.312 97.5076C399.887 97.5076 399.541 97.6404 399.275 97.906C399.014 98.1677 398.883 98.5251 398.883 98.9783C398.883 99.4119 399.012 99.7634 399.269 100.033C399.531 100.299 399.879 100.431 400.312 100.431C400.746 100.431 401.092 100.299 401.35 100.033C401.611 99.7634 401.742 99.4119 401.742 98.9783C401.742 98.5447 401.607 98.1912 401.338 97.9177C401.068 97.6443 400.726 97.5076 400.312 97.5076Z" fill="black"/>
<path d="M455.182 101.515C454.955 101.785 454.683 102.002 454.367 102.166C454.055 102.33 453.711 102.412 453.336 102.412C452.844 102.412 452.414 102.291 452.047 102.049C451.683 101.806 451.402 101.467 451.203 101.029C451.004 100.588 450.904 100.101 450.904 99.5701C450.904 98.9998 451.012 98.4861 451.226 98.0291C451.445 97.572 451.754 97.2224 452.152 96.9802C452.551 96.738 453.016 96.6169 453.547 96.6169C454.391 96.6169 455.055 96.9333 455.539 97.5662C456.027 98.1951 456.271 99.0544 456.271 100.144V100.461C456.271 102.121 455.943 103.334 455.287 104.099C454.631 104.861 453.641 105.252 452.316 105.271H452.105V104.357H452.334C453.228 104.342 453.916 104.109 454.396 103.66C454.877 103.207 455.139 102.492 455.182 101.515ZM453.512 101.515C453.875 101.515 454.209 101.404 454.514 101.181C454.822 100.959 455.047 100.683 455.187 100.355V99.9216C455.187 99.2107 455.033 98.6326 454.725 98.1873C454.416 97.7419 454.025 97.5193 453.553 97.5193C453.076 97.5193 452.693 97.7029 452.404 98.0701C452.115 98.4333 451.971 98.9138 451.971 99.5115C451.971 100.094 452.109 100.574 452.387 100.953C452.668 101.328 453.043 101.515 453.512 101.515Z" fill="black"/>
<path d="M503.261 105.265H502.171V98.0408L499.986 98.8435V97.8591L503.091 96.6931H503.261V105.265ZM511.787 101.627C511.787 102.896 511.57 103.84 511.136 104.457C510.703 105.074 510.025 105.383 509.103 105.383C508.193 105.383 507.519 105.082 507.082 104.48C506.644 103.875 506.417 102.972 506.402 101.773V100.326C506.402 99.072 506.619 98.1404 507.052 97.531C507.486 96.9216 508.166 96.6169 509.091 96.6169C510.009 96.6169 510.685 96.9119 511.119 97.5017C511.552 98.0876 511.775 98.9939 511.787 100.22V101.627ZM510.703 100.144C510.703 99.2263 510.574 98.5583 510.316 98.1404C510.058 97.7185 509.65 97.5076 509.091 97.5076C508.537 97.5076 508.132 97.7166 507.878 98.1345C507.625 98.5525 507.494 99.1951 507.486 100.062V101.797C507.486 102.719 507.619 103.4 507.884 103.842C508.154 104.279 508.56 104.498 509.103 104.498C509.638 104.498 510.035 104.291 510.292 103.877C510.554 103.463 510.691 102.81 510.703 101.92V100.144Z" fill="black"/>
<path d="M557.971 105.265H556.881V98.0408L554.695 98.8435V97.8591L557.801 96.6931H557.971V105.265ZM564.709 105.265H563.619V98.0408L561.433 98.8435V97.8591L564.539 96.6931H564.709V105.265Z" fill="black"/>
<path d="M610.011 105.265H608.921V98.0408L606.736 98.8435V97.8591L609.841 96.6931H610.011V105.265ZM618.777 105.265H613.187V104.486L616.14 101.205C616.578 100.709 616.878 100.306 617.042 99.9978C617.21 99.6853 617.294 99.363 617.294 99.031C617.294 98.5857 617.16 98.2205 616.89 97.9353C616.621 97.6501 616.261 97.5076 615.812 97.5076C615.273 97.5076 614.853 97.6619 614.552 97.9705C614.255 98.2751 614.107 98.7009 614.107 99.2478H613.023C613.023 98.4626 613.275 97.8279 613.779 97.3435C614.287 96.8591 614.964 96.6169 615.812 96.6169C616.605 96.6169 617.232 96.8259 617.693 97.2439C618.154 97.658 618.384 98.2107 618.384 98.9021C618.384 99.7419 617.849 100.742 616.779 101.902L614.494 104.381H618.777V105.265Z" fill="black"/>
<path d="M664.721 105.265H663.631V98.0408L661.445 98.8435V97.8591L664.551 96.6931H664.721V105.265ZM669.473 100.472H670.287C670.799 100.465 671.201 100.33 671.494 100.068C671.787 99.8064 671.933 99.4529 671.933 99.0076C671.933 98.0076 671.435 97.5076 670.439 97.5076C669.971 97.5076 669.596 97.6423 669.314 97.9119C669.037 98.1775 668.898 98.531 668.898 98.9724H667.814C667.814 98.2966 668.06 97.7361 668.553 97.2908C669.049 96.8416 669.678 96.6169 670.439 96.6169C671.244 96.6169 671.875 96.8298 672.332 97.2556C672.789 97.6814 673.017 98.2732 673.017 99.031C673.017 99.4021 672.896 99.7615 672.654 100.109C672.416 100.457 672.09 100.717 671.676 100.888C672.144 101.037 672.506 101.283 672.76 101.627C673.017 101.97 673.146 102.39 673.146 102.886C673.146 103.652 672.896 104.26 672.396 104.709C671.896 105.158 671.246 105.383 670.445 105.383C669.644 105.383 668.992 105.166 668.488 104.732C667.988 104.299 667.738 103.726 667.738 103.015H668.828C668.828 103.465 668.975 103.824 669.267 104.094C669.56 104.363 669.953 104.498 670.445 104.498C670.969 104.498 671.369 104.361 671.646 104.088C671.924 103.814 672.062 103.422 672.062 102.91C672.062 102.414 671.91 102.033 671.605 101.767C671.301 101.502 670.861 101.365 670.287 101.357H669.473V100.472Z" fill="black"/>
<path d="M719.43 105.265H718.34V98.0408L716.155 98.8435V97.8591L719.26 96.6931H719.43V105.265ZM727.182 102.4H728.366V103.285H727.182V105.265H726.092V103.285H722.207V102.646L726.028 96.7341H727.182V102.4ZM723.438 102.4H726.092V98.2166L725.963 98.4509L723.438 102.4Z" fill="black"/>
<path d="M772.805 105.265H771.715V98.0408L769.53 98.8435V97.8591L772.635 96.6931H772.805V105.265ZM776.479 100.988L776.913 96.7341H781.284V97.7361H777.833L777.575 100.062C777.993 99.8162 778.467 99.6931 778.999 99.6931C779.776 99.6931 780.393 99.9509 780.85 100.467C781.307 100.978 781.536 101.672 781.536 102.547C781.536 103.426 781.297 104.119 780.821 104.627C780.348 105.131 779.686 105.383 778.834 105.383C778.081 105.383 777.465 105.174 776.989 104.756C776.512 104.338 776.241 103.76 776.174 103.021H777.2C777.266 103.51 777.44 103.879 777.721 104.129C778.002 104.375 778.374 104.498 778.834 104.498C779.338 104.498 779.733 104.326 780.018 103.982C780.307 103.638 780.452 103.164 780.452 102.558C780.452 101.988 780.295 101.531 779.983 101.187C779.674 100.84 779.262 100.666 778.747 100.666C778.274 100.666 777.903 100.769 777.633 100.976L777.346 101.211L776.479 100.988Z" fill="black"/>
<path d="M827.515 105.265H826.425V98.0408L824.239 98.8435V97.8591L827.345 96.6931H827.515V105.265ZM834.944 96.7283V97.6482H834.745C833.901 97.6638 833.229 97.9138 832.729 98.3982C832.229 98.8826 831.94 99.5642 831.862 100.443C832.311 99.9275 832.925 99.6697 833.702 99.6697C834.444 99.6697 835.036 99.9314 835.477 100.455C835.923 100.978 836.145 101.654 836.145 102.482C836.145 103.361 835.905 104.064 835.425 104.592C834.948 105.119 834.308 105.383 833.503 105.383C832.686 105.383 832.024 105.07 831.517 104.445C831.009 103.816 830.755 103.008 830.755 102.019V101.603C830.755 100.033 831.089 98.8337 831.757 98.0056C832.429 97.1736 833.427 96.7478 834.751 96.7283H834.944ZM833.52 100.572C833.149 100.572 832.808 100.683 832.495 100.906C832.183 101.129 831.966 101.408 831.845 101.744V102.142C831.845 102.845 832.003 103.412 832.319 103.842C832.636 104.271 833.03 104.486 833.503 104.486C833.991 104.486 834.374 104.306 834.651 103.947C834.933 103.588 835.073 103.117 835.073 102.535C835.073 101.949 834.931 101.476 834.645 101.117C834.364 100.754 833.989 100.572 833.52 100.572Z" fill="black"/>
</svg>
