<svg width="855" height="122" viewBox="0 0 855 122" fill="none" xmlns="http://www.w3.org/2000/svg">
<path d="M5.30469 1H854V37.7347H5.30469" stroke="black"/>
<path d="M222.783 42.6326H637.075V79.3673H222.783" stroke="black"/>
<path d="M5.30469 42.6326H212.451V79.3673H5.30469" stroke="black"/>
<path d="M5.30469 84.2654H49.5495V121H5.30469" stroke="black"/>
<rect x="60.1045" y="84.7654" width="43.2448" height="35.7347" fill="white" stroke="black"/>
<rect x="114.405" y="84.7654" width="43.2448" height="35.7347" fill="white" stroke="black"/>
<rect x="168.706" y="84.7654" width="43.2448" height="35.7347" fill="white" stroke="black"/>
<path d="M222.783 84.2654H265.687V121H222.783" stroke="black"/>
<rect x="275.967" y="84.7654" width="41.904" height="35.7347" fill="white" stroke="black"/>
<rect x="328.926" y="84.7654" width="41.904" height="35.7347" fill="white" stroke="black"/>
<rect x="381.885" y="84.7654" width="41.904" height="35.7347" fill="white" stroke="black"/>
<rect x="434.846" y="84.7654" width="41.904" height="35.7347" fill="white" stroke="black"/>
<rect x="487.805" y="84.7654" width="41.904" height="35.7347" fill="white" stroke="black"/>
<rect x="540.765" y="84.7654" width="41.904" height="35.7347" fill="white" stroke="black"/>
<rect x="593.726" y="84.7654" width="41.904" height="35.7347" fill="white" stroke="black"/>
<rect x="647.354" y="84.7654" width="43.2448" height="35.7347" fill="white" stroke="black"/>
<rect x="701.654" y="84.7654" width="43.2448" height="35.7347" fill="white" stroke="black"/>
<rect x="755.956" y="84.7654" width="43.2448" height="35.7347" fill="white" stroke="black"/>
<rect x="810.255" y="84.7654" width="43.2448" height="35.7347" fill="white" stroke="black"/>
<rect x="647.354" y="43.1326" width="206.146" height="35.7347" fill="white" stroke="black"/>
<path d="M404.944 14.4688L407.733 21.4297L410.522 14.4688H411.981V23H410.856V19.6777L410.961 16.0918L408.16 23H407.299L404.504 16.1094L404.615 19.6777V23H403.49V14.4688H404.944ZM418.789 19.0566H415.092V22.0801H419.387V23H413.967V14.4688H419.328V15.3945H415.092V18.1367H418.789V19.0566ZM423.301 19.1973C422.336 18.9199 421.633 18.5801 421.192 18.1777C420.754 17.7715 420.535 17.2715 420.535 16.6777C420.535 16.0059 420.803 15.4512 421.338 15.0137C421.877 14.5723 422.576 14.3516 423.436 14.3516C424.022 14.3516 424.543 14.4648 425 14.6914C425.461 14.918 425.817 15.2305 426.067 15.6289C426.32 16.0273 426.447 16.4629 426.447 16.9355H425.317C425.317 16.4199 425.153 16.0156 424.824 15.7227C424.496 15.4258 424.033 15.2773 423.436 15.2773C422.881 15.2773 422.447 15.4004 422.135 15.6465C421.826 15.8887 421.672 16.2266 421.672 16.6602C421.672 17.0078 421.819 17.3027 422.112 17.5449C422.408 17.7832 422.91 18.002 423.617 18.2012C424.328 18.4004 424.883 18.6211 425.281 18.8633C425.684 19.1016 425.981 19.3809 426.172 19.7012C426.367 20.0215 426.465 20.3984 426.465 20.832C426.465 21.5234 426.195 22.0781 425.656 22.4961C425.117 22.9102 424.397 23.1172 423.494 23.1172C422.908 23.1172 422.362 23.0059 421.854 22.7832C421.346 22.5566 420.953 22.248 420.676 21.8574C420.403 21.4668 420.266 21.0234 420.266 20.5273H421.397C421.397 21.043 421.586 21.4512 421.965 21.752C422.348 22.0488 422.858 22.1973 423.494 22.1973C424.088 22.1973 424.543 22.0762 424.86 21.834C425.176 21.5918 425.334 21.2617 425.334 20.8438C425.334 20.4258 425.188 20.1035 424.895 19.877C424.602 19.6465 424.07 19.4199 423.301 19.1973ZM430.426 19.1973C429.461 18.9199 428.758 18.5801 428.317 18.1777C427.879 17.7715 427.66 17.2715 427.66 16.6777C427.66 16.0059 427.928 15.4512 428.463 15.0137C429.002 14.5723 429.701 14.3516 430.561 14.3516C431.147 14.3516 431.668 14.4648 432.125 14.6914C432.586 14.918 432.942 15.2305 433.192 15.6289C433.445 16.0273 433.572 16.4629 433.572 16.9355H432.442C432.442 16.4199 432.278 16.0156 431.949 15.7227C431.621 15.4258 431.158 15.2773 430.561 15.2773C430.006 15.2773 429.572 15.4004 429.26 15.6465C428.951 15.8887 428.797 16.2266 428.797 16.6602C428.797 17.0078 428.944 17.3027 429.237 17.5449C429.533 17.7832 430.035 18.002 430.742 18.2012C431.453 18.4004 432.008 18.6211 432.406 18.8633C432.809 19.1016 433.106 19.3809 433.297 19.7012C433.492 20.0215 433.59 20.3984 433.59 20.832C433.59 21.5234 433.32 22.0781 432.781 22.4961C432.242 22.9102 431.522 23.1172 430.619 23.1172C430.033 23.1172 429.487 23.0059 428.979 22.7832C428.471 22.5566 428.078 22.248 427.801 21.8574C427.528 21.4668 427.391 21.0234 427.391 20.5273H428.522C428.522 21.043 428.711 21.4512 429.09 21.752C429.473 22.0488 429.983 22.1973 430.619 22.1973C431.213 22.1973 431.668 22.0762 431.985 21.834C432.301 21.5918 432.459 21.2617 432.459 20.8438C432.459 20.4258 432.313 20.1035 432.02 19.877C431.727 19.6465 431.195 19.4199 430.426 19.1973ZM439.748 20.7734H436.174L435.371 23H434.211L437.469 14.4688H438.453L441.717 23H440.563L439.748 20.7734ZM436.514 19.8477H439.414L437.961 15.8574L436.514 19.8477ZM449.094 21.8809C448.805 22.2949 448.401 22.6055 447.881 22.8125C447.365 23.0156 446.764 23.1172 446.076 23.1172C445.381 23.1172 444.764 22.9551 444.225 22.6309C443.686 22.3027 443.268 21.8379 442.971 21.2363C442.678 20.6348 442.528 19.9375 442.52 19.1445V18.4004C442.52 17.1152 442.819 16.1191 443.416 15.4121C444.018 14.7051 444.862 14.3516 445.947 14.3516C446.838 14.3516 447.555 14.5801 448.098 15.0371C448.641 15.4902 448.973 16.1348 449.094 16.9707H447.969C447.758 15.8418 447.086 15.2773 445.953 15.2773C445.199 15.2773 444.627 15.543 444.237 16.0742C443.85 16.6016 443.654 17.3672 443.651 18.3711V19.0684C443.651 20.0254 443.869 20.7871 444.307 21.3535C444.744 21.916 445.336 22.1973 446.082 22.1973C446.504 22.1973 446.873 22.1504 447.19 22.0566C447.506 21.9629 447.768 21.8047 447.975 21.582V19.666H446V18.752H449.094V21.8809ZM455.797 19.0566H452.1V22.0801H456.395V23H450.975V14.4688H456.336V15.3945H452.1V18.1367H455.797V19.0566Z" fill="black"/>
<path d="M397.297 56.1013L400.086 63.0623L402.875 56.1013H404.334V64.6326H403.209V61.3103L403.314 57.7244L400.514 64.6326H399.652L396.857 57.7419L396.969 61.3103V64.6326H395.844V56.1013H397.297ZM410.064 64.6326C410.002 64.5076 409.951 64.2849 409.912 63.9646C409.408 64.488 408.807 64.7498 408.107 64.7498C407.482 64.7498 406.969 64.574 406.566 64.2224C406.168 63.8669 405.969 63.4177 405.969 62.8748C405.969 62.2146 406.219 61.7029 406.719 61.3396C407.223 60.9724 407.93 60.7888 408.84 60.7888H409.894V60.2908C409.894 59.9119 409.781 59.6111 409.555 59.3884C409.328 59.1619 408.994 59.0486 408.553 59.0486C408.166 59.0486 407.842 59.1462 407.58 59.3416C407.318 59.5369 407.187 59.7732 407.187 60.0505H406.098C406.098 59.7341 406.209 59.4294 406.432 59.1365C406.658 58.8396 406.963 58.6052 407.346 58.4333C407.732 58.2615 408.156 58.1755 408.617 58.1755C409.348 58.1755 409.92 58.3591 410.334 58.7263C410.748 59.0896 410.963 59.5916 410.978 60.2322V63.1501C410.978 63.7322 411.053 64.1951 411.201 64.5388V64.6326H410.064ZM408.266 63.8064C408.605 63.8064 408.928 63.7185 409.232 63.5427C409.537 63.3669 409.758 63.1384 409.894 62.8572V61.5564H409.045C407.717 61.5564 407.053 61.9451 407.053 62.7224C407.053 63.0623 407.166 63.3279 407.393 63.5193C407.619 63.7107 407.91 63.8064 408.266 63.8064ZM413.855 64.6326H412.771V58.2927H413.855V64.6326ZM412.684 56.6111C412.684 56.4353 412.736 56.2869 412.842 56.1658C412.951 56.0447 413.111 55.9841 413.322 55.9841C413.533 55.9841 413.693 56.0447 413.803 56.1658C413.912 56.2869 413.967 56.4353 413.967 56.6111C413.967 56.7869 413.912 56.9333 413.803 57.0505C413.693 57.1677 413.533 57.2263 413.322 57.2263C413.111 57.2263 412.951 57.1677 412.842 57.0505C412.736 56.9333 412.684 56.7869 412.684 56.6111ZM416.621 58.2927L416.656 59.0896C417.141 58.4802 417.773 58.1755 418.555 58.1755C419.894 58.1755 420.57 58.9314 420.582 60.4431V64.6326H419.498V60.4373C419.494 59.9802 419.389 59.6423 419.182 59.4236C418.978 59.2048 418.66 59.0955 418.227 59.0955C417.875 59.0955 417.566 59.1892 417.301 59.3767C417.035 59.5642 416.828 59.8103 416.68 60.115V64.6326H415.596V58.2927H416.621ZM427.877 60.8298C426.912 60.5525 426.209 60.2126 425.768 59.8103C425.33 59.4041 425.111 58.9041 425.111 58.3103C425.111 57.6384 425.379 57.0837 425.914 56.6462C426.453 56.2048 427.152 55.9841 428.012 55.9841C428.598 55.9841 429.119 56.0974 429.576 56.324C430.037 56.5505 430.393 56.863 430.643 57.2615C430.896 57.6599 431.023 58.0955 431.023 58.5681H429.893C429.893 58.0525 429.728 57.6482 429.4 57.3552C429.072 57.0583 428.609 56.9099 428.012 56.9099C427.457 56.9099 427.023 57.033 426.711 57.2791C426.402 57.5212 426.248 57.8591 426.248 58.2927C426.248 58.6404 426.394 58.9353 426.687 59.1775C426.984 59.4158 427.486 59.6345 428.193 59.8337C428.904 60.033 429.459 60.2537 429.857 60.4958C430.26 60.7341 430.557 61.0134 430.748 61.3337C430.943 61.6541 431.041 62.031 431.041 62.4646C431.041 63.156 430.771 63.7107 430.232 64.1287C429.693 64.5427 428.973 64.7498 428.07 64.7498C427.484 64.7498 426.937 64.6384 426.43 64.4158C425.922 64.1892 425.529 63.8806 425.252 63.49C424.978 63.0994 424.842 62.656 424.842 62.1599H425.973C425.973 62.6755 426.162 63.0837 426.541 63.3845C426.924 63.6814 427.434 63.8298 428.07 63.8298C428.664 63.8298 429.119 63.7087 429.435 63.4666C429.752 63.2244 429.91 62.8943 429.91 62.4763C429.91 62.0583 429.764 61.7361 429.471 61.5095C429.178 61.2791 428.646 61.0525 427.877 60.8298ZM434.949 64.7498C434.09 64.7498 433.391 64.4685 432.852 63.906C432.312 63.3396 432.043 62.5837 432.043 61.6384V61.4392C432.043 60.8103 432.162 60.2498 432.4 59.7576C432.643 59.2615 432.978 58.8748 433.408 58.5974C433.842 58.3162 434.31 58.1755 434.814 58.1755C435.639 58.1755 436.279 58.447 436.736 58.99C437.193 59.533 437.422 60.3103 437.422 61.322V61.7732H433.127C433.143 62.3982 433.324 62.9041 433.672 63.2908C434.023 63.6736 434.469 63.865 435.008 63.865C435.391 63.865 435.715 63.7869 435.98 63.6306C436.246 63.4744 436.478 63.2673 436.678 63.0095L437.34 63.5251C436.809 64.3416 436.012 64.7498 434.949 64.7498ZM434.814 59.0662C434.377 59.0662 434.01 59.2263 433.713 59.5466C433.416 59.863 433.232 60.3083 433.162 60.8826H436.338V60.8005C436.307 60.2498 436.158 59.824 435.893 59.5232C435.627 59.2185 435.268 59.0662 434.814 59.0662ZM441.225 63.865C441.611 63.865 441.949 63.7478 442.238 63.5134C442.527 63.2791 442.687 62.9861 442.719 62.6345H443.744C443.725 62.9978 443.6 63.3435 443.369 63.6716C443.139 63.9998 442.83 64.2615 442.443 64.4568C442.06 64.6521 441.654 64.7498 441.225 64.7498C440.361 64.7498 439.674 64.4626 439.162 63.8884C438.654 63.3103 438.4 62.5212 438.4 61.5212V61.3396C438.4 60.7224 438.514 60.1736 438.74 59.6931C438.967 59.2126 439.291 58.8396 439.713 58.574C440.139 58.3083 440.641 58.1755 441.219 58.1755C441.93 58.1755 442.519 58.3884 442.988 58.8142C443.461 59.24 443.713 59.7927 443.744 60.4724H442.719C442.687 60.0623 442.531 59.7263 442.25 59.4646C441.973 59.199 441.629 59.0662 441.219 59.0662C440.668 59.0662 440.24 59.2654 439.935 59.6638C439.635 60.0583 439.484 60.6306 439.484 61.3806V61.5857C439.484 62.3162 439.635 62.8787 439.935 63.2732C440.236 63.6677 440.666 63.865 441.225 63.865ZM446.434 56.7576V58.2927H447.617V59.1306H446.434V63.0623C446.434 63.3162 446.486 63.5076 446.592 63.6365C446.697 63.7615 446.877 63.824 447.131 63.824C447.256 63.824 447.428 63.8005 447.646 63.7537V64.6326C447.361 64.7107 447.084 64.7498 446.814 64.7498C446.33 64.7498 445.965 64.6033 445.719 64.3103C445.473 64.0173 445.35 63.6013 445.35 63.0623V59.1306H444.195V58.2927H445.35V56.7576H446.434ZM450.066 64.6326H448.982V58.2927H450.066V64.6326ZM448.894 56.6111C448.894 56.4353 448.947 56.2869 449.053 56.1658C449.162 56.0447 449.322 55.9841 449.533 55.9841C449.744 55.9841 449.904 56.0447 450.014 56.1658C450.123 56.2869 450.178 56.4353 450.178 56.6111C450.178 56.7869 450.123 56.9333 450.014 57.0505C449.904 57.1677 449.744 57.2263 449.533 57.2263C449.322 57.2263 449.162 57.1677 449.053 57.0505C448.947 56.9333 448.894 56.7869 448.894 56.6111ZM451.519 61.4041C451.519 60.783 451.641 60.2244 451.883 59.7283C452.129 59.2322 452.469 58.8494 452.902 58.5798C453.34 58.3103 453.838 58.1755 454.396 58.1755C455.26 58.1755 455.957 58.4744 456.488 59.072C457.023 59.6697 457.291 60.4646 457.291 61.4568V61.533C457.291 62.1501 457.172 62.7048 456.934 63.197C456.699 63.6853 456.361 64.0662 455.92 64.3396C455.482 64.613 454.978 64.7498 454.408 64.7498C453.549 64.7498 452.852 64.4509 452.316 63.8533C451.785 63.2556 451.519 62.4646 451.519 61.4802V61.4041ZM452.609 61.533C452.609 62.2361 452.771 62.8005 453.096 63.2263C453.424 63.6521 453.861 63.865 454.408 63.865C454.959 63.865 455.396 63.6501 455.721 63.2205C456.045 62.7869 456.207 62.1814 456.207 61.4041C456.207 60.7087 456.041 60.1462 455.709 59.7166C455.381 59.283 454.943 59.0662 454.396 59.0662C453.861 59.0662 453.43 59.2791 453.102 59.7048C452.773 60.1306 452.609 60.74 452.609 61.533ZM459.676 58.2927L459.711 59.0896C460.195 58.4802 460.828 58.1755 461.609 58.1755C462.949 58.1755 463.625 58.9314 463.637 60.4431V64.6326H462.553V60.4373C462.549 59.9802 462.443 59.6423 462.236 59.4236C462.033 59.2048 461.715 59.0955 461.281 59.0955C460.93 59.0955 460.621 59.1892 460.355 59.3767C460.09 59.5642 459.883 59.8103 459.734 60.115V64.6326H458.65V58.2927H459.676Z" fill="black"/>
<path d="M727.156 60.8298C726.191 60.5525 725.488 60.2126 725.047 59.8103C724.609 59.4041 724.39 58.9041 724.39 58.3103C724.39 57.6384 724.658 57.0837 725.193 56.6462C725.732 56.2048 726.431 55.9841 727.291 55.9841C727.877 55.9841 728.398 56.0974 728.855 56.324C729.316 56.5505 729.672 56.863 729.922 57.2615C730.176 57.6599 730.303 58.0955 730.303 58.5681H729.172C729.172 58.0525 729.008 57.6482 728.68 57.3552C728.351 57.0583 727.888 56.9099 727.291 56.9099C726.736 56.9099 726.303 57.033 725.99 57.2791C725.681 57.5212 725.527 57.8591 725.527 58.2927C725.527 58.6404 725.674 58.9353 725.967 59.1775C726.263 59.4158 726.765 59.6345 727.472 59.8337C728.183 60.033 728.738 60.2537 729.137 60.4958C729.539 60.7341 729.836 61.0134 730.027 61.3337C730.222 61.6541 730.32 62.031 730.32 62.4646C730.32 63.156 730.051 63.7107 729.512 64.1287C728.972 64.5427 728.252 64.7498 727.349 64.7498C726.763 64.7498 726.217 64.6384 725.709 64.4158C725.201 64.1892 724.808 63.8806 724.531 63.49C724.258 63.0994 724.121 62.656 724.121 62.1599H725.252C725.252 62.6755 725.441 63.0837 725.82 63.3845C726.203 63.6814 726.713 63.8298 727.349 63.8298C727.943 63.8298 728.398 63.7087 728.715 63.4666C729.031 63.2244 729.189 62.8943 729.189 62.4763C729.189 62.0583 729.043 61.7361 728.75 61.5095C728.457 61.2791 727.926 61.0525 727.156 60.8298ZM735.512 64.0056C735.09 64.5017 734.471 64.7498 733.654 64.7498C732.978 64.7498 732.463 64.5544 732.107 64.1638C731.756 63.7693 731.578 63.1873 731.574 62.4177V58.2927H732.658V62.3884C732.658 63.3494 733.049 63.8298 733.83 63.8298C734.658 63.8298 735.209 63.5212 735.482 62.9041V58.2927H736.566V64.6326H735.535L735.512 64.0056ZM739.238 58.2927L739.267 58.9958C739.732 58.449 740.359 58.1755 741.148 58.1755C742.035 58.1755 742.638 58.5154 742.959 59.1951C743.17 58.8904 743.443 58.6443 743.779 58.4568C744.119 58.2693 744.519 58.1755 744.98 58.1755C746.371 58.1755 747.078 58.9119 747.101 60.3845V64.6326H746.017V60.449C746.017 59.9958 745.914 59.658 745.707 59.4353C745.5 59.2087 745.152 59.0955 744.664 59.0955C744.262 59.0955 743.928 59.2166 743.662 59.4587C743.396 59.697 743.242 60.0193 743.199 60.4255V64.6326H742.109V60.4783C742.109 59.5564 741.658 59.0955 740.756 59.0955C740.045 59.0955 739.558 59.3982 739.297 60.0037V64.6326H738.213V58.2927H739.238ZM749.762 58.2927L749.791 58.9958C750.256 58.449 750.883 58.1755 751.672 58.1755C752.558 58.1755 753.162 58.5154 753.482 59.1951C753.693 58.8904 753.967 58.6443 754.303 58.4568C754.642 58.2693 755.043 58.1755 755.504 58.1755C756.894 58.1755 757.601 58.9119 757.625 60.3845V64.6326H756.541V60.449C756.541 59.9958 756.437 59.658 756.23 59.4353C756.023 59.2087 755.676 59.0955 755.187 59.0955C754.785 59.0955 754.451 59.2166 754.185 59.4587C753.92 59.697 753.765 60.0193 753.722 60.4255V64.6326H752.633V60.4783C752.633 59.5564 752.181 59.0955 751.279 59.0955C750.568 59.0955 750.082 59.3982 749.82 60.0037V64.6326H748.736V58.2927H749.762ZM763.18 64.6326C763.117 64.5076 763.066 64.2849 763.027 63.9646C762.523 64.488 761.922 64.7498 761.222 64.7498C760.597 64.7498 760.084 64.574 759.681 64.2224C759.283 63.8669 759.084 63.4177 759.084 62.8748C759.084 62.2146 759.334 61.7029 759.834 61.3396C760.338 60.9724 761.045 60.7888 761.955 60.7888H763.01V60.2908C763.01 59.9119 762.896 59.6111 762.67 59.3884C762.443 59.1619 762.109 59.0486 761.668 59.0486C761.281 59.0486 760.957 59.1462 760.695 59.3416C760.433 59.5369 760.303 59.7732 760.303 60.0505H759.213C759.213 59.7341 759.324 59.4294 759.547 59.1365C759.773 58.8396 760.078 58.6052 760.461 58.4333C760.847 58.2615 761.271 58.1755 761.732 58.1755C762.463 58.1755 763.035 58.3591 763.449 58.7263C763.863 59.0896 764.078 59.5916 764.094 60.2322V63.1501C764.094 63.7322 764.168 64.1951 764.316 64.5388V64.6326H763.18ZM761.381 63.8064C761.721 63.8064 762.043 63.7185 762.347 63.5427C762.652 63.3669 762.873 63.1384 763.01 62.8572V61.5564H762.16C760.832 61.5564 760.168 61.9451 760.168 62.7224C760.168 63.0623 760.281 63.3279 760.508 63.5193C760.734 63.7107 761.025 63.8064 761.381 63.8064ZM768.857 59.2654C768.693 59.238 768.515 59.2244 768.324 59.2244C767.613 59.2244 767.131 59.5271 766.877 60.1326V64.6326H765.793V58.2927H766.847L766.865 59.0251C767.221 58.4587 767.724 58.1755 768.377 58.1755C768.588 58.1755 768.748 58.2029 768.857 58.2576V59.2654ZM772.039 63.0447L773.515 58.2927H774.676L772.127 65.6111C771.732 66.6658 771.105 67.1931 770.246 67.1931L770.041 67.1755L769.637 67.0994V66.2205L769.93 66.2439C770.297 66.2439 770.582 66.1697 770.785 66.0212C770.992 65.8728 771.162 65.6013 771.295 65.2068L771.535 64.5623L769.273 58.2927H770.457L772.039 63.0447Z" fill="black"/>
<path d="M79.9662 65.4285H78.8412V56.8972H79.9662V65.4285ZM82.8841 59.0886L82.9193 59.8855C83.4037 59.2761 84.0365 58.9714 84.8177 58.9714C86.1576 58.9714 86.8334 59.7273 86.8451 61.239V65.4285H85.7611V61.2332C85.7572 60.7761 85.6517 60.4382 85.4447 60.2195C85.2416 60.0007 84.9232 59.8914 84.4896 59.8914C84.138 59.8914 83.8294 59.9851 83.5638 60.1726C83.2982 60.3601 83.0912 60.6062 82.9427 60.9109V65.4285H81.8587V59.0886H82.8841ZM89.9505 57.5535V59.0886H91.1341V59.9265H89.9505V63.8582C89.9505 64.1121 90.0033 64.3035 90.1087 64.4324C90.2142 64.5574 90.3939 64.6199 90.6478 64.6199C90.7728 64.6199 90.9447 64.5964 91.1634 64.5496V65.4285C90.8783 65.5066 90.6009 65.5457 90.3314 65.5457C89.847 65.5457 89.4818 65.3992 89.2357 65.1062C88.9896 64.8132 88.8666 64.3972 88.8666 63.8582V59.9265H87.7123V59.0886H88.8666V57.5535H89.9505ZM95.4701 60.0613C95.306 60.0339 95.1283 60.0203 94.9369 60.0203C94.2259 60.0203 93.7435 60.323 93.4896 60.9285V65.4285H92.4056V59.0886H93.4603L93.4779 59.821C93.8334 59.2546 94.3373 58.9714 94.9896 58.9714C95.2005 58.9714 95.3607 58.9988 95.4701 59.0535V60.0613ZM96.0677 62.2C96.0677 61.5789 96.1888 61.0203 96.431 60.5242C96.6771 60.0281 97.0169 59.6453 97.4505 59.3757C97.888 59.1062 98.3861 58.9714 98.9447 58.9714C99.808 58.9714 100.505 59.2703 101.036 59.8679C101.572 60.4656 101.839 61.2605 101.839 62.2527V62.3289C101.839 62.946 101.72 63.5007 101.482 63.9929C101.247 64.4812 100.91 64.8621 100.468 65.1355C100.031 65.4089 99.5267 65.5457 98.9564 65.5457C98.097 65.5457 97.3998 65.2468 96.8646 64.6492C96.3334 64.0515 96.0677 63.2605 96.0677 62.2761V62.2ZM97.1576 62.3289C97.1576 63.032 97.3197 63.5964 97.6439 64.0222C97.972 64.448 98.4095 64.6609 98.9564 64.6609C99.5072 64.6609 99.9447 64.446 100.269 64.0164C100.593 63.5828 100.755 62.9773 100.755 62.2C100.755 61.5046 100.589 60.9421 100.257 60.5125C99.9291 60.0789 99.4916 59.8621 98.9447 59.8621C98.4095 59.8621 97.9779 60.075 97.6498 60.5007C97.3216 60.9265 97.1576 61.5359 97.1576 62.3289ZM102.935 62.2058C102.935 61.2332 103.165 60.4519 103.626 59.8621C104.087 59.2683 104.691 58.9714 105.437 58.9714C106.179 58.9714 106.767 59.2253 107.201 59.7332V56.4285H108.285V65.4285H107.288L107.236 64.7488C106.802 65.28 106.199 65.5457 105.425 65.5457C104.691 65.5457 104.091 65.2449 103.626 64.6433C103.165 64.0417 102.935 63.2566 102.935 62.2878V62.2058ZM104.019 62.3289C104.019 63.0476 104.167 63.6101 104.464 64.0164C104.761 64.4226 105.171 64.6257 105.695 64.6257C106.382 64.6257 106.884 64.3171 107.201 63.7V60.7878C106.876 60.1902 106.378 59.8914 105.706 59.8914C105.175 59.8914 104.761 60.0964 104.464 60.5066C104.167 60.9167 104.019 61.5242 104.019 62.3289ZM113.886 64.8015C113.464 65.2976 112.845 65.5457 112.029 65.5457C111.353 65.5457 110.837 65.3503 110.482 64.9597C110.13 64.5652 109.952 63.9832 109.949 63.2136V59.0886H111.033V63.1843C111.033 64.1453 111.423 64.6257 112.204 64.6257C113.033 64.6257 113.583 64.3171 113.857 63.7V59.0886H114.941V65.4285H113.91L113.886 64.8015ZM119.136 64.6609C119.523 64.6609 119.861 64.5437 120.15 64.3093C120.439 64.075 120.599 63.782 120.63 63.4304H121.656C121.636 63.7937 121.511 64.1394 121.281 64.4675C121.05 64.7957 120.742 65.0574 120.355 65.2527C119.972 65.448 119.566 65.5457 119.136 65.5457C118.273 65.5457 117.585 65.2585 117.074 64.6843C116.566 64.1062 116.312 63.3171 116.312 62.3171V62.1355C116.312 61.5183 116.425 60.9695 116.652 60.489C116.878 60.0085 117.202 59.6355 117.624 59.3699C118.05 59.1042 118.552 58.9714 119.13 58.9714C119.841 58.9714 120.431 59.1843 120.9 59.6101C121.372 60.0359 121.624 60.5886 121.656 61.2683H120.63C120.599 60.8582 120.443 60.5222 120.161 60.2605C119.884 59.9949 119.54 59.8621 119.13 59.8621C118.579 59.8621 118.152 60.0613 117.847 60.4597C117.546 60.8542 117.396 61.4265 117.396 62.1765V62.3816C117.396 63.1121 117.546 63.6746 117.847 64.0691C118.148 64.4636 118.577 64.6609 119.136 64.6609ZM124.345 57.5535V59.0886H125.529V59.9265H124.345V63.8582C124.345 64.1121 124.398 64.3035 124.503 64.4324C124.609 64.5574 124.788 64.6199 125.042 64.6199C125.167 64.6199 125.339 64.5964 125.558 64.5496V65.4285C125.273 65.5066 124.995 65.5457 124.726 65.5457C124.242 65.5457 123.876 65.3992 123.63 65.1062C123.384 64.8132 123.261 64.3972 123.261 63.8582V59.9265H122.107V59.0886H123.261V57.5535H124.345ZM127.978 65.4285H126.894V59.0886H127.978V65.4285ZM126.806 57.407C126.806 57.2312 126.859 57.0828 126.964 56.9617C127.074 56.8406 127.234 56.78 127.445 56.78C127.656 56.78 127.816 56.8406 127.925 56.9617C128.035 57.0828 128.089 57.2312 128.089 57.407C128.089 57.5828 128.035 57.7292 127.925 57.8464C127.816 57.9636 127.656 58.0222 127.445 58.0222C127.234 58.0222 127.074 57.9636 126.964 57.8464C126.859 57.7292 126.806 57.5828 126.806 57.407ZM129.431 62.2C129.431 61.5789 129.552 61.0203 129.794 60.5242C130.04 60.0281 130.38 59.6453 130.814 59.3757C131.251 59.1062 131.749 58.9714 132.308 58.9714C133.171 58.9714 133.869 59.2703 134.4 59.8679C134.935 60.4656 135.202 61.2605 135.202 62.2527V62.3289C135.202 62.946 135.083 63.5007 134.845 63.9929C134.611 64.4812 134.273 64.8621 133.831 65.1355C133.394 65.4089 132.89 65.5457 132.32 65.5457C131.46 65.5457 130.763 65.2468 130.228 64.6492C129.697 64.0515 129.431 63.2605 129.431 62.2761V62.2ZM130.521 62.3289C130.521 63.032 130.683 63.5964 131.007 64.0222C131.335 64.448 131.773 64.6609 132.32 64.6609C132.87 64.6609 133.308 64.446 133.632 64.0164C133.956 63.5828 134.119 62.9773 134.119 62.2C134.119 61.5046 133.952 60.9421 133.62 60.5125C133.292 60.0789 132.855 59.8621 132.308 59.8621C131.773 59.8621 131.341 60.075 131.013 60.5007C130.685 60.9265 130.521 61.5359 130.521 62.3289ZM137.587 59.0886L137.622 59.8855C138.107 59.2761 138.74 58.9714 139.521 58.9714C140.861 58.9714 141.536 59.7273 141.548 61.239V65.4285H140.464V61.2332C140.46 60.7761 140.355 60.4382 140.148 60.2195C139.945 60.0007 139.626 59.8914 139.193 59.8914C138.841 59.8914 138.533 59.9851 138.267 60.1726C138.001 60.3601 137.794 60.6062 137.646 60.9109V65.4285H136.562V59.0886H137.587Z" fill="black"/>
<path d="M28.7505 106.265H27.6607V99.0408L25.4751 99.8435V98.8591L28.5806 97.6931H28.7505V106.265Z" fill="black"/>
<path d="M83.8213 106.265H78.2315V105.486L81.1846 102.205C81.6221 101.709 81.9229 101.306 82.0869 100.998C82.2549 100.685 82.3389 100.363 82.3389 100.031C82.3389 99.5857 82.2041 99.2205 81.9346 98.9353C81.6651 98.6501 81.3057 98.5076 80.8565 98.5076C80.3174 98.5076 79.8975 98.6619 79.5967 98.9705C79.2998 99.2751 79.1514 99.7009 79.1514 100.248H78.0674C78.0674 99.4626 78.3194 98.8279 78.8233 98.3435C79.3311 97.8591 80.0088 97.6169 80.8565 97.6169C81.6494 97.6169 82.2764 97.8259 82.7373 98.2439C83.1983 98.658 83.4287 99.2107 83.4287 99.9021C83.4287 100.742 82.8936 101.742 81.8233 102.902L79.5381 105.381H83.8213V106.265Z" fill="black"/>
<path d="M135.503 101.472H136.317C136.829 101.465 137.231 101.33 137.524 101.068C137.817 100.806 137.964 100.453 137.964 100.008C137.964 99.0076 137.466 98.5076 136.47 98.5076C136.001 98.5076 135.626 98.6423 135.345 98.9119C135.067 99.1775 134.929 99.531 134.929 99.9724H133.845C133.845 99.2966 134.091 98.7361 134.583 98.2908C135.079 97.8416 135.708 97.6169 136.47 97.6169C137.274 97.6169 137.905 97.8298 138.362 98.2556C138.819 98.6814 139.048 99.2732 139.048 100.031C139.048 100.402 138.927 100.761 138.685 101.109C138.446 101.457 138.12 101.717 137.706 101.888C138.175 102.037 138.536 102.283 138.79 102.627C139.048 102.97 139.177 103.39 139.177 103.886C139.177 104.652 138.927 105.26 138.427 105.709C137.927 106.158 137.276 106.383 136.476 106.383C135.675 106.383 135.022 106.166 134.519 105.732C134.019 105.299 133.769 104.726 133.769 104.015H134.858C134.858 104.465 135.005 104.824 135.298 105.094C135.591 105.363 135.983 105.498 136.476 105.498C136.999 105.498 137.399 105.361 137.677 105.088C137.954 104.814 138.093 104.422 138.093 103.91C138.093 103.414 137.94 103.033 137.636 102.767C137.331 102.502 136.892 102.365 136.317 102.357H135.503V101.472Z" fill="black"/>
<path d="M191.547 103.4H192.73V104.285H191.547V106.265H190.457V104.285H186.572V103.646L190.393 97.7341H191.547V103.4ZM187.803 103.4H190.457V99.2166L190.328 99.4509L187.803 103.4Z" fill="black"/>
<path d="M241.838 101.988L242.272 97.7341H246.643V98.7361H243.192L242.934 101.062C243.352 100.816 243.826 100.693 244.358 100.693C245.135 100.693 245.752 100.951 246.209 101.467C246.666 101.978 246.895 102.672 246.895 103.547C246.895 104.426 246.656 105.119 246.18 105.627C245.707 106.131 245.045 106.383 244.193 106.383C243.44 106.383 242.824 106.174 242.348 105.756C241.871 105.338 241.6 104.76 241.533 104.021H242.559C242.625 104.51 242.799 104.879 243.08 105.129C243.361 105.375 243.733 105.498 244.193 105.498C244.697 105.498 245.092 105.326 245.377 104.982C245.666 104.638 245.811 104.164 245.811 103.558C245.811 102.988 245.654 102.531 245.342 102.187C245.033 101.84 244.621 101.666 244.106 101.666C243.633 101.666 243.262 101.769 242.992 101.976L242.705 102.211L241.838 101.988Z" fill="black"/>
<path d="M298.637 97.7283V98.6482H298.438C297.594 98.6638 296.922 98.9138 296.422 99.3982C295.922 99.8826 295.633 100.564 295.555 101.443C296.005 100.927 296.618 100.67 297.395 100.67C298.137 100.67 298.729 100.931 299.171 101.455C299.616 101.978 299.838 102.654 299.838 103.482C299.838 104.361 299.598 105.064 299.118 105.592C298.641 106.119 298.001 106.383 297.196 106.383C296.38 106.383 295.717 106.07 295.21 105.445C294.702 104.816 294.448 104.008 294.448 103.019V102.603C294.448 101.033 294.782 99.8337 295.45 99.0056C296.122 98.1736 297.12 97.7478 298.444 97.7283H298.637ZM297.213 101.572C296.842 101.572 296.501 101.683 296.188 101.906C295.876 102.129 295.659 102.408 295.538 102.744V103.142C295.538 103.845 295.696 104.412 296.012 104.842C296.329 105.271 296.723 105.486 297.196 105.486C297.684 105.486 298.067 105.306 298.344 104.947C298.626 104.588 298.766 104.117 298.766 103.535C298.766 102.949 298.624 102.476 298.338 102.117C298.057 101.754 297.682 101.572 297.213 101.572Z" fill="black"/>
<path d="M352.935 98.3435L349.402 106.265H348.265L351.787 98.6248H347.17V97.7341H352.935V98.3435Z" fill="black"/>
<path d="M405.644 99.9607C405.644 100.386 405.531 100.765 405.304 101.097C405.082 101.429 404.779 101.689 404.396 101.877C404.841 102.068 405.193 102.347 405.451 102.715C405.713 103.082 405.843 103.498 405.843 103.963C405.843 104.701 405.593 105.289 405.093 105.726C404.597 106.164 403.943 106.383 403.13 106.383C402.31 106.383 401.652 106.164 401.156 105.726C400.664 105.285 400.418 104.697 400.418 103.963C400.418 103.502 400.543 103.086 400.793 102.715C401.046 102.344 401.396 102.062 401.841 101.871C401.463 101.683 401.164 101.424 400.945 101.092C400.726 100.76 400.617 100.383 400.617 99.9607C400.617 99.2419 400.847 98.6716 401.308 98.2498C401.769 97.8279 402.377 97.6169 403.13 97.6169C403.88 97.6169 404.486 97.8279 404.947 98.2498C405.412 98.6716 405.644 99.2419 405.644 99.9607ZM404.759 103.939C404.759 103.463 404.607 103.074 404.302 102.773C404.002 102.472 403.607 102.322 403.119 102.322C402.63 102.322 402.238 102.47 401.941 102.767C401.648 103.064 401.502 103.455 401.502 103.939C401.502 104.424 401.644 104.804 401.929 105.082C402.218 105.359 402.619 105.498 403.13 105.498C403.638 105.498 404.037 105.359 404.326 105.082C404.615 104.801 404.759 104.42 404.759 103.939ZM403.13 98.5076C402.705 98.5076 402.359 98.6404 402.093 98.906C401.832 99.1677 401.701 99.5251 401.701 99.9783C401.701 100.412 401.83 100.763 402.088 101.033C402.349 101.299 402.697 101.431 403.13 101.431C403.564 101.431 403.91 101.299 404.168 101.033C404.429 100.763 404.56 100.412 404.56 99.9783C404.56 99.5447 404.425 99.1912 404.156 98.9177C403.886 98.6443 403.545 98.5076 403.13 98.5076Z" fill="black"/>
<path d="M457.668 102.515C457.442 102.785 457.17 103.002 456.854 103.166C456.541 103.33 456.197 103.412 455.822 103.412C455.33 103.412 454.9 103.291 454.533 103.049C454.17 102.806 453.889 102.467 453.69 102.029C453.49 101.588 453.391 101.101 453.391 100.57C453.391 99.9998 453.498 99.4861 453.713 99.0291C453.932 98.572 454.24 98.2224 454.639 97.9802C455.037 97.738 455.502 97.6169 456.033 97.6169C456.877 97.6169 457.541 97.9333 458.025 98.5662C458.514 99.1951 458.758 100.054 458.758 101.144V101.461C458.758 103.121 458.43 104.334 457.774 105.099C457.117 105.861 456.127 106.252 454.803 106.271H454.592V105.357H454.82C455.715 105.342 456.402 105.109 456.883 104.66C457.363 104.207 457.625 103.492 457.668 102.515ZM455.998 102.515C456.361 102.515 456.695 102.404 457 102.181C457.309 101.959 457.533 101.683 457.674 101.355V100.922C457.674 100.211 457.52 99.6326 457.211 99.1873C456.902 98.7419 456.512 98.5193 456.039 98.5193C455.563 98.5193 455.18 98.7029 454.891 99.0701C454.602 99.4333 454.457 99.9138 454.457 100.511C454.457 101.094 454.596 101.574 454.873 101.953C455.154 102.328 455.529 102.515 455.998 102.515Z" fill="black"/>
<path d="M505.425 106.265H504.335V99.0408L502.15 99.8435V98.8591L505.255 97.6931H505.425V106.265ZM513.95 102.627C513.95 103.896 513.734 104.84 513.3 105.457C512.866 106.074 512.189 106.383 511.267 106.383C510.357 106.383 509.683 106.082 509.245 105.48C508.808 104.875 508.581 103.972 508.566 102.773V101.326C508.566 100.072 508.782 99.1404 509.216 98.531C509.65 97.9216 510.329 97.6169 511.255 97.6169C512.173 97.6169 512.849 97.9119 513.282 98.5017C513.716 99.0876 513.939 99.9939 513.95 101.22V102.627ZM512.866 101.144C512.866 100.226 512.737 99.5583 512.48 99.1404C512.222 98.7185 511.814 98.5076 511.255 98.5076C510.7 98.5076 510.296 98.7166 510.042 99.1345C509.788 99.5525 509.657 100.195 509.65 101.062V102.797C509.65 103.719 509.782 104.4 510.048 104.842C510.318 105.279 510.724 105.498 511.267 105.498C511.802 105.498 512.198 105.291 512.456 104.877C512.718 104.463 512.855 103.81 512.866 102.92V101.144Z" fill="black"/>
<path d="M559.795 106.265H558.705V99.0408L556.52 99.8435V98.8591L559.625 97.6931H559.795V106.265ZM566.533 106.265H565.443V99.0408L563.258 99.8435V98.8591L566.363 97.6931H566.533V106.265Z" fill="black"/>
<path d="M611.512 106.265H610.422V99.0408L608.237 99.8435V98.8591L611.342 97.6931H611.512V106.265ZM620.278 106.265H614.688V105.486L617.641 102.205C618.078 101.709 618.379 101.306 618.543 100.998C618.711 100.685 618.795 100.363 618.795 100.031C618.795 99.5857 618.66 99.2205 618.391 98.9353C618.121 98.6501 617.762 98.5076 617.313 98.5076C616.774 98.5076 616.354 98.6619 616.053 98.9705C615.756 99.2751 615.608 99.7009 615.608 100.248H614.524C614.524 99.4626 614.776 98.8279 615.279 98.3435C615.787 97.8591 616.465 97.6169 617.313 97.6169C618.106 97.6169 618.733 97.8259 619.194 98.2439C619.654 98.658 619.885 99.2107 619.885 99.9021C619.885 100.742 619.35 101.742 618.279 102.902L615.994 105.381H620.278V106.265Z" fill="black"/>
<path d="M665.882 106.265H664.792V99.0408L662.607 99.8435V98.8591L665.712 97.6931H665.882V106.265ZM670.634 101.472H671.448C671.96 101.465 672.362 101.33 672.655 101.068C672.948 100.806 673.095 100.453 673.095 100.008C673.095 99.0076 672.597 98.5076 671.601 98.5076C671.132 98.5076 670.757 98.6423 670.476 98.9119C670.198 99.1775 670.06 99.531 670.06 99.9724H668.976C668.976 99.2966 669.222 98.7361 669.714 98.2908C670.21 97.8416 670.839 97.6169 671.601 97.6169C672.405 97.6169 673.036 97.8298 673.493 98.2556C673.95 98.6814 674.179 99.2732 674.179 100.031C674.179 100.402 674.058 100.761 673.816 101.109C673.577 101.457 673.251 101.717 672.837 101.888C673.306 102.037 673.667 102.283 673.921 102.627C674.179 102.97 674.308 103.39 674.308 103.886C674.308 104.652 674.058 105.26 673.558 105.709C673.058 106.158 672.407 106.383 671.607 106.383C670.806 106.383 670.153 106.166 669.65 105.732C669.15 105.299 668.9 104.726 668.9 104.015H669.989C669.989 104.465 670.136 104.824 670.429 105.094C670.722 105.363 671.114 105.498 671.607 105.498C672.13 105.498 672.53 105.361 672.808 105.088C673.085 104.814 673.224 104.422 673.224 103.91C673.224 103.414 673.071 103.033 672.767 102.767C672.462 102.502 672.023 102.365 671.448 102.357H670.634V101.472Z" fill="black"/>
<path d="M720.251 106.265H719.161V99.0408L716.976 99.8435V98.8591L720.081 97.6931H720.251V106.265ZM728.003 103.4H729.187V104.285H728.003V106.265H726.913V104.285H723.028V103.646L726.849 97.7341H728.003V103.4ZM724.259 103.4H726.913V99.2166L726.784 99.4509L724.259 103.4Z" fill="black"/>
<path d="M773.295 106.265H772.205V99.0408L770.019 99.8435V98.8591L773.125 97.6931H773.295V106.265ZM776.968 101.988L777.402 97.7341H781.773V98.7361H778.322L778.064 101.062C778.482 100.816 778.957 100.693 779.488 100.693C780.265 100.693 780.883 100.951 781.34 101.467C781.797 101.978 782.025 102.672 782.025 103.547C782.025 104.426 781.787 105.119 781.31 105.627C780.838 106.131 780.175 106.383 779.324 106.383C778.57 106.383 777.955 106.174 777.478 105.756C777.002 105.338 776.73 104.76 776.664 104.021H777.689C777.756 104.51 777.929 104.879 778.211 105.129C778.492 105.375 778.863 105.498 779.324 105.498C779.828 105.498 780.222 105.326 780.508 104.982C780.797 104.638 780.941 104.164 780.941 103.558C780.941 102.988 780.785 102.531 780.472 102.187C780.164 101.84 779.752 101.666 779.236 101.666C778.763 101.666 778.392 101.769 778.123 101.976L777.836 102.211L776.968 101.988Z" fill="black"/>
<path d="M827.665 106.265H826.575V99.0408L824.389 99.8435V98.8591L827.495 97.6931H827.665V106.265ZM835.094 97.7283V98.6482H834.895C834.051 98.6638 833.38 98.9138 832.88 99.3982C832.38 99.8826 832.09 100.564 832.012 101.443C832.462 100.927 833.075 100.67 833.852 100.67C834.594 100.67 835.186 100.931 835.628 101.455C836.073 101.978 836.296 102.654 836.296 103.482C836.296 104.361 836.055 105.064 835.575 105.592C835.098 106.119 834.458 106.383 833.653 106.383C832.837 106.383 832.174 106.07 831.667 105.445C831.159 104.816 830.905 104.008 830.905 103.019V102.603C830.905 101.033 831.239 99.8337 831.907 99.0056C832.579 98.1736 833.577 97.7478 834.901 97.7283H835.094ZM833.671 101.572C833.299 101.572 832.958 101.683 832.645 101.906C832.333 102.129 832.116 102.408 831.995 102.744V103.142C831.995 103.845 832.153 104.412 832.469 104.842C832.786 105.271 833.18 105.486 833.653 105.486C834.141 105.486 834.524 105.306 834.801 104.947C835.083 104.588 835.223 104.117 835.223 103.535C835.223 102.949 835.081 102.476 834.796 102.117C834.514 101.754 834.139 101.572 833.671 101.572Z" fill="black"/>
<line x1="7.30469" y1="1.6123" x2="2.00034" y2="37.1225" stroke="#454ABC" stroke-width="4"/>
<line x1="7.30469" y1="43.2449" x2="2.00034" y2="78.7551" stroke="#454ABC" stroke-width="4"/>
<line x1="7.30469" y1="84.8774" x2="2.00034" y2="120.388" stroke="#454ABC" stroke-width="4"/>
<line x1="224.783" y1="43.2449" x2="219.478" y2="78.7551" stroke="#F1A30C" stroke-width="4"/>
<line x1="224.783" y1="84.8774" x2="219.478" y2="120.388" stroke="#F1A30C" stroke-width="4"/>
</svg>
