<svg width="320" height="98" viewBox="0 0 320 98" fill="none" xmlns="http://www.w3.org/2000/svg">
<rect x="0.5" y="0.5" width="319" height="29" fill="white" stroke="black"/>
<rect x="82.3958" y="34.5" width="155.209" height="29" fill="white" stroke="black"/>
<rect x="0.5" y="34.5" width="77.1043" height="29" fill="white" stroke="black"/>
<rect x="0.5" y="68.5" width="15.6825" height="29" fill="white" stroke="black"/>
<rect x="20.9739" y="68.5" width="15.6825" height="29" fill="white" stroke="black"/>
<rect x="41.4479" y="68.5" width="15.6825" height="29" fill="white" stroke="black"/>
<rect x="61.9218" y="68.5" width="15.6825" height="29" fill="white" stroke="black"/>
<rect x="82.3958" y="68.5" width="15.1769" height="29" fill="white" stroke="black"/>
<rect x="102.364" y="68.5" width="15.1769" height="29" fill="white" stroke="black"/>
<rect x="122.333" y="68.5" width="15.1769" height="29" fill="white" stroke="black"/>
<rect x="142.301" y="68.5" width="15.1769" height="29" fill="white" stroke="black"/>
<rect x="162.269" y="68.5" width="15.1769" height="29" fill="white" stroke="black"/>
<rect x="182.238" y="68.5" width="15.1769" height="29" fill="white" stroke="black"/>
<rect x="202.206" y="68.5" width="15.1769" height="29" fill="white" stroke="black"/>
<rect x="222.175" y="68.5" width="15.1769" height="29" fill="white" stroke="black"/>
<rect x="242.396" y="68.5" width="15.6825" height="29" fill="white" stroke="black"/>
<rect x="262.87" y="68.5" width="15.6825" height="29" fill="white" stroke="black"/>
<rect x="283.344" y="68.5" width="15.6825" height="29" fill="white" stroke="black"/>
<rect x="303.818" y="68.5" width="15.6825" height="29" fill="white" stroke="black"/>
<rect x="242.396" y="34.5" width="77.1043" height="29" fill="white" stroke="black"/>
<path d="M135.291 10.4688L138.08 17.4297L140.869 10.4688H142.328V19H141.203V15.6777L141.309 12.0918L138.508 19H137.646L134.852 12.1094L134.963 15.6777V19H133.838V10.4688H135.291ZM149.137 15.0566H145.439V18.0801H149.734V19H144.314V10.4688H149.676V11.3945H145.439V14.1367H149.137V15.0566ZM153.648 15.1973C152.684 14.9199 151.98 14.5801 151.539 14.1777C151.102 13.7715 150.883 13.2715 150.883 12.6777C150.883 12.0059 151.15 11.4512 151.686 11.0137C152.225 10.5723 152.924 10.3516 153.783 10.3516C154.369 10.3516 154.891 10.4648 155.348 10.6914C155.809 10.918 156.164 11.2305 156.414 11.6289C156.668 12.0273 156.795 12.4629 156.795 12.9355H155.664C155.664 12.4199 155.5 12.0156 155.172 11.7227C154.844 11.4258 154.381 11.2773 153.783 11.2773C153.229 11.2773 152.795 11.4004 152.482 11.6465C152.174 11.8887 152.02 12.2266 152.02 12.6602C152.02 13.0078 152.166 13.3027 152.459 13.5449C152.756 13.7832 153.258 14.002 153.965 14.2012C154.676 14.4004 155.23 14.6211 155.629 14.8633C156.031 15.1016 156.328 15.3809 156.52 15.7012C156.715 16.0215 156.812 16.3984 156.812 16.832C156.812 17.5234 156.543 18.0781 156.004 18.4961C155.465 18.9102 154.744 19.1172 153.842 19.1172C153.256 19.1172 152.709 19.0059 152.201 18.7832C151.693 18.5566 151.301 18.248 151.023 17.8574C150.75 17.4668 150.613 17.0234 150.613 16.5273H151.744C151.744 17.043 151.934 17.4512 152.312 17.752C152.695 18.0488 153.205 18.1973 153.842 18.1973C154.436 18.1973 154.891 18.0762 155.207 17.834C155.523 17.5918 155.682 17.2617 155.682 16.8438C155.682 16.4258 155.535 16.1035 155.242 15.877C154.949 15.6465 154.418 15.4199 153.648 15.1973ZM160.773 15.1973C159.809 14.9199 159.105 14.5801 158.664 14.1777C158.227 13.7715 158.008 13.2715 158.008 12.6777C158.008 12.0059 158.275 11.4512 158.811 11.0137C159.35 10.5723 160.049 10.3516 160.908 10.3516C161.494 10.3516 162.016 10.4648 162.473 10.6914C162.934 10.918 163.289 11.2305 163.539 11.6289C163.793 12.0273 163.92 12.4629 163.92 12.9355H162.789C162.789 12.4199 162.625 12.0156 162.297 11.7227C161.969 11.4258 161.506 11.2773 160.908 11.2773C160.354 11.2773 159.92 11.4004 159.607 11.6465C159.299 11.8887 159.145 12.2266 159.145 12.6602C159.145 13.0078 159.291 13.3027 159.584 13.5449C159.881 13.7832 160.383 14.002 161.09 14.2012C161.801 14.4004 162.355 14.6211 162.754 14.8633C163.156 15.1016 163.453 15.3809 163.645 15.7012C163.84 16.0215 163.938 16.3984 163.938 16.832C163.938 17.5234 163.668 18.0781 163.129 18.4961C162.59 18.9102 161.869 19.1172 160.967 19.1172C160.381 19.1172 159.834 19.0059 159.326 18.7832C158.818 18.5566 158.426 18.248 158.148 17.8574C157.875 17.4668 157.738 17.0234 157.738 16.5273H158.869C158.869 17.043 159.059 17.4512 159.438 17.752C159.82 18.0488 160.33 18.1973 160.967 18.1973C161.561 18.1973 162.016 18.0762 162.332 17.834C162.648 17.5918 162.807 17.2617 162.807 16.8438C162.807 16.4258 162.66 16.1035 162.367 15.877C162.074 15.6465 161.543 15.4199 160.773 15.1973ZM170.096 16.7734H166.521L165.719 19H164.559L167.816 10.4688H168.801L172.064 19H170.91L170.096 16.7734ZM166.861 15.8477H169.762L168.309 11.8574L166.861 15.8477ZM179.441 17.8809C179.152 18.2949 178.748 18.6055 178.229 18.8125C177.713 19.0156 177.111 19.1172 176.424 19.1172C175.729 19.1172 175.111 18.9551 174.572 18.6309C174.033 18.3027 173.615 17.8379 173.318 17.2363C173.025 16.6348 172.875 15.9375 172.867 15.1445V14.4004C172.867 13.1152 173.166 12.1191 173.764 11.4121C174.365 10.7051 175.209 10.3516 176.295 10.3516C177.186 10.3516 177.902 10.5801 178.445 11.0371C178.988 11.4902 179.32 12.1348 179.441 12.9707H178.316C178.105 11.8418 177.434 11.2773 176.301 11.2773C175.547 11.2773 174.975 11.543 174.584 12.0742C174.197 12.6016 174.002 13.3672 173.998 14.3711V15.0684C173.998 16.0254 174.217 16.7871 174.654 17.3535C175.092 17.916 175.684 18.1973 176.43 18.1973C176.852 18.1973 177.221 18.1504 177.537 18.0566C177.854 17.9629 178.115 17.8047 178.322 17.582V15.666H176.348V14.752H179.441V17.8809ZM186.145 15.0566H182.447V18.0801H186.742V19H181.322V10.4688H186.684V11.3945H182.447V14.1367H186.145V15.0566Z" fill="black"/>
<path d="M127.645 44.4688L130.434 51.4297L133.223 44.4688H134.682V53H133.557V49.6777L133.662 46.0918L130.861 53H130L127.205 46.1094L127.316 49.6777V53H126.191V44.4688H127.645ZM140.412 53C140.35 52.875 140.299 52.6523 140.26 52.332C139.756 52.8555 139.154 53.1172 138.455 53.1172C137.83 53.1172 137.316 52.9414 136.914 52.5898C136.516 52.2344 136.316 51.7852 136.316 51.2422C136.316 50.582 136.566 50.0703 137.066 49.707C137.57 49.3398 138.277 49.1562 139.188 49.1562H140.242V48.6582C140.242 48.2793 140.129 47.9785 139.902 47.7559C139.676 47.5293 139.342 47.416 138.9 47.416C138.514 47.416 138.189 47.5137 137.928 47.709C137.666 47.9043 137.535 48.1406 137.535 48.418H136.445C136.445 48.1016 136.557 47.7969 136.779 47.5039C137.006 47.207 137.311 46.9727 137.693 46.8008C138.08 46.6289 138.504 46.543 138.965 46.543C139.695 46.543 140.268 46.7266 140.682 47.0938C141.096 47.457 141.311 47.959 141.326 48.5996V51.5176C141.326 52.0996 141.4 52.5625 141.549 52.9062V53H140.412ZM138.613 52.1738C138.953 52.1738 139.275 52.0859 139.58 51.9102C139.885 51.7344 140.105 51.5059 140.242 51.2246V49.9238H139.393C138.064 49.9238 137.4 50.3125 137.4 51.0898C137.4 51.4297 137.514 51.6953 137.74 51.8867C137.967 52.0781 138.258 52.1738 138.613 52.1738ZM144.203 53H143.119V46.6602H144.203V53ZM143.031 44.9785C143.031 44.8027 143.084 44.6543 143.189 44.5332C143.299 44.4121 143.459 44.3516 143.67 44.3516C143.881 44.3516 144.041 44.4121 144.15 44.5332C144.26 44.6543 144.314 44.8027 144.314 44.9785C144.314 45.1543 144.26 45.3008 144.15 45.418C144.041 45.5352 143.881 45.5938 143.67 45.5938C143.459 45.5938 143.299 45.5352 143.189 45.418C143.084 45.3008 143.031 45.1543 143.031 44.9785ZM146.969 46.6602L147.004 47.457C147.488 46.8477 148.121 46.543 148.902 46.543C150.242 46.543 150.918 47.2988 150.93 48.8105V53H149.846V48.8047C149.842 48.3477 149.736 48.0098 149.529 47.791C149.326 47.5723 149.008 47.4629 148.574 47.4629C148.223 47.4629 147.914 47.5566 147.648 47.7441C147.383 47.9316 147.176 48.1777 147.027 48.4824V53H145.943V46.6602H146.969ZM158.225 49.1973C157.26 48.9199 156.557 48.5801 156.115 48.1777C155.678 47.7715 155.459 47.2715 155.459 46.6777C155.459 46.0059 155.727 45.4512 156.262 45.0137C156.801 44.5723 157.5 44.3516 158.359 44.3516C158.945 44.3516 159.467 44.4648 159.924 44.6914C160.385 44.918 160.74 45.2305 160.99 45.6289C161.244 46.0273 161.371 46.4629 161.371 46.9355H160.24C160.24 46.4199 160.076 46.0156 159.748 45.7227C159.42 45.4258 158.957 45.2773 158.359 45.2773C157.805 45.2773 157.371 45.4004 157.059 45.6465C156.75 45.8887 156.596 46.2266 156.596 46.6602C156.596 47.0078 156.742 47.3027 157.035 47.5449C157.332 47.7832 157.834 48.002 158.541 48.2012C159.252 48.4004 159.807 48.6211 160.205 48.8633C160.607 49.1016 160.904 49.3809 161.096 49.7012C161.291 50.0215 161.389 50.3984 161.389 50.832C161.389 51.5234 161.119 52.0781 160.58 52.4961C160.041 52.9102 159.32 53.1172 158.418 53.1172C157.832 53.1172 157.285 53.0059 156.777 52.7832C156.27 52.5566 155.877 52.248 155.6 51.8574C155.326 51.4668 155.189 51.0234 155.189 50.5273H156.32C156.32 51.043 156.51 51.4512 156.889 51.752C157.271 52.0488 157.781 52.1973 158.418 52.1973C159.012 52.1973 159.467 52.0762 159.783 51.834C160.1 51.5918 160.258 51.2617 160.258 50.8438C160.258 50.4258 160.111 50.1035 159.818 49.877C159.525 49.6465 158.994 49.4199 158.225 49.1973ZM165.297 53.1172C164.438 53.1172 163.738 52.8359 163.199 52.2734C162.66 51.707 162.391 50.9512 162.391 50.0059V49.8066C162.391 49.1777 162.51 48.6172 162.748 48.125C162.99 47.6289 163.326 47.2422 163.756 46.9648C164.189 46.6836 164.658 46.543 165.162 46.543C165.986 46.543 166.627 46.8145 167.084 47.3574C167.541 47.9004 167.77 48.6777 167.77 49.6895V50.1406H163.475C163.49 50.7656 163.672 51.2715 164.02 51.6582C164.371 52.041 164.816 52.2324 165.355 52.2324C165.738 52.2324 166.062 52.1543 166.328 51.998C166.594 51.8418 166.826 51.6348 167.025 51.377L167.688 51.8926C167.156 52.709 166.359 53.1172 165.297 53.1172ZM165.162 47.4336C164.725 47.4336 164.357 47.5938 164.061 47.9141C163.764 48.2305 163.58 48.6758 163.51 49.25H166.686V49.168C166.654 48.6172 166.506 48.1914 166.24 47.8906C165.975 47.5859 165.615 47.4336 165.162 47.4336ZM171.572 52.2324C171.959 52.2324 172.297 52.1152 172.586 51.8809C172.875 51.6465 173.035 51.3535 173.066 51.002H174.092C174.072 51.3652 173.947 51.7109 173.717 52.0391C173.486 52.3672 173.178 52.6289 172.791 52.8242C172.408 53.0195 172.002 53.1172 171.572 53.1172C170.709 53.1172 170.021 52.8301 169.51 52.2559C169.002 51.6777 168.748 50.8887 168.748 49.8887V49.707C168.748 49.0898 168.861 48.541 169.088 48.0605C169.314 47.5801 169.639 47.207 170.061 46.9414C170.486 46.6758 170.988 46.543 171.566 46.543C172.277 46.543 172.867 46.7559 173.336 47.1816C173.809 47.6074 174.061 48.1602 174.092 48.8398H173.066C173.035 48.4297 172.879 48.0938 172.598 47.832C172.32 47.5664 171.977 47.4336 171.566 47.4336C171.016 47.4336 170.588 47.6328 170.283 48.0312C169.982 48.4258 169.832 48.998 169.832 49.748V49.9531C169.832 50.6836 169.982 51.2461 170.283 51.6406C170.584 52.0352 171.014 52.2324 171.572 52.2324ZM176.781 45.125V46.6602H177.965V47.498H176.781V51.4297C176.781 51.6836 176.834 51.875 176.939 52.0039C177.045 52.1289 177.225 52.1914 177.479 52.1914C177.604 52.1914 177.775 52.168 177.994 52.1211V53C177.709 53.0781 177.432 53.1172 177.162 53.1172C176.678 53.1172 176.312 52.9707 176.066 52.6777C175.82 52.3848 175.697 51.9688 175.697 51.4297V47.498H174.543V46.6602H175.697V45.125H176.781ZM180.414 53H179.33V46.6602H180.414V53ZM179.242 44.9785C179.242 44.8027 179.295 44.6543 179.4 44.5332C179.51 44.4121 179.67 44.3516 179.881 44.3516C180.092 44.3516 180.252 44.4121 180.361 44.5332C180.471 44.6543 180.525 44.8027 180.525 44.9785C180.525 45.1543 180.471 45.3008 180.361 45.418C180.252 45.5352 180.092 45.5938 179.881 45.5938C179.67 45.5938 179.51 45.5352 179.4 45.418C179.295 45.3008 179.242 45.1543 179.242 44.9785ZM181.867 49.7715C181.867 49.1504 181.988 48.5918 182.23 48.0957C182.477 47.5996 182.816 47.2168 183.25 46.9473C183.688 46.6777 184.186 46.543 184.744 46.543C185.607 46.543 186.305 46.8418 186.836 47.4395C187.371 48.0371 187.639 48.832 187.639 49.8242V49.9004C187.639 50.5176 187.52 51.0723 187.281 51.5645C187.047 52.0527 186.709 52.4336 186.268 52.707C185.83 52.9805 185.326 53.1172 184.756 53.1172C183.896 53.1172 183.199 52.8184 182.664 52.2207C182.133 51.623 181.867 50.832 181.867 49.8477V49.7715ZM182.957 49.9004C182.957 50.6035 183.119 51.168 183.443 51.5938C183.771 52.0195 184.209 52.2324 184.756 52.2324C185.307 52.2324 185.744 52.0176 186.068 51.5879C186.393 51.1543 186.555 50.5488 186.555 49.7715C186.555 49.0762 186.389 48.5137 186.057 48.084C185.729 47.6504 185.291 47.4336 184.744 47.4336C184.209 47.4336 183.777 47.6465 183.449 48.0723C183.121 48.498 182.957 49.1074 182.957 49.9004ZM190.023 46.6602L190.059 47.457C190.543 46.8477 191.176 46.543 191.957 46.543C193.297 46.543 193.973 47.2988 193.984 48.8105V53H192.9V48.8047C192.896 48.3477 192.791 48.0098 192.584 47.791C192.381 47.5723 192.062 47.4629 191.629 47.4629C191.277 47.4629 190.969 47.5566 190.703 47.7441C190.438 47.9316 190.23 48.1777 190.082 48.4824V53H188.998V46.6602H190.023Z" fill="black"/>
<path d="M258.416 49.1973C257.451 48.9199 256.748 48.5801 256.307 48.1777C255.869 47.7715 255.65 47.2715 255.65 46.6777C255.65 46.0059 255.918 45.4512 256.453 45.0137C256.992 44.5723 257.691 44.3516 258.551 44.3516C259.137 44.3516 259.658 44.4648 260.115 44.6914C260.576 44.918 260.932 45.2305 261.182 45.6289C261.436 46.0273 261.562 46.4629 261.562 46.9355H260.432C260.432 46.4199 260.268 46.0156 259.939 45.7227C259.611 45.4258 259.148 45.2773 258.551 45.2773C257.996 45.2773 257.562 45.4004 257.25 45.6465C256.941 45.8887 256.787 46.2266 256.787 46.6602C256.787 47.0078 256.934 47.3027 257.227 47.5449C257.523 47.7832 258.025 48.002 258.732 48.2012C259.443 48.4004 259.998 48.6211 260.396 48.8633C260.799 49.1016 261.096 49.3809 261.287 49.7012C261.482 50.0215 261.58 50.3984 261.58 50.832C261.58 51.5234 261.311 52.0781 260.771 52.4961C260.232 52.9102 259.512 53.1172 258.609 53.1172C258.023 53.1172 257.477 53.0059 256.969 52.7832C256.461 52.5566 256.068 52.248 255.791 51.8574C255.518 51.4668 255.381 51.0234 255.381 50.5273H256.512C256.512 51.043 256.701 51.4512 257.08 51.752C257.463 52.0488 257.973 52.1973 258.609 52.1973C259.203 52.1973 259.658 52.0762 259.975 51.834C260.291 51.5918 260.449 51.2617 260.449 50.8438C260.449 50.4258 260.303 50.1035 260.01 49.877C259.717 49.6465 259.186 49.4199 258.416 49.1973ZM266.771 52.373C266.35 52.8691 265.73 53.1172 264.914 53.1172C264.238 53.1172 263.723 52.9219 263.367 52.5312C263.016 52.1367 262.838 51.5547 262.834 50.7852V46.6602H263.918V50.7559C263.918 51.7168 264.309 52.1973 265.09 52.1973C265.918 52.1973 266.469 51.8887 266.742 51.2715V46.6602H267.826V53H266.795L266.771 52.373ZM270.498 46.6602L270.527 47.3633C270.992 46.8164 271.619 46.543 272.408 46.543C273.295 46.543 273.898 46.8828 274.219 47.5625C274.43 47.2578 274.703 47.0117 275.039 46.8242C275.379 46.6367 275.779 46.543 276.24 46.543C277.631 46.543 278.338 47.2793 278.361 48.752V53H277.277V48.8164C277.277 48.3633 277.174 48.0254 276.967 47.8027C276.76 47.5762 276.412 47.4629 275.924 47.4629C275.521 47.4629 275.188 47.584 274.922 47.8262C274.656 48.0645 274.502 48.3867 274.459 48.793V53H273.369V48.8457C273.369 47.9238 272.918 47.4629 272.016 47.4629C271.305 47.4629 270.818 47.7656 270.557 48.3711V53H269.473V46.6602H270.498ZM281.021 46.6602L281.051 47.3633C281.516 46.8164 282.143 46.543 282.932 46.543C283.818 46.543 284.422 46.8828 284.742 47.5625C284.953 47.2578 285.227 47.0117 285.562 46.8242C285.902 46.6367 286.303 46.543 286.764 46.543C288.154 46.543 288.861 47.2793 288.885 48.752V53H287.801V48.8164C287.801 48.3633 287.697 48.0254 287.49 47.8027C287.283 47.5762 286.936 47.4629 286.447 47.4629C286.045 47.4629 285.711 47.584 285.445 47.8262C285.18 48.0645 285.025 48.3867 284.982 48.793V53H283.893V48.8457C283.893 47.9238 283.441 47.4629 282.539 47.4629C281.828 47.4629 281.342 47.7656 281.08 48.3711V53H279.996V46.6602H281.021ZM294.439 53C294.377 52.875 294.326 52.6523 294.287 52.332C293.783 52.8555 293.182 53.1172 292.482 53.1172C291.857 53.1172 291.344 52.9414 290.941 52.5898C290.543 52.2344 290.344 51.7852 290.344 51.2422C290.344 50.582 290.594 50.0703 291.094 49.707C291.598 49.3398 292.305 49.1562 293.215 49.1562H294.27V48.6582C294.27 48.2793 294.156 47.9785 293.93 47.7559C293.703 47.5293 293.369 47.416 292.928 47.416C292.541 47.416 292.217 47.5137 291.955 47.709C291.693 47.9043 291.562 48.1406 291.562 48.418H290.473C290.473 48.1016 290.584 47.7969 290.807 47.5039C291.033 47.207 291.338 46.9727 291.721 46.8008C292.107 46.6289 292.531 46.543 292.992 46.543C293.723 46.543 294.295 46.7266 294.709 47.0938C295.123 47.457 295.338 47.959 295.354 48.5996V51.5176C295.354 52.0996 295.428 52.5625 295.576 52.9062V53H294.439ZM292.641 52.1738C292.98 52.1738 293.303 52.0859 293.607 51.9102C293.912 51.7344 294.133 51.5059 294.27 51.2246V49.9238H293.42C292.092 49.9238 291.428 50.3125 291.428 51.0898C291.428 51.4297 291.541 51.6953 291.768 51.8867C291.994 52.0781 292.285 52.1738 292.641 52.1738ZM300.117 47.6328C299.953 47.6055 299.775 47.5918 299.584 47.5918C298.873 47.5918 298.391 47.8945 298.137 48.5V53H297.053V46.6602H298.107L298.125 47.3926C298.48 46.8262 298.984 46.543 299.637 46.543C299.848 46.543 300.008 46.5703 300.117 46.625V47.6328ZM303.299 51.4121L304.775 46.6602H305.936L303.387 53.9785C302.992 55.0332 302.365 55.5605 301.506 55.5605L301.301 55.543L300.896 55.4668V54.5879L301.189 54.6113C301.557 54.6113 301.842 54.5371 302.045 54.3887C302.252 54.2402 302.422 53.9688 302.555 53.5742L302.795 52.9297L300.533 46.6602H301.717L303.299 51.4121Z" fill="black"/>
<path d="M8.90039 53H7.77539V44.4688H8.90039V53ZM11.8184 46.6602L11.8535 47.457C12.3379 46.8477 12.9707 46.543 13.752 46.543C15.0918 46.543 15.7676 47.2988 15.7793 48.8105V53H14.6953V48.8047C14.6914 48.3477 14.5859 48.0098 14.3789 47.791C14.1758 47.5723 13.8574 47.4629 13.4238 47.4629C13.0723 47.4629 12.7637 47.5566 12.498 47.7441C12.2324 47.9316 12.0254 48.1777 11.877 48.4824V53H10.793V46.6602H11.8184ZM18.8848 45.125V46.6602H20.0684V47.498H18.8848V51.4297C18.8848 51.6836 18.9375 51.875 19.043 52.0039C19.1484 52.1289 19.3281 52.1914 19.582 52.1914C19.707 52.1914 19.8789 52.168 20.0977 52.1211V53C19.8125 53.0781 19.5352 53.1172 19.2656 53.1172C18.7812 53.1172 18.416 52.9707 18.1699 52.6777C17.9238 52.3848 17.8008 51.9688 17.8008 51.4297V47.498H16.6465V46.6602H17.8008V45.125H18.8848ZM24.4043 47.6328C24.2402 47.6055 24.0625 47.5918 23.8711 47.5918C23.1602 47.5918 22.6777 47.8945 22.4238 48.5V53H21.3398V46.6602H22.3945L22.4121 47.3926C22.7676 46.8262 23.2715 46.543 23.9238 46.543C24.1348 46.543 24.2949 46.5703 24.4043 46.625V47.6328ZM25.002 49.7715C25.002 49.1504 25.123 48.5918 25.3652 48.0957C25.6113 47.5996 25.9512 47.2168 26.3848 46.9473C26.8223 46.6777 27.3203 46.543 27.8789 46.543C28.7422 46.543 29.4395 46.8418 29.9707 47.4395C30.5059 48.0371 30.7734 48.832 30.7734 49.8242V49.9004C30.7734 50.5176 30.6543 51.0723 30.416 51.5645C30.1816 52.0527 29.8438 52.4336 29.4023 52.707C28.9648 52.9805 28.4609 53.1172 27.8906 53.1172C27.0312 53.1172 26.334 52.8184 25.7988 52.2207C25.2676 51.623 25.002 50.832 25.002 49.8477V49.7715ZM26.0918 49.9004C26.0918 50.6035 26.2539 51.168 26.5781 51.5938C26.9062 52.0195 27.3438 52.2324 27.8906 52.2324C28.4414 52.2324 28.8789 52.0176 29.2031 51.5879C29.5273 51.1543 29.6895 50.5488 29.6895 49.7715C29.6895 49.0762 29.5234 48.5137 29.1914 48.084C28.8633 47.6504 28.4258 47.4336 27.8789 47.4336C27.3438 47.4336 26.9121 47.6465 26.584 48.0723C26.2559 48.498 26.0918 49.1074 26.0918 49.9004ZM31.8691 49.7773C31.8691 48.8047 32.0996 48.0234 32.5605 47.4336C33.0215 46.8398 33.625 46.543 34.3711 46.543C35.1133 46.543 35.7012 46.7969 36.1348 47.3047V44H37.2188V53H36.2227L36.1699 52.3203C35.7363 52.8516 35.1328 53.1172 34.3594 53.1172C33.625 53.1172 33.0254 52.8164 32.5605 52.2148C32.0996 51.6133 31.8691 50.8281 31.8691 49.8594V49.7773ZM32.9531 49.9004C32.9531 50.6191 33.1016 51.1816 33.3984 51.5879C33.6953 51.9941 34.1055 52.1973 34.6289 52.1973C35.3164 52.1973 35.8184 51.8887 36.1348 51.2715V48.3594C35.8105 47.7617 35.3125 47.4629 34.6406 47.4629C34.1094 47.4629 33.6953 47.668 33.3984 48.0781C33.1016 48.4883 32.9531 49.0957 32.9531 49.9004ZM42.8203 52.373C42.3984 52.8691 41.7793 53.1172 40.9629 53.1172C40.2871 53.1172 39.7715 52.9219 39.416 52.5312C39.0645 52.1367 38.8867 51.5547 38.8828 50.7852V46.6602H39.9668V50.7559C39.9668 51.7168 40.3574 52.1973 41.1387 52.1973C41.9668 52.1973 42.5176 51.8887 42.791 51.2715V46.6602H43.875V53H42.8438L42.8203 52.373ZM48.0703 52.2324C48.457 52.2324 48.7949 52.1152 49.084 51.8809C49.373 51.6465 49.5332 51.3535 49.5645 51.002H50.5898C50.5703 51.3652 50.4453 51.7109 50.2148 52.0391C49.9844 52.3672 49.6758 52.6289 49.2891 52.8242C48.9062 53.0195 48.5 53.1172 48.0703 53.1172C47.207 53.1172 46.5195 52.8301 46.0078 52.2559C45.5 51.6777 45.2461 50.8887 45.2461 49.8887V49.707C45.2461 49.0898 45.3594 48.541 45.5859 48.0605C45.8125 47.5801 46.1367 47.207 46.5586 46.9414C46.9844 46.6758 47.4863 46.543 48.0645 46.543C48.7754 46.543 49.3652 46.7559 49.834 47.1816C50.3066 47.6074 50.5586 48.1602 50.5898 48.8398H49.5645C49.5332 48.4297 49.377 48.0938 49.0957 47.832C48.8184 47.5664 48.4746 47.4336 48.0645 47.4336C47.5137 47.4336 47.0859 47.6328 46.7812 48.0312C46.4805 48.4258 46.3301 48.998 46.3301 49.748V49.9531C46.3301 50.6836 46.4805 51.2461 46.7812 51.6406C47.082 52.0352 47.5117 52.2324 48.0703 52.2324ZM53.2793 45.125V46.6602H54.4629V47.498H53.2793V51.4297C53.2793 51.6836 53.332 51.875 53.4375 52.0039C53.543 52.1289 53.7227 52.1914 53.9766 52.1914C54.1016 52.1914 54.2734 52.168 54.4922 52.1211V53C54.207 53.0781 53.9297 53.1172 53.6602 53.1172C53.1758 53.1172 52.8105 52.9707 52.5645 52.6777C52.3184 52.3848 52.1953 51.9688 52.1953 51.4297V47.498H51.041V46.6602H52.1953V45.125H53.2793ZM56.9121 53H55.8281V46.6602H56.9121V53ZM55.7402 44.9785C55.7402 44.8027 55.793 44.6543 55.8984 44.5332C56.0078 44.4121 56.168 44.3516 56.3789 44.3516C56.5898 44.3516 56.75 44.4121 56.8594 44.5332C56.9688 44.6543 57.0234 44.8027 57.0234 44.9785C57.0234 45.1543 56.9688 45.3008 56.8594 45.418C56.75 45.5352 56.5898 45.5938 56.3789 45.5938C56.168 45.5938 56.0078 45.5352 55.8984 45.418C55.793 45.3008 55.7402 45.1543 55.7402 44.9785ZM58.3652 49.7715C58.3652 49.1504 58.4863 48.5918 58.7285 48.0957C58.9746 47.5996 59.3145 47.2168 59.748 46.9473C60.1855 46.6777 60.6836 46.543 61.2422 46.543C62.1055 46.543 62.8027 46.8418 63.334 47.4395C63.8691 48.0371 64.1367 48.832 64.1367 49.8242V49.9004C64.1367 50.5176 64.0176 51.0723 63.7793 51.5645C63.5449 52.0527 63.207 52.4336 62.7656 52.707C62.3281 52.9805 61.8242 53.1172 61.2539 53.1172C60.3945 53.1172 59.6973 52.8184 59.1621 52.2207C58.6309 51.623 58.3652 50.832 58.3652 49.8477V49.7715ZM59.4551 49.9004C59.4551 50.6035 59.6172 51.168 59.9414 51.5938C60.2695 52.0195 60.707 52.2324 61.2539 52.2324C61.8047 52.2324 62.2422 52.0176 62.5664 51.5879C62.8906 51.1543 63.0527 50.5488 63.0527 49.7715C63.0527 49.0762 62.8867 48.5137 62.5547 48.084C62.2266 47.6504 61.7891 47.4336 61.2422 47.4336C60.707 47.4336 60.2754 47.6465 59.9473 48.0723C59.6191 48.498 59.4551 49.1074 59.4551 49.9004ZM66.5215 46.6602L66.5566 47.457C67.041 46.8477 67.6738 46.543 68.4551 46.543C69.7949 46.543 70.4707 47.2988 70.4824 48.8105V53H69.3984V48.8047C69.3945 48.3477 69.2891 48.0098 69.082 47.791C68.8789 47.5723 68.5605 47.4629 68.127 47.4629C67.7754 47.4629 67.4668 47.5566 67.2012 47.7441C66.9355 47.9316 66.7285 48.1777 66.5801 48.4824V53H65.4961V46.6602H66.5215Z" fill="black"/>
<path d="M9.40234 87H8.3125V79.7754L6.12695 80.5781V79.5938L9.23242 78.4277H9.40234V87Z" fill="black"/>
<path d="M31.4297 87H25.8398V86.2207L28.793 82.9395C29.2305 82.4434 29.5312 82.041 29.6953 81.7324C29.8633 81.4199 29.9473 81.0977 29.9473 80.7656C29.9473 80.3203 29.8125 79.9551 29.543 79.6699C29.2734 79.3848 28.9141 79.2422 28.4648 79.2422C27.9258 79.2422 27.5059 79.3965 27.2051 79.7051C26.9082 80.0098 26.7598 80.4355 26.7598 80.9824H25.6758C25.6758 80.1973 25.9277 79.5625 26.4316 79.0781C26.9395 78.5938 27.6172 78.3516 28.4648 78.3516C29.2578 78.3516 29.8848 78.5605 30.3457 78.9785C30.8066 79.3926 31.0371 79.9453 31.0371 80.6367C31.0371 81.4766 30.502 82.4766 29.4316 83.6367L27.1465 86.1152H31.4297V87Z" fill="black"/>
<path d="M48.416 82.207H49.2305C49.7422 82.1992 50.1445 82.0645 50.4375 81.8027C50.7305 81.541 50.877 81.1875 50.877 80.7422C50.877 79.7422 50.3789 79.2422 49.3828 79.2422C48.9141 79.2422 48.5391 79.377 48.2578 79.6465C47.9805 79.9121 47.8418 80.2656 47.8418 80.707H46.7578C46.7578 80.0312 47.0039 79.4707 47.4961 79.0254C47.9922 78.5762 48.6211 78.3516 49.3828 78.3516C50.1875 78.3516 50.8184 78.5645 51.2754 78.9902C51.7324 79.416 51.9609 80.0078 51.9609 80.7656C51.9609 81.1367 51.8398 81.4961 51.5977 81.8438C51.3594 82.1914 51.0332 82.4512 50.6191 82.623C51.0879 82.7715 51.4492 83.0176 51.7031 83.3613C51.9609 83.7051 52.0898 84.125 52.0898 84.6211C52.0898 85.3867 51.8398 85.9941 51.3398 86.4434C50.8398 86.8926 50.1895 87.1172 49.3887 87.1172C48.5879 87.1172 47.9355 86.9004 47.4316 86.4668C46.9316 86.0332 46.6816 85.4609 46.6816 84.75H47.7715C47.7715 85.1992 47.918 85.5586 48.2109 85.8281C48.5039 86.0977 48.8965 86.2324 49.3887 86.2324C49.9121 86.2324 50.3125 86.0957 50.5898 85.8223C50.8672 85.5488 51.0059 85.1562 51.0059 84.6445C51.0059 84.1484 50.8535 83.7676 50.5488 83.502C50.2441 83.2363 49.8047 83.0996 49.2305 83.0918H48.416V82.207Z" fill="black"/>
<path d="M71.416 84.1348H72.5996V85.0195H71.416V87H70.3262V85.0195H66.4414V84.3809L70.2617 78.4688H71.416V84.1348ZM67.6719 84.1348H70.3262V79.9512L70.1973 80.1855L67.6719 84.1348Z" fill="black"/>
<path d="M87.8379 82.7227L88.2715 78.4688H92.6426V79.4707H89.1914L88.9336 81.7969C89.3516 81.5508 89.8262 81.4277 90.3574 81.4277C91.1348 81.4277 91.752 81.6855 92.209 82.2012C92.666 82.7129 92.8945 83.4062 92.8945 84.2812C92.8945 85.1602 92.6562 85.8535 92.1797 86.3613C91.707 86.8652 91.0449 87.1172 90.1934 87.1172C89.4395 87.1172 88.8242 86.9082 88.3477 86.4902C87.8711 86.0723 87.5996 85.4941 87.5332 84.7559H88.5586C88.625 85.2441 88.7988 85.6133 89.0801 85.8633C89.3613 86.1094 89.7324 86.2324 90.1934 86.2324C90.6973 86.2324 91.0918 86.0605 91.377 85.7168C91.666 85.373 91.8105 84.8984 91.8105 84.293C91.8105 83.7227 91.6543 83.2656 91.3418 82.9219C91.0332 82.5742 90.6211 82.4004 90.1055 82.4004C89.6328 82.4004 89.2617 82.5039 88.9922 82.7109L88.7051 82.9453L87.8379 82.7227Z" fill="black"/>
<path d="M111.594 78.4629V79.3828H111.395C110.551 79.3984 109.879 79.6484 109.379 80.1328C108.879 80.6172 108.59 81.2988 108.512 82.1777C108.961 81.6621 109.574 81.4043 110.352 81.4043C111.094 81.4043 111.686 81.666 112.127 82.1895C112.572 82.7129 112.795 83.3887 112.795 84.2168C112.795 85.0957 112.555 85.7988 112.074 86.3262C111.598 86.8535 110.957 87.1172 110.152 87.1172C109.336 87.1172 108.674 86.8047 108.166 86.1797C107.658 85.5508 107.404 84.7422 107.404 83.7539V83.3379C107.404 81.7676 107.738 80.5684 108.406 79.7402C109.078 78.9082 110.076 78.4824 111.4 78.4629H111.594ZM110.17 82.3066C109.799 82.3066 109.457 82.418 109.145 82.6406C108.832 82.8633 108.615 83.1426 108.494 83.4785V83.877C108.494 84.5801 108.652 85.1465 108.969 85.5762C109.285 86.0059 109.68 86.2207 110.152 86.2207C110.641 86.2207 111.023 86.041 111.301 85.6816C111.582 85.3223 111.723 84.8516 111.723 84.2695C111.723 83.6836 111.58 83.2109 111.295 82.8516C111.014 82.4883 110.639 82.3066 110.17 82.3066Z" fill="black"/>
<path d="M132.848 79.0781L129.314 87H128.178L131.699 79.3594H127.082V78.4688H132.848V79.0781Z" fill="black"/>
<path d="M152.514 80.6953C152.514 81.1211 152.4 81.5 152.174 81.832C151.951 82.1641 151.648 82.4238 151.266 82.6113C151.711 82.8027 152.062 83.082 152.32 83.4492C152.582 83.8164 152.713 84.2324 152.713 84.6973C152.713 85.4355 152.463 86.0234 151.963 86.4609C151.467 86.8984 150.812 87.1172 150 87.1172C149.18 87.1172 148.521 86.8984 148.025 86.4609C147.533 86.0195 147.287 85.4316 147.287 84.6973C147.287 84.2363 147.412 83.8203 147.662 83.4492C147.916 83.0781 148.266 82.7969 148.711 82.6055C148.332 82.418 148.033 82.1582 147.814 81.8262C147.596 81.4941 147.486 81.1172 147.486 80.6953C147.486 79.9766 147.717 79.4062 148.178 78.9844C148.639 78.5625 149.246 78.3516 150 78.3516C150.75 78.3516 151.355 78.5625 151.816 78.9844C152.281 79.4062 152.514 79.9766 152.514 80.6953ZM151.629 84.6738C151.629 84.1973 151.477 83.8086 151.172 83.5078C150.871 83.207 150.477 83.0566 149.988 83.0566C149.5 83.0566 149.107 83.2051 148.811 83.502C148.518 83.7988 148.371 84.1895 148.371 84.6738C148.371 85.1582 148.514 85.5391 148.799 85.8164C149.088 86.0938 149.488 86.2324 150 86.2324C150.508 86.2324 150.906 86.0938 151.195 85.8164C151.484 85.5352 151.629 85.1543 151.629 84.6738ZM150 79.2422C149.574 79.2422 149.229 79.375 148.963 79.6406C148.701 79.9023 148.57 80.2598 148.57 80.7129C148.57 81.1465 148.699 81.498 148.957 81.7676C149.219 82.0332 149.566 82.166 150 82.166C150.434 82.166 150.779 82.0332 151.037 81.7676C151.299 81.498 151.43 81.1465 151.43 80.7129C151.43 80.2793 151.295 79.9258 151.025 79.6523C150.756 79.3789 150.414 79.2422 150 79.2422Z" fill="black"/>
<path d="M171.494 83.25C171.268 83.5195 170.996 83.7363 170.68 83.9004C170.367 84.0645 170.023 84.1465 169.648 84.1465C169.156 84.1465 168.727 84.0254 168.359 83.7832C167.996 83.541 167.715 83.2012 167.516 82.7637C167.316 82.3223 167.217 81.8359 167.217 81.3047C167.217 80.7344 167.324 80.2207 167.539 79.7637C167.758 79.3066 168.066 78.957 168.465 78.7148C168.863 78.4727 169.328 78.3516 169.859 78.3516C170.703 78.3516 171.367 78.668 171.852 79.3008C172.34 79.9297 172.584 80.7891 172.584 81.8789V82.1953C172.584 83.8555 172.256 85.0684 171.6 85.834C170.943 86.5957 169.953 86.9863 168.629 87.0059H168.418V86.0918H168.646C169.541 86.0762 170.229 85.8438 170.709 85.3945C171.189 84.9414 171.451 84.2266 171.494 83.25ZM169.824 83.25C170.188 83.25 170.521 83.1387 170.826 82.916C171.135 82.6934 171.359 82.418 171.5 82.0898V81.6562C171.5 80.9453 171.346 80.3672 171.037 79.9219C170.729 79.4766 170.338 79.2539 169.865 79.2539C169.389 79.2539 169.006 79.4375 168.717 79.8047C168.428 80.168 168.283 80.6484 168.283 81.2461C168.283 81.8281 168.422 82.3086 168.699 82.6875C168.98 83.0625 169.355 83.25 169.824 83.25Z" fill="black"/>
<path d="M187.033 87H185.943V79.7754L183.758 80.5781V79.5938L186.863 78.4277H187.033V87ZM195.559 83.3613C195.559 84.6309 195.342 85.5742 194.908 86.1914C194.475 86.8086 193.797 87.1172 192.875 87.1172C191.965 87.1172 191.291 86.8164 190.854 86.2148C190.416 85.6094 190.189 84.707 190.174 83.5078V82.0605C190.174 80.8066 190.391 79.875 190.824 79.2656C191.258 78.6562 191.938 78.3516 192.863 78.3516C193.781 78.3516 194.457 78.6465 194.891 79.2363C195.324 79.8223 195.547 80.7285 195.559 81.9551V83.3613ZM194.475 81.8789C194.475 80.9609 194.346 80.293 194.088 79.875C193.83 79.4531 193.422 79.2422 192.863 79.2422C192.309 79.2422 191.904 79.4512 191.65 79.8691C191.396 80.2871 191.266 80.9297 191.258 81.7969V83.5312C191.258 84.4531 191.391 85.1348 191.656 85.5762C191.926 86.0137 192.332 86.2324 192.875 86.2324C193.41 86.2324 193.807 86.0254 194.064 85.6113C194.326 85.1973 194.463 84.5449 194.475 83.6543V81.8789Z" fill="black"/>
<path d="M207.533 87H206.443V79.7754L204.258 80.5781V79.5938L207.363 78.4277H207.533V87ZM214.271 87H213.182V79.7754L210.996 80.5781V79.5938L214.102 78.4277H214.271V87Z" fill="black"/>
<path d="M227.033 87H225.943V79.7754L223.758 80.5781V79.5938L226.863 78.4277H227.033V87ZM235.799 87H230.209V86.2207L233.162 82.9395C233.6 82.4434 233.9 82.041 234.064 81.7324C234.232 81.4199 234.316 81.0977 234.316 80.7656C234.316 80.3203 234.182 79.9551 233.912 79.6699C233.643 79.3848 233.283 79.2422 232.834 79.2422C232.295 79.2422 231.875 79.3965 231.574 79.7051C231.277 80.0098 231.129 80.4355 231.129 80.9824H230.045C230.045 80.1973 230.297 79.5625 230.801 79.0781C231.309 78.5938 231.986 78.3516 232.834 78.3516C233.627 78.3516 234.254 78.5605 234.715 78.9785C235.176 79.3926 235.406 79.9453 235.406 80.6367C235.406 81.4766 234.871 82.4766 233.801 83.6367L231.516 86.1152H235.799V87Z" fill="black"/>
<path d="M247.533 87H246.443V79.7754L244.258 80.5781V79.5938L247.363 78.4277H247.533V87ZM252.285 82.207H253.1C253.611 82.1992 254.014 82.0645 254.307 81.8027C254.6 81.541 254.746 81.1875 254.746 80.7422C254.746 79.7422 254.248 79.2422 253.252 79.2422C252.783 79.2422 252.408 79.377 252.127 79.6465C251.85 79.9121 251.711 80.2656 251.711 80.707H250.627C250.627 80.0312 250.873 79.4707 251.365 79.0254C251.861 78.5762 252.49 78.3516 253.252 78.3516C254.057 78.3516 254.688 78.5645 255.145 78.9902C255.602 79.416 255.83 80.0078 255.83 80.7656C255.83 81.1367 255.709 81.4961 255.467 81.8438C255.229 82.1914 254.902 82.4512 254.488 82.623C254.957 82.7715 255.318 83.0176 255.572 83.3613C255.83 83.7051 255.959 84.125 255.959 84.6211C255.959 85.3867 255.709 85.9941 255.209 86.4434C254.709 86.8926 254.059 87.1172 253.258 87.1172C252.457 87.1172 251.805 86.9004 251.301 86.4668C250.801 86.0332 250.551 85.4609 250.551 84.75H251.641C251.641 85.1992 251.787 85.5586 252.08 85.8281C252.373 86.0977 252.766 86.2324 253.258 86.2324C253.781 86.2324 254.182 86.0957 254.459 85.8223C254.736 85.5488 254.875 85.1562 254.875 84.6445C254.875 84.1484 254.723 83.7676 254.418 83.502C254.113 83.2363 253.674 83.0996 253.1 83.0918H252.285V82.207Z" fill="black"/>
<path d="M268.033 87H266.943V79.7754L264.758 80.5781V79.5938L267.863 78.4277H268.033V87ZM275.785 84.1348H276.969V85.0195H275.785V87H274.695V85.0195H270.811V84.3809L274.631 78.4688H275.785V84.1348ZM272.041 84.1348H274.695V79.9512L274.566 80.1855L272.041 84.1348Z" fill="black"/>
<path d="M288.033 87H286.943V79.7754L284.758 80.5781V79.5938L287.863 78.4277H288.033V87ZM291.707 82.7227L292.141 78.4688H296.512V79.4707H293.061L292.803 81.7969C293.221 81.5508 293.695 81.4277 294.227 81.4277C295.004 81.4277 295.621 81.6855 296.078 82.2012C296.535 82.7129 296.764 83.4062 296.764 84.2812C296.764 85.1602 296.525 85.8535 296.049 86.3613C295.576 86.8652 294.914 87.1172 294.062 87.1172C293.309 87.1172 292.693 86.9082 292.217 86.4902C291.74 86.0723 291.469 85.4941 291.402 84.7559H292.428C292.494 85.2441 292.668 85.6133 292.949 85.8633C293.23 86.1094 293.602 86.2324 294.062 86.2324C294.566 86.2324 294.961 86.0605 295.246 85.7168C295.535 85.373 295.68 84.8984 295.68 84.293C295.68 83.7227 295.523 83.2656 295.211 82.9219C294.902 82.5742 294.49 82.4004 293.975 82.4004C293.502 82.4004 293.131 82.5039 292.861 82.7109L292.574 82.9453L291.707 82.7227Z" fill="black"/>
<path d="M308.533 87H307.443V79.7754L305.258 80.5781V79.5938L308.363 78.4277H308.533V87ZM315.963 78.4629V79.3828H315.764C314.92 79.3984 314.248 79.6484 313.748 80.1328C313.248 80.6172 312.959 81.2988 312.881 82.1777C313.33 81.6621 313.943 81.4043 314.721 81.4043C315.463 81.4043 316.055 81.666 316.496 82.1895C316.941 82.7129 317.164 83.3887 317.164 84.2168C317.164 85.0957 316.924 85.7988 316.443 86.3262C315.967 86.8535 315.326 87.1172 314.521 87.1172C313.705 87.1172 313.043 86.8047 312.535 86.1797C312.027 85.5508 311.773 84.7422 311.773 83.7539V83.3379C311.773 81.7676 312.107 80.5684 312.775 79.7402C313.447 78.9082 314.445 78.4824 315.77 78.4629H315.963ZM314.539 82.3066C314.168 82.3066 313.826 82.418 313.514 82.6406C313.201 82.8633 312.984 83.1426 312.863 83.4785V83.877C312.863 84.5801 313.021 85.1465 313.338 85.5762C313.654 86.0059 314.049 86.2207 314.521 86.2207C315.01 86.2207 315.393 86.041 315.67 85.6816C315.951 85.3223 316.092 84.8516 316.092 84.2695C316.092 83.6836 315.949 83.2109 315.664 82.8516C315.383 82.4883 315.008 82.3066 314.539 82.3066Z" fill="black"/>
</svg>
