<svg width="43" height="43" viewBox="0 0 43 43" fill="none" xmlns="http://www.w3.org/2000/svg">
<circle cx="21.5" cy="21.5002" r="17.5" fill="#EAA81C"/>
<g filter="url(#filter0_f)">
<circle cx="21.5" cy="21.5002" r="17.5" fill="#F9E708" fill-opacity="0.19"/>
<circle cx="21.5" cy="21.5002" r="17.5" fill="url(#paint0_linear)"/>
</g>
<path d="M12.5367 16.4523V16.4523C13.4801 14.0012 16.6819 13.4154 18.432 15.3737V15.3737" stroke="black" stroke-width="0.7"/>
<path d="M23.9998 14.9754V14.9754C25.8291 13.3459 28.6926 13.8019 29.9252 15.919V15.919" stroke="black" stroke-width="0.7"/>
<path d="M15.85 18.0002C14.2737 18.0002 12.9037 19.3431 12.207 21.3179C12.1398 21.5085 12.3697 21.6464 12.5192 21.5103C15.0443 19.2139 16.6538 19.1117 19.1668 21.476C19.3159 21.6163 19.5504 21.4783 19.4815 21.2855C18.7814 19.3285 17.4176 18.0002 15.85 18.0002Z" fill="#E6A420"/>
<path d="M15.85 18.0002C14.2737 18.0002 12.9037 19.3431 12.207 21.3179C12.1398 21.5085 12.3697 21.6464 12.5192 21.5103C15.0443 19.2139 16.6538 19.1117 19.1668 21.476C19.3159 21.6163 19.5504 21.4783 19.4815 21.2855C18.7814 19.3285 17.4176 18.0002 15.85 18.0002Z" fill="black" fill-opacity="0.8"/>
<path d="M26.85 18.0002C25.2737 18.0002 23.9037 19.3431 23.207 21.3179C23.1398 21.5085 23.3697 21.6464 23.5192 21.5103C26.0443 19.2139 27.6538 19.1117 30.1668 21.476C30.3159 21.6163 30.5504 21.4783 30.4815 21.2855C29.7814 19.3285 28.4176 18.0002 26.85 18.0002Z" fill="#E6A420"/>
<path d="M26.85 18.0002C25.2737 18.0002 23.9037 19.3431 23.207 21.3179C23.1398 21.5085 23.3697 21.6464 23.5192 21.5103C26.0443 19.2139 27.6538 19.1117 30.1668 21.476C30.3159 21.6163 30.5504 21.4783 30.4815 21.2855C29.7814 19.3285 28.4176 18.0002 26.85 18.0002Z" fill="black" fill-opacity="0.8"/>
<path d="M22.2823 8.1064C23.4617 6.18642 27.0407 5.37393 30.0802 7.24104C33.1197 9.10815 36.5813 13.3974 35.4018 15.3174C34.2224 17.2374 31.0935 16.3943 28.054 14.5272C25.0145 12.6601 21.1029 10.0264 22.2823 8.1064Z" fill="white" fill-opacity="0.3"/>
<path d="M33.1759 13.0542C34.607 13.0365 35.7868 11.6817 36.0589 9.88766C36.1443 9.3244 36.0168 8.75634 35.8197 8.22183L33.1759 1.05326L30.4696 8.21963C30.2491 8.80356 30.1121 9.42929 30.231 10.0421C30.5694 11.787 31.7669 13.0716 33.1759 13.0542Z" fill="#0046FB"/>
<path d="M35.6634 9.82768C35.4069 11.5186 34.3269 12.6399 33.171 12.6542C32.0327 12.6682 30.9423 11.6087 30.6237 9.96589C30.5252 9.45824 30.6347 8.9146 30.8438 8.36095L33.1715 2.19723L35.4444 8.36023C35.6312 8.86678 35.7342 9.36056 35.6634 9.82768Z" stroke="#051D5C" stroke-opacity="0.4" stroke-width="0.8"/>
<path d="M11.1384 26.8435C11.0623 31.6674 15.7347 35.6693 21.5745 35.7822C26.8293 35.8837 31.9684 30.9302 33.0007 26.4221L11.1384 26.8435Z" fill="black"/>
<path d="M11.1384 26.8435C11.0623 31.6674 15.7347 35.6693 21.5745 35.7822C26.8293 35.8837 31.9684 30.9302 33.0007 26.4221L11.1384 26.8435Z" stroke="black"/>
<path d="M21.2432 32.0177C19.9652 31.9531 18.8397 32.2537 18.0293 32.6559C17.6242 32.8569 17.2966 33.084 17.0676 33.3048C16.841 33.5234 16.703 33.7438 16.6952 33.9321C16.6871 34.1283 16.8264 34.2972 17.0527 34.4395C17.281 34.583 17.6116 34.709 18.0186 34.8168C18.8335 35.0327 19.9683 35.1795 21.2389 35.2437C22.5127 35.3081 23.6624 35.1612 24.4987 34.9127C24.9166 34.7886 25.2585 34.6384 25.4988 34.4749C25.7366 34.3132 25.8866 34.1303 25.8945 33.9374C25.9025 33.7441 25.7599 33.5374 25.526 33.3392C25.289 33.1384 24.9459 32.9357 24.5247 32.7512C23.6818 32.382 22.518 32.0822 21.2432 32.0177Z" fill="#F40606" stroke="black" stroke-width="0.1"/>
<path d="M11.4697 27.208L32.6704 26.9955L31.5301 29.3388L11.5066 29.5493L11.4697 27.208Z" fill="url(#paint1_linear)"/>
<path d="M21.5776 35.5822C15.89 35.4723 11.3897 31.6343 11.3379 27.0397L32.7442 26.6271C32.1857 28.7564 30.7085 30.9782 28.74 32.6792C26.6945 34.4466 24.142 35.6317 21.5776 35.5822Z" stroke="black" stroke-width="0.4"/>
<defs>
<filter id="filter0_f" x="0" y="0.000244141" width="43" height="43" filterUnits="userSpaceOnUse" color-interpolation-filters="sRGB">
<feFlood flood-opacity="0" result="BackgroundImageFix"/>
<feBlend mode="normal" in="SourceGraphic" in2="BackgroundImageFix" result="shape"/>
<feGaussianBlur stdDeviation="2" result="effect1_foregroundBlur"/>
</filter>
<linearGradient id="paint0_linear" x1="20.5" y1="46.5002" x2="22.5" y2="-3.49975" gradientUnits="userSpaceOnUse">
<stop stop-color="#EAA81C" stop-opacity="0"/>
<stop offset="0.448682" stop-color="#FFFD8F" stop-opacity="0.66"/>
</linearGradient>
<linearGradient id="paint1_linear" x1="33.0945" y1="27.1685" x2="11.4791" y2="27.3211" gradientUnits="userSpaceOnUse">
<stop offset="0.0844594" stop-color="white" stop-opacity="0.682292"/>
<stop offset="0.533784" stop-color="white"/>
<stop offset="1" stop-color="white" stop-opacity="0.59"/>
</linearGradient>
</defs>
</svg>
