<svg width="407" height="512" viewBox="0 0 407 512" fill="none" xmlns="http://www.w3.org/2000/svg">
<ellipse cx="40.1645" cy="120.493" rx="40.1645" ry="40.1645" fill="#F1A30C" fill-opacity="0.5"/>
<path d="M20.4655 123.783C20.403 123.658 20.3522 123.435 20.3132 123.115C19.8093 123.638 19.2077 123.9 18.5085 123.9C17.8835 123.9 17.3698 123.724 16.9675 123.373C16.569 123.017 16.3698 122.568 16.3698 122.025C16.3698 121.365 16.6198 120.853 17.1198 120.49C17.6237 120.123 18.3308 119.939 19.2409 119.939H20.2956V119.441C20.2956 119.062 20.1823 118.761 19.9558 118.539C19.7292 118.312 19.3952 118.199 18.9538 118.199C18.5671 118.199 18.2429 118.297 17.9811 118.492C17.7194 118.687 17.5886 118.924 17.5886 119.201H16.4987C16.4987 118.885 16.6101 118.58 16.8327 118.287C17.0593 117.99 17.364 117.756 17.7468 117.584C18.1335 117.412 18.5573 117.326 19.0183 117.326C19.7487 117.326 20.321 117.51 20.7351 117.877C21.1491 118.24 21.364 118.742 21.3796 119.383V122.301C21.3796 122.883 21.4538 123.345 21.6022 123.689V123.783H20.4655ZM18.6667 122.957C19.0065 122.957 19.3288 122.869 19.6335 122.693C19.9382 122.517 20.1589 122.289 20.2956 122.008V120.707H19.446C18.1179 120.707 17.4538 121.095 17.4538 121.873C17.4538 122.213 17.5671 122.478 17.7936 122.67C18.0202 122.861 18.3112 122.957 18.6667 122.957ZM24.2565 123.783H23.1726V117.443H24.2565V123.783ZM23.0847 115.761C23.0847 115.586 23.1374 115.437 23.2429 115.316C23.3522 115.195 23.5124 115.135 23.7233 115.135C23.9343 115.135 24.0944 115.195 24.2038 115.316C24.3132 115.437 24.3679 115.586 24.3679 115.761C24.3679 115.937 24.3132 116.084 24.2038 116.201C24.0944 116.318 23.9343 116.377 23.7233 116.377C23.5124 116.377 23.3522 116.318 23.2429 116.201C23.1374 116.084 23.0847 115.937 23.0847 115.761ZM29.0612 118.416C28.8972 118.388 28.7194 118.375 28.528 118.375C27.8171 118.375 27.3347 118.677 27.0808 119.283V123.783H25.9968V117.443H27.0515L27.069 118.176C27.4245 117.609 27.9284 117.326 28.5808 117.326C28.7917 117.326 28.9518 117.353 29.0612 117.408V118.416ZM35.4186 120.683C35.4186 121.648 35.1979 122.426 34.7565 123.015C34.3151 123.605 33.7175 123.9 32.9636 123.9C32.194 123.9 31.5886 123.656 31.1472 123.168V126.22H30.0632V117.443H31.0534L31.1061 118.146C31.5476 117.599 32.1608 117.326 32.946 117.326C33.7077 117.326 34.3093 117.613 34.7507 118.187C35.196 118.761 35.4186 119.56 35.4186 120.584V120.683ZM34.3347 120.56C34.3347 119.845 34.1823 119.281 33.8776 118.867C33.5729 118.453 33.155 118.246 32.6237 118.246C31.9675 118.246 31.4753 118.537 31.1472 119.119V122.148C31.4714 122.726 31.9675 123.015 32.6354 123.015C33.155 123.015 33.5671 122.81 33.8718 122.4C34.1804 121.986 34.3347 121.373 34.3347 120.56ZM37.9792 123.783H36.8952V114.783H37.9792V123.783ZM43.6335 123.783C43.571 123.658 43.5202 123.435 43.4811 123.115C42.9772 123.638 42.3757 123.9 41.6765 123.9C41.0515 123.9 40.5378 123.724 40.1354 123.373C39.737 123.017 39.5378 122.568 39.5378 122.025C39.5378 121.365 39.7878 120.853 40.2878 120.49C40.7917 120.123 41.4987 119.939 42.4089 119.939H43.4636V119.441C43.4636 119.062 43.3503 118.761 43.1237 118.539C42.8972 118.312 42.5632 118.199 42.1218 118.199C41.7351 118.199 41.4108 118.297 41.1491 118.492C40.8874 118.687 40.7565 118.924 40.7565 119.201H39.6667C39.6667 118.885 39.778 118.58 40.0007 118.287C40.2272 117.99 40.5319 117.756 40.9147 117.584C41.3015 117.412 41.7253 117.326 42.1862 117.326C42.9167 117.326 43.489 117.51 43.903 117.877C44.3171 118.24 44.5319 118.742 44.5476 119.383V122.301C44.5476 122.883 44.6218 123.345 44.7702 123.689V123.783H43.6335ZM41.8347 122.957C42.1745 122.957 42.4968 122.869 42.8015 122.693C43.1061 122.517 43.3268 122.289 43.4636 122.008V120.707H42.614C41.2858 120.707 40.6218 121.095 40.6218 121.873C40.6218 122.213 40.7351 122.478 40.9616 122.67C41.1882 122.861 41.4792 122.957 41.8347 122.957ZM47.2722 117.443L47.3073 118.24C47.7917 117.631 48.4245 117.326 49.2058 117.326C50.5456 117.326 51.2214 118.082 51.2331 119.594V123.783H50.1491V119.588C50.1452 119.131 50.0397 118.793 49.8327 118.574C49.6296 118.355 49.3112 118.246 48.8776 118.246C48.5261 118.246 48.2175 118.34 47.9518 118.527C47.6862 118.715 47.4792 118.961 47.3308 119.265V123.783H46.2468V117.443H47.2722ZM55.4987 123.9C54.6393 123.9 53.9401 123.619 53.4011 123.056C52.862 122.49 52.5925 121.734 52.5925 120.789V120.59C52.5925 119.961 52.7116 119.4 52.9499 118.908C53.1921 118.412 53.528 118.025 53.9577 117.748C54.3913 117.467 54.8601 117.326 55.364 117.326C56.1882 117.326 56.8288 117.597 57.2858 118.14C57.7429 118.683 57.9714 119.461 57.9714 120.472V120.924H53.6765C53.6921 121.549 53.8737 122.054 54.2214 122.441C54.5729 122.824 55.0183 123.015 55.5573 123.015C55.9401 123.015 56.2643 122.937 56.53 122.781C56.7956 122.625 57.028 122.418 57.2272 122.16L57.8893 122.676C57.3581 123.492 56.5612 123.9 55.4987 123.9ZM55.364 118.217C54.9265 118.217 54.5593 118.377 54.2624 118.697C53.9655 119.013 53.7819 119.459 53.7116 120.033H56.8874V119.951C56.8561 119.4 56.7077 118.974 56.4421 118.674C56.1765 118.369 55.8171 118.217 55.364 118.217ZM62.9226 122.101C62.9226 121.808 62.8112 121.582 62.5886 121.422C62.3698 121.258 61.9851 121.117 61.4343 121C60.8874 120.883 60.4518 120.742 60.1276 120.578C59.8073 120.414 59.569 120.219 59.4128 119.992C59.2604 119.765 59.1843 119.496 59.1843 119.183C59.1843 118.664 59.403 118.224 59.8405 117.865C60.2819 117.506 60.8444 117.326 61.528 117.326C62.2468 117.326 62.8288 117.511 63.2741 117.883C63.7233 118.254 63.9479 118.728 63.9479 119.306H62.8581C62.8581 119.01 62.7311 118.754 62.4772 118.539C62.2272 118.324 61.9108 118.217 61.528 118.217C61.1335 118.217 60.8249 118.302 60.6022 118.474C60.3796 118.646 60.2683 118.871 60.2683 119.148C60.2683 119.41 60.3718 119.607 60.5788 119.74C60.7858 119.873 61.1589 120 61.6979 120.121C62.2409 120.242 62.6804 120.386 63.0163 120.554C63.3522 120.722 63.6003 120.926 63.7604 121.164C63.9245 121.398 64.0065 121.685 64.0065 122.025C64.0065 122.592 63.78 123.047 63.3268 123.39C62.8737 123.73 62.2858 123.9 61.5632 123.9C61.0554 123.9 60.6061 123.81 60.2155 123.631C59.8249 123.451 59.5183 123.201 59.2956 122.881C59.0768 122.556 58.9675 122.207 58.9675 121.832H60.0515C60.071 122.195 60.2155 122.484 60.4851 122.699C60.7585 122.91 61.1179 123.015 61.5632 123.015C61.9733 123.015 62.3015 122.933 62.5476 122.769C62.7976 122.601 62.9226 122.379 62.9226 122.101Z" fill="black"/>
<ellipse cx="211.533" cy="301.234" rx="40.1645" ry="40.1645" fill="#F1A30C"/>
<path d="M206.531 300.423C206.531 301.392 206.308 302.171 205.863 302.761C205.418 303.347 204.82 303.64 204.07 303.64C203.269 303.64 202.65 303.357 202.213 302.791L202.16 303.523H201.164V294.523H202.248V297.88C202.685 297.337 203.289 297.066 204.058 297.066C204.828 297.066 205.431 297.357 205.869 297.939C206.31 298.521 206.531 299.318 206.531 300.33V300.423ZM205.447 300.3C205.447 299.562 205.304 298.992 205.019 298.589C204.734 298.187 204.324 297.986 203.789 297.986C203.074 297.986 202.56 298.318 202.248 298.982V301.724C202.58 302.388 203.097 302.72 203.8 302.72C204.32 302.72 204.724 302.519 205.013 302.117C205.302 301.714 205.447 301.109 205.447 300.3ZM209.08 303.523H207.996V297.183H209.08V303.523ZM207.908 295.501C207.908 295.326 207.961 295.177 208.066 295.056C208.175 294.935 208.336 294.875 208.547 294.875C208.758 294.875 208.918 294.935 209.027 295.056C209.136 295.177 209.191 295.326 209.191 295.501C209.191 295.677 209.136 295.824 209.027 295.941C208.918 296.058 208.758 296.117 208.547 296.117C208.336 296.117 208.175 296.058 208.066 295.941C207.961 295.824 207.908 295.677 207.908 295.501ZM213.884 298.156C213.72 298.128 213.543 298.115 213.351 298.115C212.64 298.115 212.158 298.417 211.904 299.023V303.523H210.82V297.183H211.875L211.892 297.916C212.248 297.349 212.752 297.066 213.404 297.066C213.615 297.066 213.775 297.093 213.884 297.148V298.156ZM214.506 300.3C214.506 299.328 214.736 298.546 215.197 297.957C215.658 297.363 216.261 297.066 217.008 297.066C217.75 297.066 218.338 297.32 218.771 297.828V294.523H219.855V303.523H218.859L218.806 302.843C218.373 303.375 217.769 303.64 216.996 303.64C216.261 303.64 215.662 303.339 215.197 302.738C214.736 302.136 214.506 301.351 214.506 300.382V300.3ZM215.59 300.423C215.59 301.142 215.738 301.705 216.035 302.111C216.332 302.517 216.742 302.72 217.265 302.72C217.953 302.72 218.455 302.412 218.771 301.794V298.882C218.447 298.285 217.949 297.986 217.277 297.986C216.746 297.986 216.332 298.191 216.035 298.601C215.738 299.011 215.59 299.619 215.59 300.423Z" fill="black"/>
<ellipse cx="218.227" cy="151.286" rx="40.1645" ry="40.1645" fill="#F1A30C" fill-opacity="0.25"/>
<path d="M207.827 151.476C207.827 152.445 207.604 153.224 207.159 153.814C206.714 154.4 206.116 154.693 205.366 154.693C204.565 154.693 203.946 154.41 203.508 153.843L203.456 154.576H202.46V145.576H203.544V148.933C203.981 148.39 204.585 148.119 205.354 148.119C206.124 148.119 206.727 148.41 207.165 148.992C207.606 149.574 207.827 150.371 207.827 151.382V151.476ZM206.743 151.353C206.743 150.615 206.6 150.044 206.315 149.642C206.03 149.24 205.62 149.039 205.085 149.039C204.37 149.039 203.856 149.371 203.544 150.035V152.777C203.876 153.441 204.393 153.773 205.096 153.773C205.616 153.773 206.02 153.572 206.309 153.169C206.598 152.767 206.743 152.162 206.743 151.353ZM212.262 149.208C212.098 149.181 211.921 149.167 211.729 149.167C211.018 149.167 210.536 149.47 210.282 150.076V154.576H209.198V148.236H210.253L210.27 148.968C210.626 148.402 211.13 148.119 211.782 148.119C211.993 148.119 212.153 148.146 212.262 148.201V149.208ZM212.86 151.347C212.86 150.726 212.981 150.167 213.223 149.671C213.469 149.175 213.809 148.792 214.243 148.523C214.68 148.253 215.178 148.119 215.737 148.119C216.6 148.119 217.298 148.417 217.829 149.015C218.364 149.613 218.632 150.408 218.632 151.4V151.476C218.632 152.093 218.512 152.648 218.274 153.14C218.04 153.628 217.702 154.009 217.26 154.283C216.823 154.556 216.319 154.693 215.749 154.693C214.889 154.693 214.192 154.394 213.657 153.796C213.126 153.199 212.86 152.408 212.86 151.423V151.347ZM213.95 151.476C213.95 152.179 214.112 152.744 214.436 153.169C214.764 153.595 215.202 153.808 215.749 153.808C216.3 153.808 216.737 153.593 217.061 153.164C217.385 152.73 217.548 152.125 217.548 151.347C217.548 150.652 217.382 150.089 217.05 149.66C216.721 149.226 216.284 149.009 215.737 149.009C215.202 149.009 214.77 149.222 214.442 149.648C214.114 150.074 213.95 150.683 213.95 151.476ZM225.604 153.082L226.823 148.236H227.907L226.061 154.576H225.182L223.641 149.771L222.141 154.576H221.262L219.423 148.236H220.501L221.749 152.982L223.225 148.236H224.098L225.604 153.082ZM230.04 148.236L230.075 149.033C230.559 148.423 231.192 148.119 231.973 148.119C233.313 148.119 233.989 148.875 234.001 150.386V154.576H232.917V150.38C232.913 149.923 232.807 149.585 232.6 149.367C232.397 149.148 232.079 149.039 231.645 149.039C231.294 149.039 230.985 149.132 230.719 149.32C230.454 149.507 230.247 149.753 230.098 150.058V154.576H229.014V148.236H230.04Z" fill="black"/>
<ellipse cx="298.556" cy="40.1645" rx="40.1645" ry="40.1645" fill="#F1A30C" fill-opacity="0.1"/>
<path d="M285.133 41.6863C285.519 41.6863 285.857 41.5691 286.146 41.3347C286.435 41.1003 286.595 40.8074 286.627 40.4558H287.652C287.633 40.8191 287.508 41.1648 287.277 41.4929C287.047 41.821 286.738 42.0828 286.351 42.2781C285.968 42.4734 285.562 42.571 285.133 42.571C284.269 42.571 283.582 42.2839 283.07 41.7097C282.562 41.1316 282.308 40.3425 282.308 39.3425V39.1609C282.308 38.5437 282.422 37.9949 282.648 37.5144C282.875 37.0339 283.199 36.6609 283.621 36.3953C284.047 36.1296 284.549 35.9968 285.127 35.9968C285.838 35.9968 286.427 36.2097 286.896 36.6355C287.369 37.0613 287.621 37.614 287.652 38.2937H286.627C286.595 37.8835 286.439 37.5476 286.158 37.2859C285.881 37.0203 285.537 36.8875 285.127 36.8875C284.576 36.8875 284.148 37.0867 283.843 37.4851C283.543 37.8796 283.392 38.4519 283.392 39.2019V39.407C283.392 40.1375 283.543 40.7 283.843 41.0945C284.144 41.489 284.574 41.6863 285.133 41.6863ZM288.584 39.2253C288.584 38.6042 288.705 38.0457 288.947 37.5496C289.193 37.0535 289.533 36.6707 289.966 36.4011C290.404 36.1316 290.902 35.9968 291.461 35.9968C292.324 35.9968 293.021 36.2957 293.552 36.8933C294.088 37.491 294.355 38.2859 294.355 39.2781V39.3542C294.355 39.9714 294.236 40.5261 293.998 41.0183C293.763 41.5066 293.425 41.8875 292.984 42.1609C292.547 42.4343 292.043 42.571 291.472 42.571C290.613 42.571 289.916 42.2722 289.381 41.6746C288.849 41.0769 288.584 40.2859 288.584 39.3015V39.2253ZM289.674 39.3542C289.674 40.0574 289.836 40.6218 290.16 41.0476C290.488 41.4734 290.925 41.6863 291.472 41.6863C292.023 41.6863 292.461 41.4714 292.785 41.0417C293.109 40.6082 293.271 40.0027 293.271 39.2253C293.271 38.53 293.105 37.9675 292.773 37.5378C292.445 37.1042 292.008 36.8875 291.461 36.8875C290.925 36.8875 290.494 37.1003 290.166 37.5261C289.838 37.9519 289.674 38.5613 289.674 39.3542ZM296.892 42.4539H295.808V33.4539H296.892V42.4539ZM298.345 39.2253C298.345 38.6042 298.466 38.0457 298.709 37.5496C298.955 37.0535 299.295 36.6707 299.728 36.4011C300.166 36.1316 300.664 35.9968 301.222 35.9968C302.086 35.9968 302.783 36.2957 303.314 36.8933C303.849 37.491 304.117 38.2859 304.117 39.2781V39.3542C304.117 39.9714 303.998 40.5261 303.759 41.0183C303.525 41.5066 303.187 41.8875 302.746 42.1609C302.308 42.4343 301.804 42.571 301.234 42.571C300.375 42.571 299.677 42.2722 299.142 41.6746C298.611 41.0769 298.345 40.2859 298.345 39.3015V39.2253ZM299.435 39.3542C299.435 40.0574 299.597 40.6218 299.922 41.0476C300.25 41.4734 300.687 41.6863 301.234 41.6863C301.785 41.6863 302.222 41.4714 302.547 41.0417C302.871 40.6082 303.033 40.0027 303.033 39.2253C303.033 38.53 302.867 37.9675 302.535 37.5378C302.207 37.1042 301.769 36.8875 301.222 36.8875C300.687 36.8875 300.256 37.1003 299.927 37.5261C299.599 37.9519 299.435 38.5613 299.435 39.3542ZM309.39 41.8269C308.968 42.323 308.349 42.571 307.533 42.571C306.857 42.571 306.341 42.3757 305.986 41.9851C305.634 41.5906 305.457 41.0085 305.453 40.239V36.114H306.537V40.2097C306.537 41.1707 306.927 41.6511 307.709 41.6511C308.537 41.6511 309.088 41.3425 309.361 40.7253V36.114H310.445V42.4539H309.414L309.39 41.8269ZM315.162 37.0867C314.998 37.0593 314.82 37.0457 314.629 37.0457C313.918 37.0457 313.435 37.3484 313.181 37.9539V42.4539H312.097V36.114H313.152L313.17 36.8464C313.525 36.28 314.029 35.9968 314.681 35.9968C314.892 35.9968 315.052 36.0242 315.162 36.0789V37.0867Z" fill="black"/>
<ellipse cx="366.836" cy="250.359" rx="40.1645" ry="40.1645" fill="#F1A30C" fill-opacity="0.8"/>
<path d="M348.754 252.88C349.14 252.88 349.478 252.763 349.767 252.529C350.056 252.294 350.216 252.001 350.248 251.65H351.273C351.254 252.013 351.129 252.359 350.898 252.687C350.668 253.015 350.359 253.277 349.972 253.472C349.59 253.667 349.183 253.765 348.754 253.765C347.89 253.765 347.203 253.478 346.691 252.904C346.183 252.326 345.929 251.537 345.929 250.537V250.355C345.929 249.738 346.043 249.189 346.269 248.708C346.496 248.228 346.82 247.855 347.242 247.589C347.668 247.324 348.17 247.191 348.748 247.191C349.459 247.191 350.049 247.404 350.517 247.83C350.99 248.255 351.242 248.808 351.273 249.488H350.248C350.216 249.078 350.06 248.742 349.779 248.48C349.502 248.214 349.158 248.082 348.748 248.082C348.197 248.082 347.769 248.281 347.465 248.679C347.164 249.074 347.013 249.646 347.013 250.396V250.601C347.013 251.332 347.164 251.894 347.465 252.289C347.765 252.683 348.195 252.88 348.754 252.88ZM353.576 248.076C354.056 247.486 354.681 247.191 355.451 247.191C356.791 247.191 357.466 247.947 357.478 249.458V253.648H356.394V249.453C356.39 248.996 356.285 248.658 356.078 248.439C355.875 248.22 355.556 248.111 355.123 248.111C354.771 248.111 354.463 248.205 354.197 248.392C353.931 248.58 353.724 248.826 353.576 249.13V253.648H352.492V244.648H353.576V248.076ZM360.279 253.648H359.195V247.308H360.279V253.648ZM359.107 245.626C359.107 245.451 359.16 245.302 359.265 245.181C359.375 245.06 359.535 245 359.746 245C359.957 245 360.117 245.06 360.226 245.181C360.336 245.302 360.39 245.451 360.39 245.626C360.39 245.802 360.336 245.949 360.226 246.066C360.117 246.183 359.957 246.242 359.746 246.242C359.535 246.242 359.375 246.183 359.265 246.066C359.16 245.949 359.107 245.802 359.107 245.626ZM365.084 248.281C364.92 248.253 364.742 248.24 364.55 248.24C363.84 248.24 363.357 248.542 363.103 249.148V253.648H362.019V247.308H363.074L363.091 248.041C363.447 247.474 363.951 247.191 364.603 247.191C364.814 247.191 364.974 247.218 365.084 247.273V248.281ZM371.441 250.548C371.441 251.513 371.22 252.291 370.779 252.88C370.338 253.47 369.74 253.765 368.986 253.765C368.216 253.765 367.611 253.521 367.17 253.033V256.085H366.086V247.308H367.076L367.129 248.011C367.57 247.464 368.183 247.191 368.968 247.191C369.73 247.191 370.332 247.478 370.773 248.052C371.218 248.626 371.441 249.425 371.441 250.449V250.548ZM370.357 250.425C370.357 249.71 370.205 249.146 369.9 248.732C369.595 248.318 369.177 248.111 368.646 248.111C367.99 248.111 367.498 248.402 367.17 248.984V252.013C367.494 252.591 367.99 252.88 368.658 252.88C369.177 252.88 369.59 252.675 369.894 252.265C370.203 251.851 370.357 251.238 370.357 250.425ZM374.002 253.648H372.918V247.308H374.002V253.648ZM372.83 245.626C372.83 245.451 372.883 245.302 372.988 245.181C373.097 245.06 373.258 245 373.468 245C373.679 245 373.84 245.06 373.949 245.181C374.058 245.302 374.113 245.451 374.113 245.626C374.113 245.802 374.058 245.949 373.949 246.066C373.84 246.183 373.679 246.242 373.468 246.242C373.258 246.242 373.097 246.183 372.988 246.066C372.883 245.949 372.83 245.802 372.83 245.626ZM376.767 247.308L376.802 248.105C377.287 247.496 377.92 247.191 378.701 247.191C380.041 247.191 380.716 247.947 380.728 249.458V253.648H379.644V249.453C379.64 248.996 379.535 248.658 379.328 248.439C379.125 248.22 378.806 248.111 378.373 248.111C378.021 248.111 377.713 248.205 377.447 248.392C377.181 248.58 376.974 248.826 376.826 249.13V253.648H375.742V247.308H376.767ZM382.105 250.425C382.105 249.437 382.334 248.652 382.791 248.07C383.248 247.484 383.853 247.191 384.607 247.191C385.381 247.191 385.984 247.464 386.418 248.011L386.47 247.308H387.461V253.496C387.461 254.316 387.216 254.962 386.728 255.435C386.244 255.908 385.591 256.144 384.771 256.144C384.314 256.144 383.867 256.046 383.429 255.851C382.992 255.656 382.658 255.388 382.427 255.048L382.99 254.398C383.455 254.972 384.023 255.259 384.695 255.259C385.222 255.259 385.633 255.111 385.925 254.814C386.222 254.517 386.371 254.099 386.371 253.56V253.015C385.937 253.515 385.345 253.765 384.595 253.765C383.853 253.765 383.252 253.466 382.791 252.869C382.334 252.271 382.105 251.457 382.105 250.425ZM383.195 250.548C383.195 251.263 383.341 251.826 383.634 252.236C383.927 252.642 384.338 252.845 384.865 252.845C385.549 252.845 386.05 252.535 386.371 251.914V249.019C386.039 248.414 385.541 248.111 384.877 248.111C384.349 248.111 383.937 248.316 383.64 248.726C383.343 249.136 383.195 249.744 383.195 250.548Z" fill="black"/>
<ellipse cx="48.1977" cy="271.78" rx="40.1645" ry="40.1645" fill="#F1A30C" fill-opacity="0.8"/>
<path d="M39.4724 265.989C38.988 265.911 38.5974 265.872 38.3005 265.872C37.5192 265.872 37.1286 266.282 37.1286 267.102V267.729H38.4821V268.567H37.1286V274.069H36.0446V268.567H35.0427V267.729H36.0446V267.038C36.0485 266.362 36.238 265.844 36.613 265.485C36.988 265.126 37.5212 264.946 38.2126 264.946C38.6071 264.946 39.3884 265.065 40.5563 265.303V274.069H39.4724V265.989ZM43.5095 274.069H42.4255V267.729H43.5095V274.069ZM42.3376 266.048C42.3376 265.872 42.3903 265.723 42.4958 265.602C42.6052 265.481 42.7653 265.421 42.9763 265.421C43.1872 265.421 43.3474 265.481 43.4567 265.602C43.5661 265.723 43.6208 265.872 43.6208 266.048C43.6208 266.223 43.5661 266.37 43.4567 266.487C43.3474 266.604 43.1872 266.663 42.9763 266.663C42.7653 266.663 42.6052 266.604 42.4958 266.487C42.3903 266.37 42.3376 266.223 42.3376 266.048ZM44.9919 270.846C44.9919 269.858 45.2204 269.073 45.6774 268.491C46.1345 267.905 46.7399 267.612 47.4938 267.612C48.2673 267.612 48.8708 267.885 49.3044 268.432L49.3571 267.729H50.3474V273.917C50.3474 274.737 50.1032 275.384 49.6149 275.856C49.1306 276.329 48.4782 276.565 47.6579 276.565C47.2009 276.565 46.7536 276.468 46.3161 276.272C45.8786 276.077 45.5446 275.809 45.3142 275.469L45.8767 274.819C46.3415 275.393 46.9099 275.68 47.5817 275.68C48.1091 275.68 48.5192 275.532 48.8122 275.235C49.1091 274.938 49.2575 274.52 49.2575 273.981V273.436C48.8239 273.936 48.2321 274.186 47.4821 274.186C46.7399 274.186 46.1384 273.887 45.6774 273.29C45.2204 272.692 44.9919 271.878 44.9919 270.846ZM46.0817 270.969C46.0817 271.684 46.2282 272.247 46.5212 272.657C46.8142 273.063 47.2243 273.266 47.7517 273.266C48.4352 273.266 48.9372 272.956 49.2575 272.335V269.44C48.9255 268.835 48.4274 268.532 47.7634 268.532C47.236 268.532 46.8239 268.737 46.527 269.147C46.2302 269.557 46.0817 270.165 46.0817 270.969ZM53.072 268.497C53.5524 267.907 54.1774 267.612 54.947 267.612C56.2868 267.612 56.9626 268.368 56.9743 269.88V274.069H55.8903V269.874C55.8864 269.417 55.7809 269.079 55.5739 268.86C55.3708 268.641 55.0524 268.532 54.6188 268.532C54.2673 268.532 53.9587 268.626 53.6931 268.813C53.4274 269.001 53.2204 269.247 53.072 269.552V274.069H51.988V265.069H53.072V268.497ZM60.0681 266.194V267.729H61.2517V268.567H60.0681V272.499C60.0681 272.753 60.1208 272.944 60.2263 273.073C60.3317 273.198 60.5114 273.26 60.7653 273.26C60.8903 273.26 61.0622 273.237 61.2809 273.19V274.069C60.9958 274.147 60.7184 274.186 60.4489 274.186C59.9645 274.186 59.5993 274.04 59.3532 273.747C59.1071 273.454 58.9841 273.038 58.9841 272.499V268.567H57.8298V267.729H58.9841V266.194H60.0681Z" fill="black"/>
<ellipse cx="285.167" cy="471.263" rx="40.1645" ry="40.1645" fill="#F1A30C" fill-opacity="0.5"/>
<path d="M275.142 471.871C275.142 471.578 275.031 471.352 274.808 471.191C274.59 471.027 274.205 470.887 273.654 470.77C273.107 470.652 272.672 470.512 272.347 470.348C272.027 470.184 271.789 469.988 271.633 469.762C271.48 469.535 271.404 469.266 271.404 468.953C271.404 468.434 271.623 467.994 272.06 467.635C272.502 467.275 273.064 467.096 273.748 467.096C274.466 467.096 275.049 467.281 275.494 467.652C275.943 468.023 276.168 468.498 276.168 469.076H275.078C275.078 468.779 274.951 468.523 274.697 468.309C274.447 468.094 274.131 467.986 273.748 467.986C273.353 467.986 273.045 468.072 272.822 468.244C272.599 468.416 272.488 468.641 272.488 468.918C272.488 469.18 272.591 469.377 272.799 469.51C273.006 469.643 273.379 469.77 273.918 469.891C274.461 470.012 274.9 470.156 275.236 470.324C275.572 470.492 275.82 470.695 275.98 470.934C276.144 471.168 276.226 471.455 276.226 471.795C276.226 472.361 276 472.816 275.547 473.16C275.093 473.5 274.506 473.67 273.783 473.67C273.275 473.67 272.826 473.58 272.435 473.4C272.045 473.221 271.738 472.971 271.515 472.65C271.297 472.326 271.187 471.977 271.187 471.602H272.271C272.291 471.965 272.435 472.254 272.705 472.469C272.978 472.68 273.338 472.785 273.783 472.785C274.193 472.785 274.521 472.703 274.767 472.539C275.017 472.371 275.142 472.148 275.142 471.871ZM278.658 467.213L278.687 467.916C279.152 467.369 279.779 467.096 280.568 467.096C281.455 467.096 282.058 467.436 282.379 468.115C282.59 467.811 282.863 467.564 283.199 467.377C283.539 467.189 283.939 467.096 284.4 467.096C285.791 467.096 286.498 467.832 286.521 469.305V473.553H285.437V469.369C285.437 468.916 285.334 468.578 285.127 468.355C284.92 468.129 284.572 468.016 284.084 468.016C283.681 468.016 283.347 468.137 283.082 468.379C282.816 468.617 282.662 468.939 282.619 469.346V473.553H281.529V469.398C281.529 468.477 281.078 468.016 280.175 468.016C279.465 468.016 278.978 468.318 278.716 468.924V473.553H277.633V467.213H278.658ZM292.076 473.553C292.013 473.428 291.963 473.205 291.924 472.885C291.42 473.408 290.818 473.67 290.119 473.67C289.494 473.67 288.98 473.494 288.578 473.143C288.179 472.787 287.98 472.338 287.98 471.795C287.98 471.135 288.23 470.623 288.73 470.26C289.234 469.893 289.941 469.709 290.851 469.709H291.906V469.211C291.906 468.832 291.793 468.531 291.566 468.309C291.34 468.082 291.006 467.969 290.564 467.969C290.177 467.969 289.853 468.066 289.591 468.262C289.33 468.457 289.199 468.693 289.199 468.971H288.109C288.109 468.654 288.22 468.35 288.443 468.057C288.67 467.76 288.974 467.525 289.357 467.354C289.744 467.182 290.168 467.096 290.629 467.096C291.359 467.096 291.931 467.279 292.345 467.646C292.759 468.01 292.974 468.512 292.99 469.152V472.07C292.99 472.652 293.064 473.115 293.213 473.459V473.553H292.076ZM290.277 472.727C290.617 472.727 290.939 472.639 291.244 472.463C291.549 472.287 291.769 472.059 291.906 471.777V470.477H291.056C289.728 470.477 289.064 470.865 289.064 471.643C289.064 471.982 289.177 472.248 289.404 472.439C289.631 472.631 289.922 472.727 290.277 472.727ZM295.867 473.553H294.783V464.553H295.867V473.553ZM298.785 473.553H297.701V464.553H298.785V473.553Z" fill="black"/>
<line x1="225.384" y1="338.53" x2="265.549" y2="436.264" stroke="#F1A30C" stroke-opacity="0.5"/>
<line x1="248.869" y1="288.707" x2="329.198" y2="263.27" stroke="#F1A30C" stroke-opacity="0.8"/>
<line x1="87.1537" y1="277.991" x2="171.499" y2="300.751" stroke="#F1A30C" stroke-opacity="0.8"/>
<line x1="69.9812" y1="145.587" x2="189.136" y2="271.436" stroke="#F1A30C" stroke-opacity="0.2"/>
<line x1="299.025" y1="79.1614" x2="230.746" y2="266.596" stroke="#F1A30C" stroke-opacity="0.05"/>
<line x1="40.6626" y1="160.62" x2="46.0178" y2="231.577" stroke="#F1A30C" stroke-opacity="0.5"/>
<line x1="218.725" y1="191.49" x2="212.031" y2="275.836" stroke="#F1A30C" stroke-opacity="0.25"/>
<line x1="282.881" y1="76.6248" x2="245.394" y2="123.483" stroke="#F1A30C" stroke-opacity="0.1"/>
</svg>
