<svg xmlns="http://www.w3.org/2000/svg" xmlns:xlink="http://www.w3.org/1999/xlink" width="215" height="165" viewBox="0 0 215 165">
  <defs>
    <filter id="Pfad_6" x="0" y="0" width="215" height="165" filterUnits="userSpaceOnUse">
      <feOffset dx="5" dy="5" input="SourceAlpha"/>
      <feGaussianBlur stdDeviation="2.5" result="blur"/>
      <feFlood flood-opacity="0.161"/>
      <feComposite operator="in" in2="blur"/>
      <feComposite in="SourceGraphic"/>
    </filter>
  </defs>
  <g id="Gruppe_1" data-name="Gruppe 1" transform="translate(-997.5 -205.5)">
    <g transform="matrix(1, 0, 0, 1, 997.5, 205.5)" filter="url(#Pfad_6)">
      <path id="Pfad_6-2" data-name="Pfad 6" d="M20,0H200V130a20,20,0,0,1-20,20H0V20A20,20,0,0,1,20,0Z" transform="translate(2.5 2.5)" fill="#424eef"/>
    </g>
    <path id="Pfad_1" data-name="Pfad 1" d="M35.643,0H7.068V-53.915H34.439V-48.2H13.385v17.934H32.86v5.677H13.385V-5.715H35.643Z" transform="translate(1121 334)" fill="#fff"/>
    <path id="Pfad_3" data-name="Pfad 3" d="M0,1,86,0" transform="translate(1092.5 234.5)" fill="none" stroke="#fff" stroke-width="7"/>
    <path id="Pfad_2" data-name="Pfad 2" d="M43.764-2.256Q37.786.9,28.875.9,17.37.9,10.452-6.5T3.534-25.942q0-12.934,7.783-20.9t19.739-7.971A31.647,31.647,0,0,1,43.764-52.6v6.73A25.771,25.771,0,0,0,30.98-49.1q-9.287,0-15.058,6.2T10.151-26.318q0,9.851,5.4,15.7T29.7-4.775A26.556,26.556,0,0,0,43.764-8.384Z" transform="translate(1064.713 333.785) rotate(-60)" fill="#fff"/>
    <g id="Pfad_5" data-name="Pfad 5" transform="translate(1050 241)" fill="#fff">
      <path d="M 5 9.5 C 2.51869010925293 9.5 0.5 7.48130989074707 0.5 5 C 0.5 2.51869010925293 2.51869010925293 0.5 5 0.5 C 7.48130989074707 0.5 9.5 2.51869010925293 9.5 5 C 9.5 7.48130989074707 7.48130989074707 9.5 5 9.5 Z" stroke="none"/>
      <path d="M 5 1 C 2.794390201568604 1 1 2.794390201568604 1 5 C 1 7.205610275268555 2.794390201568604 9 5 9 C 7.205610275268555 9 9 7.205610275268555 9 5 C 9 2.794390201568604 7.205610275268555 1 5 1 M 5 0 C 7.761420249938965 0 10 2.238580226898193 10 5 C 10 7.761420249938965 7.761420249938965 10 5 10 C 2.238580226898193 10 0 7.761420249938965 0 5 C 0 2.238580226898193 2.238580226898193 0 5 0 Z" stroke="none" fill="#707070"/>
    </g>
    <g id="Pfad_4" data-name="Pfad 4" transform="translate(1095 273)" fill="#fff">
      <path d="M 5 9.5 C 2.51869010925293 9.5 0.5 7.48130989074707 0.5 5 C 0.5 2.51869010925293 2.51869010925293 0.5 5 0.5 C 7.48130989074707 0.5 9.5 2.51869010925293 9.5 5 C 9.5 7.48130989074707 7.48130989074707 9.5 5 9.5 Z" stroke="none"/>
      <path d="M 5 1 C 2.794390201568604 1 1 2.794390201568604 1 5 C 1 7.205610275268555 2.794390201568604 9 5 9 C 7.205610275268555 9 9 7.205610275268555 9 5 C 9 2.794390201568604 7.205610275268555 1 5 1 M 5 0 C 7.761420249938965 0 10 2.238580226898193 10 5 C 10 7.761420249938965 7.761420249938965 10 5 10 C 2.238580226898193 10 0 7.761420249938965 0 5 C 0 2.238580226898193 2.238580226898193 0 5 0 Z" stroke="none" fill="#707070"/>
    </g>
  </g>
</svg>
