<svg width="297" height="344" viewBox="0 0 297 344" fill="none" xmlns="http://www.w3.org/2000/svg">
<ellipse cx="13.5" cy="40.5235" rx="13.5" ry="13.5079" fill="#F1A30C" fill-opacity="0.5"/>
<ellipse cx="71.1001" cy="101.309" rx="13.5" ry="13.5079" fill="#F1A30C"/>
<ellipse cx="73.3501" cy="50.8797" rx="13.5" ry="13.5079" fill="#F1A30C" fill-opacity="0.25"/>
<ellipse cx="100.35" cy="13.5079" rx="13.5" ry="13.5079" fill="#F1A30C" fill-opacity="0.1"/>
<ellipse cx="123.3" cy="84.199" rx="13.5" ry="13.5079" fill="#F1A30C" fill-opacity="0.8"/>
<ellipse cx="16.2" cy="91.4031" rx="13.5" ry="13.5079" fill="#F1A30C" fill-opacity="0.8"/>
<ellipse cx="95.8501" cy="158.492" rx="13.5" ry="13.5079" fill="#F1A30C" fill-opacity="0.5"/>
<line y1="-0.5" x2="35.5335" y2="-0.5" transform="matrix(0.379923 0.925018 -0.924863 0.380302 75.6001 113.916)" stroke="#F1A30C" stroke-opacity="0.5"/>
<line y1="-0.5" x2="28.3229" y2="-0.5" transform="matrix(0.953292 -0.302051 0.301732 0.953393 83.7 97.2566)" stroke="#F1A30C" stroke-opacity="0.8"/>
<line y1="-0.5" x2="29.3652" y2="-0.5" transform="matrix(0.965429 0.260664 -0.260382 0.965506 29.25 93.6545)" stroke="#F1A30C" stroke-opacity="0.8"/>
<line y1="-0.5" x2="58.2699" y2="-0.5" transform="matrix(0.68732 0.726355 -0.725956 0.687741 23.3999 49.0786)" stroke="#F1A30C" stroke-opacity="0.2"/>
<line y1="-0.5" x2="67.0844" y2="-0.5" transform="matrix(-0.342106 0.939661 -0.939533 -0.342458 100.35 26.5654)" stroke="#F1A30C" stroke-opacity="0.05"/>
<line y1="-0.5" x2="23.9317" y2="-0.5" transform="matrix(0.0752142 0.997167 -0.997161 0.0753012 13.5 54.0315)" stroke="#F1A30C" stroke-opacity="0.5"/>
<line y1="-0.5" x2="28.4556" y2="-0.5" transform="matrix(-0.0790706 0.996869 -0.996862 -0.079162 73.3501 64.3875)" stroke="#F1A30C" stroke-opacity="0.25"/>
<line y1="-0.5" x2="20.177" y2="-0.5" transform="matrix(-0.624474 0.781046 -0.780692 -0.624917 94.95 25.665)" stroke="#F1A30C" stroke-opacity="0.1"/>
<ellipse rx="13.5" ry="13.5079" transform="matrix(-1 0 0 1 123.3 212.523)" fill="#F1A30C" fill-opacity="0.5"/>
<ellipse rx="13.5" ry="13.5079" transform="matrix(-1 0 0 1 65.7 273.309)" fill="#F1A30C"/>
<ellipse rx="13.5" ry="13.5079" transform="matrix(-1 0 0 1 63.45 222.88)" fill="#F1A30C" fill-opacity="0.25"/>
<ellipse rx="13.5" ry="13.5079" transform="matrix(-1 0 0 1 36.45 185.508)" fill="#F1A30C" fill-opacity="0.1"/>
<ellipse rx="13.5" ry="13.5079" transform="matrix(-1 0 0 1 13.5 256.199)" fill="#F1A30C" fill-opacity="0.8"/>
<ellipse rx="13.5" ry="13.5079" transform="matrix(-1 0 0 1 120.6 263.403)" fill="#F1A30C" fill-opacity="0.8"/>
<ellipse rx="13.5" ry="13.5079" transform="matrix(-1 0 0 1 40.95 330.492)" fill="#F1A30C" fill-opacity="0.5"/>
<line y1="-0.5" x2="35.5335" y2="-0.5" transform="matrix(-0.379923 0.925018 0.924863 0.380302 61.2 285.916)" stroke="#F1A30C" stroke-opacity="0.5"/>
<line y1="-0.5" x2="28.3229" y2="-0.5" transform="matrix(-0.953292 -0.302051 -0.301732 0.953393 53.1001 269.257)" stroke="#F1A30C" stroke-opacity="0.8"/>
<line y1="-0.5" x2="29.3652" y2="-0.5" transform="matrix(-0.965429 0.260664 0.260382 0.965506 107.55 265.655)" stroke="#F1A30C" stroke-opacity="0.8"/>
<line y1="-0.5" x2="58.2699" y2="-0.5" transform="matrix(-0.68732 0.726355 0.725956 0.687741 113.4 221.079)" stroke="#F1A30C" stroke-opacity="0.2"/>
<line y1="-0.5" x2="67.0844" y2="-0.5" transform="matrix(0.342106 0.939661 0.939533 -0.342458 36.45 198.565)" stroke="#F1A30C" stroke-opacity="0.05"/>
<line y1="-0.5" x2="23.9317" y2="-0.5" transform="matrix(-0.0752142 0.997167 0.997161 0.0753012 123.3 226.031)" stroke="#F1A30C" stroke-opacity="0.5"/>
<line y1="-0.5" x2="28.4556" y2="-0.5" transform="matrix(0.0790706 0.996869 0.996862 -0.079162 63.45 236.387)" stroke="#F1A30C" stroke-opacity="0.25"/>
<line y1="-0.5" x2="20.177" y2="-0.5" transform="matrix(0.624474 0.781046 0.780692 -0.624917 41.8501 197.665)" stroke="#F1A30C" stroke-opacity="0.1"/>
<ellipse cx="173.7" cy="212.523" rx="13.5" ry="13.5079" fill="#F1A30C" fill-opacity="0.5"/>
<ellipse cx="231.3" cy="273.309" rx="13.5" ry="13.5079" fill="#F1A30C"/>
<ellipse cx="233.55" cy="222.88" rx="13.5" ry="13.5079" fill="#F1A30C" fill-opacity="0.25"/>
<ellipse cx="260.55" cy="185.508" rx="13.5" ry="13.5079" fill="#F1A30C" fill-opacity="0.1"/>
<ellipse cx="283.5" cy="256.199" rx="13.5" ry="13.5079" fill="#F1A30C" fill-opacity="0.8"/>
<ellipse cx="176.4" cy="263.403" rx="13.5" ry="13.5079" fill="#F1A30C" fill-opacity="0.8"/>
<ellipse cx="256.05" cy="330.492" rx="13.5" ry="13.5079" fill="#F1A30C" fill-opacity="0.5"/>
<line y1="-0.5" x2="35.5335" y2="-0.5" transform="matrix(0.379923 0.925018 -0.924863 0.380302 235.8 285.916)" stroke="#F1A30C" stroke-opacity="0.5"/>
<line y1="-0.5" x2="28.3229" y2="-0.5" transform="matrix(0.953292 -0.302051 0.301732 0.953393 243.9 269.257)" stroke="#F1A30C" stroke-opacity="0.8"/>
<line y1="-0.5" x2="29.3652" y2="-0.5" transform="matrix(0.965429 0.260664 -0.260382 0.965506 189.45 265.655)" stroke="#F1A30C" stroke-opacity="0.8"/>
<line y1="-0.5" x2="58.2699" y2="-0.5" transform="matrix(0.68732 0.726355 -0.725956 0.687741 183.6 221.079)" stroke="#F1A30C" stroke-opacity="0.2"/>
<line y1="-0.5" x2="67.0844" y2="-0.5" transform="matrix(-0.342106 0.939661 -0.939533 -0.342458 260.55 198.565)" stroke="#F1A30C" stroke-opacity="0.05"/>
<line y1="-0.5" x2="23.9317" y2="-0.5" transform="matrix(0.0752142 0.997167 -0.997161 0.0753012 173.7 226.031)" stroke="#F1A30C" stroke-opacity="0.5"/>
<line y1="-0.5" x2="28.4556" y2="-0.5" transform="matrix(-0.0790706 0.996869 -0.996862 -0.079162 233.55 236.387)" stroke="#F1A30C" stroke-opacity="0.25"/>
<line y1="-0.5" x2="20.177" y2="-0.5" transform="matrix(-0.624474 0.781046 -0.780692 -0.624917 255.15 197.665)" stroke="#F1A30C" stroke-opacity="0.1"/>
<ellipse cx="283.5" cy="131.477" rx="13.5" ry="13.5079" transform="rotate(-180 283.5 131.477)" fill="#F1A30C" fill-opacity="0.5"/>
<ellipse cx="225.9" cy="70.6911" rx="13.5" ry="13.5079" transform="rotate(-180 225.9 70.6911)" fill="#F1A30C"/>
<ellipse cx="223.65" cy="121.12" rx="13.5" ry="13.5079" transform="rotate(-180 223.65 121.12)" fill="#F1A30C" fill-opacity="0.25"/>
<ellipse cx="196.65" cy="158.492" rx="13.5" ry="13.5079" transform="rotate(-180 196.65 158.492)" fill="#F1A30C" fill-opacity="0.1"/>
<ellipse cx="173.7" cy="87.801" rx="13.5" ry="13.5079" transform="rotate(-180 173.7 87.801)" fill="#F1A30C" fill-opacity="0.8"/>
<ellipse cx="280.8" cy="80.5969" rx="13.5" ry="13.5079" transform="rotate(-180 280.8 80.5969)" fill="#F1A30C" fill-opacity="0.8"/>
<ellipse cx="201.15" cy="13.5078" rx="13.5" ry="13.5079" transform="rotate(-180 201.15 13.5078)" fill="#F1A30C" fill-opacity="0.5"/>
<line y1="-0.5" x2="35.5335" y2="-0.5" transform="matrix(-0.379923 -0.925018 0.924863 -0.380302 221.4 58.0837)" stroke="#F1A30C" stroke-opacity="0.5"/>
<line y1="-0.5" x2="28.3229" y2="-0.5" transform="matrix(-0.953292 0.302051 -0.301732 -0.953393 213.3 74.7434)" stroke="#F1A30C" stroke-opacity="0.8"/>
<line y1="-0.5" x2="29.3652" y2="-0.5" transform="matrix(-0.965429 -0.260664 0.260382 -0.965506 267.75 78.3455)" stroke="#F1A30C" stroke-opacity="0.8"/>
<line y1="-0.5" x2="58.2699" y2="-0.5" transform="matrix(-0.68732 -0.726355 0.725956 -0.687741 273.6 122.921)" stroke="#F1A30C" stroke-opacity="0.2"/>
<line y1="-0.5" x2="67.0844" y2="-0.5" transform="matrix(0.342106 -0.939661 0.939533 0.342458 196.65 145.435)" stroke="#F1A30C" stroke-opacity="0.05"/>
<line y1="-0.5" x2="23.9317" y2="-0.5" transform="matrix(-0.0752142 -0.997167 0.997161 -0.0753012 283.5 117.969)" stroke="#F1A30C" stroke-opacity="0.5"/>
<line y1="-0.5" x2="28.4556" y2="-0.5" transform="matrix(0.0790706 -0.996869 0.996862 0.079162 223.65 107.613)" stroke="#F1A30C" stroke-opacity="0.25"/>
<line y1="-0.5" x2="20.177" y2="-0.5" transform="matrix(0.624474 -0.781046 0.780692 0.624917 202.05 146.335)" stroke="#F1A30C" stroke-opacity="0.1"/>
<circle cx="149" cy="172" r="134.5" stroke="black"/>
<rect x="241.173" y="223.897" width="73.6186" height="21" transform="rotate(-157.252 241.173 223.897)" fill="#454ABC"/>
<path d="M238.329 229.904L250.959 197.647L272.579 224.714L238.329 229.904Z" fill="#454ABC"/>
<path d="M185.38 190.116C185.758 189.203 186.269 188.565 186.914 188.202C187.56 187.835 188.232 187.796 188.929 188.084C189.643 188.38 190.096 188.863 190.288 189.534L190.605 188.905L191.521 189.283L189.155 195.001C188.841 195.759 188.369 196.263 187.737 196.513C187.108 196.765 186.415 196.734 185.657 196.42C185.235 196.245 184.859 195.984 184.529 195.636C184.2 195.289 183.993 194.914 183.91 194.511L184.679 194.126C184.889 194.834 185.304 195.316 185.925 195.573C186.412 195.775 186.848 195.795 187.232 195.632C187.62 195.471 187.917 195.142 188.123 194.644L188.332 194.14C187.74 194.437 187.097 194.441 186.404 194.155C185.719 193.871 185.277 193.365 185.079 192.636C184.886 191.909 184.986 191.069 185.38 190.116ZM186.34 190.647C186.067 191.307 185.987 191.883 186.101 192.374C186.216 192.861 186.518 193.206 187.005 193.408C187.637 193.669 188.219 193.574 188.753 193.122L189.859 190.448C189.784 189.761 189.44 189.291 188.826 189.037C188.339 188.836 187.879 188.868 187.448 189.133C187.017 189.399 186.648 189.903 186.34 190.647ZM192.999 196.883C192.205 196.554 191.666 196.027 191.383 195.301C191.102 194.572 191.142 193.77 191.503 192.897L191.579 192.713C191.82 192.132 192.144 191.659 192.552 191.296C192.966 190.93 193.424 190.701 193.927 190.609C194.435 190.515 194.922 190.564 195.388 190.757C196.149 191.072 196.638 191.568 196.852 192.244C197.067 192.921 196.981 193.726 196.594 194.661L196.422 195.078L192.453 193.436C192.229 194.019 192.203 194.556 192.376 195.047C192.555 195.535 192.893 195.882 193.391 196.088C193.745 196.234 194.074 196.286 194.38 196.243C194.685 196.2 194.979 196.098 195.261 195.936L195.676 196.665C194.873 197.217 193.981 197.289 192.999 196.883ZM195.047 191.58C194.643 191.412 194.242 191.42 193.846 191.603C193.45 191.781 193.111 192.123 192.826 192.626L195.761 193.841L195.792 193.765C195.974 193.244 195.999 192.794 195.869 192.414C195.74 192.031 195.466 191.753 195.047 191.58ZM199.864 192.736L199.592 193.485C200.272 193.107 200.973 193.068 201.695 193.366C202.933 193.879 203.269 194.836 202.702 196.237L201.1 200.108L200.098 199.694L201.702 195.817C201.873 195.393 201.905 195.041 201.798 194.759C201.693 194.48 201.441 194.257 201.04 194.091C200.716 193.957 200.395 193.925 200.077 193.997C199.76 194.069 199.475 194.217 199.221 194.442L197.494 198.616L196.493 198.202L198.916 192.344L199.864 192.736ZM204.997 201.847C204.203 201.519 203.664 200.991 203.381 200.266C203.1 199.536 203.139 198.735 203.501 197.861L203.577 197.677C203.817 197.096 204.142 196.623 204.55 196.26C204.964 195.894 205.422 195.665 205.925 195.573C206.433 195.479 206.92 195.528 207.386 195.721C208.147 196.036 208.636 196.532 208.85 197.208C209.065 197.885 208.979 198.69 208.592 199.625L208.42 200.042L204.451 198.4C204.226 198.984 204.201 199.52 204.374 200.011C204.553 200.499 204.891 200.846 205.389 201.052C205.743 201.198 206.072 201.25 206.378 201.207C206.683 201.164 206.977 201.062 207.259 200.9L207.674 201.63C206.871 202.181 205.979 202.253 204.997 201.847ZM207.045 196.544C206.641 196.377 206.24 196.384 205.844 196.567C205.448 196.746 205.108 197.087 204.824 197.591L207.759 198.805L207.79 198.729C207.972 198.208 207.997 197.758 207.867 197.378C207.738 196.995 207.464 196.717 207.045 196.544ZM213.374 199.378C213.233 199.29 213.074 199.209 212.897 199.136C212.24 198.864 211.679 198.96 211.213 199.422L209.492 203.58L208.491 203.166L210.914 197.308L211.889 197.711L211.625 198.394C212.17 198.007 212.744 197.938 213.347 198.187C213.542 198.268 213.679 198.354 213.759 198.447L213.374 199.378ZM215.648 206.127C215.638 205.988 215.676 205.763 215.763 205.452C215.097 205.743 214.441 205.755 213.795 205.487C213.217 205.248 212.81 204.89 212.573 204.411C212.34 203.93 212.328 203.439 212.536 202.937C212.788 202.327 213.215 201.95 213.816 201.805C214.422 201.659 215.145 201.759 215.986 202.107L216.961 202.511L217.151 202.05C217.296 201.7 217.306 201.379 217.182 201.087C217.059 200.791 216.794 200.558 216.386 200.39C216.029 200.242 215.692 200.208 215.375 200.288C215.059 200.369 214.848 200.537 214.742 200.793L213.734 200.377C213.855 200.084 214.075 199.845 214.393 199.66C214.715 199.472 215.087 199.372 215.506 199.36C215.929 199.349 216.354 199.431 216.779 199.607C217.454 199.887 217.913 200.275 218.155 200.773C218.399 201.267 218.406 201.813 218.175 202.411L217.06 205.107C216.837 205.645 216.729 206.101 216.734 206.475L216.699 206.562L215.648 206.127ZM214.302 204.676C214.616 204.806 214.947 204.848 215.296 204.802C215.645 204.756 215.936 204.629 216.17 204.422L216.667 203.22L215.882 202.895C214.655 202.387 213.893 202.493 213.596 203.211C213.466 203.525 213.469 203.814 213.605 204.077C213.741 204.341 213.973 204.54 214.302 204.676ZM219.151 207.577L218.15 207.162L221.59 198.846L222.592 199.26L219.151 207.577ZM221.847 208.692L220.846 208.278L223.27 202.42L224.271 202.834L221.847 208.692ZM223.831 200.832C223.899 200.67 224.004 200.553 224.148 200.481C224.295 200.411 224.466 200.416 224.661 200.497C224.856 200.578 224.981 200.695 225.036 200.849C225.091 201.002 225.084 201.16 225.017 201.323C224.95 201.485 224.843 201.6 224.697 201.666C224.552 201.733 224.381 201.725 224.186 201.645C223.991 201.564 223.866 201.449 223.81 201.299C223.757 201.15 223.764 200.995 223.831 200.832ZM224.736 208.93L228.163 210.348L227.825 211.165L223.174 209.241L223.479 208.505L228.487 205.549L225.304 204.231L225.647 203.403L230.086 205.24L229.793 205.949L224.736 208.93ZM232.573 213.13C232.563 212.991 232.601 212.765 232.688 212.454C232.022 212.746 231.366 212.757 230.72 212.49C230.142 212.251 229.735 211.892 229.498 211.414C229.265 210.933 229.253 210.442 229.461 209.94C229.713 209.33 230.14 208.953 230.741 208.808C231.347 208.661 232.07 208.762 232.911 209.11L233.886 209.513L234.076 209.053C234.221 208.703 234.231 208.382 234.107 208.089C233.984 207.793 233.719 207.561 233.311 207.392C232.954 207.244 232.617 207.211 232.3 207.291C231.984 207.371 231.773 207.54 231.666 207.796L230.659 207.379C230.78 207.087 231 206.848 231.318 206.663C231.64 206.475 232.012 206.375 232.431 206.362C232.854 206.351 233.278 206.434 233.704 206.61C234.379 206.889 234.838 207.278 235.08 207.775C235.324 208.269 235.331 208.815 235.1 209.413L233.984 212.11C233.762 212.647 233.654 213.104 233.659 213.478L233.623 213.565L232.573 213.13ZM231.227 211.679C231.541 211.809 231.872 211.851 232.221 211.805C232.57 211.759 232.861 211.632 233.095 211.424L233.592 210.223L232.807 209.898C231.58 209.39 230.818 209.495 230.52 210.213C230.391 210.528 230.394 210.816 230.53 211.08C230.666 211.343 230.898 211.543 231.227 211.679ZM239.358 207.415L238.771 208.833L239.864 209.286L239.544 210.06L238.45 209.607L236.947 213.24C236.85 213.475 236.826 213.672 236.874 213.831C236.924 213.987 237.066 214.114 237.3 214.211C237.416 214.259 237.584 214.303 237.804 214.343L237.468 215.155C237.174 215.118 236.903 215.048 236.654 214.945C236.206 214.76 235.925 214.485 235.809 214.12C235.694 213.755 235.739 213.324 235.946 212.826L237.449 209.193L236.382 208.752L236.702 207.977L237.769 208.419L238.356 207L239.358 207.415ZM239.704 216.08L238.702 215.666L241.126 209.808L242.127 210.222L239.704 216.08ZM241.688 208.22C241.755 208.058 241.86 207.941 242.004 207.869C242.151 207.799 242.322 207.804 242.517 207.885C242.712 207.966 242.837 208.083 242.892 208.236C242.947 208.39 242.94 208.548 242.873 208.711C242.806 208.873 242.7 208.988 242.554 209.054C242.408 209.12 242.237 209.113 242.042 209.033C241.848 208.952 241.722 208.837 241.666 208.687C241.613 208.538 241.62 208.383 241.688 208.22ZM242.281 213.653C242.518 213.079 242.844 212.609 243.257 212.243C243.674 211.879 244.135 211.655 244.638 211.572C245.146 211.49 245.657 211.556 246.173 211.769C246.971 212.099 247.501 212.642 247.764 213.397C248.03 214.154 247.973 214.991 247.594 215.908L247.564 215.978C247.328 216.548 247.006 217.015 246.598 217.379C246.195 217.741 245.737 217.963 245.225 218.047C244.716 218.133 244.198 218.066 243.671 217.848C242.877 217.52 242.347 216.977 242.081 216.22C241.818 215.465 241.875 214.632 242.252 213.723L242.281 213.653ZM243.238 214.188C242.97 214.838 242.904 215.422 243.04 215.939C243.181 216.458 243.504 216.822 244.009 217.031C244.518 217.241 245.004 217.21 245.468 216.937C245.934 216.66 246.315 216.163 246.612 215.445C246.878 214.802 246.94 214.219 246.797 213.695C246.66 213.169 246.338 212.801 245.833 212.592C245.338 212.388 244.858 212.419 244.392 212.687C243.926 212.955 243.542 213.456 243.238 214.188ZM251.007 213.896L250.735 214.646C251.415 214.268 252.116 214.228 252.838 214.527C254.076 215.039 254.412 215.996 253.845 217.397L252.243 221.268L251.241 220.854L252.845 216.977C253.016 216.554 253.048 216.201 252.941 215.92C252.836 215.64 252.584 215.417 252.183 215.251C251.859 215.117 251.538 215.086 251.22 215.157C250.903 215.229 250.618 215.377 250.364 215.602L248.637 219.776L247.636 219.362L250.059 213.504L251.007 213.896Z" fill="white"/>
<circle cx="149" cy="172" r="34.5" fill="white" stroke="black"/>
<path d="M131.477 173.842C131.354 174.895 130.964 175.708 130.308 176.282C129.656 176.852 128.788 177.137 127.703 177.137C126.527 177.137 125.584 176.715 124.873 175.872C124.167 175.029 123.813 173.901 123.813 172.488V171.531C123.813 170.606 123.978 169.793 124.306 169.091C124.638 168.389 125.108 167.851 125.714 167.478C126.32 167.099 127.022 166.91 127.819 166.91C128.877 166.91 129.724 167.206 130.362 167.799C131 168.387 131.372 169.202 131.477 170.246H130.157C130.043 169.453 129.795 168.879 129.412 168.523C129.034 168.168 128.503 167.99 127.819 167.99C126.981 167.99 126.322 168.3 125.844 168.92C125.37 169.54 125.133 170.422 125.133 171.565V172.529C125.133 173.609 125.358 174.468 125.81 175.106C126.261 175.744 126.892 176.063 127.703 176.063C128.432 176.063 128.991 175.899 129.378 175.571C129.77 175.239 130.03 174.662 130.157 173.842H131.477ZM132.741 173.233C132.741 172.509 132.882 171.857 133.165 171.278C133.452 170.7 133.849 170.253 134.354 169.938C134.865 169.624 135.446 169.467 136.098 169.467C137.105 169.467 137.918 169.815 138.538 170.513C139.162 171.21 139.475 172.137 139.475 173.295V173.384C139.475 174.104 139.336 174.751 139.058 175.325C138.784 175.895 138.39 176.339 137.875 176.658C137.365 176.977 136.777 177.137 136.111 177.137C135.109 177.137 134.295 176.788 133.671 176.091C133.051 175.394 132.741 174.471 132.741 173.322V173.233ZM134.013 173.384C134.013 174.204 134.202 174.863 134.58 175.359C134.963 175.856 135.473 176.104 136.111 176.104C136.754 176.104 137.264 175.854 137.643 175.353C138.021 174.847 138.21 174.14 138.21 173.233C138.21 172.422 138.016 171.766 137.629 171.265C137.246 170.759 136.736 170.506 136.098 170.506C135.473 170.506 134.97 170.754 134.587 171.251C134.204 171.748 134.013 172.459 134.013 173.384ZM142.257 169.604L142.298 170.533C142.863 169.822 143.601 169.467 144.513 169.467C146.076 169.467 146.864 170.349 146.878 172.112V177H145.613V172.105C145.609 171.572 145.486 171.178 145.244 170.923C145.007 170.668 144.636 170.54 144.13 170.54C143.72 170.54 143.36 170.649 143.05 170.868C142.74 171.087 142.498 171.374 142.325 171.729V177H141.061V169.604H142.257ZM151.752 176.104C152.203 176.104 152.597 175.968 152.935 175.694C153.272 175.421 153.459 175.079 153.495 174.669H154.691C154.669 175.093 154.523 175.496 154.254 175.879C153.985 176.262 153.625 176.567 153.174 176.795C152.727 177.023 152.253 177.137 151.752 177.137C150.745 177.137 149.943 176.802 149.346 176.132C148.753 175.457 148.457 174.537 148.457 173.37V173.158C148.457 172.438 148.589 171.798 148.854 171.237C149.118 170.677 149.496 170.242 149.988 169.932C150.485 169.622 151.071 169.467 151.745 169.467C152.575 169.467 153.263 169.715 153.81 170.212C154.361 170.709 154.655 171.354 154.691 172.146H153.495C153.459 171.668 153.276 171.276 152.948 170.971C152.625 170.661 152.224 170.506 151.745 170.506C151.103 170.506 150.604 170.738 150.248 171.203C149.897 171.663 149.722 172.331 149.722 173.206V173.445C149.722 174.298 149.897 174.954 150.248 175.414C150.599 175.874 151.1 176.104 151.752 176.104ZM159.183 177.137C158.18 177.137 157.364 176.809 156.735 176.152C156.106 175.492 155.792 174.61 155.792 173.507V173.274C155.792 172.541 155.931 171.887 156.209 171.312C156.492 170.734 156.883 170.283 157.385 169.959C157.891 169.631 158.438 169.467 159.025 169.467C159.987 169.467 160.734 169.784 161.268 170.417C161.801 171.05 162.067 171.957 162.067 173.138V173.664H157.057C157.075 174.393 157.287 174.983 157.692 175.435C158.103 175.881 158.622 176.104 159.251 176.104C159.698 176.104 160.076 176.013 160.386 175.831C160.696 175.649 160.967 175.407 161.199 175.106L161.972 175.708C161.352 176.66 160.422 177.137 159.183 177.137ZM159.025 170.506C158.515 170.506 158.087 170.693 157.74 171.066C157.394 171.436 157.18 171.955 157.098 172.625H160.803V172.529C160.766 171.887 160.593 171.39 160.283 171.039C159.973 170.684 159.554 170.506 159.025 170.506ZM169.785 173.384C169.785 174.509 169.528 175.416 169.013 176.104C168.498 176.793 167.8 177.137 166.921 177.137C166.023 177.137 165.317 176.852 164.802 176.282V179.844H163.537V169.604H164.692L164.754 170.424C165.269 169.786 165.984 169.467 166.9 169.467C167.789 169.467 168.491 169.802 169.006 170.472C169.525 171.142 169.785 172.074 169.785 173.268V173.384ZM168.521 173.24C168.521 172.406 168.343 171.748 167.987 171.265C167.632 170.782 167.144 170.54 166.524 170.54C165.759 170.54 165.185 170.88 164.802 171.559V175.093C165.18 175.767 165.759 176.104 166.538 176.104C167.144 176.104 167.625 175.865 167.98 175.387C168.34 174.904 168.521 174.188 168.521 173.24ZM173.114 167.812V169.604H174.495V170.581H173.114V175.168C173.114 175.464 173.176 175.688 173.299 175.838C173.422 175.984 173.632 176.057 173.928 176.057C174.074 176.057 174.274 176.029 174.529 175.975V177C174.197 177.091 173.873 177.137 173.559 177.137C172.993 177.137 172.567 176.966 172.28 176.624C171.993 176.282 171.85 175.797 171.85 175.168V170.581H170.503V169.604H171.85V167.812H173.114Z" fill="black"/>
<rect x="198.55" y="133.848" width="72.4645" height="21" transform="rotate(-28.636 198.55 133.848)" fill="#454ABC"/>
<path d="M198 127L215.321 157H180.679L198 127Z" fill="#454ABC"/>
<path d="M205.611 137.636L206.353 138.98L207.389 138.407L207.794 139.141L206.758 139.713L208.658 143.155C208.781 143.377 208.92 143.519 209.074 143.581C209.227 143.64 209.414 143.607 209.637 143.485C209.746 143.424 209.885 143.321 210.054 143.174L210.479 143.943C210.267 144.149 210.043 144.318 209.807 144.448C209.383 144.682 208.993 144.73 208.636 144.593C208.279 144.455 207.97 144.151 207.709 143.679L205.809 140.237L204.798 140.795L204.393 140.062L205.404 139.504L204.662 138.16L205.611 137.636ZM212.615 140.95L211.61 136.076L212.626 135.516L213.932 143.154C214.097 144.268 213.803 145.033 213.05 145.448L212.862 145.532L212.472 145.661L212.047 144.891L212.315 144.77C212.636 144.593 212.85 144.39 212.956 144.162C213.065 143.932 213.083 143.612 213.008 143.203L212.907 142.522L207.897 138.127L208.933 137.555L212.615 140.95ZM219.732 135.293C220.198 136.138 220.381 136.925 220.279 137.655C220.178 138.385 219.798 138.932 219.138 139.296C218.464 139.668 217.816 139.747 217.193 139.533L218.669 142.205L217.72 142.729L213.477 135.045L214.344 134.567L214.73 135.157C214.852 134.465 215.257 133.929 215.944 133.549C216.611 133.181 217.277 133.142 217.941 133.431C218.608 133.719 219.189 134.31 219.684 135.206L219.732 135.293ZM218.723 135.71C218.378 135.084 217.972 134.663 217.505 134.448C217.038 134.233 216.572 134.254 216.107 134.511C215.532 134.828 215.242 135.32 215.236 135.989L216.701 138.64C217.264 138.99 217.838 139.003 218.423 138.68C218.877 138.429 219.139 138.05 219.208 137.544C219.278 137.032 219.116 136.421 218.723 135.71ZM224.8 136.169C224.048 136.585 223.3 136.676 222.556 136.445C221.811 136.209 221.209 135.678 220.752 134.85L220.656 134.676C220.352 134.125 220.185 133.577 220.156 133.031C220.128 132.48 220.235 131.979 220.477 131.528C220.721 131.072 221.063 130.723 221.505 130.479C222.226 130.081 222.918 130.009 223.581 130.263C224.243 130.518 224.819 131.088 225.308 131.973L225.526 132.368L221.766 134.444C222.082 134.984 222.486 135.339 222.977 135.509C223.47 135.675 223.952 135.627 224.424 135.366C224.759 135.181 225.005 134.956 225.162 134.691C225.319 134.426 225.423 134.132 225.472 133.81L226.301 133.942C226.231 134.913 225.731 135.656 224.8 136.169ZM221.935 131.259C221.552 131.47 221.308 131.788 221.203 132.212C221.096 132.632 221.151 133.111 221.367 133.648L224.147 132.113L224.107 132.041C223.813 131.574 223.478 131.273 223.1 131.138C222.72 130.999 222.332 131.04 221.935 131.259ZM229.866 132.361C230.205 132.174 230.444 131.908 230.584 131.564C230.723 131.219 230.722 130.885 230.579 130.562L231.477 130.066C231.636 130.394 231.693 130.757 231.65 131.155C231.607 131.554 231.463 131.932 231.219 132.29C230.979 132.646 230.67 132.928 230.294 133.136C229.538 133.553 228.798 133.634 228.072 133.379C227.348 133.118 226.744 132.55 226.261 131.675L226.173 131.516C225.875 130.975 225.709 130.44 225.675 129.91C225.641 129.38 225.744 128.897 225.985 128.46C226.23 128.022 226.605 127.663 227.111 127.383C227.733 127.04 228.353 126.941 228.969 127.087C229.588 127.231 230.076 127.594 230.432 128.173L229.534 128.669C229.309 128.325 229.01 128.107 228.637 128.013C228.266 127.915 227.901 127.965 227.541 128.163C227.059 128.429 226.781 128.811 226.707 129.307C226.634 129.797 226.779 130.371 227.142 131.028L227.241 131.207C227.594 131.847 227.998 132.266 228.452 132.466C228.906 132.666 229.377 132.631 229.866 132.361ZM236.936 129.334C236.821 129.255 236.669 129.085 236.48 128.823C236.292 129.525 235.892 130.045 235.28 130.383C234.733 130.685 234.198 130.779 233.676 130.666C233.155 130.547 232.764 130.251 232.501 129.775C232.182 129.197 232.154 128.628 232.416 128.069C232.679 127.504 233.209 127.001 234.006 126.561L234.929 126.051L234.689 125.615C234.506 125.284 234.261 125.075 233.955 124.99C233.647 124.901 233.3 124.963 232.914 125.177C232.575 125.364 232.339 125.606 232.204 125.903C232.069 126.201 232.069 126.471 232.203 126.714L231.249 127.241C231.096 126.964 231.046 126.643 231.099 126.279C231.154 125.909 231.308 125.557 231.56 125.222C231.815 124.884 232.145 124.604 232.548 124.381C233.188 124.028 233.777 123.912 234.317 124.034C234.855 124.151 235.286 124.487 235.609 125.04L237.02 127.595C237.301 128.104 237.59 128.473 237.886 128.703L237.931 128.785L236.936 129.334ZM234.962 129.48C235.26 129.316 235.499 129.083 235.681 128.782C235.863 128.481 235.946 128.174 235.929 127.862L235.301 126.723L234.557 127.134C233.394 127.776 233.001 128.437 233.376 129.118C233.541 129.415 233.768 129.593 234.059 129.651C234.35 129.709 234.651 129.652 234.962 129.48ZM241.643 124.815C241.501 124.558 241.294 124.414 241.022 124.381C240.751 124.343 240.346 124.406 239.807 124.57C239.272 124.731 238.823 124.819 238.459 124.832C238.1 124.843 237.797 124.787 237.55 124.665C237.308 124.54 237.111 124.341 236.96 124.067C236.708 123.612 236.687 123.122 236.897 122.596C237.109 122.068 237.515 121.639 238.113 121.308C238.743 120.961 239.342 120.842 239.911 120.951C240.484 121.059 240.91 121.366 241.189 121.872L240.235 122.399C240.092 122.139 239.857 121.976 239.531 121.911C239.208 121.844 238.879 121.903 238.544 122.088C238.199 122.279 237.97 122.503 237.858 122.761C237.746 123.019 237.757 123.27 237.891 123.512C238.018 123.741 238.204 123.864 238.449 123.88C238.695 123.897 239.083 123.827 239.613 123.673C240.147 123.516 240.602 123.43 240.977 123.415C241.352 123.4 241.667 123.458 241.923 123.589C242.18 123.715 242.39 123.926 242.555 124.224C242.828 124.72 242.85 125.228 242.62 125.748C242.387 126.264 241.955 126.697 241.322 127.046C240.878 127.292 240.441 127.43 240.012 127.462C239.583 127.493 239.194 127.423 238.844 127.25C238.496 127.072 238.231 126.819 238.05 126.49L238.999 125.966C239.192 126.275 239.458 126.458 239.798 126.516C240.139 126.568 240.505 126.487 240.894 126.272C241.253 126.074 241.501 125.843 241.637 125.581C241.775 125.313 241.777 125.057 241.643 124.815ZM242.121 117.475L242.863 118.819L243.9 118.247L244.305 118.981L243.268 119.553L245.169 122.995C245.292 123.217 245.43 123.359 245.585 123.421C245.738 123.479 245.925 123.447 246.148 123.324C246.257 123.264 246.396 123.16 246.565 123.013L246.99 123.783C246.778 123.989 246.554 124.157 246.318 124.288C245.894 124.522 245.503 124.57 245.146 124.433C244.789 124.295 244.481 123.99 244.22 123.518L242.32 120.077L241.309 120.635L240.904 119.901L241.915 119.343L241.172 117.999L242.121 117.475ZM249.108 122.613L248.159 123.137L245.095 117.587L246.044 117.063L249.108 122.613ZM244.205 116.158C244.12 116.004 244.094 115.848 244.128 115.691C244.165 115.532 244.276 115.402 244.461 115.3C244.646 115.198 244.815 115.174 244.969 115.227C245.124 115.28 245.243 115.383 245.328 115.537C245.413 115.691 245.436 115.846 245.397 116.001C245.358 116.157 245.246 116.285 245.061 116.387C244.877 116.489 244.708 116.515 244.556 116.466C244.407 116.414 244.29 116.311 244.205 116.158ZM248.465 115.726L248.881 116.407C249.01 115.639 249.417 115.067 250.101 114.689C251.274 114.041 252.231 114.376 252.972 115.694L254.997 119.362L254.048 119.886L252.02 116.213C251.795 115.815 251.54 115.57 251.253 115.479C250.969 115.385 250.638 115.443 250.258 115.653C249.95 115.823 249.726 116.054 249.584 116.347C249.442 116.639 249.38 116.955 249.397 117.293L251.581 121.248L250.632 121.772L247.567 116.222L248.465 115.726ZM254.644 115.875C254.167 115.01 253.987 114.212 254.106 113.482C254.223 112.748 254.611 112.199 255.271 111.834C255.948 111.46 256.609 111.408 257.253 111.677L256.959 111.036L257.826 110.557L260.817 115.974C261.213 116.692 261.312 117.376 261.113 118.026C260.917 118.674 260.461 119.196 259.743 119.592C259.342 119.813 258.904 119.944 258.426 119.985C257.949 120.025 257.527 119.952 257.161 119.766L257.339 118.925C258.024 119.203 258.66 119.18 259.248 118.855C259.71 118.6 259.997 118.272 260.11 117.87C260.226 117.467 260.154 117.029 259.894 116.557L259.63 116.08C259.492 116.727 259.095 117.232 258.439 117.595C257.789 117.954 257.118 117.983 256.426 117.682C255.737 117.38 255.143 116.778 254.644 115.875ZM255.658 115.456C256.003 116.082 256.404 116.503 256.858 116.721C257.311 116.935 257.768 116.914 258.23 116.659C258.828 116.329 259.118 115.814 259.098 115.116L257.699 112.582C257.115 112.212 256.533 112.188 255.952 112.509C255.49 112.764 255.228 113.143 255.167 113.645C255.105 114.148 255.269 114.751 255.658 115.456Z" fill="white"/>
</svg>
