<svg width="300" height="150" viewBox="0 0 300 150" fill="none" xmlns="http://www.w3.org/2000/svg">
<rect x="85.5" y="0.5" width="129" height="29" rx="4.5" fill="white" stroke="black"/>
<rect x="0.5" y="60.5" width="129" height="29" rx="4.5" fill="white" stroke="black"/>
<rect x="0.5" y="120.5" width="59" height="29" rx="4.5" fill="white" stroke="black"/>
<rect x="70.5" y="120.5" width="59" height="29" rx="4.5" fill="white" stroke="black"/>
<rect x="170.5" y="120.5" width="59" height="29" rx="4.5" fill="white" stroke="black"/>
<rect x="240.5" y="120.5" width="59" height="29" rx="4.5" fill="white" stroke="black"/>
<rect x="170.5" y="60.5" width="129" height="29" rx="4.5" fill="white" stroke="black"/>
<path d="M45.4297 78.2324C45.8164 78.2324 46.1543 78.1152 46.4434 77.8809C46.7324 77.6465 46.8926 77.3535 46.9238 77.002H47.9492C47.9297 77.3652 47.8047 77.7109 47.5742 78.0391C47.3438 78.3672 47.0352 78.6289 46.6484 78.8242C46.2656 79.0195 45.8594 79.1172 45.4297 79.1172C44.5664 79.1172 43.8789 78.8301 43.3672 78.2559C42.8594 77.6777 42.6055 76.8887 42.6055 75.8887V75.707C42.6055 75.0898 42.7188 74.541 42.9453 74.0605C43.1719 73.5801 43.4961 73.207 43.918 72.9414C44.3438 72.6758 44.8457 72.543 45.4238 72.543C46.1348 72.543 46.7246 72.7559 47.1934 73.1816C47.666 73.6074 47.918 74.1602 47.9492 74.8398H46.9238C46.8926 74.4297 46.7363 74.0938 46.4551 73.832C46.1777 73.5664 45.834 73.4336 45.4238 73.4336C44.873 73.4336 44.4453 73.6328 44.1406 74.0312C43.8398 74.4258 43.6895 74.998 43.6895 75.748V75.9531C43.6895 76.6836 43.8398 77.2461 44.1406 77.6406C44.4414 78.0352 44.8711 78.2324 45.4297 78.2324ZM53.082 78.373C52.6602 78.8691 52.041 79.1172 51.2246 79.1172C50.5488 79.1172 50.0332 78.9219 49.6777 78.5312C49.3262 78.1367 49.1484 77.5547 49.1445 76.7852V72.6602H50.2285V76.7559C50.2285 77.7168 50.6191 78.1973 51.4004 78.1973C52.2285 78.1973 52.7793 77.8887 53.0527 77.2715V72.6602H54.1367V79H53.1055L53.082 78.373ZM58.8535 73.6328C58.6895 73.6055 58.5117 73.5918 58.3203 73.5918C57.6094 73.5918 57.127 73.8945 56.873 74.5V79H55.7891V72.6602H56.8438L56.8613 73.3926C57.2168 72.8262 57.7207 72.543 58.373 72.543C58.584 72.543 58.7441 72.5703 58.8535 72.625V73.6328ZM62.9199 73.6328C62.7559 73.6055 62.5781 73.5918 62.3867 73.5918C61.6758 73.5918 61.1934 73.8945 60.9395 74.5V79H59.8555V72.6602H60.9102L60.9277 73.3926C61.2832 72.8262 61.7871 72.543 62.4395 72.543C62.6504 72.543 62.8105 72.5703 62.9199 72.625V73.6328ZM66.4355 79.1172C65.5762 79.1172 64.877 78.8359 64.3379 78.2734C63.7988 77.707 63.5293 76.9512 63.5293 76.0059V75.8066C63.5293 75.1777 63.6484 74.6172 63.8867 74.125C64.1289 73.6289 64.4648 73.2422 64.8945 72.9648C65.3281 72.6836 65.7969 72.543 66.3008 72.543C67.125 72.543 67.7656 72.8145 68.2227 73.3574C68.6797 73.9004 68.9082 74.6777 68.9082 75.6895V76.1406H64.6133C64.6289 76.7656 64.8105 77.2715 65.1582 77.6582C65.5098 78.041 65.9551 78.2324 66.4941 78.2324C66.877 78.2324 67.2012 78.1543 67.4668 77.998C67.7324 77.8418 67.9648 77.6348 68.1641 77.377L68.8262 77.8926C68.2949 78.709 67.498 79.1172 66.4355 79.1172ZM66.3008 73.4336C65.8633 73.4336 65.4961 73.5938 65.1992 73.9141C64.9023 74.2305 64.7188 74.6758 64.6484 75.25H67.8242V75.168C67.793 74.6172 67.6445 74.1914 67.3789 73.8906C67.1133 73.5859 66.7539 73.4336 66.3008 73.4336ZM71.1934 72.6602L71.2285 73.457C71.7129 72.8477 72.3457 72.543 73.127 72.543C74.4668 72.543 75.1426 73.2988 75.1543 74.8105V79H74.0703V74.8047C74.0664 74.3477 73.9609 74.0098 73.7539 73.791C73.5508 73.5723 73.2324 73.4629 72.7988 73.4629C72.4473 73.4629 72.1387 73.5566 71.873 73.7441C71.6074 73.9316 71.4004 74.1777 71.252 74.4824V79H70.168V72.6602H71.1934ZM79.332 78.2324C79.7188 78.2324 80.0566 78.1152 80.3457 77.8809C80.6348 77.6465 80.7949 77.3535 80.8262 77.002H81.8516C81.832 77.3652 81.707 77.7109 81.4766 78.0391C81.2461 78.3672 80.9375 78.6289 80.5508 78.8242C80.168 79.0195 79.7617 79.1172 79.332 79.1172C78.4688 79.1172 77.7812 78.8301 77.2695 78.2559C76.7617 77.6777 76.5078 76.8887 76.5078 75.8887V75.707C76.5078 75.0898 76.6211 74.541 76.8477 74.0605C77.0742 73.5801 77.3984 73.207 77.8203 72.9414C78.2461 72.6758 78.748 72.543 79.3262 72.543C80.0371 72.543 80.627 72.7559 81.0957 73.1816C81.5684 73.6074 81.8203 74.1602 81.8516 74.8398H80.8262C80.7949 74.4297 80.6387 74.0938 80.3574 73.832C80.0801 73.5664 79.7363 73.4336 79.3262 73.4336C78.7754 73.4336 78.3477 73.6328 78.043 74.0312C77.7422 74.4258 77.5918 74.998 77.5918 75.748V75.9531C77.5918 76.6836 77.7422 77.2461 78.043 77.6406C78.3438 78.0352 78.7734 78.2324 79.332 78.2324ZM85.1445 77.4121L86.6211 72.6602H87.7812L85.2324 79.9785C84.8379 81.0332 84.2109 81.5605 83.3516 81.5605L83.1465 81.543L82.7422 81.4668V80.5879L83.0352 80.6113C83.4023 80.6113 83.6875 80.5371 83.8906 80.3887C84.0977 80.2402 84.2676 79.9688 84.4004 79.5742L84.6406 78.9297L82.3789 72.6602H83.5625L85.1445 77.4121Z" fill="#F1A30C"/>
<path d="M22.9336 128.9C22.9336 129.869 22.7109 130.648 22.2656 131.238C21.8203 131.824 21.2227 132.117 20.4727 132.117C19.6719 132.117 19.0527 131.834 18.6152 131.268L18.5625 132H17.5664V123H18.6504V126.357C19.0879 125.814 19.6914 125.543 20.4609 125.543C21.2305 125.543 21.834 125.834 22.2715 126.416C22.7129 126.998 22.9336 127.795 22.9336 128.807V128.9ZM21.8496 128.777C21.8496 128.039 21.707 127.469 21.4219 127.066C21.1367 126.664 20.7266 126.463 20.1914 126.463C19.4766 126.463 18.9629 126.795 18.6504 127.459V130.201C18.9824 130.865 19.5 131.197 20.2031 131.197C20.7227 131.197 21.127 130.996 21.416 130.594C21.7051 130.191 21.8496 129.586 21.8496 128.777ZM24.0176 128.771C24.0176 128.15 24.1387 127.592 24.3809 127.096C24.627 126.6 24.9668 126.217 25.4004 125.947C25.8379 125.678 26.3359 125.543 26.8945 125.543C27.7578 125.543 28.4551 125.842 28.9863 126.439C29.5215 127.037 29.7891 127.832 29.7891 128.824V128.9C29.7891 129.518 29.6699 130.072 29.4316 130.564C29.1973 131.053 28.8594 131.434 28.418 131.707C27.9805 131.98 27.4766 132.117 26.9062 132.117C26.0469 132.117 25.3496 131.818 24.8145 131.221C24.2832 130.623 24.0176 129.832 24.0176 128.848V128.771ZM25.1074 128.9C25.1074 129.604 25.2695 130.168 25.5938 130.594C25.9219 131.02 26.3594 131.232 26.9062 131.232C27.457 131.232 27.8945 131.018 28.2188 130.588C28.543 130.154 28.7051 129.549 28.7051 128.771C28.7051 128.076 28.5391 127.514 28.207 127.084C27.8789 126.65 27.4414 126.434 26.8945 126.434C26.3594 126.434 25.9277 126.646 25.5996 127.072C25.2715 127.498 25.1074 128.107 25.1074 128.9ZM30.8613 128.771C30.8613 128.15 30.9824 127.592 31.2246 127.096C31.4707 126.6 31.8105 126.217 32.2441 125.947C32.6816 125.678 33.1797 125.543 33.7383 125.543C34.6016 125.543 35.2988 125.842 35.8301 126.439C36.3652 127.037 36.6328 127.832 36.6328 128.824V128.9C36.6328 129.518 36.5137 130.072 36.2754 130.564C36.041 131.053 35.7031 131.434 35.2617 131.707C34.8242 131.98 34.3203 132.117 33.75 132.117C32.8906 132.117 32.1934 131.818 31.6582 131.221C31.127 130.623 30.8613 129.832 30.8613 128.848V128.771ZM31.9512 128.9C31.9512 129.604 32.1133 130.168 32.4375 130.594C32.7656 131.02 33.2031 131.232 33.75 131.232C34.3008 131.232 34.7383 131.018 35.0625 130.588C35.3867 130.154 35.5488 129.549 35.5488 128.771C35.5488 128.076 35.3828 127.514 35.0508 127.084C34.7227 126.65 34.2852 126.434 33.7383 126.434C33.2031 126.434 32.7715 126.646 32.4434 127.072C32.1152 127.498 31.9512 128.107 31.9512 128.9ZM39.7617 129.064L39.082 129.773V132H37.998V123H39.082V128.443L39.6621 127.746L41.6367 125.66H42.9551L40.4883 128.309L43.2422 132H41.9707L39.7617 129.064ZM13.8633 139.66L13.8926 140.363C14.3574 139.816 14.9844 139.543 15.7734 139.543C16.6602 139.543 17.2637 139.883 17.584 140.562C17.7949 140.258 18.0684 140.012 18.4043 139.824C18.7441 139.637 19.1445 139.543 19.6055 139.543C20.9961 139.543 21.7031 140.279 21.7266 141.752V146H20.6426V141.816C20.6426 141.363 20.5391 141.025 20.332 140.803C20.125 140.576 19.7773 140.463 19.2891 140.463C18.8867 140.463 18.5527 140.584 18.2871 140.826C18.0215 141.064 17.8672 141.387 17.8242 141.793V146H16.7344V141.846C16.7344 140.924 16.2832 140.463 15.3809 140.463C14.6699 140.463 14.1836 140.766 13.9219 141.371V146H12.8379V139.66H13.8633ZM23.0801 142.771C23.0801 142.15 23.2012 141.592 23.4434 141.096C23.6895 140.6 24.0293 140.217 24.4629 139.947C24.9004 139.678 25.3984 139.543 25.957 139.543C26.8203 139.543 27.5176 139.842 28.0488 140.439C28.584 141.037 28.8516 141.832 28.8516 142.824V142.9C28.8516 143.518 28.7324 144.072 28.4941 144.564C28.2598 145.053 27.9219 145.434 27.4805 145.707C27.043 145.98 26.5391 146.117 25.9688 146.117C25.1094 146.117 24.4121 145.818 23.877 145.221C23.3457 144.623 23.0801 143.832 23.0801 142.848V142.771ZM24.1699 142.9C24.1699 143.604 24.332 144.168 24.6562 144.594C24.9844 145.02 25.4219 145.232 25.9688 145.232C26.5195 145.232 26.957 145.018 27.2812 144.588C27.6055 144.154 27.7676 143.549 27.7676 142.771C27.7676 142.076 27.6016 141.514 27.2695 141.084C26.9414 140.65 26.5039 140.434 25.957 140.434C25.4219 140.434 24.9902 140.646 24.6621 141.072C24.334 141.498 24.1699 142.107 24.1699 142.9ZM31.2363 139.66L31.2715 140.457C31.7559 139.848 32.3887 139.543 33.1699 139.543C34.5098 139.543 35.1855 140.299 35.1973 141.811V146H34.1133V141.805C34.1094 141.348 34.0039 141.01 33.7969 140.791C33.5938 140.572 33.2754 140.463 32.8418 140.463C32.4902 140.463 32.1816 140.557 31.916 140.744C31.6504 140.932 31.4434 141.178 31.2949 141.482V146H30.2109V139.66H31.2363ZM39.4629 146.117C38.6035 146.117 37.9043 145.836 37.3652 145.273C36.8262 144.707 36.5566 143.951 36.5566 143.006V142.807C36.5566 142.178 36.6758 141.617 36.9141 141.125C37.1562 140.629 37.4922 140.242 37.9219 139.965C38.3555 139.684 38.8242 139.543 39.3281 139.543C40.1523 139.543 40.793 139.814 41.25 140.357C41.707 140.9 41.9355 141.678 41.9355 142.689V143.141H37.6406C37.6562 143.766 37.8379 144.271 38.1855 144.658C38.5371 145.041 38.9824 145.232 39.5215 145.232C39.9043 145.232 40.2285 145.154 40.4941 144.998C40.7598 144.842 40.9922 144.635 41.1914 144.377L41.8535 144.893C41.3223 145.709 40.5254 146.117 39.4629 146.117ZM39.3281 140.434C38.8906 140.434 38.5234 140.594 38.2266 140.914C37.9297 141.23 37.7461 141.676 37.6758 142.25H40.8516V142.168C40.8203 141.617 40.6719 141.191 40.4062 140.891C40.1406 140.586 39.7812 140.434 39.3281 140.434ZM45.1875 144.412L46.6641 139.66H47.8242L45.2754 146.979C44.8809 148.033 44.2539 148.561 43.3945 148.561L43.1895 148.543L42.7852 148.467V147.588L43.0781 147.611C43.4453 147.611 43.7305 147.537 43.9336 147.389C44.1406 147.24 44.3105 146.969 44.4434 146.574L44.6836 145.93L42.4219 139.66H43.6055L45.1875 144.412Z" fill="#F1A30C"/>
<path d="M81.8711 139H80.7871V132.66H81.8711V139ZM80.6992 130.979C80.6992 130.803 80.752 130.654 80.8574 130.533C80.9668 130.412 81.127 130.352 81.3379 130.352C81.5488 130.352 81.709 130.412 81.8184 130.533C81.9277 130.654 81.9824 130.803 81.9824 130.979C81.9824 131.154 81.9277 131.301 81.8184 131.418C81.709 131.535 81.5488 131.594 81.3379 131.594C81.127 131.594 80.9668 131.535 80.8574 131.418C80.752 131.301 80.6992 131.154 80.6992 130.979ZM84.6367 132.66L84.6719 133.457C85.1562 132.848 85.7891 132.543 86.5703 132.543C87.9102 132.543 88.5859 133.299 88.5977 134.811V139H87.5137V134.805C87.5098 134.348 87.4043 134.01 87.1973 133.791C86.9941 133.572 86.6758 133.463 86.2422 133.463C85.8906 133.463 85.582 133.557 85.3164 133.744C85.0508 133.932 84.8438 134.178 84.6953 134.482V139H83.6113V132.66H84.6367ZM91.7031 131.125V132.66H92.8867V133.498H91.7031V137.43C91.7031 137.684 91.7559 137.875 91.8613 138.004C91.9668 138.129 92.1465 138.191 92.4004 138.191C92.5254 138.191 92.6973 138.168 92.916 138.121V139C92.6309 139.078 92.3535 139.117 92.084 139.117C91.5996 139.117 91.2344 138.971 90.9883 138.678C90.7422 138.385 90.6191 137.969 90.6191 137.43V133.498H89.4648V132.66H90.6191V131.125H91.7031ZM96.7891 139.117C95.9297 139.117 95.2305 138.836 94.6914 138.273C94.1523 137.707 93.8828 136.951 93.8828 136.006V135.807C93.8828 135.178 94.002 134.617 94.2402 134.125C94.4824 133.629 94.8184 133.242 95.248 132.965C95.6816 132.684 96.1504 132.543 96.6543 132.543C97.4785 132.543 98.1191 132.814 98.5762 133.357C99.0332 133.9 99.2617 134.678 99.2617 135.689V136.141H94.9668C94.9824 136.766 95.1641 137.271 95.5117 137.658C95.8633 138.041 96.3086 138.232 96.8477 138.232C97.2305 138.232 97.5547 138.154 97.8203 137.998C98.0859 137.842 98.3184 137.635 98.5176 137.377L99.1797 137.893C98.6484 138.709 97.8516 139.117 96.7891 139.117ZM96.6543 133.434C96.2168 133.434 95.8496 133.594 95.5527 133.914C95.2559 134.23 95.0723 134.676 95.002 135.25H98.1777V135.168C98.1465 134.617 97.998 134.191 97.7324 133.891C97.4668 133.586 97.1074 133.434 96.6543 133.434ZM103.586 133.633C103.422 133.605 103.244 133.592 103.053 133.592C102.342 133.592 101.859 133.895 101.605 134.5V139H100.521V132.66H101.576L101.594 133.393C101.949 132.826 102.453 132.543 103.105 132.543C103.316 132.543 103.477 132.57 103.586 132.625V133.633ZM107.102 139.117C106.242 139.117 105.543 138.836 105.004 138.273C104.465 137.707 104.195 136.951 104.195 136.006V135.807C104.195 135.178 104.314 134.617 104.553 134.125C104.795 133.629 105.131 133.242 105.561 132.965C105.994 132.684 106.463 132.543 106.967 132.543C107.791 132.543 108.432 132.814 108.889 133.357C109.346 133.9 109.574 134.678 109.574 135.689V136.141H105.279C105.295 136.766 105.477 137.271 105.824 137.658C106.176 138.041 106.621 138.232 107.16 138.232C107.543 138.232 107.867 138.154 108.133 137.998C108.398 137.842 108.631 137.635 108.83 137.377L109.492 137.893C108.961 138.709 108.164 139.117 107.102 139.117ZM106.967 133.434C106.529 133.434 106.162 133.594 105.865 133.914C105.568 134.23 105.385 134.676 105.314 135.25H108.49V135.168C108.459 134.617 108.311 134.191 108.045 133.891C107.779 133.586 107.42 133.434 106.967 133.434ZM114.525 137.318C114.525 137.025 114.414 136.799 114.191 136.639C113.973 136.475 113.588 136.334 113.037 136.217C112.49 136.1 112.055 135.959 111.73 135.795C111.41 135.631 111.172 135.436 111.016 135.209C110.863 134.982 110.787 134.713 110.787 134.4C110.787 133.881 111.006 133.441 111.443 133.082C111.885 132.723 112.447 132.543 113.131 132.543C113.85 132.543 114.432 132.729 114.877 133.1C115.326 133.471 115.551 133.945 115.551 134.523H114.461C114.461 134.227 114.334 133.971 114.08 133.756C113.83 133.541 113.514 133.434 113.131 133.434C112.736 133.434 112.428 133.52 112.205 133.691C111.982 133.863 111.871 134.088 111.871 134.365C111.871 134.627 111.975 134.824 112.182 134.957C112.389 135.09 112.762 135.217 113.301 135.338C113.844 135.459 114.283 135.604 114.619 135.771C114.955 135.939 115.203 136.143 115.363 136.381C115.527 136.615 115.609 136.902 115.609 137.242C115.609 137.809 115.383 138.264 114.93 138.607C114.477 138.947 113.889 139.117 113.166 139.117C112.658 139.117 112.209 139.027 111.818 138.848C111.428 138.668 111.121 138.418 110.898 138.098C110.68 137.773 110.57 137.424 110.57 137.049H111.654C111.674 137.412 111.818 137.701 112.088 137.916C112.361 138.127 112.721 138.232 113.166 138.232C113.576 138.232 113.904 138.15 114.15 137.986C114.4 137.818 114.525 137.596 114.525 137.318ZM118.492 131.125V132.66H119.676V133.498H118.492V137.43C118.492 137.684 118.545 137.875 118.65 138.004C118.756 138.129 118.936 138.191 119.189 138.191C119.314 138.191 119.486 138.168 119.705 138.121V139C119.42 139.078 119.143 139.117 118.873 139.117C118.389 139.117 118.023 138.971 117.777 138.678C117.531 138.385 117.408 137.969 117.408 137.43V133.498H116.254V132.66H117.408V131.125H118.492Z" fill="#F1A30C"/>
<path d="M189.938 138.232C190.324 138.232 190.662 138.115 190.951 137.881C191.24 137.646 191.4 137.354 191.432 137.002H192.457C192.438 137.365 192.312 137.711 192.082 138.039C191.852 138.367 191.543 138.629 191.156 138.824C190.773 139.02 190.367 139.117 189.938 139.117C189.074 139.117 188.387 138.83 187.875 138.256C187.367 137.678 187.113 136.889 187.113 135.889V135.707C187.113 135.09 187.227 134.541 187.453 134.061C187.68 133.58 188.004 133.207 188.426 132.941C188.852 132.676 189.354 132.543 189.932 132.543C190.643 132.543 191.232 132.756 191.701 133.182C192.174 133.607 192.426 134.16 192.457 134.84H191.432C191.4 134.43 191.244 134.094 190.963 133.832C190.686 133.566 190.342 133.434 189.932 133.434C189.381 133.434 188.953 133.633 188.648 134.031C188.348 134.426 188.197 134.998 188.197 135.748V135.953C188.197 136.684 188.348 137.246 188.648 137.641C188.949 138.035 189.379 138.232 189.938 138.232ZM193.389 135.771C193.389 135.15 193.51 134.592 193.752 134.096C193.998 133.6 194.338 133.217 194.771 132.947C195.209 132.678 195.707 132.543 196.266 132.543C197.129 132.543 197.826 132.842 198.357 133.439C198.893 134.037 199.16 134.832 199.16 135.824V135.9C199.16 136.518 199.041 137.072 198.803 137.564C198.568 138.053 198.23 138.434 197.789 138.707C197.352 138.98 196.848 139.117 196.277 139.117C195.418 139.117 194.721 138.818 194.186 138.221C193.654 137.623 193.389 136.832 193.389 135.848V135.771ZM194.479 135.9C194.479 136.604 194.641 137.168 194.965 137.594C195.293 138.02 195.73 138.232 196.277 138.232C196.828 138.232 197.266 138.018 197.59 137.588C197.914 137.154 198.076 136.549 198.076 135.771C198.076 135.076 197.91 134.514 197.578 134.084C197.25 133.65 196.812 133.434 196.266 133.434C195.73 133.434 195.299 133.646 194.971 134.072C194.643 134.498 194.479 135.107 194.479 135.9ZM201.697 139H200.613V132.66H201.697V139ZM200.525 130.979C200.525 130.803 200.578 130.654 200.684 130.533C200.793 130.412 200.953 130.352 201.164 130.352C201.375 130.352 201.535 130.412 201.645 130.533C201.754 130.654 201.809 130.803 201.809 130.979C201.809 131.154 201.754 131.301 201.645 131.418C201.535 131.535 201.375 131.594 201.164 131.594C200.953 131.594 200.793 131.535 200.684 131.418C200.578 131.301 200.525 131.154 200.525 130.979ZM204.463 132.66L204.498 133.457C204.982 132.848 205.615 132.543 206.396 132.543C207.736 132.543 208.412 133.299 208.424 134.811V139H207.34V134.805C207.336 134.348 207.23 134.01 207.023 133.791C206.82 133.572 206.502 133.463 206.068 133.463C205.717 133.463 205.408 133.557 205.143 133.744C204.877 133.932 204.67 134.178 204.521 134.482V139H203.438V132.66H204.463ZM213.75 137.318C213.75 137.025 213.639 136.799 213.416 136.639C213.197 136.475 212.812 136.334 212.262 136.217C211.715 136.1 211.279 135.959 210.955 135.795C210.635 135.631 210.396 135.436 210.24 135.209C210.088 134.982 210.012 134.713 210.012 134.4C210.012 133.881 210.23 133.441 210.668 133.082C211.109 132.723 211.672 132.543 212.355 132.543C213.074 132.543 213.656 132.729 214.102 133.1C214.551 133.471 214.775 133.945 214.775 134.523H213.686C213.686 134.227 213.559 133.971 213.305 133.756C213.055 133.541 212.738 133.434 212.355 133.434C211.961 133.434 211.652 133.52 211.43 133.691C211.207 133.863 211.096 134.088 211.096 134.365C211.096 134.627 211.199 134.824 211.406 134.957C211.613 135.09 211.986 135.217 212.525 135.338C213.068 135.459 213.508 135.604 213.844 135.771C214.18 135.939 214.428 136.143 214.588 136.381C214.752 136.615 214.834 136.902 214.834 137.242C214.834 137.809 214.607 138.264 214.154 138.607C213.701 138.947 213.113 139.117 212.391 139.117C211.883 139.117 211.434 139.027 211.043 138.848C210.652 138.668 210.346 138.418 210.123 138.098C209.904 137.773 209.795 137.424 209.795 137.049H210.879C210.898 137.412 211.043 137.701 211.312 137.916C211.586 138.127 211.945 138.232 212.391 138.232C212.801 138.232 213.129 138.15 213.375 137.986C213.625 137.818 213.75 137.596 213.75 137.318Z" fill="#454ABC"/>
<path d="M265.348 135.9C265.348 136.869 265.125 137.648 264.68 138.238C264.234 138.824 263.637 139.117 262.887 139.117C262.086 139.117 261.467 138.834 261.029 138.268L260.977 139H259.98V130H261.064V133.357C261.502 132.814 262.105 132.543 262.875 132.543C263.645 132.543 264.248 132.834 264.686 133.416C265.127 133.998 265.348 134.795 265.348 135.807V135.9ZM264.264 135.777C264.264 135.039 264.121 134.469 263.836 134.066C263.551 133.664 263.141 133.463 262.605 133.463C261.891 133.463 261.377 133.795 261.064 134.459V137.201C261.396 137.865 261.914 138.197 262.617 138.197C263.137 138.197 263.541 137.996 263.83 137.594C264.119 137.191 264.264 136.586 264.264 135.777ZM267.896 139H266.812V132.66H267.896V139ZM266.725 130.979C266.725 130.803 266.777 130.654 266.883 130.533C266.992 130.412 267.152 130.352 267.363 130.352C267.574 130.352 267.734 130.412 267.844 130.533C267.953 130.654 268.008 130.803 268.008 130.979C268.008 131.154 267.953 131.301 267.844 131.418C267.734 131.535 267.574 131.594 267.363 131.594C267.152 131.594 266.992 131.535 266.883 131.418C266.777 131.301 266.725 131.154 266.725 130.979ZM270.814 139H269.73V130H270.814V139ZM273.732 139H272.648V130H273.732V139ZM279.164 137.318C279.164 137.025 279.053 136.799 278.83 136.639C278.611 136.475 278.227 136.334 277.676 136.217C277.129 136.1 276.693 135.959 276.369 135.795C276.049 135.631 275.811 135.436 275.654 135.209C275.502 134.982 275.426 134.713 275.426 134.4C275.426 133.881 275.645 133.441 276.082 133.082C276.523 132.723 277.086 132.543 277.77 132.543C278.488 132.543 279.07 132.729 279.516 133.1C279.965 133.471 280.189 133.945 280.189 134.523H279.1C279.1 134.227 278.973 133.971 278.719 133.756C278.469 133.541 278.152 133.434 277.77 133.434C277.375 133.434 277.066 133.52 276.844 133.691C276.621 133.863 276.51 134.088 276.51 134.365C276.51 134.627 276.613 134.824 276.82 134.957C277.027 135.09 277.4 135.217 277.939 135.338C278.482 135.459 278.922 135.604 279.258 135.771C279.594 135.939 279.842 136.143 280.002 136.381C280.166 136.615 280.248 136.902 280.248 137.242C280.248 137.809 280.021 138.264 279.568 138.607C279.115 138.947 278.527 139.117 277.805 139.117C277.297 139.117 276.848 139.027 276.457 138.848C276.066 138.668 275.76 138.418 275.537 138.098C275.318 137.773 275.209 137.424 275.209 137.049H276.293C276.312 137.412 276.457 137.701 276.727 137.916C277 138.127 277.359 138.232 277.805 138.232C278.215 138.232 278.543 138.15 278.789 137.986C279.039 137.818 279.164 137.596 279.164 137.318Z" fill="#454ABC"/>
<path d="M226.061 78.2324C226.447 78.2324 226.785 78.1152 227.074 77.8809C227.363 77.6465 227.523 77.3535 227.555 77.002H228.58C228.561 77.3652 228.436 77.7109 228.205 78.0391C227.975 78.3672 227.666 78.6289 227.279 78.8242C226.896 79.0195 226.49 79.1172 226.061 79.1172C225.197 79.1172 224.51 78.8301 223.998 78.2559C223.49 77.6777 223.236 76.8887 223.236 75.8887V75.707C223.236 75.0898 223.35 74.541 223.576 74.0605C223.803 73.5801 224.127 73.207 224.549 72.9414C224.975 72.6758 225.477 72.543 226.055 72.543C226.766 72.543 227.355 72.7559 227.824 73.1816C228.297 73.6074 228.549 74.1602 228.58 74.8398H227.555C227.523 74.4297 227.367 74.0938 227.086 73.832C226.809 73.5664 226.465 73.4336 226.055 73.4336C225.504 73.4336 225.076 73.6328 224.771 74.0312C224.471 74.4258 224.32 74.998 224.32 75.748V75.9531C224.32 76.6836 224.471 77.2461 224.771 77.6406C225.072 78.0352 225.502 78.2324 226.061 78.2324ZM233.713 79C233.65 78.875 233.6 78.6523 233.561 78.332C233.057 78.8555 232.455 79.1172 231.756 79.1172C231.131 79.1172 230.617 78.9414 230.215 78.5898C229.816 78.2344 229.617 77.7852 229.617 77.2422C229.617 76.582 229.867 76.0703 230.367 75.707C230.871 75.3398 231.578 75.1562 232.488 75.1562H233.543V74.6582C233.543 74.2793 233.43 73.9785 233.203 73.7559C232.977 73.5293 232.643 73.416 232.201 73.416C231.814 73.416 231.49 73.5137 231.229 73.709C230.967 73.9043 230.836 74.1406 230.836 74.418H229.746C229.746 74.1016 229.857 73.7969 230.08 73.5039C230.307 73.207 230.611 72.9727 230.994 72.8008C231.381 72.6289 231.805 72.543 232.266 72.543C232.996 72.543 233.568 72.7266 233.982 73.0938C234.396 73.457 234.611 73.959 234.627 74.5996V77.5176C234.627 78.0996 234.701 78.5625 234.85 78.9062V79H233.713ZM231.914 78.1738C232.254 78.1738 232.576 78.0859 232.881 77.9102C233.186 77.7344 233.406 77.5059 233.543 77.2246V75.9238H232.693C231.365 75.9238 230.701 76.3125 230.701 77.0898C230.701 77.4297 230.814 77.6953 231.041 77.8867C231.268 78.0781 231.559 78.1738 231.914 78.1738ZM240.018 77.3184C240.018 77.0254 239.906 76.7988 239.684 76.6387C239.465 76.4746 239.08 76.334 238.529 76.2168C237.982 76.0996 237.547 75.959 237.223 75.7949C236.902 75.6309 236.664 75.4355 236.508 75.209C236.355 74.9824 236.279 74.7129 236.279 74.4004C236.279 73.8809 236.498 73.4414 236.936 73.082C237.377 72.7227 237.939 72.543 238.623 72.543C239.342 72.543 239.924 72.7285 240.369 73.0996C240.818 73.4707 241.043 73.9453 241.043 74.5234H239.953C239.953 74.2266 239.826 73.9707 239.572 73.7559C239.322 73.541 239.006 73.4336 238.623 73.4336C238.229 73.4336 237.92 73.5195 237.697 73.6914C237.475 73.8633 237.363 74.0879 237.363 74.3652C237.363 74.627 237.467 74.8242 237.674 74.957C237.881 75.0898 238.254 75.2168 238.793 75.3379C239.336 75.459 239.775 75.6035 240.111 75.7715C240.447 75.9395 240.695 76.1426 240.855 76.3809C241.02 76.6152 241.102 76.9023 241.102 77.2422C241.102 77.8086 240.875 78.2637 240.422 78.6074C239.969 78.9473 239.381 79.1172 238.658 79.1172C238.15 79.1172 237.701 79.0273 237.311 78.8477C236.92 78.668 236.613 78.418 236.391 78.0977C236.172 77.7734 236.062 77.4238 236.062 77.0488H237.146C237.166 77.4121 237.311 77.7012 237.58 77.916C237.854 78.127 238.213 78.2324 238.658 78.2324C239.068 78.2324 239.396 78.1504 239.643 77.9863C239.893 77.8184 240.018 77.5957 240.018 77.3184ZM243.598 73.4277C244.078 72.8379 244.703 72.543 245.473 72.543C246.812 72.543 247.488 73.2988 247.5 74.8105V79H246.416V74.8047C246.412 74.3477 246.307 74.0098 246.1 73.791C245.896 73.5723 245.578 73.4629 245.145 73.4629C244.793 73.4629 244.484 73.5566 244.219 73.7441C243.953 73.9316 243.746 74.1777 243.598 74.4824V79H242.514V70H243.598V73.4277Z" fill="#454ABC"/>
<path d="M133.863 12.6602L133.893 13.3633C134.357 12.8164 134.984 12.543 135.773 12.543C136.66 12.543 137.264 12.8828 137.584 13.5625C137.795 13.2578 138.068 13.0117 138.404 12.8242C138.744 12.6367 139.145 12.543 139.605 12.543C140.996 12.543 141.703 13.2793 141.727 14.752V19H140.643V14.8164C140.643 14.3633 140.539 14.0254 140.332 13.8027C140.125 13.5762 139.777 13.4629 139.289 13.4629C138.887 13.4629 138.553 13.584 138.287 13.8262C138.021 14.0645 137.867 14.3867 137.824 14.793V19H136.734V14.8457C136.734 13.9238 136.283 13.4629 135.381 13.4629C134.67 13.4629 134.184 13.7656 133.922 14.3711V19H132.838V12.6602H133.863ZM143.08 15.7715C143.08 15.1504 143.201 14.5918 143.443 14.0957C143.689 13.5996 144.029 13.2168 144.463 12.9473C144.9 12.6777 145.398 12.543 145.957 12.543C146.82 12.543 147.518 12.8418 148.049 13.4395C148.584 14.0371 148.852 14.832 148.852 15.8242V15.9004C148.852 16.5176 148.732 17.0723 148.494 17.5645C148.26 18.0527 147.922 18.4336 147.48 18.707C147.043 18.9805 146.539 19.1172 145.969 19.1172C145.109 19.1172 144.412 18.8184 143.877 18.2207C143.346 17.623 143.08 16.832 143.08 15.8477V15.7715ZM144.17 15.9004C144.17 16.6035 144.332 17.168 144.656 17.5938C144.984 18.0195 145.422 18.2324 145.969 18.2324C146.52 18.2324 146.957 18.0176 147.281 17.5879C147.605 17.1543 147.768 16.5488 147.768 15.7715C147.768 15.0762 147.602 14.5137 147.27 14.084C146.941 13.6504 146.504 13.4336 145.957 13.4336C145.422 13.4336 144.99 13.6465 144.662 14.0723C144.334 14.498 144.17 15.1074 144.17 15.9004ZM151.236 12.6602L151.271 13.457C151.756 12.8477 152.389 12.543 153.17 12.543C154.51 12.543 155.186 13.2988 155.197 14.8105V19H154.113V14.8047C154.109 14.3477 154.004 14.0098 153.797 13.791C153.594 13.5723 153.275 13.4629 152.842 13.4629C152.49 13.4629 152.182 13.5566 151.916 13.7441C151.65 13.9316 151.443 14.1777 151.295 14.4824V19H150.211V12.6602H151.236ZM159.463 19.1172C158.604 19.1172 157.904 18.8359 157.365 18.2734C156.826 17.707 156.557 16.9512 156.557 16.0059V15.8066C156.557 15.1777 156.676 14.6172 156.914 14.125C157.156 13.6289 157.492 13.2422 157.922 12.9648C158.355 12.6836 158.824 12.543 159.328 12.543C160.152 12.543 160.793 12.8145 161.25 13.3574C161.707 13.9004 161.936 14.6777 161.936 15.6895V16.1406H157.641C157.656 16.7656 157.838 17.2715 158.186 17.6582C158.537 18.041 158.982 18.2324 159.521 18.2324C159.904 18.2324 160.229 18.1543 160.494 17.998C160.76 17.8418 160.992 17.6348 161.191 17.377L161.854 17.8926C161.322 18.709 160.525 19.1172 159.463 19.1172ZM159.328 13.4336C158.891 13.4336 158.523 13.5938 158.227 13.9141C157.93 14.2305 157.746 14.6758 157.676 15.25H160.852V15.168C160.82 14.6172 160.672 14.1914 160.406 13.8906C160.141 13.5859 159.781 13.4336 159.328 13.4336ZM165.188 17.4121L166.664 12.6602H167.824L165.275 19.9785C164.881 21.0332 164.254 21.5605 163.395 21.5605L163.189 21.543L162.785 21.4668V20.5879L163.078 20.6113C163.445 20.6113 163.73 20.5371 163.934 20.3887C164.141 20.2402 164.311 19.9688 164.443 19.5742L164.684 18.9297L162.422 12.6602H163.605L165.188 17.4121Z" fill="black"/>
<line x1="150.5" y1="30" x2="150.5" y2="45" stroke="black"/>
<line x1="65.5" y1="45" x2="65.5" y2="60" stroke="black"/>
<line x1="235.5" y1="45" x2="235.5" y2="60" stroke="black"/>
<line x1="65.5" y1="90" x2="65.5" y2="105" stroke="black"/>
<line x1="235.5" y1="90" x2="235.5" y2="105" stroke="black"/>
<line x1="30.5" y1="105" x2="30.5" y2="120" stroke="black"/>
<line x1="100.5" y1="105" x2="100.5" y2="120" stroke="black"/>
<line x1="270.5" y1="105" x2="270.5" y2="120" stroke="black"/>
<line x1="200.5" y1="105" x2="200.5" y2="120" stroke="black"/>
<line x1="65" y1="44.5" x2="236" y2="44.5" stroke="black"/>
<line x1="30" y1="104.5" x2="101" y2="104.5" stroke="black"/>
<line x1="200" y1="104.5" x2="271" y2="104.5" stroke="black"/>
</svg>
