<svg width="300" height="120" viewBox="0 0 300 120" fill="none" xmlns="http://www.w3.org/2000/svg">
<g filter="url(#filter0_d)">
<rect x="10" y="10" width="280" height="100" rx="20" fill="white"/>
</g>
<path d="M53.585 40.1035V44H52.2725V34.0469H55.9434C57.0326 34.0469 57.8848 34.3249 58.5 34.8809C59.1198 35.4368 59.4297 36.1729 59.4297 37.0889C59.4297 38.055 59.1266 38.8001 58.5205 39.3242C57.9189 39.8438 57.0553 40.1035 55.9297 40.1035H53.585ZM53.585 39.0303H55.9434C56.6452 39.0303 57.1829 38.8662 57.5566 38.5381C57.9303 38.2054 58.1172 37.7269 58.1172 37.1025C58.1172 36.5101 57.9303 36.0361 57.5566 35.6807C57.1829 35.3252 56.6702 35.1406 56.0186 35.127H53.585V39.0303ZM62.2803 44H61.0156V33.5H62.2803V44ZM67.3799 44.1367C66.3773 44.1367 65.5615 43.8086 64.9326 43.1523C64.3037 42.4915 63.9893 41.6097 63.9893 40.5068V40.2744C63.9893 39.5407 64.1283 38.8867 64.4062 38.3125C64.6888 37.7337 65.0807 37.2826 65.582 36.959C66.0879 36.6309 66.6348 36.4668 67.2227 36.4668C68.1842 36.4668 68.9316 36.7835 69.4648 37.417C69.998 38.0505 70.2646 38.9574 70.2646 40.1377V40.6641H65.2539C65.2721 41.3932 65.484 41.9834 65.8896 42.4346C66.2998 42.8812 66.8193 43.1045 67.4482 43.1045C67.8949 43.1045 68.2731 43.0133 68.583 42.8311C68.8929 42.6488 69.1641 42.4072 69.3965 42.1064L70.1689 42.708C69.5492 43.6605 68.6195 44.1367 67.3799 44.1367ZM67.2227 37.5059C66.7122 37.5059 66.2839 37.6927 65.9375 38.0664C65.5911 38.4355 65.377 38.9551 65.2949 39.625H69V39.5293C68.9635 38.8867 68.7904 38.39 68.4805 38.0391C68.1706 37.6836 67.7513 37.5059 67.2227 37.5059ZM76.3008 44C76.2279 43.8542 76.1686 43.5944 76.123 43.2207C75.5352 43.8314 74.8333 44.1367 74.0176 44.1367C73.2884 44.1367 72.6891 43.9316 72.2197 43.5215C71.7549 43.1068 71.5225 42.5827 71.5225 41.9492C71.5225 41.179 71.8141 40.582 72.3975 40.1582C72.9854 39.7298 73.8102 39.5156 74.8721 39.5156H76.1025V38.9346C76.1025 38.4925 75.9704 38.1416 75.7061 37.8818C75.4417 37.6175 75.0521 37.4854 74.5371 37.4854C74.0859 37.4854 73.7077 37.5993 73.4023 37.8271C73.097 38.055 72.9443 38.3307 72.9443 38.6543H71.6729C71.6729 38.2852 71.8027 37.9297 72.0625 37.5879C72.3268 37.2415 72.6823 36.9681 73.1289 36.7676C73.5801 36.5671 74.0745 36.4668 74.6123 36.4668C75.4645 36.4668 76.1322 36.681 76.6152 37.1094C77.0983 37.5332 77.349 38.1188 77.3672 38.8662V42.2705C77.3672 42.9495 77.4538 43.4896 77.627 43.8906V44H76.3008ZM74.2021 43.0361C74.5986 43.0361 74.9746 42.9336 75.3301 42.7285C75.6855 42.5234 75.943 42.2568 76.1025 41.9287V40.4111H75.1113C73.5618 40.4111 72.7871 40.8646 72.7871 41.7715C72.7871 42.168 72.9193 42.4779 73.1836 42.7012C73.4479 42.9245 73.7874 43.0361 74.2021 43.0361ZM83.6562 42.0381C83.6562 41.6963 83.5264 41.432 83.2666 41.2451C83.0114 41.0537 82.5625 40.8896 81.9199 40.7529C81.2819 40.6162 80.7738 40.4521 80.3955 40.2607C80.0218 40.0693 79.7438 39.8415 79.5615 39.5771C79.3838 39.3128 79.2949 38.9984 79.2949 38.6338C79.2949 38.0277 79.5501 37.515 80.0605 37.0957C80.5755 36.6764 81.2318 36.4668 82.0293 36.4668C82.8678 36.4668 83.5469 36.6833 84.0664 37.1162C84.5905 37.5492 84.8525 38.1029 84.8525 38.7773H83.5811C83.5811 38.431 83.4329 38.1325 83.1367 37.8818C82.8451 37.6312 82.4759 37.5059 82.0293 37.5059C81.569 37.5059 81.209 37.6061 80.9492 37.8066C80.6895 38.0072 80.5596 38.2692 80.5596 38.5928C80.5596 38.8981 80.6803 39.1283 80.9219 39.2832C81.1634 39.4382 81.5986 39.5863 82.2275 39.7275C82.861 39.8688 83.3737 40.0374 83.7656 40.2334C84.1576 40.4294 84.4469 40.6663 84.6338 40.9443C84.8252 41.2178 84.9209 41.5527 84.9209 41.9492C84.9209 42.61 84.6566 43.141 84.1279 43.542C83.5993 43.9385 82.9134 44.1367 82.0703 44.1367C81.4779 44.1367 80.9538 44.0319 80.498 43.8223C80.0423 43.6126 79.6846 43.321 79.4248 42.9473C79.1696 42.569 79.042 42.1611 79.042 41.7236H80.3066C80.3294 42.1475 80.498 42.4847 80.8125 42.7354C81.1315 42.9814 81.5508 43.1045 82.0703 43.1045C82.5488 43.1045 82.9316 43.0088 83.2188 42.8174C83.5104 42.6214 83.6562 42.3617 83.6562 42.0381ZM89.6377 44.1367C88.6351 44.1367 87.8193 43.8086 87.1904 43.1523C86.5615 42.4915 86.2471 41.6097 86.2471 40.5068V40.2744C86.2471 39.5407 86.3861 38.8867 86.6641 38.3125C86.9466 37.7337 87.3385 37.2826 87.8398 36.959C88.3457 36.6309 88.8926 36.4668 89.4805 36.4668C90.4421 36.4668 91.1895 36.7835 91.7227 37.417C92.2559 38.0505 92.5225 38.9574 92.5225 40.1377V40.6641H87.5117C87.5299 41.3932 87.7419 41.9834 88.1475 42.4346C88.5576 42.8812 89.0771 43.1045 89.7061 43.1045C90.1527 43.1045 90.5309 43.0133 90.8408 42.8311C91.1507 42.6488 91.4219 42.4072 91.6543 42.1064L92.4268 42.708C91.807 43.6605 90.8773 44.1367 89.6377 44.1367ZM89.4805 37.5059C88.9701 37.5059 88.5417 37.6927 88.1953 38.0664C87.849 38.4355 87.6348 38.9551 87.5527 39.625H91.2578V39.5293C91.2214 38.8867 91.0482 38.39 90.7383 38.0391C90.4284 37.6836 90.0091 37.5059 89.4805 37.5059ZM100.432 43.1045C100.883 43.1045 101.277 42.9678 101.614 42.6943C101.951 42.4209 102.138 42.0791 102.175 41.6689H103.371C103.348 42.0928 103.202 42.4961 102.934 42.8789C102.665 43.2617 102.305 43.5671 101.854 43.7949C101.407 44.0228 100.933 44.1367 100.432 44.1367C99.4245 44.1367 98.6224 43.8018 98.0254 43.1318C97.4329 42.4574 97.1367 41.5368 97.1367 40.3701V40.1582C97.1367 39.4382 97.2689 38.7979 97.5332 38.2373C97.7975 37.6768 98.1758 37.2415 98.668 36.9316C99.1647 36.6217 99.7503 36.4668 100.425 36.4668C101.254 36.4668 101.942 36.7152 102.489 37.2119C103.041 37.7087 103.335 38.3535 103.371 39.1465H102.175C102.138 38.668 101.956 38.276 101.628 37.9707C101.304 37.6608 100.903 37.5059 100.425 37.5059C99.7822 37.5059 99.2832 37.7383 98.9277 38.2031C98.5768 38.6634 98.4014 39.3311 98.4014 40.2061V40.4453C98.4014 41.2975 98.5768 41.9538 98.9277 42.4141C99.2786 42.8743 99.7799 43.1045 100.432 43.1045ZM106.167 44H104.902V33.5H106.167V44ZM109.571 44H108.307V36.6035H109.571V44ZM108.204 34.6416C108.204 34.4365 108.266 34.2633 108.389 34.1221C108.516 33.9808 108.703 33.9102 108.949 33.9102C109.195 33.9102 109.382 33.9808 109.51 34.1221C109.637 34.2633 109.701 34.4365 109.701 34.6416C109.701 34.8467 109.637 35.0176 109.51 35.1543C109.382 35.291 109.195 35.3594 108.949 35.3594C108.703 35.3594 108.516 35.291 108.389 35.1543C108.266 35.0176 108.204 34.8467 108.204 34.6416ZM114.568 43.1045C115.02 43.1045 115.414 42.9678 115.751 42.6943C116.088 42.4209 116.275 42.0791 116.312 41.6689H117.508C117.485 42.0928 117.339 42.4961 117.07 42.8789C116.801 43.2617 116.441 43.5671 115.99 43.7949C115.544 44.0228 115.07 44.1367 114.568 44.1367C113.561 44.1367 112.759 43.8018 112.162 43.1318C111.57 42.4574 111.273 41.5368 111.273 40.3701V40.1582C111.273 39.4382 111.406 38.7979 111.67 38.2373C111.934 37.6768 112.312 37.2415 112.805 36.9316C113.301 36.6217 113.887 36.4668 114.562 36.4668C115.391 36.4668 116.079 36.7152 116.626 37.2119C117.177 37.7087 117.471 38.3535 117.508 39.1465H116.312C116.275 38.668 116.093 38.276 115.765 37.9707C115.441 37.6608 115.04 37.5059 114.562 37.5059C113.919 37.5059 113.42 37.7383 113.064 38.2031C112.714 38.6634 112.538 39.3311 112.538 40.2061V40.4453C112.538 41.2975 112.714 41.9538 113.064 42.4141C113.415 42.8743 113.917 43.1045 114.568 43.1045ZM120.994 40.5752L120.201 41.4023V44H118.937V33.5H120.201V39.8506L120.878 39.0371L123.182 36.6035H124.72L121.842 39.6934L125.055 44H123.571L120.994 40.5752ZM131.918 42.1475L133.641 36.6035H134.994L132.021 45.1416C131.56 46.3721 130.829 46.9873 129.826 46.9873L129.587 46.9668L129.115 46.8779V45.8525L129.457 45.8799C129.885 45.8799 130.218 45.7933 130.455 45.6201C130.697 45.4469 130.895 45.1302 131.05 44.6699L131.33 43.918L128.691 36.6035H130.072L131.918 42.1475ZM135.685 40.2334C135.685 39.5088 135.826 38.8571 136.108 38.2783C136.396 37.6995 136.792 37.2529 137.298 36.9385C137.808 36.624 138.389 36.4668 139.041 36.4668C140.048 36.4668 140.862 36.8154 141.481 37.5127C142.106 38.21 142.418 39.1374 142.418 40.2949V40.3838C142.418 41.1038 142.279 41.751 142.001 42.3252C141.728 42.8949 141.333 43.3392 140.818 43.6582C140.308 43.9772 139.72 44.1367 139.055 44.1367C138.052 44.1367 137.239 43.7881 136.614 43.0908C135.994 42.3936 135.685 41.4707 135.685 40.3223V40.2334ZM136.956 40.3838C136.956 41.2041 137.145 41.8626 137.523 42.3594C137.906 42.8561 138.417 43.1045 139.055 43.1045C139.697 43.1045 140.208 42.8538 140.586 42.3525C140.964 41.8467 141.153 41.1403 141.153 40.2334C141.153 39.4222 140.96 38.766 140.572 38.2646C140.189 37.7588 139.679 37.5059 139.041 37.5059C138.417 37.5059 137.913 37.7542 137.53 38.251C137.147 38.7477 136.956 39.4587 136.956 40.3838ZM148.57 43.2686C148.078 43.8473 147.356 44.1367 146.403 44.1367C145.615 44.1367 145.013 43.9089 144.599 43.4531C144.188 42.9928 143.981 42.3138 143.977 41.416V36.6035H145.241V41.3818C145.241 42.5029 145.697 43.0635 146.608 43.0635C147.575 43.0635 148.217 42.7035 148.536 41.9834V36.6035H149.801V44H148.598L148.57 43.2686ZM155.304 37.7383C155.112 37.7064 154.905 37.6904 154.682 37.6904C153.852 37.6904 153.289 38.0436 152.993 38.75V44H151.729V36.6035H152.959L152.979 37.458C153.394 36.7972 153.982 36.4668 154.743 36.4668C154.989 36.4668 155.176 36.4987 155.304 36.5625V37.7383ZM159.638 40.2402C159.638 39.1055 159.907 38.194 160.444 37.5059C160.982 36.8132 161.686 36.4668 162.557 36.4668C163.423 36.4668 164.108 36.763 164.614 37.3555V33.5H165.879V44H164.717L164.655 43.207C164.149 43.8268 163.445 44.1367 162.543 44.1367C161.686 44.1367 160.987 43.7858 160.444 43.084C159.907 42.3822 159.638 41.4661 159.638 40.3359V40.2402ZM160.902 40.3838C160.902 41.2223 161.076 41.8786 161.422 42.3525C161.768 42.8265 162.247 43.0635 162.857 43.0635C163.66 43.0635 164.245 42.7035 164.614 41.9834V38.5859C164.236 37.8887 163.655 37.54 162.871 37.54C162.251 37.54 161.768 37.7793 161.422 38.2578C161.076 38.7363 160.902 39.445 160.902 40.3838ZM170.917 44.1367C169.914 44.1367 169.099 43.8086 168.47 43.1523C167.841 42.4915 167.526 41.6097 167.526 40.5068V40.2744C167.526 39.5407 167.665 38.8867 167.943 38.3125C168.226 37.7337 168.618 37.2826 169.119 36.959C169.625 36.6309 170.172 36.4668 170.76 36.4668C171.721 36.4668 172.469 36.7835 173.002 37.417C173.535 38.0505 173.802 38.9574 173.802 40.1377V40.6641H168.791C168.809 41.3932 169.021 41.9834 169.427 42.4346C169.837 42.8812 170.356 43.1045 170.985 43.1045C171.432 43.1045 171.81 43.0133 172.12 42.8311C172.43 42.6488 172.701 42.4072 172.934 42.1064L173.706 42.708C173.086 43.6605 172.157 44.1367 170.917 44.1367ZM170.76 37.5059C170.249 37.5059 169.821 37.6927 169.475 38.0664C169.128 38.4355 168.914 38.9551 168.832 39.625H172.537V39.5293C172.501 38.8867 172.327 38.39 172.018 38.0391C171.708 37.6836 171.288 37.5059 170.76 37.5059ZM179.578 42.0381C179.578 41.6963 179.448 41.432 179.188 41.2451C178.933 41.0537 178.484 40.8896 177.842 40.7529C177.204 40.6162 176.696 40.4521 176.317 40.2607C175.944 40.0693 175.666 39.8415 175.483 39.5771C175.306 39.3128 175.217 38.9984 175.217 38.6338C175.217 38.0277 175.472 37.515 175.982 37.0957C176.497 36.6764 177.154 36.4668 177.951 36.4668C178.79 36.4668 179.469 36.6833 179.988 37.1162C180.512 37.5492 180.774 38.1029 180.774 38.7773H179.503C179.503 38.431 179.355 38.1325 179.059 37.8818C178.767 37.6312 178.398 37.5059 177.951 37.5059C177.491 37.5059 177.131 37.6061 176.871 37.8066C176.611 38.0072 176.481 38.2692 176.481 38.5928C176.481 38.8981 176.602 39.1283 176.844 39.2832C177.085 39.4382 177.521 39.5863 178.149 39.7275C178.783 39.8688 179.296 40.0374 179.688 40.2334C180.079 40.4294 180.369 40.6663 180.556 40.9443C180.747 41.2178 180.843 41.5527 180.843 41.9492C180.843 42.61 180.578 43.141 180.05 43.542C179.521 43.9385 178.835 44.1367 177.992 44.1367C177.4 44.1367 176.876 44.0319 176.42 43.8223C175.964 43.6126 175.606 43.321 175.347 42.9473C175.091 42.569 174.964 42.1611 174.964 41.7236H176.229C176.251 42.1475 176.42 42.4847 176.734 42.7354C177.053 42.9814 177.473 43.1045 177.992 43.1045C178.471 43.1045 178.854 43.0088 179.141 42.8174C179.432 42.6214 179.578 42.3617 179.578 42.0381ZM183.864 44H182.6V36.6035H183.864V44ZM182.497 34.6416C182.497 34.4365 182.559 34.2633 182.682 34.1221C182.809 33.9808 182.996 33.9102 183.242 33.9102C183.488 33.9102 183.675 33.9808 183.803 34.1221C183.93 34.2633 183.994 34.4365 183.994 34.6416C183.994 34.8467 183.93 35.0176 183.803 35.1543C183.675 35.291 183.488 35.3594 183.242 35.3594C182.996 35.3594 182.809 35.291 182.682 35.1543C182.559 35.0176 182.497 34.8467 182.497 34.6416ZM189.47 37.7383C189.278 37.7064 189.071 37.6904 188.848 37.6904C188.018 37.6904 187.455 38.0436 187.159 38.75V44H185.895V36.6035H187.125L187.146 37.458C187.56 36.7972 188.148 36.4668 188.909 36.4668C189.155 36.4668 189.342 36.4987 189.47 36.5625V37.7383ZM193.571 44.1367C192.569 44.1367 191.753 43.8086 191.124 43.1523C190.495 42.4915 190.181 41.6097 190.181 40.5068V40.2744C190.181 39.5407 190.32 38.8867 190.598 38.3125C190.88 37.7337 191.272 37.2826 191.773 36.959C192.279 36.6309 192.826 36.4668 193.414 36.4668C194.376 36.4668 195.123 36.7835 195.656 37.417C196.189 38.0505 196.456 38.9574 196.456 40.1377V40.6641H191.445C191.464 41.3932 191.675 41.9834 192.081 42.4346C192.491 42.8812 193.011 43.1045 193.64 43.1045C194.086 43.1045 194.465 43.0133 194.774 42.8311C195.084 42.6488 195.355 42.4072 195.588 42.1064L196.36 42.708C195.741 43.6605 194.811 44.1367 193.571 44.1367ZM193.414 37.5059C192.904 37.5059 192.475 37.6927 192.129 38.0664C191.783 38.4355 191.568 38.9551 191.486 39.625H195.191V39.5293C195.155 38.8867 194.982 38.39 194.672 38.0391C194.362 37.6836 193.943 37.5059 193.414 37.5059ZM197.618 40.2402C197.618 39.1055 197.887 38.194 198.425 37.5059C198.963 36.8132 199.667 36.4668 200.537 36.4668C201.403 36.4668 202.089 36.763 202.595 37.3555V33.5H203.859V44H202.697L202.636 43.207C202.13 43.8268 201.426 44.1367 200.523 44.1367C199.667 44.1367 198.967 43.7858 198.425 43.084C197.887 42.3822 197.618 41.4661 197.618 40.3359V40.2402ZM198.883 40.3838C198.883 41.2223 199.056 41.8786 199.402 42.3525C199.749 42.8265 200.227 43.0635 200.838 43.0635C201.64 43.0635 202.226 42.7035 202.595 41.9834V38.5859C202.216 37.8887 201.635 37.54 200.852 37.54C200.232 37.54 199.749 37.7793 199.402 38.2578C199.056 38.7363 198.883 39.445 198.883 40.3838ZM208.966 40.2334C208.966 39.5088 209.107 38.8571 209.39 38.2783C209.677 37.6995 210.073 37.2529 210.579 36.9385C211.09 36.624 211.671 36.4668 212.322 36.4668C213.329 36.4668 214.143 36.8154 214.763 37.5127C215.387 38.21 215.699 39.1374 215.699 40.2949V40.3838C215.699 41.1038 215.56 41.751 215.282 42.3252C215.009 42.8949 214.615 43.3392 214.1 43.6582C213.589 43.9772 213.001 44.1367 212.336 44.1367C211.333 44.1367 210.52 43.7881 209.896 43.0908C209.276 42.3936 208.966 41.4707 208.966 40.3223V40.2334ZM210.237 40.3838C210.237 41.2041 210.426 41.8626 210.805 42.3594C211.188 42.8561 211.698 43.1045 212.336 43.1045C212.979 43.1045 213.489 42.8538 213.867 42.3525C214.245 41.8467 214.435 41.1403 214.435 40.2334C214.435 39.4222 214.241 38.766 213.854 38.2646C213.471 37.7588 212.96 37.5059 212.322 37.5059C211.698 37.5059 211.194 37.7542 210.812 38.251C210.429 38.7477 210.237 39.4587 210.237 40.3838ZM223.533 40.3838C223.533 41.5094 223.276 42.4163 222.761 43.1045C222.246 43.7926 221.549 44.1367 220.669 44.1367C219.771 44.1367 219.065 43.8519 218.55 43.2822V46.8438H217.285V36.6035H218.44L218.502 37.4238C219.017 36.7858 219.732 36.4668 220.648 36.4668C221.537 36.4668 222.239 36.8018 222.754 37.4717C223.273 38.1416 223.533 39.0736 223.533 40.2676V40.3838ZM222.269 40.2402C222.269 39.4062 222.091 38.7477 221.735 38.2646C221.38 37.7816 220.892 37.54 220.272 37.54C219.507 37.54 218.933 37.8796 218.55 38.5586V42.0928C218.928 42.7673 219.507 43.1045 220.286 43.1045C220.892 43.1045 221.373 42.8652 221.729 42.3867C222.089 41.9036 222.269 41.1882 222.269 40.2402ZM226.862 34.8125V36.6035H228.243V37.5811H226.862V42.168C226.862 42.4642 226.924 42.6875 227.047 42.8379C227.17 42.9837 227.38 43.0566 227.676 43.0566C227.822 43.0566 228.022 43.0293 228.277 42.9746V44C227.945 44.0911 227.621 44.1367 227.307 44.1367C226.742 44.1367 226.315 43.9658 226.028 43.624C225.741 43.2822 225.598 42.7969 225.598 42.168V37.5811H224.251V36.6035H225.598V34.8125H226.862ZM231.101 44H229.836V36.6035H231.101V44ZM229.733 34.6416C229.733 34.4365 229.795 34.2633 229.918 34.1221C230.046 33.9808 230.232 33.9102 230.479 33.9102C230.725 33.9102 230.911 33.9808 231.039 34.1221C231.167 34.2633 231.23 34.4365 231.23 34.6416C231.23 34.8467 231.167 35.0176 231.039 35.1543C230.911 35.291 230.725 35.3594 230.479 35.3594C230.232 35.3594 230.046 35.291 229.918 35.1543C229.795 35.0176 229.733 34.8467 229.733 34.6416ZM232.796 40.2334C232.796 39.5088 232.937 38.8571 233.22 38.2783C233.507 37.6995 233.903 37.2529 234.409 36.9385C234.92 36.624 235.501 36.4668 236.152 36.4668C237.16 36.4668 237.973 36.8154 238.593 37.5127C239.217 38.21 239.529 39.1374 239.529 40.2949V40.3838C239.529 41.1038 239.39 41.751 239.112 42.3252C238.839 42.8949 238.445 43.3392 237.93 43.6582C237.419 43.9772 236.831 44.1367 236.166 44.1367C235.163 44.1367 234.35 43.7881 233.726 43.0908C233.106 42.3936 232.796 41.4707 232.796 40.3223V40.2334ZM234.067 40.3838C234.067 41.2041 234.257 41.8626 234.635 42.3594C235.018 42.8561 235.528 43.1045 236.166 43.1045C236.809 43.1045 237.319 42.8538 237.697 42.3525C238.076 41.8467 238.265 41.1403 238.265 40.2334C238.265 39.4222 238.071 38.766 237.684 38.2646C237.301 37.7588 236.79 37.5059 236.152 37.5059C235.528 37.5059 235.024 37.7542 234.642 38.251C234.259 38.7477 234.067 39.4587 234.067 40.3838ZM242.312 36.6035L242.353 37.5332C242.918 36.8223 243.656 36.4668 244.567 36.4668C246.131 36.4668 246.919 37.3486 246.933 39.1123V44H245.668V39.1055C245.663 38.5723 245.54 38.1781 245.299 37.9229C245.062 37.6676 244.69 37.54 244.185 37.54C243.774 37.54 243.414 37.6494 243.104 37.8682C242.795 38.0869 242.553 38.374 242.38 38.7295V44H241.115V36.6035H242.312Z" fill="black"/>
<path d="M197.668 80V70.0469H200.607C201.487 70.0469 202.266 70.2428 202.945 70.6348C203.629 71.0267 204.158 71.5827 204.531 72.3027C204.905 73.0228 205.092 73.8477 205.092 74.7773V75.2764C205.092 76.2197 204.903 77.0492 204.524 77.7646C204.151 78.4801 203.615 79.0316 202.918 79.4189C202.225 79.8063 201.43 80 200.532 80H197.668ZM199.397 71.4414V78.6191H200.525C201.432 78.6191 202.127 78.3366 202.61 77.7715C203.098 77.2018 203.346 76.3861 203.355 75.3242V74.7705C203.355 73.6904 203.121 72.8656 202.651 72.2959C202.182 71.7262 201.501 71.4414 200.607 71.4414H199.397ZM209.911 80.1367C208.858 80.1367 208.004 79.8063 207.348 79.1455C206.696 78.4801 206.37 77.596 206.37 76.4932V76.2881C206.37 75.5498 206.511 74.8913 206.794 74.3125C207.081 73.7292 207.482 73.2757 207.997 72.9521C208.512 72.6286 209.086 72.4668 209.72 72.4668C210.727 72.4668 211.504 72.7881 212.051 73.4307C212.602 74.0732 212.878 74.9824 212.878 76.1582V76.8281H208.045C208.095 77.4388 208.298 77.9219 208.653 78.2773C209.013 78.6328 209.465 78.8105 210.007 78.8105C210.768 78.8105 211.388 78.5029 211.866 77.8877L212.762 78.7422C212.465 79.1842 212.069 79.5283 211.572 79.7744C211.08 80.016 210.526 80.1367 209.911 80.1367ZM209.713 73.7998C209.257 73.7998 208.888 73.9593 208.605 74.2783C208.327 74.5973 208.15 75.0417 208.072 75.6113H211.237V75.4883C211.201 74.9323 211.053 74.513 210.793 74.2305C210.533 73.9434 210.173 73.7998 209.713 73.7998ZM218.319 77.9902C218.319 77.694 218.196 77.4684 217.95 77.3135C217.709 77.1585 217.305 77.0218 216.74 76.9033C216.175 76.7848 215.703 76.6344 215.325 76.4521C214.496 76.0511 214.081 75.4701 214.081 74.709C214.081 74.071 214.35 73.5378 214.888 73.1094C215.425 72.681 216.109 72.4668 216.938 72.4668C217.823 72.4668 218.536 72.6855 219.078 73.123C219.625 73.5605 219.898 74.1279 219.898 74.8252H218.237C218.237 74.5062 218.119 74.2419 217.882 74.0322C217.645 73.818 217.33 73.7109 216.938 73.7109C216.574 73.7109 216.275 73.7952 216.043 73.9639C215.815 74.1325 215.701 74.3581 215.701 74.6406C215.701 74.8958 215.808 75.0941 216.022 75.2354C216.237 75.3766 216.67 75.5202 217.321 75.666C217.973 75.8073 218.483 75.9782 218.853 76.1787C219.226 76.3747 219.502 76.6117 219.68 76.8896C219.862 77.1676 219.953 77.5049 219.953 77.9014C219.953 78.5667 219.677 79.1068 219.126 79.5215C218.575 79.9316 217.852 80.1367 216.959 80.1367C216.353 80.1367 215.813 80.0273 215.339 79.8086C214.865 79.5898 214.496 79.2891 214.231 78.9062C213.967 78.5234 213.835 78.111 213.835 77.6689H215.448C215.471 78.0609 215.619 78.3639 215.893 78.5781C216.166 78.7878 216.528 78.8926 216.979 78.8926C217.417 78.8926 217.75 78.8105 217.978 78.6465C218.205 78.4779 218.319 78.2591 218.319 77.9902ZM223.173 80H221.512V72.6035H223.173V80ZM221.409 70.6826C221.409 70.4274 221.489 70.2155 221.648 70.0469C221.812 69.8783 222.045 69.7939 222.346 69.7939C222.646 69.7939 222.879 69.8783 223.043 70.0469C223.207 70.2155 223.289 70.4274 223.289 70.6826C223.289 70.9333 223.207 71.1429 223.043 71.3115C222.879 71.4756 222.646 71.5576 222.346 71.5576C222.045 71.5576 221.812 71.4756 221.648 71.3115C221.489 71.1429 221.409 70.9333 221.409 70.6826ZM228.86 74.1211C228.642 74.0846 228.416 74.0664 228.184 74.0664C227.423 74.0664 226.91 74.3581 226.646 74.9414V80H224.984V72.6035H226.57L226.611 73.4307C227.012 72.7881 227.568 72.4668 228.279 72.4668C228.516 72.4668 228.712 72.4987 228.867 72.5625L228.86 74.1211ZM233.03 80.1367C231.978 80.1367 231.123 79.8063 230.467 79.1455C229.815 78.4801 229.489 77.596 229.489 76.4932V76.2881C229.489 75.5498 229.631 74.8913 229.913 74.3125C230.2 73.7292 230.601 73.2757 231.116 72.9521C231.631 72.6286 232.205 72.4668 232.839 72.4668C233.846 72.4668 234.623 72.7881 235.17 73.4307C235.721 74.0732 235.997 74.9824 235.997 76.1582V76.8281H231.164C231.214 77.4388 231.417 77.9219 231.772 78.2773C232.132 78.6328 232.584 78.8105 233.126 78.8105C233.887 78.8105 234.507 78.5029 234.985 77.8877L235.881 78.7422C235.585 79.1842 235.188 79.5283 234.691 79.7744C234.199 80.016 233.646 80.1367 233.03 80.1367ZM232.832 73.7998C232.376 73.7998 232.007 73.9593 231.725 74.2783C231.447 74.5973 231.269 75.0417 231.191 75.6113H234.356V75.4883C234.32 74.9323 234.172 74.513 233.912 74.2305C233.652 73.9434 233.292 73.7998 232.832 73.7998ZM236.981 76.2471C236.981 75.1077 237.246 74.194 237.774 73.5059C238.303 72.8132 239.012 72.4668 239.9 72.4668C240.684 72.4668 241.318 72.7402 241.801 73.2871V69.5H243.462V80H241.958L241.876 79.2344C241.379 79.8359 240.716 80.1367 239.887 80.1367C239.021 80.1367 238.319 79.7881 237.781 79.0908C237.248 78.3936 236.981 77.4456 236.981 76.2471ZM238.643 76.3906C238.643 77.1426 238.786 77.7305 239.073 78.1543C239.365 78.5736 239.777 78.7832 240.311 78.7832C240.99 78.7832 241.486 78.4801 241.801 77.874V74.7158C241.495 74.1234 241.003 73.8271 240.324 73.8271C239.786 73.8271 239.372 74.0413 239.08 74.4697C238.788 74.8936 238.643 75.5339 238.643 76.3906Z" fill="#0046FB"/>
<path d="M56.1074 70.0469V76.6982C56.1074 77.7555 55.7679 78.5941 55.0889 79.2139C54.4144 79.8291 53.5143 80.1367 52.3887 80.1367C51.2493 80.1367 50.3447 79.8337 49.6748 79.2275C49.0049 78.6169 48.6699 77.7715 48.6699 76.6914V70.0469H50.3926V76.7051C50.3926 77.3704 50.5612 77.8786 50.8984 78.2295C51.2357 78.5804 51.7324 78.7559 52.3887 78.7559C53.7194 78.7559 54.3848 78.054 54.3848 76.6504V70.0469H56.1074ZM59.3408 72.6035L59.3887 73.458C59.9355 72.7972 60.6533 72.4668 61.542 72.4668C63.0824 72.4668 63.8662 73.3486 63.8936 75.1123V80H62.2324V75.208C62.2324 74.7386 62.1299 74.3923 61.9248 74.1689C61.7243 73.9411 61.3939 73.8271 60.9336 73.8271C60.2637 73.8271 59.7646 74.1302 59.4365 74.7363V80H57.7754V72.6035H59.3408ZM65.2812 76.2471C65.2812 75.1077 65.5456 74.194 66.0742 73.5059C66.6029 72.8132 67.3115 72.4668 68.2002 72.4668C68.984 72.4668 69.6175 72.7402 70.1006 73.2871V69.5H71.7617V80H70.2578L70.1758 79.2344C69.679 79.8359 69.016 80.1367 68.1865 80.1367C67.3206 80.1367 66.6188 79.7881 66.0811 79.0908C65.5479 78.3936 65.2812 77.4456 65.2812 76.2471ZM66.9424 76.3906C66.9424 77.1426 67.0859 77.7305 67.373 78.1543C67.6647 78.5736 68.0771 78.7832 68.6104 78.7832C69.2894 78.7832 69.7861 78.4801 70.1006 77.874V74.7158C69.7952 74.1234 69.3031 73.8271 68.624 73.8271C68.0863 73.8271 67.6715 74.0413 67.3799 74.4697C67.0882 74.8936 66.9424 75.5339 66.9424 76.3906ZM76.752 80.1367C75.6992 80.1367 74.8447 79.8063 74.1885 79.1455C73.5368 78.4801 73.2109 77.596 73.2109 76.4932V76.2881C73.2109 75.5498 73.3522 74.8913 73.6348 74.3125C73.9219 73.7292 74.3229 73.2757 74.8379 72.9521C75.3529 72.6286 75.9271 72.4668 76.5605 72.4668C77.5677 72.4668 78.3447 72.7881 78.8916 73.4307C79.443 74.0732 79.7188 74.9824 79.7188 76.1582V76.8281H74.8857C74.9359 77.4388 75.1387 77.9219 75.4941 78.2773C75.8542 78.6328 76.3053 78.8105 76.8477 78.8105C77.6087 78.8105 78.2285 78.5029 78.707 77.8877L79.6025 78.7422C79.3063 79.1842 78.9098 79.5283 78.4131 79.7744C77.9209 80.016 77.3672 80.1367 76.752 80.1367ZM76.5537 73.7998C76.098 73.7998 75.7288 73.9593 75.4463 74.2783C75.1683 74.5973 74.9906 75.0417 74.9131 75.6113H78.0781V75.4883C78.0417 74.9323 77.8936 74.513 77.6338 74.2305C77.374 73.9434 77.014 73.7998 76.5537 73.7998ZM85.1602 77.9902C85.1602 77.694 85.0371 77.4684 84.791 77.3135C84.5495 77.1585 84.1462 77.0218 83.5811 76.9033C83.016 76.7848 82.5443 76.6344 82.166 76.4521C81.3366 76.0511 80.9219 75.4701 80.9219 74.709C80.9219 74.071 81.1908 73.5378 81.7285 73.1094C82.2663 72.681 82.9499 72.4668 83.7793 72.4668C84.6634 72.4668 85.3766 72.6855 85.9189 73.123C86.4658 73.5605 86.7393 74.1279 86.7393 74.8252H85.0781C85.0781 74.5062 84.9596 74.2419 84.7227 74.0322C84.4857 73.818 84.1712 73.7109 83.7793 73.7109C83.4147 73.7109 83.1162 73.7952 82.8838 73.9639C82.6559 74.1325 82.542 74.3581 82.542 74.6406C82.542 74.8958 82.6491 75.0941 82.8633 75.2354C83.0775 75.3766 83.5104 75.5202 84.1621 75.666C84.8138 75.8073 85.3242 75.9782 85.6934 76.1787C86.0671 76.3747 86.3428 76.6117 86.5205 76.8896C86.7028 77.1676 86.7939 77.5049 86.7939 77.9014C86.7939 78.5667 86.5182 79.1068 85.9668 79.5215C85.4154 79.9316 84.693 80.1367 83.7998 80.1367C83.1937 80.1367 82.6536 80.0273 82.1797 79.8086C81.7057 79.5898 81.3366 79.2891 81.0723 78.9062C80.8079 78.5234 80.6758 78.111 80.6758 77.6689H82.2891C82.3118 78.0609 82.46 78.3639 82.7334 78.5781C83.0068 78.7878 83.3691 78.8926 83.8203 78.8926C84.2578 78.8926 84.5905 78.8105 84.8184 78.6465C85.0462 78.4779 85.1602 78.2591 85.1602 77.9902ZM90.0137 80H88.3525V72.6035H90.0137V80ZM88.25 70.6826C88.25 70.4274 88.3298 70.2155 88.4893 70.0469C88.6533 69.8783 88.8857 69.7939 89.1865 69.7939C89.4873 69.7939 89.7197 69.8783 89.8838 70.0469C90.0479 70.2155 90.1299 70.4274 90.1299 70.6826C90.1299 70.9333 90.0479 71.1429 89.8838 71.3115C89.7197 71.4756 89.4873 71.5576 89.1865 71.5576C88.8857 71.5576 88.6533 71.4756 88.4893 71.3115C88.3298 71.1429 88.25 70.9333 88.25 70.6826ZM95.7012 74.1211C95.4824 74.0846 95.2568 74.0664 95.0244 74.0664C94.2633 74.0664 93.7507 74.3581 93.4863 74.9414V80H91.8252V72.6035H93.4111L93.4521 73.4307C93.8532 72.7881 94.4092 72.4668 95.1201 72.4668C95.3571 72.4668 95.5531 72.4987 95.708 72.5625L95.7012 74.1211ZM99.8711 80.1367C98.8184 80.1367 97.9639 79.8063 97.3076 79.1455C96.6559 78.4801 96.3301 77.596 96.3301 76.4932V76.2881C96.3301 75.5498 96.4714 74.8913 96.7539 74.3125C97.041 73.7292 97.4421 73.2757 97.957 72.9521C98.472 72.6286 99.0462 72.4668 99.6797 72.4668C100.687 72.4668 101.464 72.7881 102.011 73.4307C102.562 74.0732 102.838 74.9824 102.838 76.1582V76.8281H98.0049C98.055 77.4388 98.2578 77.9219 98.6133 78.2773C98.9733 78.6328 99.4245 78.8105 99.9668 78.8105C100.728 78.8105 101.348 78.5029 101.826 77.8877L102.722 78.7422C102.425 79.1842 102.029 79.5283 101.532 79.7744C101.04 80.016 100.486 80.1367 99.8711 80.1367ZM99.6729 73.7998C99.2171 73.7998 98.848 73.9593 98.5654 74.2783C98.2874 74.5973 98.1097 75.0417 98.0322 75.6113H101.197V75.4883C101.161 74.9323 101.013 74.513 100.753 74.2305C100.493 73.9434 100.133 73.7998 99.6729 73.7998ZM103.822 76.2471C103.822 75.1077 104.087 74.194 104.615 73.5059C105.144 72.8132 105.853 72.4668 106.741 72.4668C107.525 72.4668 108.159 72.7402 108.642 73.2871V69.5H110.303V80H108.799L108.717 79.2344C108.22 79.8359 107.557 80.1367 106.728 80.1367C105.862 80.1367 105.16 79.7881 104.622 79.0908C104.089 78.3936 103.822 77.4456 103.822 76.2471ZM105.483 76.3906C105.483 77.1426 105.627 77.7305 105.914 78.1543C106.206 78.5736 106.618 78.7832 107.151 78.7832C107.83 78.7832 108.327 78.4801 108.642 77.874V74.7158C108.336 74.1234 107.844 73.8271 107.165 73.8271C106.627 73.8271 106.213 74.0413 105.921 74.4697C105.629 74.8936 105.483 75.5339 105.483 76.3906Z" fill="#515151"/>
<line x1="152.5" y1="64" x2="152.5" y2="87" stroke="#515151"/>
<defs>
<filter id="filter0_d" x="0" y="0" width="300" height="120" filterUnits="userSpaceOnUse" color-interpolation-filters="sRGB">
<feFlood flood-opacity="0" result="BackgroundImageFix"/>
<feColorMatrix in="SourceAlpha" type="matrix" values="0 0 0 0 0 0 0 0 0 0 0 0 0 0 0 0 0 0 127 0"/>
<feOffset/>
<feGaussianBlur stdDeviation="5"/>
<feColorMatrix type="matrix" values="0 0 0 0 0 0 0 0 0 0 0 0 0 0 0 0 0 0 0.16 0"/>
<feBlend mode="normal" in2="BackgroundImageFix" result="effect1_dropShadow"/>
<feBlend mode="normal" in="SourceGraphic" in2="effect1_dropShadow" result="shape"/>
</filter>
</defs>
</svg>
