<svg width="300" height="120" viewBox="0 0 300 120" fill="none" xmlns="http://www.w3.org/2000/svg">
<g filter="url(#filter0_d)">
<rect x="10" y="10" width="280" height="100" rx="20" fill="white"/>
</g>
<path d="M53.585 40.1035V44H52.2725V34.0469H55.9434C57.0326 34.0469 57.8848 34.3249 58.5 34.8809C59.1198 35.4368 59.4297 36.1729 59.4297 37.0889C59.4297 38.055 59.1266 38.8001 58.5205 39.3242C57.9189 39.8438 57.0553 40.1035 55.9297 40.1035H53.585ZM53.585 39.0303H55.9434C56.6452 39.0303 57.1829 38.8662 57.5566 38.5381C57.9303 38.2054 58.1172 37.7269 58.1172 37.1025C58.1172 36.5101 57.9303 36.0361 57.5566 35.6807C57.1829 35.3252 56.6702 35.1406 56.0186 35.127H53.585V39.0303ZM62.2803 44H61.0156V33.5H62.2803V44ZM67.3799 44.1367C66.3773 44.1367 65.5615 43.8086 64.9326 43.1523C64.3037 42.4915 63.9893 41.6097 63.9893 40.5068V40.2744C63.9893 39.5407 64.1283 38.8867 64.4062 38.3125C64.6888 37.7337 65.0807 37.2826 65.582 36.959C66.0879 36.6309 66.6348 36.4668 67.2227 36.4668C68.1842 36.4668 68.9316 36.7835 69.4648 37.417C69.998 38.0505 70.2646 38.9574 70.2646 40.1377V40.6641H65.2539C65.2721 41.3932 65.484 41.9834 65.8896 42.4346C66.2998 42.8812 66.8193 43.1045 67.4482 43.1045C67.8949 43.1045 68.2731 43.0133 68.583 42.8311C68.8929 42.6488 69.1641 42.4072 69.3965 42.1064L70.1689 42.708C69.5492 43.6605 68.6195 44.1367 67.3799 44.1367ZM67.2227 37.5059C66.7122 37.5059 66.2839 37.6927 65.9375 38.0664C65.5911 38.4355 65.377 38.9551 65.2949 39.625H69V39.5293C68.9635 38.8867 68.7904 38.39 68.4805 38.0391C68.1706 37.6836 67.7513 37.5059 67.2227 37.5059ZM76.3008 44C76.2279 43.8542 76.1686 43.5944 76.123 43.2207C75.5352 43.8314 74.8333 44.1367 74.0176 44.1367C73.2884 44.1367 72.6891 43.9316 72.2197 43.5215C71.7549 43.1068 71.5225 42.5827 71.5225 41.9492C71.5225 41.179 71.8141 40.582 72.3975 40.1582C72.9854 39.7298 73.8102 39.5156 74.8721 39.5156H76.1025V38.9346C76.1025 38.4925 75.9704 38.1416 75.7061 37.8818C75.4417 37.6175 75.0521 37.4854 74.5371 37.4854C74.0859 37.4854 73.7077 37.5993 73.4023 37.8271C73.097 38.055 72.9443 38.3307 72.9443 38.6543H71.6729C71.6729 38.2852 71.8027 37.9297 72.0625 37.5879C72.3268 37.2415 72.6823 36.9681 73.1289 36.7676C73.5801 36.5671 74.0745 36.4668 74.6123 36.4668C75.4645 36.4668 76.1322 36.681 76.6152 37.1094C77.0983 37.5332 77.349 38.1188 77.3672 38.8662V42.2705C77.3672 42.9495 77.4538 43.4896 77.627 43.8906V44H76.3008ZM74.2021 43.0361C74.5986 43.0361 74.9746 42.9336 75.3301 42.7285C75.6855 42.5234 75.943 42.2568 76.1025 41.9287V40.4111H75.1113C73.5618 40.4111 72.7871 40.8646 72.7871 41.7715C72.7871 42.168 72.9193 42.4779 73.1836 42.7012C73.4479 42.9245 73.7874 43.0361 74.2021 43.0361ZM83.6562 42.0381C83.6562 41.6963 83.5264 41.432 83.2666 41.2451C83.0114 41.0537 82.5625 40.8896 81.9199 40.7529C81.2819 40.6162 80.7738 40.4521 80.3955 40.2607C80.0218 40.0693 79.7438 39.8415 79.5615 39.5771C79.3838 39.3128 79.2949 38.9984 79.2949 38.6338C79.2949 38.0277 79.5501 37.515 80.0605 37.0957C80.5755 36.6764 81.2318 36.4668 82.0293 36.4668C82.8678 36.4668 83.5469 36.6833 84.0664 37.1162C84.5905 37.5492 84.8525 38.1029 84.8525 38.7773H83.5811C83.5811 38.431 83.4329 38.1325 83.1367 37.8818C82.8451 37.6312 82.4759 37.5059 82.0293 37.5059C81.569 37.5059 81.209 37.6061 80.9492 37.8066C80.6895 38.0072 80.5596 38.2692 80.5596 38.5928C80.5596 38.8981 80.6803 39.1283 80.9219 39.2832C81.1634 39.4382 81.5986 39.5863 82.2275 39.7275C82.861 39.8688 83.3737 40.0374 83.7656 40.2334C84.1576 40.4294 84.4469 40.6663 84.6338 40.9443C84.8252 41.2178 84.9209 41.5527 84.9209 41.9492C84.9209 42.61 84.6566 43.141 84.1279 43.542C83.5993 43.9385 82.9134 44.1367 82.0703 44.1367C81.4779 44.1367 80.9538 44.0319 80.498 43.8223C80.0423 43.6126 79.6846 43.321 79.4248 42.9473C79.1696 42.569 79.042 42.1611 79.042 41.7236H80.3066C80.3294 42.1475 80.498 42.4847 80.8125 42.7354C81.1315 42.9814 81.5508 43.1045 82.0703 43.1045C82.5488 43.1045 82.9316 43.0088 83.2188 42.8174C83.5104 42.6214 83.6562 42.3617 83.6562 42.0381ZM89.6377 44.1367C88.6351 44.1367 87.8193 43.8086 87.1904 43.1523C86.5615 42.4915 86.2471 41.6097 86.2471 40.5068V40.2744C86.2471 39.5407 86.3861 38.8867 86.6641 38.3125C86.9466 37.7337 87.3385 37.2826 87.8398 36.959C88.3457 36.6309 88.8926 36.4668 89.4805 36.4668C90.4421 36.4668 91.1895 36.7835 91.7227 37.417C92.2559 38.0505 92.5225 38.9574 92.5225 40.1377V40.6641H87.5117C87.5299 41.3932 87.7419 41.9834 88.1475 42.4346C88.5576 42.8812 89.0771 43.1045 89.7061 43.1045C90.1527 43.1045 90.5309 43.0133 90.8408 42.8311C91.1507 42.6488 91.4219 42.4072 91.6543 42.1064L92.4268 42.708C91.807 43.6605 90.8773 44.1367 89.6377 44.1367ZM89.4805 37.5059C88.9701 37.5059 88.5417 37.6927 88.1953 38.0664C87.849 38.4355 87.6348 38.9551 87.5527 39.625H91.2578V39.5293C91.2214 38.8867 91.0482 38.39 90.7383 38.0391C90.4284 37.6836 90.0091 37.5059 89.4805 37.5059ZM100.432 43.1045C100.883 43.1045 101.277 42.9678 101.614 42.6943C101.951 42.4209 102.138 42.0791 102.175 41.6689H103.371C103.348 42.0928 103.202 42.4961 102.934 42.8789C102.665 43.2617 102.305 43.5671 101.854 43.7949C101.407 44.0228 100.933 44.1367 100.432 44.1367C99.4245 44.1367 98.6224 43.8018 98.0254 43.1318C97.4329 42.4574 97.1367 41.5368 97.1367 40.3701V40.1582C97.1367 39.4382 97.2689 38.7979 97.5332 38.2373C97.7975 37.6768 98.1758 37.2415 98.668 36.9316C99.1647 36.6217 99.7503 36.4668 100.425 36.4668C101.254 36.4668 101.942 36.7152 102.489 37.2119C103.041 37.7087 103.335 38.3535 103.371 39.1465H102.175C102.138 38.668 101.956 38.276 101.628 37.9707C101.304 37.6608 100.903 37.5059 100.425 37.5059C99.7822 37.5059 99.2832 37.7383 98.9277 38.2031C98.5768 38.6634 98.4014 39.3311 98.4014 40.2061V40.4453C98.4014 41.2975 98.5768 41.9538 98.9277 42.4141C99.2786 42.8743 99.7799 43.1045 100.432 43.1045ZM106.167 44H104.902V33.5H106.167V44ZM109.571 44H108.307V36.6035H109.571V44ZM108.204 34.6416C108.204 34.4365 108.266 34.2633 108.389 34.1221C108.516 33.9808 108.703 33.9102 108.949 33.9102C109.195 33.9102 109.382 33.9808 109.51 34.1221C109.637 34.2633 109.701 34.4365 109.701 34.6416C109.701 34.8467 109.637 35.0176 109.51 35.1543C109.382 35.291 109.195 35.3594 108.949 35.3594C108.703 35.3594 108.516 35.291 108.389 35.1543C108.266 35.0176 108.204 34.8467 108.204 34.6416ZM114.568 43.1045C115.02 43.1045 115.414 42.9678 115.751 42.6943C116.088 42.4209 116.275 42.0791 116.312 41.6689H117.508C117.485 42.0928 117.339 42.4961 117.07 42.8789C116.801 43.2617 116.441 43.5671 115.99 43.7949C115.544 44.0228 115.07 44.1367 114.568 44.1367C113.561 44.1367 112.759 43.8018 112.162 43.1318C111.57 42.4574 111.273 41.5368 111.273 40.3701V40.1582C111.273 39.4382 111.406 38.7979 111.67 38.2373C111.934 37.6768 112.312 37.2415 112.805 36.9316C113.301 36.6217 113.887 36.4668 114.562 36.4668C115.391 36.4668 116.079 36.7152 116.626 37.2119C117.177 37.7087 117.471 38.3535 117.508 39.1465H116.312C116.275 38.668 116.093 38.276 115.765 37.9707C115.441 37.6608 115.04 37.5059 114.562 37.5059C113.919 37.5059 113.42 37.7383 113.064 38.2031C112.714 38.6634 112.538 39.3311 112.538 40.2061V40.4453C112.538 41.2975 112.714 41.9538 113.064 42.4141C113.415 42.8743 113.917 43.1045 114.568 43.1045ZM120.994 40.5752L120.201 41.4023V44H118.937V33.5H120.201V39.8506L120.878 39.0371L123.182 36.6035H124.72L121.842 39.6934L125.055 44H123.571L120.994 40.5752ZM131.918 42.1475L133.641 36.6035H134.994L132.021 45.1416C131.56 46.3721 130.829 46.9873 129.826 46.9873L129.587 46.9668L129.115 46.8779V45.8525L129.457 45.8799C129.885 45.8799 130.218 45.7933 130.455 45.6201C130.697 45.4469 130.895 45.1302 131.05 44.6699L131.33 43.918L128.691 36.6035H130.072L131.918 42.1475ZM135.685 40.2334C135.685 39.5088 135.826 38.8571 136.108 38.2783C136.396 37.6995 136.792 37.2529 137.298 36.9385C137.808 36.624 138.389 36.4668 139.041 36.4668C140.048 36.4668 140.862 36.8154 141.481 37.5127C142.106 38.21 142.418 39.1374 142.418 40.2949V40.3838C142.418 41.1038 142.279 41.751 142.001 42.3252C141.728 42.8949 141.333 43.3392 140.818 43.6582C140.308 43.9772 139.72 44.1367 139.055 44.1367C138.052 44.1367 137.239 43.7881 136.614 43.0908C135.994 42.3936 135.685 41.4707 135.685 40.3223V40.2334ZM136.956 40.3838C136.956 41.2041 137.145 41.8626 137.523 42.3594C137.906 42.8561 138.417 43.1045 139.055 43.1045C139.697 43.1045 140.208 42.8538 140.586 42.3525C140.964 41.8467 141.153 41.1403 141.153 40.2334C141.153 39.4222 140.96 38.766 140.572 38.2646C140.189 37.7588 139.679 37.5059 139.041 37.5059C138.417 37.5059 137.913 37.7542 137.53 38.251C137.147 38.7477 136.956 39.4587 136.956 40.3838ZM148.57 43.2686C148.078 43.8473 147.356 44.1367 146.403 44.1367C145.615 44.1367 145.013 43.9089 144.599 43.4531C144.188 42.9928 143.981 42.3138 143.977 41.416V36.6035H145.241V41.3818C145.241 42.5029 145.697 43.0635 146.608 43.0635C147.575 43.0635 148.217 42.7035 148.536 41.9834V36.6035H149.801V44H148.598L148.57 43.2686ZM155.304 37.7383C155.112 37.7064 154.905 37.6904 154.682 37.6904C153.852 37.6904 153.289 38.0436 152.993 38.75V44H151.729V36.6035H152.959L152.979 37.458C153.394 36.7972 153.982 36.4668 154.743 36.4668C154.989 36.4668 155.176 36.4987 155.304 36.5625V37.7383ZM159.638 40.2402C159.638 39.1055 159.907 38.194 160.444 37.5059C160.982 36.8132 161.686 36.4668 162.557 36.4668C163.423 36.4668 164.108 36.763 164.614 37.3555V33.5H165.879V44H164.717L164.655 43.207C164.149 43.8268 163.445 44.1367 162.543 44.1367C161.686 44.1367 160.987 43.7858 160.444 43.084C159.907 42.3822 159.638 41.4661 159.638 40.3359V40.2402ZM160.902 40.3838C160.902 41.2223 161.076 41.8786 161.422 42.3525C161.768 42.8265 162.247 43.0635 162.857 43.0635C163.66 43.0635 164.245 42.7035 164.614 41.9834V38.5859C164.236 37.8887 163.655 37.54 162.871 37.54C162.251 37.54 161.768 37.7793 161.422 38.2578C161.076 38.7363 160.902 39.445 160.902 40.3838ZM170.917 44.1367C169.914 44.1367 169.099 43.8086 168.47 43.1523C167.841 42.4915 167.526 41.6097 167.526 40.5068V40.2744C167.526 39.5407 167.665 38.8867 167.943 38.3125C168.226 37.7337 168.618 37.2826 169.119 36.959C169.625 36.6309 170.172 36.4668 170.76 36.4668C171.721 36.4668 172.469 36.7835 173.002 37.417C173.535 38.0505 173.802 38.9574 173.802 40.1377V40.6641H168.791C168.809 41.3932 169.021 41.9834 169.427 42.4346C169.837 42.8812 170.356 43.1045 170.985 43.1045C171.432 43.1045 171.81 43.0133 172.12 42.8311C172.43 42.6488 172.701 42.4072 172.934 42.1064L173.706 42.708C173.086 43.6605 172.157 44.1367 170.917 44.1367ZM170.76 37.5059C170.249 37.5059 169.821 37.6927 169.475 38.0664C169.128 38.4355 168.914 38.9551 168.832 39.625H172.537V39.5293C172.501 38.8867 172.327 38.39 172.018 38.0391C171.708 37.6836 171.288 37.5059 170.76 37.5059ZM179.578 42.0381C179.578 41.6963 179.448 41.432 179.188 41.2451C178.933 41.0537 178.484 40.8896 177.842 40.7529C177.204 40.6162 176.696 40.4521 176.317 40.2607C175.944 40.0693 175.666 39.8415 175.483 39.5771C175.306 39.3128 175.217 38.9984 175.217 38.6338C175.217 38.0277 175.472 37.515 175.982 37.0957C176.497 36.6764 177.154 36.4668 177.951 36.4668C178.79 36.4668 179.469 36.6833 179.988 37.1162C180.512 37.5492 180.774 38.1029 180.774 38.7773H179.503C179.503 38.431 179.355 38.1325 179.059 37.8818C178.767 37.6312 178.398 37.5059 177.951 37.5059C177.491 37.5059 177.131 37.6061 176.871 37.8066C176.611 38.0072 176.481 38.2692 176.481 38.5928C176.481 38.8981 176.602 39.1283 176.844 39.2832C177.085 39.4382 177.521 39.5863 178.149 39.7275C178.783 39.8688 179.296 40.0374 179.688 40.2334C180.079 40.4294 180.369 40.6663 180.556 40.9443C180.747 41.2178 180.843 41.5527 180.843 41.9492C180.843 42.61 180.578 43.141 180.05 43.542C179.521 43.9385 178.835 44.1367 177.992 44.1367C177.4 44.1367 176.876 44.0319 176.42 43.8223C175.964 43.6126 175.606 43.321 175.347 42.9473C175.091 42.569 174.964 42.1611 174.964 41.7236H176.229C176.251 42.1475 176.42 42.4847 176.734 42.7354C177.053 42.9814 177.473 43.1045 177.992 43.1045C178.471 43.1045 178.854 43.0088 179.141 42.8174C179.432 42.6214 179.578 42.3617 179.578 42.0381ZM183.864 44H182.6V36.6035H183.864V44ZM182.497 34.6416C182.497 34.4365 182.559 34.2633 182.682 34.1221C182.809 33.9808 182.996 33.9102 183.242 33.9102C183.488 33.9102 183.675 33.9808 183.803 34.1221C183.93 34.2633 183.994 34.4365 183.994 34.6416C183.994 34.8467 183.93 35.0176 183.803 35.1543C183.675 35.291 183.488 35.3594 183.242 35.3594C182.996 35.3594 182.809 35.291 182.682 35.1543C182.559 35.0176 182.497 34.8467 182.497 34.6416ZM189.47 37.7383C189.278 37.7064 189.071 37.6904 188.848 37.6904C188.018 37.6904 187.455 38.0436 187.159 38.75V44H185.895V36.6035H187.125L187.146 37.458C187.56 36.7972 188.148 36.4668 188.909 36.4668C189.155 36.4668 189.342 36.4987 189.47 36.5625V37.7383ZM193.571 44.1367C192.569 44.1367 191.753 43.8086 191.124 43.1523C190.495 42.4915 190.181 41.6097 190.181 40.5068V40.2744C190.181 39.5407 190.32 38.8867 190.598 38.3125C190.88 37.7337 191.272 37.2826 191.773 36.959C192.279 36.6309 192.826 36.4668 193.414 36.4668C194.376 36.4668 195.123 36.7835 195.656 37.417C196.189 38.0505 196.456 38.9574 196.456 40.1377V40.6641H191.445C191.464 41.3932 191.675 41.9834 192.081 42.4346C192.491 42.8812 193.011 43.1045 193.64 43.1045C194.086 43.1045 194.465 43.0133 194.774 42.8311C195.084 42.6488 195.355 42.4072 195.588 42.1064L196.36 42.708C195.741 43.6605 194.811 44.1367 193.571 44.1367ZM193.414 37.5059C192.904 37.5059 192.475 37.6927 192.129 38.0664C191.783 38.4355 191.568 38.9551 191.486 39.625H195.191V39.5293C195.155 38.8867 194.982 38.39 194.672 38.0391C194.362 37.6836 193.943 37.5059 193.414 37.5059ZM197.618 40.2402C197.618 39.1055 197.887 38.194 198.425 37.5059C198.963 36.8132 199.667 36.4668 200.537 36.4668C201.403 36.4668 202.089 36.763 202.595 37.3555V33.5H203.859V44H202.697L202.636 43.207C202.13 43.8268 201.426 44.1367 200.523 44.1367C199.667 44.1367 198.967 43.7858 198.425 43.084C197.887 42.3822 197.618 41.4661 197.618 40.3359V40.2402ZM198.883 40.3838C198.883 41.2223 199.056 41.8786 199.402 42.3525C199.749 42.8265 200.227 43.0635 200.838 43.0635C201.64 43.0635 202.226 42.7035 202.595 41.9834V38.5859C202.216 37.8887 201.635 37.54 200.852 37.54C200.232 37.54 199.749 37.7793 199.402 38.2578C199.056 38.7363 198.883 39.445 198.883 40.3838ZM208.966 40.2334C208.966 39.5088 209.107 38.8571 209.39 38.2783C209.677 37.6995 210.073 37.2529 210.579 36.9385C211.09 36.624 211.671 36.4668 212.322 36.4668C213.329 36.4668 214.143 36.8154 214.763 37.5127C215.387 38.21 215.699 39.1374 215.699 40.2949V40.3838C215.699 41.1038 215.56 41.751 215.282 42.3252C215.009 42.8949 214.615 43.3392 214.1 43.6582C213.589 43.9772 213.001 44.1367 212.336 44.1367C211.333 44.1367 210.52 43.7881 209.896 43.0908C209.276 42.3936 208.966 41.4707 208.966 40.3223V40.2334ZM210.237 40.3838C210.237 41.2041 210.426 41.8626 210.805 42.3594C211.188 42.8561 211.698 43.1045 212.336 43.1045C212.979 43.1045 213.489 42.8538 213.867 42.3525C214.245 41.8467 214.435 41.1403 214.435 40.2334C214.435 39.4222 214.241 38.766 213.854 38.2646C213.471 37.7588 212.96 37.5059 212.322 37.5059C211.698 37.5059 211.194 37.7542 210.812 38.251C210.429 38.7477 210.237 39.4587 210.237 40.3838ZM223.533 40.3838C223.533 41.5094 223.276 42.4163 222.761 43.1045C222.246 43.7926 221.549 44.1367 220.669 44.1367C219.771 44.1367 219.065 43.8519 218.55 43.2822V46.8438H217.285V36.6035H218.44L218.502 37.4238C219.017 36.7858 219.732 36.4668 220.648 36.4668C221.537 36.4668 222.239 36.8018 222.754 37.4717C223.273 38.1416 223.533 39.0736 223.533 40.2676V40.3838ZM222.269 40.2402C222.269 39.4062 222.091 38.7477 221.735 38.2646C221.38 37.7816 220.892 37.54 220.272 37.54C219.507 37.54 218.933 37.8796 218.55 38.5586V42.0928C218.928 42.7673 219.507 43.1045 220.286 43.1045C220.892 43.1045 221.373 42.8652 221.729 42.3867C222.089 41.9036 222.269 41.1882 222.269 40.2402ZM226.862 34.8125V36.6035H228.243V37.5811H226.862V42.168C226.862 42.4642 226.924 42.6875 227.047 42.8379C227.17 42.9837 227.38 43.0566 227.676 43.0566C227.822 43.0566 228.022 43.0293 228.277 42.9746V44C227.945 44.0911 227.621 44.1367 227.307 44.1367C226.742 44.1367 226.315 43.9658 226.028 43.624C225.741 43.2822 225.598 42.7969 225.598 42.168V37.5811H224.251V36.6035H225.598V34.8125H226.862ZM231.101 44H229.836V36.6035H231.101V44ZM229.733 34.6416C229.733 34.4365 229.795 34.2633 229.918 34.1221C230.046 33.9808 230.232 33.9102 230.479 33.9102C230.725 33.9102 230.911 33.9808 231.039 34.1221C231.167 34.2633 231.23 34.4365 231.23 34.6416C231.23 34.8467 231.167 35.0176 231.039 35.1543C230.911 35.291 230.725 35.3594 230.479 35.3594C230.232 35.3594 230.046 35.291 229.918 35.1543C229.795 35.0176 229.733 34.8467 229.733 34.6416ZM232.796 40.2334C232.796 39.5088 232.937 38.8571 233.22 38.2783C233.507 37.6995 233.903 37.2529 234.409 36.9385C234.92 36.624 235.501 36.4668 236.152 36.4668C237.16 36.4668 237.973 36.8154 238.593 37.5127C239.217 38.21 239.529 39.1374 239.529 40.2949V40.3838C239.529 41.1038 239.39 41.751 239.112 42.3252C238.839 42.8949 238.445 43.3392 237.93 43.6582C237.419 43.9772 236.831 44.1367 236.166 44.1367C235.163 44.1367 234.35 43.7881 233.726 43.0908C233.106 42.3936 232.796 41.4707 232.796 40.3223V40.2334ZM234.067 40.3838C234.067 41.2041 234.257 41.8626 234.635 42.3594C235.018 42.8561 235.528 43.1045 236.166 43.1045C236.809 43.1045 237.319 42.8538 237.697 42.3525C238.076 41.8467 238.265 41.1403 238.265 40.2334C238.265 39.4222 238.071 38.766 237.684 38.2646C237.301 37.7588 236.79 37.5059 236.152 37.5059C235.528 37.5059 235.024 37.7542 234.642 38.251C234.259 38.7477 234.067 39.4587 234.067 40.3838ZM242.312 36.6035L242.353 37.5332C242.918 36.8223 243.656 36.4668 244.567 36.4668C246.131 36.4668 246.919 37.3486 246.933 39.1123V44H245.668V39.1055C245.663 38.5723 245.54 38.1781 245.299 37.9229C245.062 37.6676 244.69 37.54 244.185 37.54C243.774 37.54 243.414 37.6494 243.104 37.8682C242.795 38.0869 242.553 38.374 242.38 38.7295V44H241.115V36.6035H242.312Z" fill="black"/>
<path d="M197.107 70.0469V76.6982C197.107 77.7555 196.768 78.5941 196.089 79.2139C195.414 79.8291 194.514 80.1367 193.389 80.1367C192.249 80.1367 191.345 79.8337 190.675 79.2275C190.005 78.6169 189.67 77.7715 189.67 76.6914V70.0469H191.393V76.7051C191.393 77.3704 191.561 77.8786 191.898 78.2295C192.236 78.5804 192.732 78.7559 193.389 78.7559C194.719 78.7559 195.385 78.054 195.385 76.6504V70.0469H197.107ZM200.341 72.6035L200.389 73.458C200.936 72.7972 201.653 72.4668 202.542 72.4668C204.082 72.4668 204.866 73.3486 204.894 75.1123V80H203.232V75.208C203.232 74.7386 203.13 74.3923 202.925 74.1689C202.724 73.9411 202.394 73.8271 201.934 73.8271C201.264 73.8271 200.765 74.1302 200.437 74.7363V80H198.775V72.6035H200.341ZM206.281 76.2471C206.281 75.1077 206.546 74.194 207.074 73.5059C207.603 72.8132 208.312 72.4668 209.2 72.4668C209.984 72.4668 210.618 72.7402 211.101 73.2871V69.5H212.762V80H211.258L211.176 79.2344C210.679 79.8359 210.016 80.1367 209.187 80.1367C208.321 80.1367 207.619 79.7881 207.081 79.0908C206.548 78.3936 206.281 77.4456 206.281 76.2471ZM207.942 76.3906C207.942 77.1426 208.086 77.7305 208.373 78.1543C208.665 78.5736 209.077 78.7832 209.61 78.7832C210.289 78.7832 210.786 78.4801 211.101 77.874V74.7158C210.795 74.1234 210.303 73.8271 209.624 73.8271C209.086 73.8271 208.672 74.0413 208.38 74.4697C208.088 74.8936 207.942 75.5339 207.942 76.3906ZM217.752 80.1367C216.699 80.1367 215.845 79.8063 215.188 79.1455C214.537 78.4801 214.211 77.596 214.211 76.4932V76.2881C214.211 75.5498 214.352 74.8913 214.635 74.3125C214.922 73.7292 215.323 73.2757 215.838 72.9521C216.353 72.6286 216.927 72.4668 217.561 72.4668C218.568 72.4668 219.345 72.7881 219.892 73.4307C220.443 74.0732 220.719 74.9824 220.719 76.1582V76.8281H215.886C215.936 77.4388 216.139 77.9219 216.494 78.2773C216.854 78.6328 217.305 78.8105 217.848 78.8105C218.609 78.8105 219.229 78.5029 219.707 77.8877L220.603 78.7422C220.306 79.1842 219.91 79.5283 219.413 79.7744C218.921 80.016 218.367 80.1367 217.752 80.1367ZM217.554 73.7998C217.098 73.7998 216.729 73.9593 216.446 74.2783C216.168 74.5973 215.991 75.0417 215.913 75.6113H219.078V75.4883C219.042 74.9323 218.894 74.513 218.634 74.2305C218.374 73.9434 218.014 73.7998 217.554 73.7998ZM226.16 77.9902C226.16 77.694 226.037 77.4684 225.791 77.3135C225.549 77.1585 225.146 77.0218 224.581 76.9033C224.016 76.7848 223.544 76.6344 223.166 76.4521C222.337 76.0511 221.922 75.4701 221.922 74.709C221.922 74.071 222.191 73.5378 222.729 73.1094C223.266 72.681 223.95 72.4668 224.779 72.4668C225.663 72.4668 226.377 72.6855 226.919 73.123C227.466 73.5605 227.739 74.1279 227.739 74.8252H226.078C226.078 74.5062 225.96 74.2419 225.723 74.0322C225.486 73.818 225.171 73.7109 224.779 73.7109C224.415 73.7109 224.116 73.7952 223.884 73.9639C223.656 74.1325 223.542 74.3581 223.542 74.6406C223.542 74.8958 223.649 75.0941 223.863 75.2354C224.077 75.3766 224.51 75.5202 225.162 75.666C225.814 75.8073 226.324 75.9782 226.693 76.1787C227.067 76.3747 227.343 76.6117 227.521 76.8896C227.703 77.1676 227.794 77.5049 227.794 77.9014C227.794 78.5667 227.518 79.1068 226.967 79.5215C226.415 79.9316 225.693 80.1367 224.8 80.1367C224.194 80.1367 223.654 80.0273 223.18 79.8086C222.706 79.5898 222.337 79.2891 222.072 78.9062C221.808 78.5234 221.676 78.111 221.676 77.6689H223.289C223.312 78.0609 223.46 78.3639 223.733 78.5781C224.007 78.7878 224.369 78.8926 224.82 78.8926C225.258 78.8926 225.59 78.8105 225.818 78.6465C226.046 78.4779 226.16 78.2591 226.16 77.9902ZM231.014 80H229.353V72.6035H231.014V80ZM229.25 70.6826C229.25 70.4274 229.33 70.2155 229.489 70.0469C229.653 69.8783 229.886 69.7939 230.187 69.7939C230.487 69.7939 230.72 69.8783 230.884 70.0469C231.048 70.2155 231.13 70.4274 231.13 70.6826C231.13 70.9333 231.048 71.1429 230.884 71.3115C230.72 71.4756 230.487 71.5576 230.187 71.5576C229.886 71.5576 229.653 71.4756 229.489 71.3115C229.33 71.1429 229.25 70.9333 229.25 70.6826ZM236.701 74.1211C236.482 74.0846 236.257 74.0664 236.024 74.0664C235.263 74.0664 234.751 74.3581 234.486 74.9414V80H232.825V72.6035H234.411L234.452 73.4307C234.853 72.7881 235.409 72.4668 236.12 72.4668C236.357 72.4668 236.553 72.4987 236.708 72.5625L236.701 74.1211ZM240.871 80.1367C239.818 80.1367 238.964 79.8063 238.308 79.1455C237.656 78.4801 237.33 77.596 237.33 76.4932V76.2881C237.33 75.5498 237.471 74.8913 237.754 74.3125C238.041 73.7292 238.442 73.2757 238.957 72.9521C239.472 72.6286 240.046 72.4668 240.68 72.4668C241.687 72.4668 242.464 72.7881 243.011 73.4307C243.562 74.0732 243.838 74.9824 243.838 76.1582V76.8281H239.005C239.055 77.4388 239.258 77.9219 239.613 78.2773C239.973 78.6328 240.424 78.8105 240.967 78.8105C241.728 78.8105 242.348 78.5029 242.826 77.8877L243.722 78.7422C243.425 79.1842 243.029 79.5283 242.532 79.7744C242.04 80.016 241.486 80.1367 240.871 80.1367ZM240.673 73.7998C240.217 73.7998 239.848 73.9593 239.565 74.2783C239.287 74.5973 239.11 75.0417 239.032 75.6113H242.197V75.4883C242.161 74.9323 242.013 74.513 241.753 74.2305C241.493 73.9434 241.133 73.7998 240.673 73.7998ZM244.822 76.2471C244.822 75.1077 245.087 74.194 245.615 73.5059C246.144 72.8132 246.853 72.4668 247.741 72.4668C248.525 72.4668 249.159 72.7402 249.642 73.2871V69.5H251.303V80H249.799L249.717 79.2344C249.22 79.8359 248.557 80.1367 247.728 80.1367C246.862 80.1367 246.16 79.7881 245.622 79.0908C245.089 78.3936 244.822 77.4456 244.822 76.2471ZM246.483 76.3906C246.483 77.1426 246.627 77.7305 246.914 78.1543C247.206 78.5736 247.618 78.7832 248.151 78.7832C248.83 78.7832 249.327 78.4801 249.642 77.874V74.7158C249.336 74.1234 248.844 73.8271 248.165 73.8271C247.627 73.8271 247.213 74.0413 246.921 74.4697C246.629 74.8936 246.483 75.5339 246.483 76.3906Z" fill="#0046FB"/>
<path d="M56.668 80V70.0469H59.6074C60.487 70.0469 61.2663 70.2428 61.9453 70.6348C62.6289 71.0267 63.1576 71.5827 63.5312 72.3027C63.9049 73.0228 64.0918 73.8477 64.0918 74.7773V75.2764C64.0918 76.2197 63.9027 77.0492 63.5244 77.7646C63.1507 78.4801 62.6152 79.0316 61.918 79.4189C61.2253 79.8063 60.43 80 59.5322 80H56.668ZM58.3975 71.4414V78.6191H59.5254C60.4323 78.6191 61.1273 78.3366 61.6104 77.7715C62.098 77.2018 62.3464 76.3861 62.3555 75.3242V74.7705C62.3555 73.6904 62.1208 72.8656 61.6514 72.2959C61.182 71.7262 60.5007 71.4414 59.6074 71.4414H58.3975ZM68.9111 80.1367C67.8584 80.1367 67.0039 79.8063 66.3477 79.1455C65.696 78.4801 65.3701 77.596 65.3701 76.4932V76.2881C65.3701 75.5498 65.5114 74.8913 65.7939 74.3125C66.0811 73.7292 66.4821 73.2757 66.9971 72.9521C67.512 72.6286 68.0863 72.4668 68.7197 72.4668C69.7269 72.4668 70.5039 72.7881 71.0508 73.4307C71.6022 74.0732 71.8779 74.9824 71.8779 76.1582V76.8281H67.0449C67.0951 77.4388 67.2979 77.9219 67.6533 78.2773C68.0133 78.6328 68.4645 78.8105 69.0068 78.8105C69.7679 78.8105 70.3877 78.5029 70.8662 77.8877L71.7617 78.7422C71.4655 79.1842 71.069 79.5283 70.5723 79.7744C70.0801 80.016 69.5264 80.1367 68.9111 80.1367ZM68.7129 73.7998C68.2572 73.7998 67.888 73.9593 67.6055 74.2783C67.3275 74.5973 67.1497 75.0417 67.0723 75.6113H70.2373V75.4883C70.2008 74.9323 70.0527 74.513 69.793 74.2305C69.5332 73.9434 69.1732 73.7998 68.7129 73.7998ZM77.3193 77.9902C77.3193 77.694 77.1963 77.4684 76.9502 77.3135C76.7087 77.1585 76.3053 77.0218 75.7402 76.9033C75.1751 76.7848 74.7035 76.6344 74.3252 76.4521C73.4958 76.0511 73.0811 75.4701 73.0811 74.709C73.0811 74.071 73.3499 73.5378 73.8877 73.1094C74.4255 72.681 75.109 72.4668 75.9385 72.4668C76.8226 72.4668 77.5358 72.6855 78.0781 73.123C78.625 73.5605 78.8984 74.1279 78.8984 74.8252H77.2373C77.2373 74.5062 77.1188 74.2419 76.8818 74.0322C76.6449 73.818 76.3304 73.7109 75.9385 73.7109C75.5739 73.7109 75.2754 73.7952 75.043 73.9639C74.8151 74.1325 74.7012 74.3581 74.7012 74.6406C74.7012 74.8958 74.8083 75.0941 75.0225 75.2354C75.2367 75.3766 75.6696 75.5202 76.3213 75.666C76.973 75.8073 77.4834 75.9782 77.8525 76.1787C78.2262 76.3747 78.502 76.6117 78.6797 76.8896C78.862 77.1676 78.9531 77.5049 78.9531 77.9014C78.9531 78.5667 78.6774 79.1068 78.126 79.5215C77.5745 79.9316 76.8522 80.1367 75.959 80.1367C75.3529 80.1367 74.8128 80.0273 74.3389 79.8086C73.8649 79.5898 73.4958 79.2891 73.2314 78.9062C72.9671 78.5234 72.835 78.111 72.835 77.6689H74.4482C74.471 78.0609 74.6191 78.3639 74.8926 78.5781C75.166 78.7878 75.5283 78.8926 75.9795 78.8926C76.417 78.8926 76.7497 78.8105 76.9775 78.6465C77.2054 78.4779 77.3193 78.2591 77.3193 77.9902ZM82.1729 80H80.5117V72.6035H82.1729V80ZM80.4092 70.6826C80.4092 70.4274 80.4889 70.2155 80.6484 70.0469C80.8125 69.8783 81.0449 69.7939 81.3457 69.7939C81.6465 69.7939 81.8789 69.8783 82.043 70.0469C82.207 70.2155 82.2891 70.4274 82.2891 70.6826C82.2891 70.9333 82.207 71.1429 82.043 71.3115C81.8789 71.4756 81.6465 71.5576 81.3457 71.5576C81.0449 71.5576 80.8125 71.4756 80.6484 71.3115C80.4889 71.1429 80.4092 70.9333 80.4092 70.6826ZM87.8604 74.1211C87.6416 74.0846 87.416 74.0664 87.1836 74.0664C86.4225 74.0664 85.9098 74.3581 85.6455 74.9414V80H83.9844V72.6035H85.5703L85.6113 73.4307C86.0124 72.7881 86.5684 72.4668 87.2793 72.4668C87.5163 72.4668 87.7122 72.4987 87.8672 72.5625L87.8604 74.1211ZM92.0303 80.1367C90.9775 80.1367 90.123 79.8063 89.4668 79.1455C88.8151 78.4801 88.4893 77.596 88.4893 76.4932V76.2881C88.4893 75.5498 88.6305 74.8913 88.9131 74.3125C89.2002 73.7292 89.6012 73.2757 90.1162 72.9521C90.6312 72.6286 91.2054 72.4668 91.8389 72.4668C92.846 72.4668 93.623 72.7881 94.1699 73.4307C94.7214 74.0732 94.9971 74.9824 94.9971 76.1582V76.8281H90.1641C90.2142 77.4388 90.417 77.9219 90.7725 78.2773C91.1325 78.6328 91.5837 78.8105 92.126 78.8105C92.887 78.8105 93.5068 78.5029 93.9854 77.8877L94.8809 78.7422C94.5846 79.1842 94.1882 79.5283 93.6914 79.7744C93.1992 80.016 92.6455 80.1367 92.0303 80.1367ZM91.832 73.7998C91.3763 73.7998 91.0072 73.9593 90.7246 74.2783C90.4466 74.5973 90.2689 75.0417 90.1914 75.6113H93.3564V75.4883C93.32 74.9323 93.1719 74.513 92.9121 74.2305C92.6523 73.9434 92.2923 73.7998 91.832 73.7998ZM95.9814 76.2471C95.9814 75.1077 96.2458 74.194 96.7744 73.5059C97.3031 72.8132 98.0117 72.4668 98.9004 72.4668C99.6842 72.4668 100.318 72.7402 100.801 73.2871V69.5H102.462V80H100.958L100.876 79.2344C100.379 79.8359 99.7161 80.1367 98.8867 80.1367C98.0208 80.1367 97.319 79.7881 96.7812 79.0908C96.248 78.3936 95.9814 77.4456 95.9814 76.2471ZM97.6426 76.3906C97.6426 77.1426 97.7861 77.7305 98.0732 78.1543C98.3649 78.5736 98.7773 78.7832 99.3105 78.7832C99.9896 78.7832 100.486 78.4801 100.801 77.874V74.7158C100.495 74.1234 100.003 73.8271 99.3242 73.8271C98.7865 73.8271 98.3717 74.0413 98.0801 74.4697C97.7884 74.8936 97.6426 75.5339 97.6426 76.3906Z" fill="#515151"/>
<line x1="152.5" y1="64" x2="152.5" y2="87" stroke="#515151"/>
<defs>
<filter id="filter0_d" x="0" y="0" width="300" height="120" filterUnits="userSpaceOnUse" color-interpolation-filters="sRGB">
<feFlood flood-opacity="0" result="BackgroundImageFix"/>
<feColorMatrix in="SourceAlpha" type="matrix" values="0 0 0 0 0 0 0 0 0 0 0 0 0 0 0 0 0 0 127 0"/>
<feOffset/>
<feGaussianBlur stdDeviation="5"/>
<feColorMatrix type="matrix" values="0 0 0 0 0 0 0 0 0 0 0 0 0 0 0 0 0 0 0.16 0"/>
<feBlend mode="normal" in2="BackgroundImageFix" result="effect1_dropShadow"/>
<feBlend mode="normal" in="SourceGraphic" in2="effect1_dropShadow" result="shape"/>
</filter>
</defs>
</svg>
