<svg width="320" height="270" viewBox="0 0 320 270" fill="none" xmlns="http://www.w3.org/2000/svg">
<rect x="75.5" y="0.5" width="170" height="29" rx="4.5" fill="white" stroke="black"/>
<rect x="0.5" y="60.5" width="149" height="29" rx="4.5" fill="white" stroke="black"/>
<rect x="0.5" y="120.5" width="89" height="29" rx="4.5" fill="white" stroke="black"/>
<rect x="115.5" y="120.5" width="89" height="29" rx="4.5" fill="white" stroke="black"/>
<rect x="230.5" y="120.5" width="89" height="29" rx="4.5" fill="white" stroke="black"/>
<rect x="0.5" y="180.5" width="89" height="29" rx="4.5" fill="white" stroke="black"/>
<rect x="115.5" y="179.5" width="89" height="29" rx="4.5" fill="white" stroke="black"/>
<rect x="230.5" y="179.5" width="89" height="29" rx="4.5" fill="white" stroke="black"/>
<rect x="115.5" y="240.5" width="89" height="29" rx="4.5" fill="white" stroke="black"/>
<rect x="0.5" y="240.5" width="89" height="29" rx="4.5" fill="white" stroke="black"/>
<rect x="170.5" y="60.5" width="149" height="29" rx="4.5" fill="white" stroke="black"/>
<path d="M43.7637 79H42.6797V70H43.7637V79ZM46.6816 79H45.5977V72.6602H46.6816V79ZM45.5098 70.9785C45.5098 70.8027 45.5625 70.6543 45.668 70.5332C45.7773 70.4121 45.9375 70.3516 46.1484 70.3516C46.3594 70.3516 46.5195 70.4121 46.6289 70.5332C46.7383 70.6543 46.793 70.8027 46.793 70.9785C46.793 71.1543 46.7383 71.3008 46.6289 71.418C46.5195 71.5352 46.3594 71.5938 46.1484 71.5938C45.9375 71.5938 45.7773 71.5352 45.668 71.418C45.5625 71.3008 45.5098 71.1543 45.5098 70.9785ZM50.5137 77.5293L52.084 72.6602H53.1914L50.918 79H50.0918L47.7949 72.6602H48.9023L50.5137 77.5293ZM55.4121 79H54.3281V72.6602H55.4121V79ZM54.2402 70.9785C54.2402 70.8027 54.293 70.6543 54.3984 70.5332C54.5078 70.4121 54.668 70.3516 54.8789 70.3516C55.0898 70.3516 55.25 70.4121 55.3594 70.5332C55.4688 70.6543 55.5234 70.8027 55.5234 70.9785C55.5234 71.1543 55.4688 71.3008 55.3594 71.418C55.25 71.5352 55.0898 71.5938 54.8789 71.5938C54.668 71.5938 54.5078 71.5352 54.3984 71.418C54.293 71.3008 54.2402 71.1543 54.2402 70.9785ZM58.1777 72.6602L58.2129 73.457C58.6973 72.8477 59.3301 72.543 60.1113 72.543C61.4512 72.543 62.127 73.2988 62.1387 74.8105V79H61.0547V74.8047C61.0508 74.3477 60.9453 74.0098 60.7383 73.791C60.5352 73.5723 60.2168 73.4629 59.7832 73.4629C59.4316 73.4629 59.123 73.5566 58.8574 73.7441C58.5918 73.9316 58.3848 74.1777 58.2363 74.4824V79H57.1523V72.6602H58.1777ZM63.5156 75.7773C63.5156 74.7891 63.7441 74.0039 64.2012 73.4219C64.6582 72.8359 65.2637 72.543 66.0176 72.543C66.791 72.543 67.3945 72.8164 67.8281 73.3633L67.8809 72.6602H68.8711V78.8477C68.8711 79.668 68.627 80.3145 68.1387 80.7871C67.6543 81.2598 67.002 81.4961 66.1816 81.4961C65.7246 81.4961 65.2773 81.3984 64.8398 81.2031C64.4023 81.0078 64.0684 80.7402 63.8379 80.4004L64.4004 79.75C64.8652 80.3242 65.4336 80.6113 66.1055 80.6113C66.6328 80.6113 67.043 80.4629 67.3359 80.166C67.6328 79.8691 67.7812 79.4512 67.7812 78.9121V78.3672C67.3477 78.8672 66.7559 79.1172 66.0059 79.1172C65.2637 79.1172 64.6621 78.8184 64.2012 78.2207C63.7441 77.623 63.5156 76.8086 63.5156 75.7773ZM64.6055 75.9004C64.6055 76.6152 64.752 77.1777 65.0449 77.5879C65.3379 77.9941 65.748 78.1973 66.2754 78.1973C66.959 78.1973 67.4609 77.8867 67.7812 77.2656V74.3711C67.4492 73.7656 66.9512 73.4629 66.2871 73.4629C65.7598 73.4629 65.3477 73.668 65.0508 74.0781C64.7539 74.4883 64.6055 75.0957 64.6055 75.9004ZM78.8555 75.9004C78.8555 76.8691 78.6328 77.6484 78.1875 78.2383C77.7422 78.8242 77.1445 79.1172 76.3945 79.1172C75.5938 79.1172 74.9746 78.834 74.5371 78.2676L74.4844 79H73.4883V70H74.5723V73.3574C75.0098 72.8145 75.6133 72.543 76.3828 72.543C77.1523 72.543 77.7559 72.834 78.1934 73.416C78.6348 73.998 78.8555 74.7949 78.8555 75.8066V75.9004ZM77.7715 75.7773C77.7715 75.0391 77.6289 74.4688 77.3438 74.0664C77.0586 73.6641 76.6484 73.4629 76.1133 73.4629C75.3984 73.4629 74.8848 73.7949 74.5723 74.459V77.2012C74.9043 77.8652 75.4219 78.1973 76.125 78.1973C76.6445 78.1973 77.0488 77.9961 77.3379 77.5938C77.627 77.1914 77.7715 76.5859 77.7715 75.7773ZM82.8574 79.1172C81.998 79.1172 81.2988 78.8359 80.7598 78.2734C80.2207 77.707 79.9512 76.9512 79.9512 76.0059V75.8066C79.9512 75.1777 80.0703 74.6172 80.3086 74.125C80.5508 73.6289 80.8867 73.2422 81.3164 72.9648C81.75 72.6836 82.2188 72.543 82.7227 72.543C83.5469 72.543 84.1875 72.8145 84.6445 73.3574C85.1016 73.9004 85.3301 74.6777 85.3301 75.6895V76.1406H81.0352C81.0508 76.7656 81.2324 77.2715 81.5801 77.6582C81.9316 78.041 82.377 78.2324 82.916 78.2324C83.2988 78.2324 83.623 78.1543 83.8887 77.998C84.1543 77.8418 84.3867 77.6348 84.5859 77.377L85.248 77.8926C84.7168 78.709 83.9199 79.1172 82.8574 79.1172ZM82.7227 73.4336C82.2852 73.4336 81.918 73.5938 81.6211 73.9141C81.3242 74.2305 81.1406 74.6758 81.0703 75.25H84.2461V75.168C84.2148 74.6172 84.0664 74.1914 83.8008 73.8906C83.5352 73.5859 83.1758 73.4336 82.7227 73.4336ZM87.7676 79H86.6836V72.6602H87.7676V79ZM86.5957 70.9785C86.5957 70.8027 86.6484 70.6543 86.7539 70.5332C86.8633 70.4121 87.0234 70.3516 87.2344 70.3516C87.4453 70.3516 87.6055 70.4121 87.7148 70.5332C87.8242 70.6543 87.8789 70.8027 87.8789 70.9785C87.8789 71.1543 87.8242 71.3008 87.7148 71.418C87.6055 71.5352 87.4453 71.5938 87.2344 71.5938C87.0234 71.5938 86.8633 71.5352 86.7539 71.418C86.6484 71.3008 86.5957 71.1543 86.5957 70.9785ZM90.5332 72.6602L90.5684 73.457C91.0527 72.8477 91.6855 72.543 92.4668 72.543C93.8066 72.543 94.4824 73.2988 94.4941 74.8105V79H93.4102V74.8047C93.4062 74.3477 93.3008 74.0098 93.0938 73.791C92.8906 73.5723 92.5723 73.4629 92.1387 73.4629C91.7871 73.4629 91.4785 73.5566 91.2129 73.7441C90.9473 73.9316 90.7402 74.1777 90.5918 74.4824V79H89.5078V72.6602H90.5332ZM95.8711 75.7773C95.8711 74.7891 96.0996 74.0039 96.5566 73.4219C97.0137 72.8359 97.6191 72.543 98.373 72.543C99.1465 72.543 99.75 72.8164 100.184 73.3633L100.236 72.6602H101.227V78.8477C101.227 79.668 100.982 80.3145 100.494 80.7871C100.01 81.2598 99.3574 81.4961 98.5371 81.4961C98.0801 81.4961 97.6328 81.3984 97.1953 81.2031C96.7578 81.0078 96.4238 80.7402 96.1934 80.4004L96.7559 79.75C97.2207 80.3242 97.7891 80.6113 98.4609 80.6113C98.9883 80.6113 99.3984 80.4629 99.6914 80.166C99.9883 79.8691 100.137 79.4512 100.137 78.9121V78.3672C99.7031 78.8672 99.1113 79.1172 98.3613 79.1172C97.6191 79.1172 97.0176 78.8184 96.5566 78.2207C96.0996 77.623 95.8711 76.8086 95.8711 75.7773ZM96.9609 75.9004C96.9609 76.6152 97.1074 77.1777 97.4004 77.5879C97.6934 77.9941 98.1035 78.1973 98.6309 78.1973C99.3145 78.1973 99.8164 77.8867 100.137 77.2656V74.3711C99.8047 73.7656 99.3066 73.4629 98.6426 73.4629C98.1152 73.4629 97.7031 73.668 97.4062 74.0781C97.1094 74.4883 96.9609 75.0957 96.9609 75.9004ZM106.559 77.3184C106.559 77.0254 106.447 76.7988 106.225 76.6387C106.006 76.4746 105.621 76.334 105.07 76.2168C104.523 76.0996 104.088 75.959 103.764 75.7949C103.443 75.6309 103.205 75.4355 103.049 75.209C102.896 74.9824 102.82 74.7129 102.82 74.4004C102.82 73.8809 103.039 73.4414 103.477 73.082C103.918 72.7227 104.48 72.543 105.164 72.543C105.883 72.543 106.465 72.7285 106.91 73.0996C107.359 73.4707 107.584 73.9453 107.584 74.5234H106.494C106.494 74.2266 106.367 73.9707 106.113 73.7559C105.863 73.541 105.547 73.4336 105.164 73.4336C104.77 73.4336 104.461 73.5195 104.238 73.6914C104.016 73.8633 103.904 74.0879 103.904 74.3652C103.904 74.627 104.008 74.8242 104.215 74.957C104.422 75.0898 104.795 75.2168 105.334 75.3379C105.877 75.459 106.316 75.6035 106.652 75.7715C106.988 75.9395 107.236 76.1426 107.396 76.3809C107.561 76.6152 107.643 76.9023 107.643 77.2422C107.643 77.8086 107.416 78.2637 106.963 78.6074C106.51 78.9473 105.922 79.1172 105.199 79.1172C104.691 79.1172 104.242 79.0273 103.852 78.8477C103.461 78.668 103.154 78.418 102.932 78.0977C102.713 77.7734 102.604 77.4238 102.604 77.0488H103.688C103.707 77.4121 103.852 77.7012 104.121 77.916C104.395 78.127 104.754 78.2324 105.199 78.2324C105.609 78.2324 105.938 78.1504 106.184 77.9863C106.434 77.8184 106.559 77.5957 106.559 77.3184Z" fill="black"/>
<path d="M28.623 139C28.5605 138.875 28.5098 138.652 28.4707 138.332C27.9668 138.855 27.3652 139.117 26.666 139.117C26.041 139.117 25.5273 138.941 25.125 138.59C24.7266 138.234 24.5273 137.785 24.5273 137.242C24.5273 136.582 24.7773 136.07 25.2773 135.707C25.7812 135.34 26.4883 135.156 27.3984 135.156H28.4531V134.658C28.4531 134.279 28.3398 133.979 28.1133 133.756C27.8867 133.529 27.5527 133.416 27.1113 133.416C26.7246 133.416 26.4004 133.514 26.1387 133.709C25.877 133.904 25.7461 134.141 25.7461 134.418H24.6562C24.6562 134.102 24.7676 133.797 24.9902 133.504C25.2168 133.207 25.5215 132.973 25.9043 132.801C26.291 132.629 26.7148 132.543 27.1758 132.543C27.9062 132.543 28.4785 132.727 28.8926 133.094C29.3066 133.457 29.5215 133.959 29.5371 134.6V137.518C29.5371 138.1 29.6113 138.562 29.7598 138.906V139H28.623ZM26.8242 138.174C27.1641 138.174 27.4863 138.086 27.791 137.91C28.0957 137.734 28.3164 137.506 28.4531 137.225V135.924H27.6035C26.2754 135.924 25.6113 136.312 25.6113 137.09C25.6113 137.43 25.7246 137.695 25.9512 137.887C26.1777 138.078 26.4688 138.174 26.8242 138.174ZM32.2617 132.66L32.2969 133.457C32.7812 132.848 33.4141 132.543 34.1953 132.543C35.5352 132.543 36.2109 133.299 36.2227 134.811V139H35.1387V134.805C35.1348 134.348 35.0293 134.01 34.8223 133.791C34.6191 133.572 34.3008 133.463 33.8672 133.463C33.5156 133.463 33.207 133.557 32.9414 133.744C32.6758 133.932 32.4688 134.178 32.3203 134.482V139H31.2363V132.66H32.2617ZM39.0352 139H37.9512V132.66H39.0352V139ZM37.8633 130.979C37.8633 130.803 37.916 130.654 38.0215 130.533C38.1309 130.412 38.291 130.352 38.502 130.352C38.7129 130.352 38.873 130.412 38.9824 130.533C39.0918 130.654 39.1465 130.803 39.1465 130.979C39.1465 131.154 39.0918 131.301 38.9824 131.418C38.873 131.535 38.7129 131.594 38.502 131.594C38.291 131.594 38.1309 131.535 38.0215 131.418C37.916 131.301 37.8633 131.154 37.8633 130.979ZM41.7949 132.66L41.8242 133.363C42.2891 132.816 42.916 132.543 43.7051 132.543C44.5918 132.543 45.1953 132.883 45.5156 133.562C45.7266 133.258 46 133.012 46.3359 132.824C46.6758 132.637 47.0762 132.543 47.5371 132.543C48.9277 132.543 49.6348 133.279 49.6582 134.752V139H48.5742V134.816C48.5742 134.363 48.4707 134.025 48.2637 133.803C48.0566 133.576 47.709 133.463 47.2207 133.463C46.8184 133.463 46.4844 133.584 46.2188 133.826C45.9531 134.064 45.7988 134.387 45.7559 134.793V139H44.666V134.846C44.666 133.924 44.2148 133.463 43.3125 133.463C42.6016 133.463 42.1152 133.766 41.8535 134.371V139H40.7695V132.66H41.7949ZM55.2129 139C55.1504 138.875 55.0996 138.652 55.0605 138.332C54.5566 138.855 53.9551 139.117 53.2559 139.117C52.6309 139.117 52.1172 138.941 51.7148 138.59C51.3164 138.234 51.1172 137.785 51.1172 137.242C51.1172 136.582 51.3672 136.07 51.8672 135.707C52.3711 135.34 53.0781 135.156 53.9883 135.156H55.043V134.658C55.043 134.279 54.9297 133.979 54.7031 133.756C54.4766 133.529 54.1426 133.416 53.7012 133.416C53.3145 133.416 52.9902 133.514 52.7285 133.709C52.4668 133.904 52.3359 134.141 52.3359 134.418H51.2461C51.2461 134.102 51.3574 133.797 51.5801 133.504C51.8066 133.207 52.1113 132.973 52.4941 132.801C52.8809 132.629 53.3047 132.543 53.7656 132.543C54.4961 132.543 55.0684 132.727 55.4824 133.094C55.8965 133.457 56.1113 133.959 56.127 134.6V137.518C56.127 138.1 56.2012 138.562 56.3496 138.906V139H55.2129ZM53.4141 138.174C53.7539 138.174 54.0762 138.086 54.3809 137.91C54.6855 137.734 54.9062 137.506 55.043 137.225V135.924H54.1934C52.8652 135.924 52.2012 136.312 52.2012 137.09C52.2012 137.43 52.3145 137.695 52.541 137.887C52.7676 138.078 53.0586 138.174 53.4141 138.174ZM59.0039 139H57.9199V130H59.0039V139ZM64.4355 137.318C64.4355 137.025 64.3242 136.799 64.1016 136.639C63.8828 136.475 63.498 136.334 62.9473 136.217C62.4004 136.1 61.9648 135.959 61.6406 135.795C61.3203 135.631 61.082 135.436 60.9258 135.209C60.7734 134.982 60.6973 134.713 60.6973 134.4C60.6973 133.881 60.916 133.441 61.3535 133.082C61.7949 132.723 62.3574 132.543 63.041 132.543C63.7598 132.543 64.3418 132.729 64.7871 133.1C65.2363 133.471 65.4609 133.945 65.4609 134.523H64.3711C64.3711 134.227 64.2441 133.971 63.9902 133.756C63.7402 133.541 63.4238 133.434 63.041 133.434C62.6465 133.434 62.3379 133.52 62.1152 133.691C61.8926 133.863 61.7812 134.088 61.7812 134.365C61.7812 134.627 61.8848 134.824 62.0918 134.957C62.2988 135.09 62.6719 135.217 63.2109 135.338C63.7539 135.459 64.1934 135.604 64.5293 135.771C64.8652 135.939 65.1133 136.143 65.2734 136.381C65.4375 136.615 65.5195 136.902 65.5195 137.242C65.5195 137.809 65.293 138.264 64.8398 138.607C64.3867 138.947 63.7988 139.117 63.0762 139.117C62.5684 139.117 62.1191 139.027 61.7285 138.848C61.3379 138.668 61.0312 138.418 60.8086 138.098C60.5898 137.773 60.4805 137.424 60.4805 137.049H61.5645C61.584 137.412 61.7285 137.701 61.998 137.916C62.2715 138.127 62.6309 138.232 63.0762 138.232C63.4863 138.232 63.8145 138.15 64.0605 137.986C64.3105 137.818 64.4355 137.596 64.4355 137.318Z" fill="black"/>
<path d="M156.098 138.432C156.098 138.244 156.152 138.088 156.262 137.963C156.375 137.838 156.543 137.775 156.766 137.775C156.988 137.775 157.156 137.838 157.27 137.963C157.387 138.088 157.445 138.244 157.445 138.432C157.445 138.611 157.387 138.762 157.27 138.883C157.156 139.004 156.988 139.064 156.766 139.064C156.543 139.064 156.375 139.004 156.262 138.883C156.152 138.762 156.098 138.611 156.098 138.432ZM159.262 138.432C159.262 138.244 159.316 138.088 159.426 137.963C159.539 137.838 159.707 137.775 159.93 137.775C160.152 137.775 160.32 137.838 160.434 137.963C160.551 138.088 160.609 138.244 160.609 138.432C160.609 138.611 160.551 138.762 160.434 138.883C160.32 139.004 160.152 139.064 159.93 139.064C159.707 139.064 159.539 139.004 159.426 138.883C159.316 138.762 159.262 138.611 159.262 138.432ZM162.426 138.432C162.426 138.244 162.48 138.088 162.59 137.963C162.703 137.838 162.871 137.775 163.094 137.775C163.316 137.775 163.484 137.838 163.598 137.963C163.715 138.088 163.773 138.244 163.773 138.432C163.773 138.611 163.715 138.762 163.598 138.883C163.484 139.004 163.316 139.064 163.094 139.064C162.871 139.064 162.703 139.004 162.59 138.883C162.48 138.762 162.426 138.611 162.426 138.432Z" fill="black"/>
<path d="M271.098 138.432C271.098 138.244 271.152 138.088 271.262 137.963C271.375 137.838 271.543 137.775 271.766 137.775C271.988 137.775 272.156 137.838 272.27 137.963C272.387 138.088 272.445 138.244 272.445 138.432C272.445 138.611 272.387 138.762 272.27 138.883C272.156 139.004 271.988 139.064 271.766 139.064C271.543 139.064 271.375 139.004 271.262 138.883C271.152 138.762 271.098 138.611 271.098 138.432ZM274.262 138.432C274.262 138.244 274.316 138.088 274.426 137.963C274.539 137.838 274.707 137.775 274.93 137.775C275.152 137.775 275.32 137.838 275.434 137.963C275.551 138.088 275.609 138.244 275.609 138.432C275.609 138.611 275.551 138.762 275.434 138.883C275.32 139.004 275.152 139.064 274.93 139.064C274.707 139.064 274.539 139.004 274.426 138.883C274.316 138.762 274.262 138.611 274.262 138.432ZM277.426 138.432C277.426 138.244 277.48 138.088 277.59 137.963C277.703 137.838 277.871 137.775 278.094 137.775C278.316 137.775 278.484 137.838 278.598 137.963C278.715 138.088 278.773 138.244 278.773 138.432C278.773 138.611 278.715 138.762 278.598 138.883C278.484 139.004 278.316 139.064 278.094 139.064C277.871 139.064 277.703 139.004 277.59 138.883C277.48 138.762 277.426 138.611 277.426 138.432Z" fill="black"/>
<path d="M37.4043 195.9C37.4043 196.869 37.1816 197.648 36.7363 198.238C36.291 198.824 35.6934 199.117 34.9434 199.117C34.1426 199.117 33.5234 198.834 33.0859 198.268L33.0332 199H32.0371V190H33.1211V193.357C33.5586 192.814 34.1621 192.543 34.9316 192.543C35.7012 192.543 36.3047 192.834 36.7422 193.416C37.1836 193.998 37.4043 194.795 37.4043 195.807V195.9ZM36.3203 195.777C36.3203 195.039 36.1777 194.469 35.8926 194.066C35.6074 193.664 35.1973 193.463 34.6621 193.463C33.9473 193.463 33.4336 193.795 33.1211 194.459V197.201C33.4531 197.865 33.9707 198.197 34.6738 198.197C35.1934 198.197 35.5977 197.996 35.8867 197.594C36.1758 197.191 36.3203 196.586 36.3203 195.777ZM39.9531 199H38.8691V192.66H39.9531V199ZM38.7812 190.979C38.7812 190.803 38.834 190.654 38.9395 190.533C39.0488 190.412 39.209 190.352 39.4199 190.352C39.6309 190.352 39.791 190.412 39.9004 190.533C40.0098 190.654 40.0645 190.803 40.0645 190.979C40.0645 191.154 40.0098 191.301 39.9004 191.418C39.791 191.535 39.6309 191.594 39.4199 191.594C39.209 191.594 39.0488 191.535 38.9395 191.418C38.834 191.301 38.7812 191.154 38.7812 190.979ZM44.7578 193.633C44.5938 193.605 44.416 193.592 44.2246 193.592C43.5137 193.592 43.0312 193.895 42.7773 194.5V199H41.6934V192.66H42.748L42.7656 193.393C43.1211 192.826 43.625 192.543 44.2773 192.543C44.4883 192.543 44.6484 192.57 44.7578 192.625V193.633ZM45.3789 195.777C45.3789 194.805 45.6094 194.023 46.0703 193.434C46.5312 192.84 47.1348 192.543 47.8809 192.543C48.623 192.543 49.2109 192.797 49.6445 193.305V190H50.7285V199H49.7324L49.6797 198.32C49.2461 198.852 48.6426 199.117 47.8691 199.117C47.1348 199.117 46.5352 198.816 46.0703 198.215C45.6094 197.613 45.3789 196.828 45.3789 195.859V195.777ZM46.4629 195.9C46.4629 196.619 46.6113 197.182 46.9082 197.588C47.2051 197.994 47.6152 198.197 48.1387 198.197C48.8262 198.197 49.3281 197.889 49.6445 197.271V194.359C49.3203 193.762 48.8223 193.463 48.1504 193.463C47.6191 193.463 47.2051 193.668 46.9082 194.078C46.6113 194.488 46.4629 195.096 46.4629 195.9ZM56.1074 197.318C56.1074 197.025 55.9961 196.799 55.7734 196.639C55.5547 196.475 55.1699 196.334 54.6191 196.217C54.0723 196.1 53.6367 195.959 53.3125 195.795C52.9922 195.631 52.7539 195.436 52.5977 195.209C52.4453 194.982 52.3691 194.713 52.3691 194.4C52.3691 193.881 52.5879 193.441 53.0254 193.082C53.4668 192.723 54.0293 192.543 54.7129 192.543C55.4316 192.543 56.0137 192.729 56.459 193.1C56.9082 193.471 57.1328 193.945 57.1328 194.523H56.043C56.043 194.227 55.916 193.971 55.6621 193.756C55.4121 193.541 55.0957 193.434 54.7129 193.434C54.3184 193.434 54.0098 193.52 53.7871 193.691C53.5645 193.863 53.4531 194.088 53.4531 194.365C53.4531 194.627 53.5566 194.824 53.7637 194.957C53.9707 195.09 54.3438 195.217 54.8828 195.338C55.4258 195.459 55.8652 195.604 56.2012 195.771C56.5371 195.939 56.7852 196.143 56.9453 196.381C57.1094 196.615 57.1914 196.902 57.1914 197.242C57.1914 197.809 56.9648 198.264 56.5117 198.607C56.0586 198.947 55.4707 199.117 54.748 199.117C54.2402 199.117 53.791 199.027 53.4004 198.848C53.0098 198.668 52.7031 198.418 52.4805 198.098C52.2617 197.773 52.1523 197.424 52.1523 197.049H53.2363C53.2559 197.412 53.4004 197.701 53.6699 197.916C53.9434 198.127 54.3027 198.232 54.748 198.232C55.1582 198.232 55.4863 198.15 55.7324 197.986C55.9824 197.818 56.1074 197.596 56.1074 197.318Z" fill="black"/>
<path d="M156.098 198.432C156.098 198.244 156.152 198.088 156.262 197.963C156.375 197.838 156.543 197.775 156.766 197.775C156.988 197.775 157.156 197.838 157.27 197.963C157.387 198.088 157.445 198.244 157.445 198.432C157.445 198.611 157.387 198.762 157.27 198.883C157.156 199.004 156.988 199.064 156.766 199.064C156.543 199.064 156.375 199.004 156.262 198.883C156.152 198.762 156.098 198.611 156.098 198.432ZM159.262 198.432C159.262 198.244 159.316 198.088 159.426 197.963C159.539 197.838 159.707 197.775 159.93 197.775C160.152 197.775 160.32 197.838 160.434 197.963C160.551 198.088 160.609 198.244 160.609 198.432C160.609 198.611 160.551 198.762 160.434 198.883C160.32 199.004 160.152 199.064 159.93 199.064C159.707 199.064 159.539 199.004 159.426 198.883C159.316 198.762 159.262 198.611 159.262 198.432ZM162.426 198.432C162.426 198.244 162.48 198.088 162.59 197.963C162.703 197.838 162.871 197.775 163.094 197.775C163.316 197.775 163.484 197.838 163.598 197.963C163.715 198.088 163.773 198.244 163.773 198.432C163.773 198.611 163.715 198.762 163.598 198.883C163.484 199.004 163.316 199.064 163.094 199.064C162.871 199.064 162.703 199.004 162.59 198.883C162.48 198.762 162.426 198.611 162.426 198.432Z" fill="black"/>
<path d="M271.098 198.432C271.098 198.244 271.152 198.088 271.262 197.963C271.375 197.838 271.543 197.775 271.766 197.775C271.988 197.775 272.156 197.838 272.27 197.963C272.387 198.088 272.445 198.244 272.445 198.432C272.445 198.611 272.387 198.762 272.27 198.883C272.156 199.004 271.988 199.064 271.766 199.064C271.543 199.064 271.375 199.004 271.262 198.883C271.152 198.762 271.098 198.611 271.098 198.432ZM274.262 198.432C274.262 198.244 274.316 198.088 274.426 197.963C274.539 197.838 274.707 197.775 274.93 197.775C275.152 197.775 275.32 197.838 275.434 197.963C275.551 198.088 275.609 198.244 275.609 198.432C275.609 198.611 275.551 198.762 275.434 198.883C275.32 199.004 275.152 199.064 274.93 199.064C274.707 199.064 274.539 199.004 274.426 198.883C274.316 198.762 274.262 198.611 274.262 198.432ZM277.426 198.432C277.426 198.244 277.48 198.088 277.59 197.963C277.703 197.838 277.871 197.775 278.094 197.775C278.316 197.775 278.484 197.838 278.598 197.963C278.715 198.088 278.773 198.244 278.773 198.432C278.773 198.611 278.715 198.762 278.598 198.883C278.484 199.004 278.316 199.064 278.094 199.064C277.871 199.064 277.703 199.004 277.59 198.883C277.48 198.762 277.426 198.611 277.426 198.432Z" fill="black"/>
<path d="M27.8438 257.318C27.8438 257.025 27.7324 256.799 27.5098 256.639C27.291 256.475 26.9062 256.334 26.3555 256.217C25.8086 256.1 25.373 255.959 25.0488 255.795C24.7285 255.631 24.4902 255.436 24.334 255.209C24.1816 254.982 24.1055 254.713 24.1055 254.4C24.1055 253.881 24.3242 253.441 24.7617 253.082C25.2031 252.723 25.7656 252.543 26.4492 252.543C27.168 252.543 27.75 252.729 28.1953 253.1C28.6445 253.471 28.8691 253.945 28.8691 254.523H27.7793C27.7793 254.227 27.6523 253.971 27.3984 253.756C27.1484 253.541 26.832 253.434 26.4492 253.434C26.0547 253.434 25.7461 253.52 25.5234 253.691C25.3008 253.863 25.1895 254.088 25.1895 254.365C25.1895 254.627 25.293 254.824 25.5 254.957C25.707 255.09 26.0801 255.217 26.6191 255.338C27.1621 255.459 27.6016 255.604 27.9375 255.771C28.2734 255.939 28.5215 256.143 28.6816 256.381C28.8457 256.615 28.9277 256.902 28.9277 257.242C28.9277 257.809 28.7012 258.264 28.248 258.607C27.7949 258.947 27.207 259.117 26.4844 259.117C25.9766 259.117 25.5273 259.027 25.1367 258.848C24.7461 258.668 24.4395 258.418 24.2168 258.098C23.998 257.773 23.8887 257.424 23.8887 257.049H24.9727C24.9922 257.412 25.1367 257.701 25.4062 257.916C25.6797 258.127 26.0391 258.232 26.4844 258.232C26.8945 258.232 27.2227 258.15 27.4688 257.986C27.7188 257.818 27.8438 257.596 27.8438 257.318ZM35.6953 255.9C35.6953 256.865 35.4746 257.643 35.0332 258.232C34.5918 258.822 33.9941 259.117 33.2402 259.117C32.4707 259.117 31.8652 258.873 31.4238 258.385V261.438H30.3398V252.66H31.3301L31.3828 253.363C31.8242 252.816 32.4375 252.543 33.2227 252.543C33.9844 252.543 34.5859 252.83 35.0273 253.404C35.4727 253.979 35.6953 254.777 35.6953 255.801V255.9ZM34.6113 255.777C34.6113 255.062 34.459 254.498 34.1543 254.084C33.8496 253.67 33.4316 253.463 32.9004 253.463C32.2441 253.463 31.752 253.754 31.4238 254.336V257.365C31.748 257.943 32.2441 258.232 32.9121 258.232C33.4316 258.232 33.8438 258.027 34.1484 257.617C34.457 257.203 34.6113 256.59 34.6113 255.777ZM40.9922 259C40.9297 258.875 40.8789 258.652 40.8398 258.332C40.3359 258.855 39.7344 259.117 39.0352 259.117C38.4102 259.117 37.8965 258.941 37.4941 258.59C37.0957 258.234 36.8965 257.785 36.8965 257.242C36.8965 256.582 37.1465 256.07 37.6465 255.707C38.1504 255.34 38.8574 255.156 39.7676 255.156H40.8223V254.658C40.8223 254.279 40.709 253.979 40.4824 253.756C40.2559 253.529 39.9219 253.416 39.4805 253.416C39.0938 253.416 38.7695 253.514 38.5078 253.709C38.2461 253.904 38.1152 254.141 38.1152 254.418H37.0254C37.0254 254.102 37.1367 253.797 37.3594 253.504C37.5859 253.207 37.8906 252.973 38.2734 252.801C38.6602 252.629 39.084 252.543 39.5449 252.543C40.2754 252.543 40.8477 252.727 41.2617 253.094C41.6758 253.457 41.8906 253.959 41.9062 254.6V257.518C41.9062 258.1 41.9805 258.562 42.1289 258.906V259H40.9922ZM39.1934 258.174C39.5332 258.174 39.8555 258.086 40.1602 257.91C40.4648 257.734 40.6855 257.506 40.8223 257.225V255.924H39.9727C38.6445 255.924 37.9805 256.312 37.9805 257.09C37.9805 257.43 38.0938 257.695 38.3203 257.887C38.5469 258.078 38.8379 258.174 39.1934 258.174ZM46.6699 253.633C46.5059 253.605 46.3281 253.592 46.1367 253.592C45.4258 253.592 44.9434 253.895 44.6895 254.5V259H43.6055V252.66H44.6602L44.6777 253.393C45.0332 252.826 45.5371 252.543 46.1895 252.543C46.4004 252.543 46.5605 252.57 46.6699 252.625V253.633ZM50.7363 253.633C50.5723 253.605 50.3945 253.592 50.2031 253.592C49.4922 253.592 49.0098 253.895 48.7559 254.5V259H47.6719V252.66H48.7266L48.7441 253.393C49.0996 252.826 49.6035 252.543 50.2559 252.543C50.4668 252.543 50.627 252.57 50.7363 252.625V253.633ZM51.334 255.771C51.334 255.15 51.4551 254.592 51.6973 254.096C51.9434 253.6 52.2832 253.217 52.7168 252.947C53.1543 252.678 53.6523 252.543 54.2109 252.543C55.0742 252.543 55.7715 252.842 56.3027 253.439C56.8379 254.037 57.1055 254.832 57.1055 255.824V255.9C57.1055 256.518 56.9863 257.072 56.748 257.564C56.5137 258.053 56.1758 258.434 55.7344 258.707C55.2969 258.98 54.793 259.117 54.2227 259.117C53.3633 259.117 52.666 258.818 52.1309 258.221C51.5996 257.623 51.334 256.832 51.334 255.848V255.771ZM52.4238 255.9C52.4238 256.604 52.5859 257.168 52.9102 257.594C53.2383 258.02 53.6758 258.232 54.2227 258.232C54.7734 258.232 55.2109 258.018 55.5352 257.588C55.8594 257.154 56.0215 256.549 56.0215 255.771C56.0215 255.076 55.8555 254.514 55.5234 254.084C55.1953 253.65 54.7578 253.434 54.2109 253.434C53.6758 253.434 53.2441 253.646 52.916 254.072C52.5879 254.498 52.4238 255.107 52.4238 255.9ZM64.0781 257.506L65.2969 252.66H66.3809L64.5352 259H63.6562L62.1152 254.195L60.6152 259H59.7363L57.8965 252.66H58.9746L60.2227 257.406L61.6992 252.66H62.5723L64.0781 257.506Z" fill="black"/>
<path d="M156.098 258.432C156.098 258.244 156.152 258.088 156.262 257.963C156.375 257.838 156.543 257.775 156.766 257.775C156.988 257.775 157.156 257.838 157.27 257.963C157.387 258.088 157.445 258.244 157.445 258.432C157.445 258.611 157.387 258.762 157.27 258.883C157.156 259.004 156.988 259.064 156.766 259.064C156.543 259.064 156.375 259.004 156.262 258.883C156.152 258.762 156.098 258.611 156.098 258.432ZM159.262 258.432C159.262 258.244 159.316 258.088 159.426 257.963C159.539 257.838 159.707 257.775 159.93 257.775C160.152 257.775 160.32 257.838 160.434 257.963C160.551 258.088 160.609 258.244 160.609 258.432C160.609 258.611 160.551 258.762 160.434 258.883C160.32 259.004 160.152 259.064 159.93 259.064C159.707 259.064 159.539 259.004 159.426 258.883C159.316 258.762 159.262 258.611 159.262 258.432ZM162.426 258.432C162.426 258.244 162.48 258.088 162.59 257.963C162.703 257.838 162.871 257.775 163.094 257.775C163.316 257.775 163.484 257.838 163.598 257.963C163.715 258.088 163.773 258.244 163.773 258.432C163.773 258.611 163.715 258.762 163.598 258.883C163.484 259.004 163.316 259.064 163.094 259.064C162.871 259.064 162.703 259.004 162.59 258.883C162.48 258.762 162.426 258.611 162.426 258.432Z" fill="black"/>
<path d="M241.098 77.4316C241.098 77.2441 241.152 77.0879 241.262 76.9629C241.375 76.8379 241.543 76.7754 241.766 76.7754C241.988 76.7754 242.156 76.8379 242.27 76.9629C242.387 77.0879 242.445 77.2441 242.445 77.4316C242.445 77.6113 242.387 77.7617 242.27 77.8828C242.156 78.0039 241.988 78.0645 241.766 78.0645C241.543 78.0645 241.375 78.0039 241.262 77.8828C241.152 77.7617 241.098 77.6113 241.098 77.4316ZM244.262 77.4316C244.262 77.2441 244.316 77.0879 244.426 76.9629C244.539 76.8379 244.707 76.7754 244.93 76.7754C245.152 76.7754 245.32 76.8379 245.434 76.9629C245.551 77.0879 245.609 77.2441 245.609 77.4316C245.609 77.6113 245.551 77.7617 245.434 77.8828C245.32 78.0039 245.152 78.0645 244.93 78.0645C244.707 78.0645 244.539 78.0039 244.426 77.8828C244.316 77.7617 244.262 77.6113 244.262 77.4316ZM247.426 77.4316C247.426 77.2441 247.48 77.0879 247.59 76.9629C247.703 76.8379 247.871 76.7754 248.094 76.7754C248.316 76.7754 248.484 76.8379 248.598 76.9629C248.715 77.0879 248.773 77.2441 248.773 77.4316C248.773 77.6113 248.715 77.7617 248.598 77.8828C248.484 78.0039 248.316 78.0645 248.094 78.0645C247.871 78.0645 247.703 78.0039 247.59 77.8828C247.48 77.7617 247.426 77.6113 247.426 77.4316Z" fill="black"/>
<path d="M144.174 12.6602L144.203 13.3633C144.668 12.8164 145.295 12.543 146.084 12.543C146.971 12.543 147.574 12.8828 147.895 13.5625C148.105 13.2578 148.379 13.0117 148.715 12.8242C149.055 12.6367 149.455 12.543 149.916 12.543C151.307 12.543 152.014 13.2793 152.037 14.752V19H150.953V14.8164C150.953 14.3633 150.85 14.0254 150.643 13.8027C150.436 13.5762 150.088 13.4629 149.6 13.4629C149.197 13.4629 148.863 13.584 148.598 13.8262C148.332 14.0645 148.178 14.3867 148.135 14.793V19H147.045V14.8457C147.045 13.9238 146.594 13.4629 145.691 13.4629C144.98 13.4629 144.494 13.7656 144.232 14.3711V19H143.148V12.6602H144.174ZM157.592 19C157.529 18.875 157.479 18.6523 157.439 18.332C156.936 18.8555 156.334 19.1172 155.635 19.1172C155.01 19.1172 154.496 18.9414 154.094 18.5898C153.695 18.2344 153.496 17.7852 153.496 17.2422C153.496 16.582 153.746 16.0703 154.246 15.707C154.75 15.3398 155.457 15.1562 156.367 15.1562H157.422V14.6582C157.422 14.2793 157.309 13.9785 157.082 13.7559C156.855 13.5293 156.521 13.416 156.08 13.416C155.693 13.416 155.369 13.5137 155.107 13.709C154.846 13.9043 154.715 14.1406 154.715 14.418H153.625C153.625 14.1016 153.736 13.7969 153.959 13.5039C154.186 13.207 154.49 12.9727 154.873 12.8008C155.26 12.6289 155.684 12.543 156.145 12.543C156.875 12.543 157.447 12.7266 157.861 13.0938C158.275 13.457 158.49 13.959 158.506 14.5996V17.5176C158.506 18.0996 158.58 18.5625 158.729 18.9062V19H157.592ZM155.793 18.1738C156.133 18.1738 156.455 18.0859 156.76 17.9102C157.064 17.7344 157.285 17.5059 157.422 17.2246V15.9238H156.572C155.244 15.9238 154.58 16.3125 154.58 17.0898C154.58 17.4297 154.693 17.6953 154.92 17.8867C155.146 18.0781 155.438 18.1738 155.793 18.1738ZM161.676 11.125V12.6602H162.859V13.498H161.676V17.4297C161.676 17.6836 161.729 17.875 161.834 18.0039C161.939 18.1289 162.119 18.1914 162.373 18.1914C162.498 18.1914 162.67 18.168 162.889 18.1211V19C162.604 19.0781 162.326 19.1172 162.057 19.1172C161.572 19.1172 161.207 18.9707 160.961 18.6777C160.715 18.3848 160.592 17.9688 160.592 17.4297V13.498H159.438V12.6602H160.592V11.125H161.676ZM165.602 11.125V12.6602H166.785V13.498H165.602V17.4297C165.602 17.6836 165.654 17.875 165.76 18.0039C165.865 18.1289 166.045 18.1914 166.299 18.1914C166.424 18.1914 166.596 18.168 166.814 18.1211V19C166.529 19.0781 166.252 19.1172 165.982 19.1172C165.498 19.1172 165.133 18.9707 164.887 18.6777C164.641 18.3848 164.518 17.9688 164.518 17.4297V13.498H163.363V12.6602H164.518V11.125H165.602ZM170.688 19.1172C169.828 19.1172 169.129 18.8359 168.59 18.2734C168.051 17.707 167.781 16.9512 167.781 16.0059V15.8066C167.781 15.1777 167.9 14.6172 168.139 14.125C168.381 13.6289 168.717 13.2422 169.146 12.9648C169.58 12.6836 170.049 12.543 170.553 12.543C171.377 12.543 172.018 12.8145 172.475 13.3574C172.932 13.9004 173.16 14.6777 173.16 15.6895V16.1406H168.865C168.881 16.7656 169.062 17.2715 169.41 17.6582C169.762 18.041 170.207 18.2324 170.746 18.2324C171.129 18.2324 171.453 18.1543 171.719 17.998C171.984 17.8418 172.217 17.6348 172.416 17.377L173.078 17.8926C172.547 18.709 171.75 19.1172 170.688 19.1172ZM170.553 13.4336C170.115 13.4336 169.748 13.5938 169.451 13.9141C169.154 14.2305 168.971 14.6758 168.9 15.25H172.076V15.168C172.045 14.6172 171.896 14.1914 171.631 13.8906C171.365 13.5859 171.006 13.4336 170.553 13.4336ZM177.484 13.6328C177.32 13.6055 177.143 13.5918 176.951 13.5918C176.24 13.5918 175.758 13.8945 175.504 14.5V19H174.42V12.6602H175.475L175.492 13.3926C175.848 12.8262 176.352 12.543 177.004 12.543C177.215 12.543 177.375 12.5703 177.484 12.625V13.6328Z" fill="black"/>
<line x1="160.5" y1="30" x2="160.5" y2="45" stroke="black"/>
<line x1="75.5" y1="45" x2="75.5" y2="60" stroke="black"/>
<line x1="245.5" y1="45" x2="245.5" y2="60" stroke="black"/>
<line x1="75.5" y1="90" x2="75.5" y2="105" stroke="black"/>
<line x1="45.5" y1="105" x2="45.5" y2="120" stroke="black"/>
<line x1="45.5" y1="150" x2="45.5" y2="165" stroke="black"/>
<line x1="45.5" y1="165" x2="45.5" y2="180" stroke="black"/>
<line x1="45.5" y1="210" x2="45.5" y2="225" stroke="black"/>
<line x1="45.5" y1="225" x2="45.5" y2="240" stroke="black"/>
<line x1="160.5" y1="105" x2="160.5" y2="120" stroke="black"/>
<line x1="275.5" y1="105" x2="275.5" y2="120" stroke="black"/>
<line x1="275.5" y1="165" x2="275.5" y2="180" stroke="black"/>
<line x1="160.5" y1="165" x2="160.5" y2="180" stroke="black"/>
<line x1="160.5" y1="225" x2="160.5" y2="240" stroke="black"/>
<line x1="75" y1="44.5" x2="246" y2="44.5" stroke="black"/>
<line x1="45" y1="104.5" x2="276" y2="104.5" stroke="black"/>
<line x1="45" y1="164.5" x2="276" y2="164.5" stroke="black"/>
<line x1="45" y1="224.5" x2="161" y2="224.5" stroke="black"/>
</svg>
