<svg width="304" height="382" viewBox="0 0 304 382" fill="none" xmlns="http://www.w3.org/2000/svg">
<circle cx="30" cy="90" r="30" fill="#F1A30C" fill-opacity="0.5"/>
<path d="M9.73438 93C9.67188 92.875 9.62109 92.6523 9.58203 92.332C9.07812 92.8555 8.47656 93.1172 7.77734 93.1172C7.15234 93.1172 6.63867 92.9414 6.23633 92.5898C5.83789 92.2344 5.63867 91.7852 5.63867 91.2422C5.63867 90.582 5.88867 90.0703 6.38867 89.707C6.89258 89.3398 7.59961 89.1562 8.50977 89.1562H9.56445V88.6582C9.56445 88.2793 9.45117 87.9785 9.22461 87.7559C8.99805 87.5293 8.66406 87.416 8.22266 87.416C7.83594 87.416 7.51172 87.5137 7.25 87.709C6.98828 87.9043 6.85742 88.1406 6.85742 88.418H5.76758C5.76758 88.1016 5.87891 87.7969 6.10156 87.5039C6.32812 87.207 6.63281 86.9727 7.01562 86.8008C7.40234 86.6289 7.82617 86.543 8.28711 86.543C9.01758 86.543 9.58984 86.7266 10.0039 87.0938C10.418 87.457 10.6328 87.959 10.6484 88.5996V91.5176C10.6484 92.0996 10.7227 92.5625 10.8711 92.9062V93H9.73438ZM7.93555 92.1738C8.27539 92.1738 8.59766 92.0859 8.90234 91.9102C9.20703 91.7344 9.42773 91.5059 9.56445 91.2246V89.9238H8.71484C7.38672 89.9238 6.72266 90.3125 6.72266 91.0898C6.72266 91.4297 6.83594 91.6953 7.0625 91.8867C7.28906 92.0781 7.58008 92.1738 7.93555 92.1738ZM13.5254 93H12.4414V86.6602H13.5254V93ZM12.3535 84.9785C12.3535 84.8027 12.4062 84.6543 12.5117 84.5332C12.6211 84.4121 12.7812 84.3516 12.9922 84.3516C13.2031 84.3516 13.3633 84.4121 13.4727 84.5332C13.582 84.6543 13.6367 84.8027 13.6367 84.9785C13.6367 85.1543 13.582 85.3008 13.4727 85.418C13.3633 85.5352 13.2031 85.5938 12.9922 85.5938C12.7812 85.5938 12.6211 85.5352 12.5117 85.418C12.4062 85.3008 12.3535 85.1543 12.3535 84.9785ZM18.3301 87.6328C18.166 87.6055 17.9883 87.5918 17.7969 87.5918C17.0859 87.5918 16.6035 87.8945 16.3496 88.5V93H15.2656V86.6602H16.3203L16.3379 87.3926C16.6934 86.8262 17.1973 86.543 17.8496 86.543C18.0605 86.543 18.2207 86.5703 18.3301 86.625V87.6328ZM24.6875 89.9004C24.6875 90.8652 24.4668 91.6426 24.0254 92.2324C23.584 92.8223 22.9863 93.1172 22.2324 93.1172C21.4629 93.1172 20.8574 92.873 20.416 92.3848V95.4375H19.332V86.6602H20.3223L20.375 87.3633C20.8164 86.8164 21.4297 86.543 22.2148 86.543C22.9766 86.543 23.5781 86.8301 24.0195 87.4043C24.4648 87.9785 24.6875 88.7773 24.6875 89.8008V89.9004ZM23.6035 89.7773C23.6035 89.0625 23.4512 88.498 23.1465 88.084C22.8418 87.6699 22.4238 87.4629 21.8926 87.4629C21.2363 87.4629 20.7441 87.7539 20.416 88.3359V91.3652C20.7402 91.9434 21.2363 92.2324 21.9043 92.2324C22.4238 92.2324 22.8359 92.0273 23.1406 91.6172C23.4492 91.2031 23.6035 90.5898 23.6035 89.7773ZM27.248 93H26.1641V84H27.248V93ZM32.9023 93C32.8398 92.875 32.7891 92.6523 32.75 92.332C32.2461 92.8555 31.6445 93.1172 30.9453 93.1172C30.3203 93.1172 29.8066 92.9414 29.4043 92.5898C29.0059 92.2344 28.8066 91.7852 28.8066 91.2422C28.8066 90.582 29.0566 90.0703 29.5566 89.707C30.0605 89.3398 30.7676 89.1562 31.6777 89.1562H32.7324V88.6582C32.7324 88.2793 32.6191 87.9785 32.3926 87.7559C32.166 87.5293 31.832 87.416 31.3906 87.416C31.0039 87.416 30.6797 87.5137 30.418 87.709C30.1562 87.9043 30.0254 88.1406 30.0254 88.418H28.9355C28.9355 88.1016 29.0469 87.7969 29.2695 87.5039C29.4961 87.207 29.8008 86.9727 30.1836 86.8008C30.5703 86.6289 30.9941 86.543 31.4551 86.543C32.1855 86.543 32.7578 86.7266 33.1719 87.0938C33.5859 87.457 33.8008 87.959 33.8164 88.5996V91.5176C33.8164 92.0996 33.8906 92.5625 34.0391 92.9062V93H32.9023ZM31.1035 92.1738C31.4434 92.1738 31.7656 92.0859 32.0703 91.9102C32.375 91.7344 32.5957 91.5059 32.7324 91.2246V89.9238H31.8828C30.5547 89.9238 29.8906 90.3125 29.8906 91.0898C29.8906 91.4297 30.0039 91.6953 30.2305 91.8867C30.457 92.0781 30.748 92.1738 31.1035 92.1738ZM36.541 86.6602L36.5762 87.457C37.0605 86.8477 37.6934 86.543 38.4746 86.543C39.8145 86.543 40.4902 87.2988 40.502 88.8105V93H39.418V88.8047C39.4141 88.3477 39.3086 88.0098 39.1016 87.791C38.8984 87.5723 38.5801 87.4629 38.1465 87.4629C37.7949 87.4629 37.4863 87.5566 37.2207 87.7441C36.9551 87.9316 36.748 88.1777 36.5996 88.4824V93H35.5156V86.6602H36.541ZM44.7676 93.1172C43.9082 93.1172 43.209 92.8359 42.6699 92.2734C42.1309 91.707 41.8613 90.9512 41.8613 90.0059V89.8066C41.8613 89.1777 41.9805 88.6172 42.2188 88.125C42.4609 87.6289 42.7969 87.2422 43.2266 86.9648C43.6602 86.6836 44.1289 86.543 44.6328 86.543C45.457 86.543 46.0977 86.8145 46.5547 87.3574C47.0117 87.9004 47.2402 88.6777 47.2402 89.6895V90.1406H42.9453C42.9609 90.7656 43.1426 91.2715 43.4902 91.6582C43.8418 92.041 44.2871 92.2324 44.8262 92.2324C45.209 92.2324 45.5332 92.1543 45.7988 91.998C46.0645 91.8418 46.2969 91.6348 46.4961 91.377L47.1582 91.8926C46.627 92.709 45.8301 93.1172 44.7676 93.1172ZM44.6328 87.4336C44.1953 87.4336 43.8281 87.5938 43.5312 87.9141C43.2344 88.2305 43.0508 88.6758 42.9805 89.25H46.1562V89.168C46.125 88.6172 45.9766 88.1914 45.7109 87.8906C45.4453 87.5859 45.0859 87.4336 44.6328 87.4336ZM52.1914 91.3184C52.1914 91.0254 52.0801 90.7988 51.8574 90.6387C51.6387 90.4746 51.2539 90.334 50.7031 90.2168C50.1562 90.0996 49.7207 89.959 49.3965 89.7949C49.0762 89.6309 48.8379 89.4355 48.6816 89.209C48.5293 88.9824 48.4531 88.7129 48.4531 88.4004C48.4531 87.8809 48.6719 87.4414 49.1094 87.082C49.5508 86.7227 50.1133 86.543 50.7969 86.543C51.5156 86.543 52.0977 86.7285 52.543 87.0996C52.9922 87.4707 53.2168 87.9453 53.2168 88.5234H52.127C52.127 88.2266 52 87.9707 51.7461 87.7559C51.4961 87.541 51.1797 87.4336 50.7969 87.4336C50.4023 87.4336 50.0938 87.5195 49.8711 87.6914C49.6484 87.8633 49.5371 88.0879 49.5371 88.3652C49.5371 88.627 49.6406 88.8242 49.8477 88.957C50.0547 89.0898 50.4277 89.2168 50.9668 89.3379C51.5098 89.459 51.9492 89.6035 52.2852 89.7715C52.6211 89.9395 52.8691 90.1426 53.0293 90.3809C53.1934 90.6152 53.2754 90.9023 53.2754 91.2422C53.2754 91.8086 53.0488 92.2637 52.5957 92.6074C52.1426 92.9473 51.5547 93.1172 50.832 93.1172C50.3242 93.1172 49.875 93.0273 49.4844 92.8477C49.0938 92.668 48.7871 92.418 48.5645 92.0977C48.3457 91.7734 48.2363 91.4238 48.2363 91.0488H49.3203C49.3398 91.4121 49.4844 91.7012 49.7539 91.916C50.0273 92.127 50.3867 92.2324 50.832 92.2324C51.2422 92.2324 51.5703 92.1504 51.8164 91.9863C52.0664 91.8184 52.1914 91.5957 52.1914 91.3184Z" fill="black"/>
<circle cx="158" cy="225" r="30" fill="#F1A30C"/>
<path d="M153.998 224.9C153.998 225.869 153.775 226.648 153.33 227.238C152.885 227.824 152.287 228.117 151.537 228.117C150.736 228.117 150.117 227.834 149.68 227.268L149.627 228H148.631V219H149.715V222.357C150.152 221.814 150.756 221.543 151.525 221.543C152.295 221.543 152.898 221.834 153.336 222.416C153.777 222.998 153.998 223.795 153.998 224.807V224.9ZM152.914 224.777C152.914 224.039 152.771 223.469 152.486 223.066C152.201 222.664 151.791 222.463 151.256 222.463C150.541 222.463 150.027 222.795 149.715 223.459V226.201C150.047 226.865 150.564 227.197 151.268 227.197C151.787 227.197 152.191 226.996 152.48 226.594C152.77 226.191 152.914 225.586 152.914 224.777ZM156.547 228H155.463V221.66H156.547V228ZM155.375 219.979C155.375 219.803 155.428 219.654 155.533 219.533C155.643 219.412 155.803 219.352 156.014 219.352C156.225 219.352 156.385 219.412 156.494 219.533C156.604 219.654 156.658 219.803 156.658 219.979C156.658 220.154 156.604 220.301 156.494 220.418C156.385 220.535 156.225 220.594 156.014 220.594C155.803 220.594 155.643 220.535 155.533 220.418C155.428 220.301 155.375 220.154 155.375 219.979ZM161.352 222.633C161.188 222.605 161.01 222.592 160.818 222.592C160.107 222.592 159.625 222.895 159.371 223.5V228H158.287V221.66H159.342L159.359 222.393C159.715 221.826 160.219 221.543 160.871 221.543C161.082 221.543 161.242 221.57 161.352 221.625V222.633ZM161.973 224.777C161.973 223.805 162.203 223.023 162.664 222.434C163.125 221.84 163.729 221.543 164.475 221.543C165.217 221.543 165.805 221.797 166.238 222.305V219H167.322V228H166.326L166.273 227.32C165.84 227.852 165.236 228.117 164.463 228.117C163.729 228.117 163.129 227.816 162.664 227.215C162.203 226.613 161.973 225.828 161.973 224.859V224.777ZM163.057 224.9C163.057 225.619 163.205 226.182 163.502 226.588C163.799 226.994 164.209 227.197 164.732 227.197C165.42 227.197 165.922 226.889 166.238 226.271V223.359C165.914 222.762 165.416 222.463 164.744 222.463C164.213 222.463 163.799 222.668 163.502 223.078C163.205 223.488 163.057 224.096 163.057 224.9Z" fill="black"/>
<circle cx="163" cy="113" r="30" fill="#F1A30C" fill-opacity="0.25"/>
<path d="M152.6 112.9C152.6 113.869 152.377 114.648 151.932 115.238C151.486 115.824 150.889 116.117 150.139 116.117C149.338 116.117 148.719 115.834 148.281 115.268L148.229 116H147.232V107H148.316V110.357C148.754 109.814 149.357 109.543 150.127 109.543C150.896 109.543 151.5 109.834 151.938 110.416C152.379 110.998 152.6 111.795 152.6 112.807V112.9ZM151.516 112.777C151.516 112.039 151.373 111.469 151.088 111.066C150.803 110.664 150.393 110.463 149.857 110.463C149.143 110.463 148.629 110.795 148.316 111.459V114.201C148.648 114.865 149.166 115.197 149.869 115.197C150.389 115.197 150.793 114.996 151.082 114.594C151.371 114.191 151.516 113.586 151.516 112.777ZM157.035 110.633C156.871 110.605 156.693 110.592 156.502 110.592C155.791 110.592 155.309 110.895 155.055 111.5V116H153.971V109.66H155.025L155.043 110.393C155.398 109.826 155.902 109.543 156.555 109.543C156.766 109.543 156.926 109.57 157.035 109.625V110.633ZM157.633 112.771C157.633 112.15 157.754 111.592 157.996 111.096C158.242 110.6 158.582 110.217 159.016 109.947C159.453 109.678 159.951 109.543 160.51 109.543C161.373 109.543 162.07 109.842 162.602 110.439C163.137 111.037 163.404 111.832 163.404 112.824V112.9C163.404 113.518 163.285 114.072 163.047 114.564C162.812 115.053 162.475 115.434 162.033 115.707C161.596 115.98 161.092 116.117 160.521 116.117C159.662 116.117 158.965 115.818 158.43 115.221C157.898 114.623 157.633 113.832 157.633 112.848V112.771ZM158.723 112.9C158.723 113.604 158.885 114.168 159.209 114.594C159.537 115.02 159.975 115.232 160.521 115.232C161.072 115.232 161.51 115.018 161.834 114.588C162.158 114.154 162.32 113.549 162.32 112.771C162.32 112.076 162.154 111.514 161.822 111.084C161.494 110.65 161.057 110.434 160.51 110.434C159.975 110.434 159.543 110.646 159.215 111.072C158.887 111.498 158.723 112.107 158.723 112.9ZM170.377 114.506L171.596 109.66H172.68L170.834 116H169.955L168.414 111.195L166.914 116H166.035L164.195 109.66H165.273L166.521 114.406L167.998 109.66H168.871L170.377 114.506ZM174.812 109.66L174.848 110.457C175.332 109.848 175.965 109.543 176.746 109.543C178.086 109.543 178.762 110.299 178.773 111.811V116H177.689V111.805C177.686 111.348 177.58 111.01 177.373 110.791C177.17 110.572 176.852 110.463 176.418 110.463C176.066 110.463 175.758 110.557 175.492 110.744C175.227 110.932 175.02 111.178 174.871 111.482V116H173.787V109.66H174.812Z" fill="black"/>
<circle cx="223" cy="30" r="30" fill="#F1A30C" fill-opacity="0.1"/>
<path d="M209.576 32.2324C209.963 32.2324 210.301 32.1152 210.59 31.8809C210.879 31.6465 211.039 31.3535 211.07 31.002H212.096C212.076 31.3652 211.951 31.7109 211.721 32.0391C211.49 32.3672 211.182 32.6289 210.795 32.8242C210.412 33.0195 210.006 33.1172 209.576 33.1172C208.713 33.1172 208.025 32.8301 207.514 32.2559C207.006 31.6777 206.752 30.8887 206.752 29.8887V29.707C206.752 29.0898 206.865 28.541 207.092 28.0605C207.318 27.5801 207.643 27.207 208.064 26.9414C208.49 26.6758 208.992 26.543 209.57 26.543C210.281 26.543 210.871 26.7559 211.34 27.1816C211.812 27.6074 212.064 28.1602 212.096 28.8398H211.07C211.039 28.4297 210.883 28.0938 210.602 27.832C210.324 27.5664 209.98 27.4336 209.57 27.4336C209.02 27.4336 208.592 27.6328 208.287 28.0312C207.986 28.4258 207.836 28.998 207.836 29.748V29.9531C207.836 30.6836 207.986 31.2461 208.287 31.6406C208.588 32.0352 209.018 32.2324 209.576 32.2324ZM213.027 29.7715C213.027 29.1504 213.148 28.5918 213.391 28.0957C213.637 27.5996 213.977 27.2168 214.41 26.9473C214.848 26.6777 215.346 26.543 215.904 26.543C216.768 26.543 217.465 26.8418 217.996 27.4395C218.531 28.0371 218.799 28.832 218.799 29.8242V29.9004C218.799 30.5176 218.68 31.0723 218.441 31.5645C218.207 32.0527 217.869 32.4336 217.428 32.707C216.99 32.9805 216.486 33.1172 215.916 33.1172C215.057 33.1172 214.359 32.8184 213.824 32.2207C213.293 31.623 213.027 30.832 213.027 29.8477V29.7715ZM214.117 29.9004C214.117 30.6035 214.279 31.168 214.604 31.5938C214.932 32.0195 215.369 32.2324 215.916 32.2324C216.467 32.2324 216.904 32.0176 217.229 31.5879C217.553 31.1543 217.715 30.5488 217.715 29.7715C217.715 29.0762 217.549 28.5137 217.217 28.084C216.889 27.6504 216.451 27.4336 215.904 27.4336C215.369 27.4336 214.938 27.6465 214.609 28.0723C214.281 28.498 214.117 29.1074 214.117 29.9004ZM221.336 33H220.252V24H221.336V33ZM222.789 29.7715C222.789 29.1504 222.91 28.5918 223.152 28.0957C223.398 27.5996 223.738 27.2168 224.172 26.9473C224.609 26.6777 225.107 26.543 225.666 26.543C226.529 26.543 227.227 26.8418 227.758 27.4395C228.293 28.0371 228.561 28.832 228.561 29.8242V29.9004C228.561 30.5176 228.441 31.0723 228.203 31.5645C227.969 32.0527 227.631 32.4336 227.189 32.707C226.752 32.9805 226.248 33.1172 225.678 33.1172C224.818 33.1172 224.121 32.8184 223.586 32.2207C223.055 31.623 222.789 30.832 222.789 29.8477V29.7715ZM223.879 29.9004C223.879 30.6035 224.041 31.168 224.365 31.5938C224.693 32.0195 225.131 32.2324 225.678 32.2324C226.229 32.2324 226.666 32.0176 226.99 31.5879C227.314 31.1543 227.477 30.5488 227.477 29.7715C227.477 29.0762 227.311 28.5137 226.979 28.084C226.65 27.6504 226.213 27.4336 225.666 27.4336C225.131 27.4336 224.699 27.6465 224.371 28.0723C224.043 28.498 223.879 29.1074 223.879 29.9004ZM233.834 32.373C233.412 32.8691 232.793 33.1172 231.977 33.1172C231.301 33.1172 230.785 32.9219 230.43 32.5312C230.078 32.1367 229.9 31.5547 229.896 30.7852V26.6602H230.98V30.7559C230.98 31.7168 231.371 32.1973 232.152 32.1973C232.98 32.1973 233.531 31.8887 233.805 31.2715V26.6602H234.889V33H233.857L233.834 32.373ZM239.605 27.6328C239.441 27.6055 239.264 27.5918 239.072 27.5918C238.361 27.5918 237.879 27.8945 237.625 28.5V33H236.541V26.6602H237.596L237.613 27.3926C237.969 26.8262 238.473 26.543 239.125 26.543C239.336 26.543 239.496 26.5703 239.605 26.625V27.6328Z" fill="black"/>
<circle cx="274" cy="187" r="30" fill="#F1A30C" fill-opacity="0.8"/>
<path d="M255.918 189.232C256.305 189.232 256.643 189.115 256.932 188.881C257.221 188.646 257.381 188.354 257.412 188.002H258.438C258.418 188.365 258.293 188.711 258.062 189.039C257.832 189.367 257.523 189.629 257.137 189.824C256.754 190.02 256.348 190.117 255.918 190.117C255.055 190.117 254.367 189.83 253.855 189.256C253.348 188.678 253.094 187.889 253.094 186.889V186.707C253.094 186.09 253.207 185.541 253.434 185.061C253.66 184.58 253.984 184.207 254.406 183.941C254.832 183.676 255.334 183.543 255.912 183.543C256.623 183.543 257.213 183.756 257.682 184.182C258.154 184.607 258.406 185.16 258.438 185.84H257.412C257.381 185.43 257.225 185.094 256.943 184.832C256.666 184.566 256.322 184.434 255.912 184.434C255.361 184.434 254.934 184.633 254.629 185.031C254.328 185.426 254.178 185.998 254.178 186.748V186.953C254.178 187.684 254.328 188.246 254.629 188.641C254.93 189.035 255.359 189.232 255.918 189.232ZM260.74 184.428C261.221 183.838 261.846 183.543 262.615 183.543C263.955 183.543 264.631 184.299 264.643 185.811V190H263.559V185.805C263.555 185.348 263.449 185.01 263.242 184.791C263.039 184.572 262.721 184.463 262.287 184.463C261.936 184.463 261.627 184.557 261.361 184.744C261.096 184.932 260.889 185.178 260.74 185.482V190H259.656V181H260.74V184.428ZM267.443 190H266.359V183.66H267.443V190ZM266.271 181.979C266.271 181.803 266.324 181.654 266.43 181.533C266.539 181.412 266.699 181.352 266.91 181.352C267.121 181.352 267.281 181.412 267.391 181.533C267.5 181.654 267.555 181.803 267.555 181.979C267.555 182.154 267.5 182.301 267.391 182.418C267.281 182.535 267.121 182.594 266.91 182.594C266.699 182.594 266.539 182.535 266.43 182.418C266.324 182.301 266.271 182.154 266.271 181.979ZM272.248 184.633C272.084 184.605 271.906 184.592 271.715 184.592C271.004 184.592 270.521 184.895 270.268 185.5V190H269.184V183.66H270.238L270.256 184.393C270.611 183.826 271.115 183.543 271.768 183.543C271.979 183.543 272.139 183.57 272.248 183.625V184.633ZM278.605 186.9C278.605 187.865 278.385 188.643 277.943 189.232C277.502 189.822 276.904 190.117 276.15 190.117C275.381 190.117 274.775 189.873 274.334 189.385V192.438H273.25V183.66H274.24L274.293 184.363C274.734 183.816 275.348 183.543 276.133 183.543C276.895 183.543 277.496 183.83 277.938 184.404C278.383 184.979 278.605 185.777 278.605 186.801V186.9ZM277.521 186.777C277.521 186.062 277.369 185.498 277.064 185.084C276.76 184.67 276.342 184.463 275.811 184.463C275.154 184.463 274.662 184.754 274.334 185.336V188.365C274.658 188.943 275.154 189.232 275.822 189.232C276.342 189.232 276.754 189.027 277.059 188.617C277.367 188.203 277.521 187.59 277.521 186.777ZM281.166 190H280.082V183.66H281.166V190ZM279.994 181.979C279.994 181.803 280.047 181.654 280.152 181.533C280.262 181.412 280.422 181.352 280.633 181.352C280.844 181.352 281.004 181.412 281.113 181.533C281.223 181.654 281.277 181.803 281.277 181.979C281.277 182.154 281.223 182.301 281.113 182.418C281.004 182.535 280.844 182.594 280.633 182.594C280.422 182.594 280.262 182.535 280.152 182.418C280.047 182.301 279.994 182.154 279.994 181.979ZM283.932 183.66L283.967 184.457C284.451 183.848 285.084 183.543 285.865 183.543C287.205 183.543 287.881 184.299 287.893 185.811V190H286.809V185.805C286.805 185.348 286.699 185.01 286.492 184.791C286.289 184.572 285.971 184.463 285.537 184.463C285.186 184.463 284.877 184.557 284.611 184.744C284.346 184.932 284.139 185.178 283.99 185.482V190H282.906V183.66H283.932ZM289.27 186.777C289.27 185.789 289.498 185.004 289.955 184.422C290.412 183.836 291.018 183.543 291.771 183.543C292.545 183.543 293.148 183.816 293.582 184.363L293.635 183.66H294.625V189.848C294.625 190.668 294.381 191.314 293.893 191.787C293.408 192.26 292.756 192.496 291.936 192.496C291.479 192.496 291.031 192.398 290.594 192.203C290.156 192.008 289.822 191.74 289.592 191.4L290.154 190.75C290.619 191.324 291.188 191.611 291.859 191.611C292.387 191.611 292.797 191.463 293.09 191.166C293.387 190.869 293.535 190.451 293.535 189.912V189.367C293.102 189.867 292.51 190.117 291.76 190.117C291.018 190.117 290.416 189.818 289.955 189.221C289.498 188.623 289.27 187.809 289.27 186.777ZM290.359 186.9C290.359 187.615 290.506 188.178 290.799 188.588C291.092 188.994 291.502 189.197 292.029 189.197C292.713 189.197 293.215 188.887 293.535 188.266V185.371C293.203 184.766 292.705 184.463 292.041 184.463C291.514 184.463 291.102 184.668 290.805 185.078C290.508 185.488 290.359 186.096 290.359 186.9Z" fill="black"/>
<circle cx="36" cy="203" r="30" fill="#F1A30C" fill-opacity="0.8"/>
<path d="M27.2754 197.92C26.791 197.842 26.4004 197.803 26.1035 197.803C25.3223 197.803 24.9316 198.213 24.9316 199.033V199.66H26.2852V200.498H24.9316V206H23.8477V200.498H22.8457V199.66H23.8477V198.969C23.8516 198.293 24.041 197.775 24.416 197.416C24.791 197.057 25.3242 196.877 26.0156 196.877C26.4102 196.877 27.1914 196.996 28.3594 197.234V206H27.2754V197.92ZM31.3125 206H30.2285V199.66H31.3125V206ZM30.1406 197.979C30.1406 197.803 30.1934 197.654 30.2988 197.533C30.4082 197.412 30.5684 197.352 30.7793 197.352C30.9902 197.352 31.1504 197.412 31.2598 197.533C31.3691 197.654 31.4238 197.803 31.4238 197.979C31.4238 198.154 31.3691 198.301 31.2598 198.418C31.1504 198.535 30.9902 198.594 30.7793 198.594C30.5684 198.594 30.4082 198.535 30.2988 198.418C30.1934 198.301 30.1406 198.154 30.1406 197.979ZM32.7949 202.777C32.7949 201.789 33.0234 201.004 33.4805 200.422C33.9375 199.836 34.543 199.543 35.2969 199.543C36.0703 199.543 36.6738 199.816 37.1074 200.363L37.1602 199.66H38.1504V205.848C38.1504 206.668 37.9062 207.314 37.418 207.787C36.9336 208.26 36.2812 208.496 35.4609 208.496C35.0039 208.496 34.5566 208.398 34.1191 208.203C33.6816 208.008 33.3477 207.74 33.1172 207.4L33.6797 206.75C34.1445 207.324 34.7129 207.611 35.3848 207.611C35.9121 207.611 36.3223 207.463 36.6152 207.166C36.9121 206.869 37.0605 206.451 37.0605 205.912V205.367C36.627 205.867 36.0352 206.117 35.2852 206.117C34.543 206.117 33.9414 205.818 33.4805 205.221C33.0234 204.623 32.7949 203.809 32.7949 202.777ZM33.8848 202.9C33.8848 203.615 34.0312 204.178 34.3242 204.588C34.6172 204.994 35.0273 205.197 35.5547 205.197C36.2383 205.197 36.7402 204.887 37.0605 204.266V201.371C36.7285 200.766 36.2305 200.463 35.5664 200.463C35.0391 200.463 34.627 200.668 34.3301 201.078C34.0332 201.488 33.8848 202.096 33.8848 202.9ZM40.875 200.428C41.3555 199.838 41.9805 199.543 42.75 199.543C44.0898 199.543 44.7656 200.299 44.7773 201.811V206H43.6934V201.805C43.6895 201.348 43.584 201.01 43.377 200.791C43.1738 200.572 42.8555 200.463 42.4219 200.463C42.0703 200.463 41.7617 200.557 41.4961 200.744C41.2305 200.932 41.0234 201.178 40.875 201.482V206H39.791V197H40.875V200.428ZM47.8711 198.125V199.66H49.0547V200.498H47.8711V204.43C47.8711 204.684 47.9238 204.875 48.0293 205.004C48.1348 205.129 48.3145 205.191 48.5684 205.191C48.6934 205.191 48.8652 205.168 49.084 205.121V206C48.7988 206.078 48.5215 206.117 48.252 206.117C47.7676 206.117 47.4023 205.971 47.1562 205.678C46.9102 205.385 46.7871 204.969 46.7871 204.43V200.498H45.6328V199.66H46.7871V198.125H47.8711Z" fill="black"/>
<circle cx="213" cy="352" r="30" fill="#F1A30C" fill-opacity="0.5"/>
<path d="M202.975 353.318C202.975 353.025 202.863 352.799 202.641 352.639C202.422 352.475 202.037 352.334 201.486 352.217C200.939 352.1 200.504 351.959 200.18 351.795C199.859 351.631 199.621 351.436 199.465 351.209C199.312 350.982 199.236 350.713 199.236 350.4C199.236 349.881 199.455 349.441 199.893 349.082C200.334 348.723 200.896 348.543 201.58 348.543C202.299 348.543 202.881 348.729 203.326 349.1C203.775 349.471 204 349.945 204 350.523H202.91C202.91 350.227 202.783 349.971 202.529 349.756C202.279 349.541 201.963 349.434 201.58 349.434C201.186 349.434 200.877 349.52 200.654 349.691C200.432 349.863 200.32 350.088 200.32 350.365C200.32 350.627 200.424 350.824 200.631 350.957C200.838 351.09 201.211 351.217 201.75 351.338C202.293 351.459 202.732 351.604 203.068 351.771C203.404 351.939 203.652 352.143 203.812 352.381C203.977 352.615 204.059 352.902 204.059 353.242C204.059 353.809 203.832 354.264 203.379 354.607C202.926 354.947 202.338 355.117 201.615 355.117C201.107 355.117 200.658 355.027 200.268 354.848C199.877 354.668 199.57 354.418 199.348 354.098C199.129 353.773 199.02 353.424 199.02 353.049H200.104C200.123 353.412 200.268 353.701 200.537 353.916C200.811 354.127 201.17 354.232 201.615 354.232C202.025 354.232 202.354 354.15 202.6 353.986C202.85 353.818 202.975 353.596 202.975 353.318ZM206.49 348.66L206.52 349.363C206.984 348.816 207.611 348.543 208.4 348.543C209.287 348.543 209.891 348.883 210.211 349.562C210.422 349.258 210.695 349.012 211.031 348.824C211.371 348.637 211.771 348.543 212.232 348.543C213.623 348.543 214.33 349.279 214.354 350.752V355H213.27V350.816C213.27 350.363 213.166 350.025 212.959 349.803C212.752 349.576 212.404 349.463 211.916 349.463C211.514 349.463 211.18 349.584 210.914 349.826C210.648 350.064 210.494 350.387 210.451 350.793V355H209.361V350.846C209.361 349.924 208.91 349.463 208.008 349.463C207.297 349.463 206.811 349.766 206.549 350.371V355H205.465V348.66H206.49ZM219.908 355C219.846 354.875 219.795 354.652 219.756 354.332C219.252 354.855 218.65 355.117 217.951 355.117C217.326 355.117 216.812 354.941 216.41 354.59C216.012 354.234 215.812 353.785 215.812 353.242C215.812 352.582 216.062 352.07 216.562 351.707C217.066 351.34 217.773 351.156 218.684 351.156H219.738V350.658C219.738 350.279 219.625 349.979 219.398 349.756C219.172 349.529 218.838 349.416 218.396 349.416C218.01 349.416 217.686 349.514 217.424 349.709C217.162 349.904 217.031 350.141 217.031 350.418H215.941C215.941 350.102 216.053 349.797 216.275 349.504C216.502 349.207 216.807 348.973 217.189 348.801C217.576 348.629 218 348.543 218.461 348.543C219.191 348.543 219.764 348.727 220.178 349.094C220.592 349.457 220.807 349.959 220.822 350.6V353.518C220.822 354.1 220.896 354.562 221.045 354.906V355H219.908ZM218.109 354.174C218.449 354.174 218.771 354.086 219.076 353.91C219.381 353.734 219.602 353.506 219.738 353.225V351.924H218.889C217.561 351.924 216.896 352.312 216.896 353.09C216.896 353.43 217.01 353.695 217.236 353.887C217.463 354.078 217.754 354.174 218.109 354.174ZM223.699 355H222.615V346H223.699V355ZM226.617 355H225.533V346H226.617V355Z" fill="black"/>
<line x1="168.462" y1="252.81" x2="198.462" y2="325.81" stroke="#F1A30C" stroke-opacity="0.5"/>
<line x1="185.849" y1="215.523" x2="245.849" y2="196.523" stroke="#F1A30C" stroke-opacity="0.8"/>
<line x1="65.1303" y1="207.517" x2="128.13" y2="224.517" stroke="#F1A30C" stroke-opacity="0.8"/>
<line x1="52.3631" y1="108.656" x2="141.363" y2="202.656" stroke="#F1A30C" stroke-opacity="0.2"/>
<line x1="223.47" y1="59.1711" x2="172.47" y2="199.171" stroke="#F1A30C" stroke-opacity="0.05"/>
<line x1="30.4986" y1="119.962" x2="34.4986" y2="172.962" stroke="#F1A30C" stroke-opacity="0.5"/>
<line x1="163.498" y1="143.04" x2="158.498" y2="206.04" stroke="#F1A30C" stroke-opacity="0.25"/>
<line x1="211.39" y1="57.3123" x2="183.39" y2="92.3123" stroke="#F1A30C" stroke-opacity="0.1"/>
</svg>
